<?xml version="1.0" encoding="UTF-8"?>
<svg width="34px" height="24px" viewBox="0 0 34 24" version="1.1" xmlns="http://www.w3.org/2000/svg" xmlns:xlink="http://www.w3.org/1999/xlink">
    <!-- Generator: sketchtool 55.1 (78136) - https://sketchapp.com -->
    <title>D04B0BE0-6708-4DDA-99F8-B911028C3288</title>
    <desc>Created with sketchtool.</desc>
    <g id="Page-1" stroke="none" stroke-width="1" fill="none" fill-rule="evenodd">
        <g id="About-Us" transform="translate(-134.000000, -3039.000000)">
            <g id="Group-24" transform="translate(0.000000, 2436.000000)">
                <g id="Group-17" transform="translate(135.000000, 604.000000)">
                    <g id="binoculars">
                        <path d="M12.5217391,16 C12.5217391,19.4577828 9.71865235,22.2608696 6.26086957,22.2608696 C2.80308678,22.2608696 -4.54747351e-13,19.4577828 -4.54747351e-13,16 C-4.54747351e-13,12.5422172 2.80308678,9.73913043 6.26086957,9.73913043 C7.92135541,9.73913043 9.51383209,10.3987559 10.6879729,11.5728967 C11.8621137,12.7470375 12.5217391,14.3395142 12.5217391,16" id="Path" stroke="#ebc03f"></path>
                        <path d="M0.834782609,12.8695652 L6.69913043,1.80173913 C7.28489112,0.692847276 8.436339,-0.000699237816 9.69043478,-5.28234523e-07 L9.69043478,-5.28234523e-07 C10.6117839,0.00103523126 11.4928017,0.378047095 12.1296892,1.04382442 C12.7665768,1.70960175 13.1041598,2.60646739 13.0643478,3.52695652 L12.5217391,15.9999995" id="Path" stroke="#848484"></path>
                        <path d="M19.4782609,16 C19.4782609,19.4577828 22.2813477,22.2608696 25.7391304,22.2608696 C29.1969132,22.2608696 32,19.4577828 32,16 C32,12.5422172 29.1969132,9.73913043 25.7391304,9.73913043 C22.2813477,9.73913043 19.4782609,12.5422172 19.4782609,16" id="Path" stroke="#ebc03f"></path>
                        <path d="M31.1582609,12.8695652 L25.3078261,1.73913043 C24.7077796,0.658851375 23.5661511,-0.00798768606 22.3304348,-7.09648448e-05 L22.3304348,-7.09648448e-05 C21.4090857,0.00103523126 20.5280679,0.378047095 19.8911803,1.04382442 C19.2542927,1.70960175 18.9167098,2.60646739 18.9565217,3.52695652 L19.4782609,16" id="Path" stroke="#848484"></path>
                        <path d="M12.5217391,16 C13.1283473,14.6433755 14.5175157,13.8098744 16,13.9130435 C17.4824843,13.8098744 18.8716527,14.6433755 19.4782609,16" id="Path" stroke="#ebc03f"></path>
                        <path d="M12.946087,6.30956522 C13.5543835,5.18819718 14.7277467,4.48981485 16.0034783,4.48981485 C17.2792098,4.48981485 18.452573,5.18819718 19.0608696,6.30956522" id="Path" stroke="#848484"></path>
                    </g>
                </g>
            </g>
        </g>
    </g>
</svg>