<?xml version="1.0" encoding="UTF-8"?>
<svg width="57px" height="50px" viewBox="0 0 57 50" version="1.1" xmlns="http://www.w3.org/2000/svg" xmlns:xlink="http://www.w3.org/1999/xlink">
    <!-- Generator: sketchtool 55.1 (78136) - https://sketchapp.com -->
    <title>4A157C70-67C6-4B26-B7DB-B9D6A7D7AB7D</title>
    <desc>Created with sketchtool.</desc>
    <g id="Page-1" stroke="none" stroke-width="1" fill="none" fill-rule="evenodd">
        <g id="About-Us" transform="translate(-803.000000, -3484.000000)">
            <g id="Group-25" transform="translate(0.000000, 3236.000000)">
                <g id="Group-Copy" transform="translate(804.000000, 249.000000)">
                    <g id="briefcase">
                        <path d="M0,9.6 L55.2,9.6 L55.2,9.6 L55.2,38.4 C55.2,43.68 50.88,48 45.6,48 L9.6,48 C4.32,48 0,43.68 0,38.4 L0,9.6 L0,9.6 Z" id="Path" stroke="#FFFFFF"></path>
                        <path d="M0,24 C0,24 10.8,28.8 27.6,28.8 C44.4,28.8 55.2,24 55.2,24" id="Path" stroke="#ebc03f"></path>
                        <path d="M16.8,9.6 L18.24,3.6 C18.84,1.44 20.76,0 22.92,0 L32.28,0 C34.44,0 36.36,1.44 36.96,3.6 L38.4,9.6" id="Path" stroke="#ebc03f"></path>
                    </g>
                </g>
            </g>
        </g>
    </g>
</svg>