<?xml version="1.0" encoding="UTF-8"?>
<svg width="22px" height="26px" viewBox="0 0 22 26" version="1.1" xmlns="http://www.w3.org/2000/svg" xmlns:xlink="http://www.w3.org/1999/xlink">
    <!-- Generator: sketchtool 55.1 (78136) - https://sketchapp.com -->
    <title>C5340DC1-DE6C-4B37-B034-3E51A38D7BE6</title>
    <desc>Created with sketchtool.</desc>
    <g id="Page-1" stroke="none" stroke-width="1" fill="none" fill-rule="evenodd">
        <g id="Contact-Us" transform="translate(-134.000000, -1431.000000)">
            <g id="Group-12" transform="translate(135.000000, 1431.000000)">
                <g id="contacts">
                    <g id="Notebook_2_" stroke="#000000">
                        <path d="M12.3684211,24.7368421 L0,23.9473684 L0,1.31578947 L12.3684211,0.526315789 C14.7894737,0.368421053 16.8421053,2.31578947 16.8421053,4.73684211 L16.8421053,20.5263158 C16.8421053,22.9473684 14.7894737,24.8947368 12.3684211,24.7368421 Z" id="Path"></path>
                    </g>
                    <path d="M6.68421053,11.6842105 L7,10.8947368 C7.05263158,10.7368421 7.10526316,10.5263158 7.05263158,10.3157895 L6.57894737,8.42105263 L4.21052632,8.73684211 C4.31578947,10.7894737 5.15789474,12.7894737 6.68421053,14.3157895 C8.26315789,15.8947368 10.3157895,16.7368421 12.3684211,16.7894737 L12.6315789,14.3157895 L10.8947368,13.8947368 C10.6842105,13.8421053 10.4736842,13.8947368 10.3157895,13.9473684 L9.42105263,14.3157895 C8.84210526,13.9473684 8.42105263,13.6315789 7.89473684,13.1052632 C7.36842105,12.7368421 7.05263158,12.2631579 6.68421053,11.6842105 Z" id="Path" fill="#ebc03f" fill-rule="nonzero"></path>
                    <path d="M15.6842105,2.10526316 L16.8421053,2.10526316 C18.5789474,2.10526316 20,3.52631579 20,5.26315789 L20,20 C20,21.7368421 18.5789474,23.1578947 16.8421053,23.1578947 L16.1052632,23.1578947" id="Path" stroke="#000000"></path>
                </g>
            </g>
        </g>
    </g>
</svg>