<?xml version="1.0" encoding="UTF-8"?>
<svg width="71px" height="66px" viewBox="0 0 71 66" version="1.1" xmlns="http://www.w3.org/2000/svg" xmlns:xlink="http://www.w3.org/1999/xlink">
    <!-- Generator: sketchtool 55.1 (78136) - https://sketchapp.com -->
    <title>FBAC227F-456A-4161-A8B2-3494D092CC3A</title>
    <desc>Created with sketchtool.</desc>
    <g id="Page-1" stroke="none" stroke-width="1" fill="none" fill-rule="evenodd">
        <g id="Homepage" transform="translate(-695.000000, -3366.000000)" fill-rule="nonzero" stroke="#F6F6F6">
            <g id="Group-47" transform="translate(0.000000, 3028.000000)">
                <g id="Group-6" transform="translate(692.000000, 190.000000)">
                    <g id="Group-40" transform="translate(4.000000, 149.000000)">
                        <g id="Group-39">
                            <g id="crane">
                                <g id="Group-36">
                                    <path d="M53.3332905,25.0000313 C53.9223567,25.0000313 54.3999563,24.5224317 54.3999563,23.9333655 L54.3999563,16.0000386 L62.9332828,16.0000386 C63.522349,16.0000386 63.9999486,15.522439 63.9999486,14.9333728 L63.9999486,10.6667095 C63.9944819,10.6271096 63.9866152,10.5880429 63.9764819,10.5493763 C63.9696819,10.4721763 63.9543486,10.3959097 63.9306153,10.3221765 C63.910882,10.2679098 63.8866153,10.2155099 63.858082,10.1653766 C63.7619488,9.98351007 63.6132822,9.83484353 63.4314157,9.73871027 C63.3779491,9.70884363 63.3219491,9.68391031 63.2639492,9.66404366 C63.2330159,9.653377 63.2084825,9.63311035 63.1764826,9.62564369 L22.6431818,0.025651408 C22.5634485,0.00778475565 22.4818486,-0.000748570827 22.399982,0 L18.1333188,0 C18.0071855,0.00285142628 17.882519,0.028051406 17.7653191,0.0747180352 C17.7365191,0.0853846933 17.7098524,0.0949846856 17.6821191,0.107784675 C17.6543858,0.120584665 17.6330525,0.123784662 17.6095858,0.136584652 L0.542932897,9.73657694 C0.490266273,9.77177691 0.441066312,9.81177688 0.395733015,9.85604351 C0.360666377,9.88097682 0.327199737,9.90804347 0.295466429,9.93711011 C0.206133168,10.0280434 0.133999892,10.13431 0.0821332673,10.2507099 L0.0821332673,10.2635098 C0.0355999714,10.3807098 0.0102666584,10.5053763 0.00746666067,10.6315096 C0.00746666067,10.6444429 2.84217094e-14,10.6549762 2.84217094e-14,10.6677762 L2.84217094e-14,14.9344394 C2.84217094e-14,15.5235056 0.477599616,16.0011052 1.06666581,16.0011052 L15.9999871,16.0011052 L15.9999871,35.8250893 L12.045857,39.7792195 C11.8458571,39.9792193 11.7333239,40.2504191 11.7333239,40.5333522 L11.7333239,57.6000051 L9.59999229,57.6000051 L9.59999229,64 L30.9333085,64 L30.9333085,57.6000051 L28.7999769,57.6000051 L28.7999769,40.5333522 C28.7999769,40.2504191 28.6874436,39.9792193 28.4874438,39.7792195 L24.5333136,35.8250893 L24.5333136,16.0000386 L45.8666298,16.0000386 L45.8666298,23.9333655 C45.8666298,24.5224317 46.3442294,25.0000313 46.9332956,25.0000313 L49.0666272,25.0000313 L49.0666272,28.2000288 C49.0666272,28.789095 49.5442269,29.2666946 50.133293,29.2666946 C51.3115588,29.2666946 52.2666247,30.2217605 52.2666247,31.4000262 C52.2666247,32.5782919 51.3115588,33.5333578 50.133293,33.5333578 C48.9550273,33.5333578 47.9999614,32.5782919 47.9999614,31.4000262 L47.9999614,30.3333604 L45.8666298,30.3333604 L45.8666298,31.4000262 C45.8720965,32.9572249 46.7280958,34.3868238 48.0980947,35.1269565 C48.6224708,35.4700674 49.3008703,35.6416228 50.133293,35.6416228 C50.9657158,35.6416228 51.6441152,35.4700674 52.1684914,35.1269565 C54.2344898,34.0133574 55.0064891,31.4358928 53.8930234,29.3698945 C53.3288905,28.323362 52.3522246,27.5609626 51.1999589,27.2677629 L51.1999589,25.0000313 L53.3332905,25.0000313 Z M54.3999563,11.7333753 L61.866617,11.7333753 L61.866617,13.866707 L54.3999563,13.866707 L54.3999563,11.7333753 Z M52.2666247,18.6000365 L47.9999614,18.6000365 L47.9999614,16.0000386 L52.2666247,16.0000386 L52.2666247,18.6000365 Z M52.2666247,13.866707 L47.9999614,13.866707 L47.9999614,11.7333753 L52.2666247,11.7333753 L52.2666247,13.866707 Z M19.1999846,2.13338305 L21.3333162,2.13338305 L21.3333162,9.60004371 L19.1999846,9.60004371 L19.1999846,2.13338305 Z M18.1333188,11.7333753 L22.399982,11.7333753 L22.399982,13.4251073 L21.9583824,13.866707 L18.1333188,13.866707 L18.1333188,11.7333753 Z M22.399982,16.4416382 L22.399982,24.0917654 L18.5749184,20.2667018 L22.399982,16.4416382 Z M18.1333188,16.0000386 L19.8250507,16.0000386 L18.1333188,17.6917705 L18.1333188,16.0000386 Z M18.1333188,22.8417664 L21.9583824,26.6666967 L18.1333188,30.4917603 L18.1333188,22.8417664 Z M22.399982,29.2417613 L22.399982,36.266689 L22.399982,36.8917551 L18.5749184,33.0666915 L22.399982,29.2417613 Z M18.1333188,36.266689 L18.1333188,35.6416228 L21.9583824,39.4666864 L18.1333188,43.29175 L18.1333188,36.266689 Z M22.399982,42.041751 L22.399982,49.6918782 L18.5749184,45.8666812 L22.399982,42.041751 Z M18.1333188,48.4417458 L21.9583824,52.2666761 L18.1333188,56.0917397 L18.1333188,48.4417458 Z M22.399982,54.8417407 L22.399982,57.6000051 L19.6415842,57.6000051 L22.399982,54.8417407 Z M17.066653,2.89071577 L17.066653,9.60004371 L5.1381292,9.60004371 L17.066653,2.89071577 Z M2.13333162,13.866707 L2.13333162,11.7333753 L15.9999871,11.7333753 L15.9999871,13.866707 L2.13333162,13.866707 Z M13.8666555,40.9750852 L15.9999871,38.8417535 L15.9999871,57.6000051 L13.8666555,57.6000051 L13.8666555,40.9750852 Z M28.7999769,59.7333368 L28.7999769,61.8666684 L11.7333239,61.8666684 L11.7333239,59.7333368 L28.7999769,59.7333368 Z M26.6666452,40.9750852 L26.6666452,57.6000051 L24.5333136,57.6000051 L24.5333136,38.8417535 L26.6666452,40.9750852 Z M45.8666298,13.866707 L24.5333136,13.866707 L24.5333136,11.7333753 L45.8666298,11.7333753 L45.8666298,13.866707 Z M23.4666478,9.60004371 L23.4666478,2.41498282 L53.8015568,9.60004371 L53.3332905,9.60004371 L23.4666478,9.60004371 Z M47.9999614,22.8666997 L47.9999614,20.7333681 L52.2666247,20.7333681 L52.2666247,22.8666997 L47.9999614,22.8666997 Z" id="Shape" stroke-width="1.4" fill="#292929"></path>
                                    <g id="dump-truck" transform="translate(37.600000, 38.400041)">
                                        <path d="M8.28952381,25.6 C10.497219,25.6 12.3441981,24.026941 12.7689752,21.9428571 L18.4387048,21.9428571 C18.863421,24.026941 20.710461,25.6 22.9181562,25.6 C25.4388419,25.6 27.4895848,23.5492571 27.4895848,21.0285714 C27.4895848,19.6334933 26.860739,18.3831771 25.8724571,17.5439848 L31.207619,12.2673981 L31.207619,3.65714286 L21.2835962,3.65714286 L13.0550248,0 L5.54666667,0 L5.54666667,1.82857143 L7.91082667,1.82857143 L12.8609524,6.77869714 L12.8609524,11.5070171 L11.032381,9.67844571 L11.032381,5.48571429 L3.71809524,5.48571429 L3.71809524,9.48790857 L0,11.31648 L0,21.9428571 L3.81007238,21.9428571 C4.23484952,24.026941 6.08182857,25.6 8.28952381,25.6 Z M8.28952381,23.7714286 C6.77711238,23.7714286 5.54666667,22.5409829 5.54666667,21.0285714 C5.54666667,19.51616 6.77711238,18.2857143 8.28952381,18.2857143 C9.80193524,18.2857143 11.032381,19.51616 11.032381,21.0285714 C11.032381,22.5409829 9.80193524,23.7714286 8.28952381,23.7714286 Z M22.9180952,23.7714286 C21.4056838,23.7714286 20.1752381,22.5409829 20.1752381,21.0285714 C20.1752381,19.51616 21.4056838,18.2857143 22.9180952,18.2857143 C24.4305067,18.2857143 25.6609524,19.51616 25.6609524,21.0285714 C25.6609524,22.5409829 24.4305067,23.7714286 22.9180952,23.7714286 Z M10.4967924,1.82857143 L12.66688,1.82857143 L20.8954514,5.48571429 L29.3790476,5.48571429 L29.3790476,11.5040305 L24.1880381,16.6379886 C23.7845333,16.5210819 23.358781,16.4571429 22.9180952,16.4571429 L15.9825067,16.4571429 L14.6895238,15.16416 L14.6895238,6.02130286 L10.4967924,1.82857143 Z M9.20380952,7.31428571 L9.20380952,9.14285714 L5.54666667,9.14285714 L5.54666667,7.31428571 L9.20380952,7.31428571 Z M1.82857143,16.4571429 L3.71809524,16.4571429 L3.71809524,14.6285714 L1.82857143,14.6285714 L1.82857143,12.4549486 L4.84504381,10.9714286 L9.7393981,10.9714286 L12.8609524,14.0929829 L12.8609524,15.9215543 L15.2251124,18.2851048 L19.2634514,18.2851048 C18.863299,18.8169143 18.5762743,19.4390552 18.4387048,20.1142857 L12.7689752,20.1142857 C12.344259,18.0302019 10.497219,16.4571429 8.28952381,16.4571429 C6.08182857,16.4571429 4.23484952,18.0302019 3.81007238,20.1142857 L1.82857143,20.1142857 L1.82857143,16.4571429 Z" id="Shape" stroke-width="1.2" fill="#292929"></path>
                                        <rect id="Rectangle" fill="#ebc03f" x="16.5180952" y="7.31428571" width="1.82857143" height="5.48571429"></rect>
                                        <rect id="Rectangle" fill="#ebc03f" x="20.1752381" y="7.31428571" width="1.82857143" height="5.48571429"></rect>
                                        <rect id="Rectangle" fill="#ebc03f" x="23.832381" y="7.31428571" width="1.82857143" height="5.48571429"></rect>
                                        <rect id="Rectangle" stroke-width="0.6" fill="#ebc03f" x="22.0038095" y="20.1142857" width="1.82857143" height="1.82857143"></rect>
                                        <rect id="Rectangle" stroke-width="0.6" fill="#ebc03f" x="7.3752381" y="20.1142857" width="1.82857143" height="1.82857143"></rect>
                                    </g>
                                </g>
                            </g>
                        </g>
                    </g>
                </g>
            </g>
        </g>
    </g>
</svg>