<?xml version="1.0" encoding="UTF-8"?>
<svg width="22px" height="20px" viewBox="0 0 22 20" version="1.1" xmlns="http://www.w3.org/2000/svg" xmlns:xlink="http://www.w3.org/1999/xlink">
    <!-- Generator: sketchtool 55.1 (78136) - https://sketchapp.com -->
    <title>6340685E-4BC6-4F17-ABB1-C0D5F7E46E07</title>
    <desc>Created with sketchtool.</desc>
    <g id="Page-1" stroke="none" stroke-width="1" fill="none" fill-rule="evenodd">
        <g id="Contact-Us" transform="translate(-135.000000, -1536.000000)" fill="#000000" fill-rule="nonzero" stroke-width="0.5">
            <g id="Group-9" transform="translate(135.000000, 1532.000000)">
                <g id="fax" transform="translate(0.000000, 4.000000)">
                    <rect id="Rectangle" stroke="#ebc03f" x="5.64623047" y="6.92635547" width="5.72642969" height="1"></rect>
                    <rect id="Rectangle" stroke="#ebc03f" x="5.64623047" y="9.83203125" width="7.80190625" height="1"></rect>
                    <rect id="Rectangle" stroke="#ebc03f" x="5.64623047" y="12.737707" width="7.80190625" height="1"></rect>
                    <path d="M19.9756133,0.284847656 L2.12815625,0.284847656 C1.09722342,0.284847656 0.25,1.07617843 0.25,2.06069531 L0.25,9.52793359 C0.25,10.5354799 1.06927473,11.3556445 2.07547656,11.3556445 C2.48351095,11.3556445 2.89216663,11.2152609 3.15935105,10.9893804 L3.57075391,10.641576 L3.57075391,18.6622305 C3.57075391,18.7533976 3.69657119,18.8792148 3.78773828,18.8792148 L18.3160313,18.8792148 C18.367891,18.8792148 18.4292461,18.7922487 18.4292461,18.6622305 L18.4292461,10.7257641 L18.8131183,10.9691613 C19.2476487,11.2446788 19.5510698,11.3556445 19.9245234,11.3556445 C20.9307409,11.3556445 21.75,10.5355073 21.75,9.52793359 L21.75,2.06069531 C21.75,1.05306945 20.9823802,0.284847656 19.9756133,0.284847656 Z M18.0990898,5.37921484 L18.0990898,18.5490156 L3.90095313,18.5490156 L3.90095313,5.37921484 C3.90095313,5.00621899 4.24344151,4.766 4.62098828,4.766 L17.4828242,4.766 C17.8511156,4.766 18.0990898,5.01185114 18.0990898,5.37921484 Z M19.2594453,4.76604297 L19.2594453,4.43584375 L2.74059766,4.43584375 L2.74059766,4.76604297 L3.57079687,4.76604297 L3.57079687,9.53180078 C3.57079687,10.3556684 2.90017329,11.0254453 2.07551953,11.0254453 C1.25067341,11.0254453 0.580242187,10.3538004 0.580242187,9.52793359 L0.580242187,2.06069531 C0.580242187,1.2466762 1.28806281,0.615046875 2.12824219,0.615046875 L19.9756992,0.615046875 C20.8009445,0.615046875 21.4198867,1.23475512 21.4198867,2.06069531 L21.4198867,9.52793359 C21.4198867,10.3537893 20.7493806,11.0254453 19.9245234,11.0254453 C19.0998832,11.0254453 18.4292461,10.3556389 18.4292461,9.53180078 L18.4292461,4.76604297 L19.2594453,4.76604297 Z" id="Shape" stroke="#000000"></path>
                </g>
            </g>
        </g>
    </g>
</svg>