<?xml version="1.0" encoding="UTF-8"?>
<svg width="58px" height="51px" viewBox="0 0 58 51" version="1.1" xmlns="http://www.w3.org/2000/svg" xmlns:xlink="http://www.w3.org/1999/xlink">
    <!-- Generator: sketchtool 55.1 (78136) - https://sketchapp.com -->
    <title>48A6974B-66CD-424E-9662-CB798FAD0B35</title>
    <desc>Created with sketchtool.</desc>
    <defs>
        <path d="M40.56,0 C35.1162342,0.000699576685 30.1231564,3.02428556 27.6,7.84800493 C24.4700995,1.8909595 17.6824092,-1.1652826 11.1474571,0.440042588 C4.612505,2.04536777 0.0134903188,7.89877871 0,14.6280049 C0,22.7040049 5.016,30.0840049 11.496,36.1440049 C16.495111,40.5740159 21.8851217,44.5422204 27.6,48 C33.2720209,44.4785212 38.6567931,40.5141732 43.704,36.1440049 C50.904,29.5680049 55.2,22.7040049 55.2,14.6280049 C55.2,10.7463381 53.6571943,7.02382934 50.9113162,4.28020198 C48.1654382,1.53657463 44.4416655,-0.00317937504 40.56,0 Z" id="path-1"></path>
    </defs>
    <g id="Page-1" stroke="none" stroke-width="1" fill="none" fill-rule="evenodd">
        <g id="About-Us" transform="translate(-134.000000, -3484.000000)">
            <g id="Group-25" transform="translate(0.000000, 3236.000000)">
                <g id="Group" transform="translate(135.000000, 249.000000)">
                    <g id="heart">
                        <mask id="mask-2" fill="white">
                            <use xlink:href="#path-1"></use>
                        </mask>
                        <path stroke="#FFFFFF" d="M40.5597631,-0.499999973 C44.574047,-0.503242228 48.4250316,1.08913822 51.2647246,3.92650366 C54.1044588,6.76391018 55.7,10.6136577 55.7,14.6280049 C55.7,22.4360328 51.820315,29.4082629 44.0312908,36.5220006 C38.9641587,40.9094214 33.558133,44.8894152 27.8637308,48.4247894 L27.6033681,48.5864358 L27.3411658,48.4277907 C21.6004656,44.9543876 16.186096,40.9682509 11.1544796,36.509195 C3.72512235,29.5613702 -0.5,22.1674061 -0.499998995,14.6270026 C-0.486047942,7.66795304 4.27003692,1.61463053 11.0281772,-0.0455213333 C17.4923852,-1.63346806 24.195722,1.18913754 27.5991552,6.82880207 C30.3223186,2.30085208 35.2323486,-0.499254869 40.5597631,-0.499999973 Z M40.5597631,-0.499999973 C40.5598207,-0.499999981 40.5598782,-0.499999988 40.5599357,-0.499999996 L40.5595905,-0.499999832 C40.559648,-0.499999879 40.5597056,-0.499999926 40.5597631,-0.499999973 Z"></path>
                        <g id="Group-11-Copy" mask="url(#mask-2)" fill="#ebc03f">
                            <g transform="translate(28.200000, 39.771429) scale(-1, 1) translate(-28.200000, -39.771429) translate(7.200000, -4.800000)">
                                <rect id="Rectangle-Copy-7" x="40.8" y="0" width="1.2" height="88.8"></rect>
                                <rect id="Rectangle-Copy-9" x="27.6" y="0" width="1.2" height="88.8"></rect>
                                <rect id="Rectangle-Copy-11" x="13.2" y="0" width="1.2" height="88.8"></rect>
                                <rect id="Rectangle-Copy-13" x="0" y="0" width="1.2" height="88.8"></rect>
                            </g>
                        </g>
                    </g>
                </g>
            </g>
        </g>
    </g>
</svg>