<?xml version="1.0" encoding="UTF-8"?>
<svg width="36px" height="58px" viewBox="0 0 36 58" version="1.1" xmlns="http://www.w3.org/2000/svg" xmlns:xlink="http://www.w3.org/1999/xlink">
    <!-- Generator: sketchtool 55.1 (78136) - https://sketchapp.com -->
    <title>B71FF438-B311-4690-9050-98EF0D9AE45A</title>
    <desc>Created with sketchtool.</desc>
    <g id="Page-1" stroke="none" stroke-width="1" fill="none" fill-rule="evenodd">
        <g id="About-Us" transform="translate(-804.000000, -3764.000000)">
            <g id="Group-25" transform="translate(0.000000, 3236.000000)">
                <g id="Group-Copy-3" transform="translate(804.000000, 529.000000)">
                    <g id="microscope">
                        <path d="M9.86086957,26.173913 L6.93913043,24.4695652 C4.74782609,23.2521739 3.89565217,20.4521739 4.86956522,18.2608696 L13.1478261,0 L28,8.52173913 L16.3130435,24.8347826 C14.8521739,26.9043478 12.0521739,27.3913043 9.86086957,26.173913 Z" id="Path" stroke="#FFFFFF"></path>
                        <path d="M8.52173913,51.1304348 L30.4347826,51.1304348 C33.1130435,51.1304348 35.3043478,53.3217391 35.3043478,56 L35.3043478,56 L35.3043478,56 L3.65217391,56 L3.65217391,56 L3.65217391,56 C3.65217391,53.3217391 5.84347826,51.1304348 8.52173913,51.1304348 Z" id="Path" stroke="#FFFFFF"></path>
                        <path d="M22.0347826,16.9217391 L26.5391304,19.4782609 C31.4086957,22.2782609 33.1130435,28.6086957 30.3130435,33.4782609 L29.9478261,34.0869565 C28.6086957,36.4 26.5391304,38.226087 24.1043478,39.2 C21.3043478,40.2956522 19.4782609,42.973913 19.4782609,46.0173913 L19.4782609,51.1304348" id="Path" stroke="#FFFFFF"></path>
                        <path d="M0,28 L8.52173913,32.8695652" id="Path" stroke="#ebc03f"></path>
                    </g>
                </g>
            </g>
        </g>
    </g>
</svg>