<?xml version="1.0" encoding="UTF-8"?>
<svg width="45px" height="30px" viewBox="0 0 45 30" version="1.1" xmlns="http://www.w3.org/2000/svg" xmlns:xlink="http://www.w3.org/1999/xlink">
    <!-- Generator: sketchtool 55.1 (78136) - https://sketchapp.com -->
    <title>C1A17B6D-87F3-45F9-A54E-F1AB0541BFE8</title>
    <desc>Created with sketchtool.</desc>
    <g id="Page-1" stroke="none" stroke-width="1" fill="none" fill-rule="evenodd">
        <g id="About-Us" transform="translate(-135.000000, -2845.000000)">
            <g id="Group-24" transform="translate(0.000000, 2436.000000)">
                <g id="Group" transform="translate(135.000000, 408.000000)">
                    <g id="Group-8">
                        <g id="Group-193" style="mix-blend-mode: normal;" transform="translate(0.000000, 0.058076)">
                            <path d="M14.7801341,20.4277623 C14.591697,20.5136481 14.4004939,20.5935178 14.2070088,20.6668872 C14.3018842,20.8654896 14.4022227,21.0605652 14.5079549,21.2521832 C14.7089084,21.1552332 14.9074415,21.0517138 15.1032778,20.9421783 C14.9900772,20.7743482 14.8827545,20.6027149 14.7801341,20.4277623" id="Fill-1" fill="#E1DD1C"></path>
                            <path d="M2.03388969,13.6889269 L0.310641138,12.3004394 C0.310641138,12.3004394 1.92110404,9.72704571 4.86044606,10.0030974 C4.86044606,10.0030974 7.34504961,10.1330326 8.1082717,12.1304657 C8.1082717,12.1304657 8.97044918,14.7952082 6.98968146,16.5577347 C6.98968146,16.5577347 3.8506307,19.3107141 2.59166348,19.9989763 L4.08560657,19.3610562 L8.45008621,19.3610562 L8.45008621,21.5097231 L0.157609475,21.5097231 L0.157609475,19.4785442 L4.75706498,15.7687883 C5.7283631,14.9853741 6.44753585,13.4101783 5.2602093,12.4398483 C4.95698117,12.1920103 4.5555583,12.069336 4.09266,12.1516952 C3.26049414,12.2997479 2.488559,13.1702927 2.03388969,13.6889269" id="Fill-3" fill="#9B9C9E"></path>
                            <path d="M23.7251564,12.2041671 L23.7228744,10.1395881 L31.2898856,10.1395881 L31.2898856,11.9836438 L28.4472862,14.7682946 C28.4472862,14.7682946 30.8256043,15.006728 31.4041926,17.2325677 C32.0560812,19.7408901 29.8345981,21.8513855 27.1793984,21.6630176 C27.1793984,21.6630176 24.8963016,21.7717233 23.1023113,19.6788614 L24.678821,18.1295974 C24.678821,18.1295974 25.8475458,19.651685 27.5328304,19.4342735 C27.5328304,19.4342735 29.0060972,19.4342044 29.080089,18.139486 C29.1772465,16.4332486 27.1505624,16.3699753 25.8475458,16.5259113 L25.4670066,15.0037545 L29.1092709,11.3615594 L27.6686434,12.2041671 L23.7251564,12.2041671 Z" id="Fill-5" fill="#9B9C9E"></path>
                            <path d="M38.3162034,12.1261299 C36.4330772,12.1261299 34.8971593,13.7670194 34.8971593,15.7786286 C34.8971593,17.7903069 36.4330772,19.4311272 38.3162034,19.4311272 C40.1993296,19.4311272 41.7351783,17.7903069 41.7351783,15.7786286 C41.7351783,13.7670194 40.1993296,12.1261299 38.3162034,12.1261299 M38.3162034,9.87283724 C41.5889926,9.87283724 44.2583683,12.5259623 44.2583683,15.7786286 C44.2583683,19.0312948 41.5889926,21.6844199 38.3162034,21.6844199 C35.043345,21.6844199 32.3739694,19.0312948 32.3739694,15.7786286 C32.3739694,12.5259623 35.043345,9.87283724 38.3162034,9.87283724" id="Fill-7" fill="#9B9C9E"></path>
                            <path d="M16.2154646,10.8622668 C16.3560491,10.7251399 16.5023731,10.5924387 16.6542983,10.4643015 C16.5139905,10.3024876 16.3677356,10.1454452 16.2153955,9.99345081 C16.0631936,10.1453761 15.9169388,10.3024876 15.7768384,10.4643015 C15.928487,10.5925079 16.0748802,10.7252091 16.2154646,10.8622668" id="Fill-9" fill="#E1DD1C"></path>
                            <path d="M16.2297098,9.19433233 C16.4226417,8.99780454 16.624425,8.80950575 16.8336766,8.62943596 C16.6415053,8.39342283 16.4397912,8.16695256 16.2297098,7.9492645 C16.0196284,8.16688341 15.8177759,8.39342283 15.625743,8.62943596 C15.8349946,8.80950575 16.0367779,8.99780454 16.2297098,9.19433233" id="Fill-11" fill="#8CC63F"></path>
                            <path d="M17.0515237,10.1489443 C17.2388544,10.008913 17.4331002,9.87545116 17.6338462,9.74904272 C17.5014907,9.53723251 17.3623585,9.3305395 17.216726,9.12924028 C17.0097564,9.28358582 16.8099785,9.44546884 16.6182221,9.61495849 C16.7689718,9.78790571 16.9133596,9.96597011 17.0515237,10.1489443" id="Fill-13" fill="#9B9C9E"></path>
                            <path d="M18.2291207,12.0518477 C18.1610759,11.8966723 18.0884671,11.7437098 18.0124699,11.592891 C18.1897736,11.527958 18.3694285,11.4688337 18.5512271,11.4155873 C18.6210698,11.5850769 18.6870401,11.7566411 18.7489304,11.9304873 C18.5734938,11.9651321 18.4002008,12.0055164 18.2291207,12.0518477" id="Fill-15" fill="#55C5CF"></path>
                            <path d="M17.4674752,12.3026938 C17.3891269,12.1764236 17.3068369,12.0520897 17.2205362,11.9302453 C17.3637484,11.8602642 17.5091043,11.7939482 17.6562581,11.7322653 C17.7374416,11.8701529 17.8142686,12.0105298 17.8872923,12.1528431 C17.745394,12.1984137 17.6055702,12.2486867 17.4674752,12.3026938" id="Fill-17" fill="#8CC63F"></path>
                            <path d="M17.7562369,11.119862 C17.6525792,10.9406221 17.543182,10.7646322 17.4281144,10.5926531 C17.6207005,10.4859528 17.8155687,10.3851994 18.0128571,10.2905314 C18.120249,10.4860911 18.2219013,10.6855232 18.3178832,10.8883437 C18.1282705,10.9595004 17.9413548,11.0369497 17.7562369,11.119862" id="Fill-19" fill="#8CC63F"></path>
                            <path d="M16.9263531,11.5426665 C16.8105939,11.3998 16.6892335,11.2606678 16.5625485,11.1251314 C16.7184845,11.0192608 16.876495,10.9176085 17.0366493,10.8202436 C17.1575256,10.9755573 17.2726624,11.13502 17.3821288,11.297802 C17.2281982,11.3751131 17.0761346,11.4567807 16.9263531,11.5426665" id="Fill-21" fill="#55C5CF"></path>
                            <path d="M15.3975993,10.1626846 C15.5348644,9.97991792 15.6788373,9.80219927 15.8287571,9.6294595 C15.6376923,9.45976239 15.4389517,9.29739532 15.2327427,9.14304978 C15.0879401,9.34393409 14.9494993,9.5503505 14.8176279,9.7618841 C15.0176824,9.88856915 15.2109601,10.0225151 15.3975993,10.1626846" id="Fill-23" fill="#034594"></path>
                            <path d="M16.2154646,20.6803925 C16.3560491,20.8175194 16.5023731,20.9502206 16.6542983,21.0783578 C16.5139905,21.2401716 16.3677356,21.3972141 16.2153955,21.5492085 C16.0631936,21.3972832 15.9169388,21.2402408 15.7768384,21.0783578 C15.928487,20.9501514 16.0748802,20.8174502 16.2154646,20.6803925" id="Fill-25" fill="#00B9F0"></path>
                            <path d="M16.2297098,22.348327 C16.4226417,22.5449239 16.624425,22.7331535 16.8336766,22.9132925 C16.6415053,23.1491673 16.4397912,23.3757067 16.2297098,23.5933948 C16.0196284,23.3757759 15.8177759,23.1491673 15.625743,22.9132233 C15.8349946,22.7331535 16.0367779,22.5449239 16.2297098,22.348327" id="Fill-27" fill="#E1DD1C"></path>
                            <path d="M17.0515237,21.393715 C17.2388544,21.5337463 17.4331002,21.6672081 17.6338462,21.7935474 C17.5014907,22.0054268 17.3623585,22.2121198 17.216726,22.413419 C17.0097564,22.2591426 16.8099785,22.0972596 16.6182221,21.9277008 C16.7689718,21.7548227 16.9133596,21.5766892 17.0515237,21.393715" id="Fill-29" fill="#55C5CF"></path>
                            <path d="M15.3975993,21.3800093 C15.5348644,21.5627759 15.6788373,21.7404946 15.8287571,21.9132344 C15.6376923,22.0828623 15.4389517,22.2452294 15.2327427,22.3995749 C15.0879401,22.1987598 14.9494993,21.9922742 14.8176279,21.7808098 C15.0176824,21.6541247 15.2109601,21.5201788 15.3975993,21.3800093" id="Fill-31" fill="#8CC63F"></path>
                            <path d="M19.0718321,11.7468839 C19.2659396,11.7167339 19.4621216,11.6935683 19.6601707,11.6773177 C19.6397711,11.4641245 19.6117649,11.2513462 19.5758754,11.0391902 C19.3637194,11.0745957 19.1534997,11.117746 18.9454928,11.1682264 C18.9946593,11.3606743 19.0368416,11.5536754 19.0718321,11.7468839" id="Fill-33" fill="#E1DD1C"></path>
                            <path d="M20.0511587,10.3966094 C20.3223006,10.3484801 20.5958629,10.3121757 20.8708773,10.2868664 C20.8511692,9.98315419 20.8183224,9.681724 20.7734432,9.38243749 C20.4761621,9.43789678 20.180264,9.50531922 19.8869245,9.58608785 C19.9529639,9.85418716 20.0080083,10.1245685 20.0511587,10.3966094" id="Fill-35" fill="#00B9F0"></path>
                            <path d="M20.1667035,11.6509227 C20.4005038,11.6455981 20.6361711,11.6495397 20.8730141,11.6630933 C20.888089,11.413734 20.8946584,11.1647204 20.8927913,10.9161909 C20.634719,10.9218613 20.3780988,10.9377661 20.1234839,10.964666 C20.1460272,11.192865 20.1603415,11.4217556 20.1667035,11.6509227" id="Fill-37" fill="#55C5CF"></path>
                            <path d="M20.1773735,12.8505997 C20.1969433,12.6444599 20.2099437,12.4376286 20.216029,12.2308664 C20.4347544,12.2556225 20.6518892,12.2866714 20.8675719,12.3240131 C20.8415019,12.5455736 20.808655,12.767065 20.7691697,12.9878649 C20.5735409,12.935794 20.3761833,12.8904308 20.1773735,12.8505997" id="Fill-39" fill="#9B9C9E"></path>
                            <path d="M19.256127,12.7134797 C19.2447171,12.5299524 19.2265995,12.3462176 19.2019816,12.1624136 C19.3904879,12.1665627 19.5781643,12.1754832 19.76508,12.1890368 C19.7734473,12.3857029 19.7746921,12.582369 19.7693674,12.778551 C19.5991863,12.7522044 19.4278987,12.7304909 19.256127,12.7134797" id="Fill-41" fill="#8CC63F"></path>
                            <path d="M18.4452874,12.7139845 C18.4050414,12.5710489 18.3604389,12.4288049 18.3113415,12.2877364 C18.4685222,12.260145 18.6263945,12.2366336 18.7851657,12.2183777 C18.8247893,12.3733456 18.8595724,12.5295582 18.8901372,12.6864623 C18.741393,12.690888 18.5930636,12.7004309 18.4452874,12.7139845" id="Fill-43" fill="#9B9C9E"></path>
                            <path d="M18.8115676,10.7025551 C19.029394,10.6334039 19.2497789,10.5720668 19.4721001,10.5184054 C19.4149121,10.2693227 19.3472822,10.0217613 19.2688647,9.77641277 C19.034442,9.85600583 18.8018865,9.94382789 18.571682,10.0396023 C18.6611637,10.2588809 18.7409642,10.4800957 18.8115676,10.7025551" id="Fill-45" fill="#034594"></path>
                            <path d="M13.3757004,19.7436769 C13.4106909,19.9369546 13.4528731,20.1299556 13.5022471,20.3224035 C13.2940328,20.3728147 13.0838131,20.4159651 12.8715879,20.4513014 C12.8357676,20.2392837 12.8077614,20.0265054 12.7875692,19.8133813 C12.9854109,19.7969925 13.181662,19.7738268 13.3757004,19.7436769" id="Fill-47" fill="#E1DD1C"></path>
                            <path d="M13.2645121,18.8291796 C13.2758529,19.0127069 13.2940397,19.1964417 13.3185884,19.3803148 C13.1301513,19.3760275 12.9424749,19.3671761 12.7554899,19.3535533 C12.7471918,19.1568872 12.7459471,18.9602903 12.7512026,18.7641774 C12.9214529,18.7904549 13.0926713,18.8121684 13.2645121,18.8291796" id="Fill-49" fill="#00B9F0"></path>
                            <path d="M12.4196778,21.1104924 C12.462759,21.3825333 12.5178034,21.6529146 12.5838428,21.921083 C12.290365,22.0017825 11.9946743,22.069205 11.6972549,22.1245951 C11.6524449,21.825516 11.6194598,21.5238784 11.5999591,21.2202354 C11.8749736,21.1949952 12.1484667,21.1586216 12.4196778,21.1104924" id="Fill-51" fill="#00B9F0"></path>
                            <path d="M13.6428523,20.8097813 C13.7142164,21.0325866 13.7949159,21.2538705 13.8851582,21.4733565 C13.6544006,21.5690618 13.4211535,21.6566764 13.1857627,21.7361312 C13.106792,21.4904369 13.0379174,21.242668 12.9801761,20.9933087 C13.2031888,20.9399239 13.424127,20.878656 13.6428523,20.8097813" id="Fill-53" fill="#55C5CF"></path>
                            <path d="M15.7059791,19.9430952 C15.560485,20.0300183 15.4127088,20.1124465 15.2632038,20.1912098 C15.3699733,20.3469383 15.4820675,20.4993476 15.5992097,20.6481611 C15.7544542,20.5506579 15.9076933,20.4491439 16.058927,20.3434808 C15.9361836,20.2134765 15.818419,20.0800146 15.7059791,19.9430952" id="Fill-55" fill="#9B9C9E"></path>
                            <path d="M15.231173,19.2968286 C15.0940461,19.3542932 14.954983,19.4077471 14.8138453,19.4569137 C14.8899808,19.5970832 14.9698505,19.7353856 15.0539384,19.8710604 C15.2000549,19.8057816 15.3440969,19.7360772 15.4862027,19.6625003 C15.3969976,19.5430761 15.3122874,19.4210242 15.231173,19.2968286" id="Fill-57" fill="#9B9C9E"></path>
                            <path d="M14.3494949,19.6019307 C14.1722603,19.6511664 13.9927437,19.6941093 13.8109451,19.7308977 C13.8765005,19.9076483 13.9462049,20.0821168 14.0201967,20.2543725 C14.2087721,20.1980143 14.3949964,20.1348792 14.578662,20.0657971 C14.4981008,19.9135953 14.4216196,19.7588348 14.3494949,19.6019307" id="Fill-59" fill="#034594"></path>
                            <path d="M14.0849776,18.8354585 C13.9366482,18.8441716 13.7876965,18.8484589 13.638399,18.8483206 C13.66357,19.0057088 13.6929593,19.162613 13.7276732,19.3186181 C13.8870668,19.3055485 14.0460455,19.2872926 14.2042635,19.2649568 C14.1598684,19.122851 14.120383,18.9796388 14.0849776,18.8354585" id="Fill-61" fill="#8CC63F"></path>
                            <path d="M12.3036904,19.8390295 C12.3094991,20.0675743 12.323606,20.2958425 12.3454578,20.5234192 C12.0914653,20.5508031 11.8353292,20.5677451 11.5778791,20.5738996 C11.576427,20.326269 11.5834112,20.0778087 11.5987628,19.8289334 C11.8351909,19.8418647 12.070305,19.8449765 12.3036904,19.8390295" id="Fill-63" fill="#8CC63F"></path>
                            <path d="M20.9028183,14.1750462 C21.077356,14.2650119 21.2496117,14.3618237 21.4191705,14.465343 C21.5282911,14.281055 21.6309807,14.0925488 21.7269626,13.8999626 C21.534653,13.8037041 21.3393008,13.7146373 21.1415283,13.6330389 C21.0679514,13.8174652 20.9883583,13.9982957 20.9028183,14.1750462" id="Fill-65" fill="#E1DD1C"></path>
                            <path d="M19.1685677,13.5283716 C19.313163,13.5627398 19.4571358,13.6013953 19.6000714,13.6448223 C19.6210934,13.4867426 19.6380354,13.3279022 19.6499294,13.1687161 C19.4935094,13.1353852 19.3359137,13.106964 19.177834,13.0826919 C19.1794936,13.231782 19.1761052,13.3802497 19.1685677,13.5283716" id="Fill-67" fill="#8CC63F"></path>
                            <path d="M20.0608191,13.8011594 C20.2330057,13.8657466 20.4033943,13.9368341 20.571985,14.014076 C20.6230877,13.8326923 20.6694882,13.6506171 20.7111864,13.4678504 C20.5255845,13.4023642 20.3379081,13.3436548 20.1487795,13.2913074 C20.1242308,13.4617651 20.0948415,13.6318771 20.0608191,13.8011594" id="Fill-69" fill="#00B9F0"></path>
                            <path d="M22.4895485,13.6606648 C22.7370407,13.781472 22.9794849,13.9132742 23.2166045,14.0548268 C23.3795247,13.7977917 23.5306202,13.5348096 23.6705131,13.2665028 C23.3976424,13.1362219 23.1188938,13.016452 22.8341982,12.9089218 C22.7296415,13.1645048 22.6148505,13.4154546 22.4895485,13.6606648" id="Fill-71" fill="#034594"></path>
                            <path d="M21.8440978,14.7423698 C22.0361999,14.8757625 22.2242913,15.0177991 22.4076803,15.168203 C22.5667281,14.9756169 22.7187225,14.7781901 22.8636635,14.5763377 C22.6517842,14.4288381 22.4349951,14.2906048 22.2134345,14.1623293 C22.0971913,14.3600326 21.9739638,14.5534486 21.8440978,14.7423698" id="Fill-73" fill="#8CC63F"></path>
                            <path d="M21.3076019,13.1777887 C21.524391,13.25019 21.7385523,13.3304746 21.9498785,13.4180201 C22.0503552,13.1831134 22.1414274,12.9431586 22.2226109,12.698709 C21.986252,12.6249247 21.746643,12.5589544 21.504268,12.5007291 C21.4473565,12.7306569 21.3815245,12.9564356 21.3076019,13.1777887" id="Fill-75" fill="#55C5CF"></path>
                            <path d="M11.5893859,17.2824603 C11.5038458,17.45928 11.4242528,17.6400413 11.3508142,17.824675 C11.1529034,17.7428 10.9576203,17.6537332 10.7652416,17.5574055 C10.8612235,17.3648885 10.9639131,17.1764514 11.0731029,16.9923709 C11.2426617,17.0956828 11.4149174,17.1924945 11.5893859,17.2824603" id="Fill-77" fill="#55C5CF"></path>
                            <path d="M12.5879296,15.7240267 C12.4929158,15.8383337 12.401083,15.9556834 12.3127769,16.0762139 C12.2010285,15.9624602 12.0921845,15.8455946 11.9870746,15.7254789 C12.0921845,15.6048792 12.2010977,15.4875296 12.312846,15.3732226 C12.401083,15.4934074 12.4929158,15.6101347 12.5879296,15.7240267" id="Fill-79" fill="#8CC63F"></path>
                            <path d="M12.0382603,16.4778996 C11.9393049,16.6328675 11.8457433,16.7920536 11.7573681,16.9551122 C11.6075174,16.8407361 11.4611242,16.7230407 11.3180503,16.6018877 C11.4271018,16.4380685 11.541962,16.2783983 11.6617319,16.1230155 C11.7837838,16.2445833 11.9093625,16.3630394 12.0382603,16.4778996" id="Fill-81" fill="#E1DD1C"></path>
                            <path d="M10.0117422,17.8239213 C9.886371,18.0691315 9.77164912,18.3200813 9.66702331,18.5755951 C9.38232772,18.4679267 9.10364827,18.3483642 8.83070838,18.2178758 C8.97060132,17.9497765 9.12162759,17.6866561 9.28468618,17.4297593 C9.52180574,17.5713119 9.76424994,17.7031141 10.0117422,17.8239213" id="Fill-83" fill="#55C5CF"></path>
                            <path d="M11.1773829,18.3013621 C11.1038751,18.5234067 11.0387347,18.7498078 10.9823764,18.9802888 C10.7395173,18.921856 10.4994243,18.8551943 10.2623739,18.7807875 C10.3432808,18.5356465 10.4335923,18.2948619 10.5337233,18.0593328 C10.7454643,18.1475006 10.9600406,18.2282001 11.1773829,18.3013621" id="Fill-85" fill="#E1DD1C"></path>
                            <path d="M13.3520714,18.0142185 C13.2074762,17.9799195 13.0635033,17.9411949 12.9205678,17.897837 C12.8995458,18.0559167 12.8826037,18.214688 12.8707097,18.3738741 C13.0271989,18.407205 13.1847254,18.4356953 13.3428051,18.4598982 C13.3410764,18.3108773 13.3445339,18.1623405 13.3520714,18.0142185" id="Fill-87" fill="#9B9C9E"></path>
                            <path d="M12.3214208,18.6625113 C12.1186002,18.6208823 11.9170244,18.5728222 11.7175231,18.5181235 C11.677208,18.7345669 11.6433239,18.951356 11.61594,19.1684217 C11.8354951,19.2083911 12.056779,19.241722 12.2796534,19.2685526 C12.2870526,19.0662161 12.3013669,18.8643637 12.3214208,18.6625113" id="Fill-89" fill="#9B9C9E"></path>
                            <path d="M12.4598546,17.7414654 C12.2876681,17.6768781 12.1172795,17.6057907 11.9486196,17.5285487 C11.8975169,17.7099324 11.8511855,17.8920076 11.8094182,18.0747743 C11.9950892,18.1402605 12.1827657,18.1989699 12.3718943,18.2513174 C12.396443,18.0808596 12.4258322,17.9106784 12.4598546,17.7414654" id="Fill-91" fill="#8CC63F"></path>
                            <path d="M12.697562,16.966211 C12.5725366,16.8859955 12.4496548,16.8016311 12.3291242,16.7135324 C12.2567229,16.8556382 12.1881249,16.9997493 12.12416,17.1462808 C12.2607337,17.2295388 12.4000042,17.3084404 12.5410036,17.3836078 C12.5887871,17.2426084 12.641342,17.1036145 12.697562,16.966211" id="Fill-93" fill="#034594"></path>
                            <path d="M10.6669224,16.7280334 C10.5370564,16.9161939 10.4139672,17.1089875 10.2975857,17.3057919 C10.0761635,17.1783462 9.85923606,17.041081 9.64756416,16.8943421 C9.79229767,16.6935269 9.94422292,16.4967917 10.1032016,16.3047587 C10.2866598,16.4544712 10.4749586,16.5954013 10.6669224,16.7280334" id="Fill-95" fill="#00B9F0"></path>
                            <path d="M20.9507677,17.2206667 C21.0386589,17.3963108 21.1206031,17.5760349 21.1965312,17.7596314 C21.3933356,17.6751977 21.5874431,17.5835724 21.7785079,17.4846861 C21.6799674,17.293483 21.5747884,17.1064289 21.4632475,16.9237314 C21.2950025,17.0292561 21.1240607,17.128419 20.9507677,17.2206667" id="Fill-97" fill="#034594"></path>
                            <path d="M20.4022533,15.0261941 C20.5294224,15.1382191 20.6529956,15.2537708 20.7736645,15.3720885 C20.8893545,15.2229293 21.0003422,15.0696902 21.1062819,14.9127169 C20.9661124,14.7946066 20.8226927,14.6796773 20.6758847,14.5678597 C20.5895148,14.7244181 20.4983735,14.8773115 20.4022533,15.0261941" id="Fill-99" fill="#9B9C9E"></path>
                            <path d="M19.9317691,15.6755033 C20.0283042,15.7885656 20.1217275,15.9046705 20.2115549,16.0240255 C20.321782,15.9088196 20.4291047,15.790571 20.5326241,15.6690723 C20.4259237,15.5498556 20.3154892,15.4339581 20.2021504,15.3211033 C20.115573,15.4424637 20.0252615,15.5604357 19.9317691,15.6755033" id="Fill-101" fill="#55C5CF"></path>
                            <path d="M21.1464035,15.7599508 C21.285674,15.9131899 21.420104,16.0709239 21.5489327,16.2327377 C21.7091561,16.0817806 21.8643315,15.9267436 22.0145279,15.7675574 C21.8608048,15.6058127 21.7017569,15.4483554 21.5376611,15.2952546 C21.4122899,15.4542332 21.2816632,15.6088554 21.1464035,15.7599508" id="Fill-103" fill="#E1DD1C"></path>
                            <path d="M20.4913615,16.4220531 C20.5923223,16.5758454 20.6879585,16.7337176 20.7785466,16.8956007 C20.9268068,16.7792191 21.0716786,16.6596567 21.213162,16.5365675 C21.1018977,16.3742696 20.984963,16.2160516 20.8631185,16.0622592 C20.7427263,16.1854176 20.618669,16.3054641 20.4913615,16.4220531" id="Fill-105" fill="#034594"></path>
                            <path d="M22.5354718,17.7412579 C22.6640239,17.9847394 22.7820651,18.2341679 22.8900793,18.4882986 C23.1733227,18.376896 23.4503425,18.2535993 23.7216228,18.1196534 C23.578134,17.853352 23.4236501,17.592237 23.2572723,17.3374839 C23.0220198,17.4821483 22.7813735,17.6171315 22.5354718,17.7412579" id="Fill-107" fill="#00B9F0"></path>
                            <path d="M19.7901543,14.6065983 C19.9188447,14.6807975 20.0457372,14.7589384 20.1704169,14.8412975 C20.2357648,14.6958033 20.2972402,14.5484421 20.3540134,14.3992137 C20.2135672,14.3226633 20.0707008,14.2504003 19.9260364,14.182148 C19.8852372,14.3254294 19.8395283,14.4668436 19.7901543,14.6065983" id="Fill-109" fill="#8CC63F"></path>
                            <path d="M21.3762137,18.2340295 C21.4526258,18.4550369 21.5207398,18.6806082 21.5802098,18.9103285 C21.8222391,18.8486456 22.0614332,18.7788721 22.2974464,18.7012844 C22.2133585,18.4572497 22.119866,18.217779 22.0166232,17.9834947 C21.8061269,18.0744977 21.5925188,18.1579632 21.3762137,18.2340295" id="Fill-111" fill="#55C5CF"></path>
                            <path d="M21.8658736,16.65409 C21.998229,16.8404525 22.1238076,17.0316557 22.2428169,17.2270079 C22.4625103,17.0965195 22.6776398,16.9564883 22.8873063,16.8069834 C22.7400142,16.6080353 22.5854612,16.4133746 22.4239931,16.223347 C22.2424711,16.3755489 22.0561086,16.5189685 21.8658736,16.65409" id="Fill-113" fill="#55C5CF"></path>
                            <path d="M11.5971516,14.2364594 C11.4237895,14.3287071 11.2528476,14.4278008 11.0846719,14.5335331 C10.9731309,14.3506972 10.8679519,14.1636432 10.7694806,13.9723017 C10.9604763,13.8734846 11.1545837,13.7818592 11.3513881,13.697633 C11.4273162,13.8810221 11.5092604,14.0608844 11.5971516,14.2364594" id="Fill-115" fill="#00B9F0"></path>
                            <path d="M10.0038036,13.7430862 C9.75790185,13.8671434 9.51718644,14.0021266 9.28200312,14.1467219 C9.11569442,13.8918996 8.96114143,13.6309229 8.81765263,13.3645523 C9.08879459,13.2306756 9.36602186,13.1072406 9.64919613,12.9959072 C9.75714119,13.2501071 9.87525149,13.4995355 10.0038036,13.7430862" id="Fill-117" fill="#55C5CF"></path>
                            <path d="M10.6634441,14.8161749 C10.4731399,14.952057 10.2869848,15.0965831 10.105532,15.2494073 C9.94392557,15.0588957 9.78930343,14.8635435 9.64180386,14.6635581 C9.85174698,14.5133617 10.066669,14.372224 10.2865007,14.2411133 C10.4053717,14.4372262 10.5310886,14.6289134 10.6634441,14.8161749" id="Fill-119" fill="#8CC63F"></path>
                            <path d="M11.3742357,15.7826739 C11.2349651,15.6293656 11.1006043,15.4716317 10.9717064,15.3098178 C10.811483,15.4607749 10.6563077,15.6158811 10.5061112,15.7750673 C10.6598344,15.936812 10.8189514,16.0942693 10.9829781,16.2473701 C11.1083492,16.0883915 11.2389759,15.9338385 11.3742357,15.7826739" id="Fill-121" fill="#034594"></path>
                            <path d="M12.0293122,15.1205025 C11.9283514,14.9667793 11.8327152,14.8089071 11.7421271,14.6470241 C11.5938669,14.7633364 11.4489259,14.882968 11.3075117,15.0060572 C11.4187069,15.1683552 11.5357107,15.326504 11.6575552,15.4803655 C11.7778783,15.357138 11.9020048,15.2371606 12.0293122,15.1205025" id="Fill-123" fill="#55C5CF"></path>
                            <path d="M11.1792776,13.2446441 C10.9633875,13.3198806 10.7503326,13.4030004 10.540182,13.4933119 C10.4366626,13.2597191 10.3423404,13.021009 10.2579759,12.7776659 C10.4933666,12.7007697 10.7320767,12.6316185 10.9736911,12.5702814 C11.033576,12.7993794 11.1023815,13.0242592 11.1792776,13.2446441" id="Fill-125" fill="#034594"></path>
                            <path d="M19.197473,19.7008584 C19.1649719,19.8946202 19.1252791,20.0881053 19.0783945,20.2811755 C19.2871621,20.3288899 19.497935,20.3692742 19.7105751,20.4019827 C19.7436985,20.1894119 19.7690078,19.9762878 19.7864339,19.7629562 C19.5883157,19.749126 19.3918571,19.7284498 19.197473,19.7008584" id="Fill-127" fill="#8CC63F"></path>
                            <path d="M20.0475144,17.6047119 C20.0842337,17.7701216 20.1160433,17.9363612 20.1437038,18.1030156 C20.3251566,18.0507373 20.5050881,17.9922354 20.6831525,17.9279247 C20.639518,17.7499295 20.5913888,17.5724874 20.5386956,17.3956677 C20.3766051,17.47125 20.2129241,17.5410236 20.0475144,17.6047119" id="Fill-129" fill="#E1DD1C"></path>
                            <path d="M19.2847556,17.8520797 C19.2960964,18.0002707 19.3031499,18.1490842 19.3053627,18.29852 C19.462336,18.2703754 19.6187561,18.2380818 19.7740006,18.2009476 C19.7580958,18.0417615 19.737143,17.8829903 19.7120411,17.7250489 C19.5706268,17.7720717 19.4281061,17.8141156 19.2847556,17.8520797" id="Fill-131" fill="#55C5CF"></path>
                            <path d="M20.2163402,18.6360402 C20.2385377,18.8419726 20.2541659,19.0485964 20.262879,19.2552894 C20.4813277,19.2276981 20.6980476,19.193814 20.9132463,19.1537063 C20.884341,18.9324915 20.848659,18.7115533 20.8062693,18.4911684 C20.611332,18.5457287 20.4146659,18.5936505 20.2163402,18.6360402" id="Fill-133" fill="#8CC63F"></path>
                            <path d="M19.2969124,18.7849435 C19.2879228,18.9686092 19.2720871,19.1525515 19.2498896,19.3367012 C19.4382575,19.3301318 19.6257956,19.3188602 19.8125731,19.3028171 C19.8183818,19.1060818 19.8170679,18.9094157 19.809323,18.713372 C19.6394876,18.7419315 19.4684766,18.7658578 19.2969124,18.7849435" id="Fill-135" fill="#9B9C9E"></path>
                            <path d="M20.1709908,21.0553166 C20.1313672,21.3278416 20.0797112,21.5989144 20.0171985,21.8679126 C20.3116444,21.9447397 20.6081649,22.0084279 20.9062758,22.0600148 C20.9472825,21.7603133 20.9763952,21.4583299 20.9920233,21.1544794 C20.7168015,21.132766 20.4427551,21.0999883 20.1709908,21.0553166" id="Fill-137" fill="#8CC63F"></path>
                            <path d="M19.8002504,16.9049637 C19.8604811,17.0407767 19.9169776,17.1786643 19.9691868,17.3186955 C20.1077659,17.2396557 20.2442012,17.1568125 20.3780089,17.0697511 C20.3096874,16.9250867 20.2368021,16.7824969 20.1602516,16.6421891 C20.0427637,16.7338144 19.9225097,16.8212216 19.8002504,16.9049637" id="Fill-139" fill="#9B9C9E"></path>
                            <path d="M18.9440337,20.7702752 C18.8755048,20.9939103 18.7976406,21.2163006 18.7102334,21.4368931 C18.9421666,21.529694 19.1765201,21.614266 19.4129482,21.6907472 C19.4887379,21.4439465 19.5544316,21.1953478 19.6090611,20.9452278 C19.3852877,20.8948166 19.1635889,20.8363838 18.9440337,20.7702752" id="Fill-141" fill="#55C5CF"></path>
                            <path d="M16.8699326,19.9301293 C17.0165332,20.0151162 17.1653466,20.0957465 17.3158197,20.1725044 C17.2111247,20.329616 17.1009668,20.4834774 16.9857609,20.6337431 C16.8292717,20.5383144 16.6747187,20.4387366 16.5221019,20.3350098 C16.6432549,20.203415 16.7592215,20.0685009 16.8699326,19.9301293" id="Fill-143" fill="#E1DD1C"></path>
                            <path d="M17.3364337,19.2778466 C17.4742521,19.3335133 17.6140067,19.3853076 17.7556976,19.432607 C17.6814291,19.5736755 17.6032882,19.7130152 17.5209291,19.8497272 C17.3740519,19.7863847 17.229111,19.718409 17.0861062,19.6467684 C17.1737208,19.5261686 17.2569098,19.4030794 17.3364337,19.2778466" id="Fill-145" fill="#9B9C9E"></path>
                            <path d="M17.8019251,20.4029785 C17.9914687,20.4863749 18.1837091,20.5637551 18.378024,20.6346351 C18.2857763,20.834413 18.1879273,21.0308025 18.0846154,21.2238036 C17.8824863,21.129343 17.6826393,21.0284513 17.48542,20.9214052 C17.5964077,20.752123 17.7015867,20.5791758 17.8019251,20.4029785" id="Fill-147" fill="#9B9C9E"></path>
                            <path d="M18.2219635,19.5716079 C18.3997513,19.6186307 18.5798903,19.6591533 18.7621038,19.6937289 C18.6988304,19.8712401 18.6313388,20.0465385 18.559629,20.2197623 C18.3703621,20.1658244 18.1832388,20.1051096 17.9986742,20.0383787 C18.0772992,19.8850704 18.151775,19.7293418 18.2219635,19.5716079" id="Fill-149" fill="#8CC63F"></path>
                            <path d="M16.2778252,19.4828039 C16.3890204,19.5812752 16.5033965,19.6768422 16.6210227,19.7689517 C16.5038114,19.8771042 16.3835574,19.9821449 16.2600533,20.0833823 C16.142842,19.9743999 16.0290191,19.8618217 15.9184463,19.7464084 C16.041328,19.6621822 16.1609596,19.5739452 16.2778252,19.4828039" id="Fill-151" fill="#034594"></path>
                            <path d="M18.4765853,18.8017611 C18.6249838,18.8086762 18.7740047,18.8110274 18.9233713,18.8088837 C18.9001365,18.9666868 18.8727526,19.1238675 18.8401132,19.2803568 C18.6805122,19.2692926 18.5212569,19.2531112 18.3627623,19.2327807 C18.4054286,19.0901217 18.4429778,18.9464255 18.4765853,18.8017611" id="Fill-153" fill="#9B9C9E"></path>
                            <path d="M20.2706377,19.7824361 C20.2677334,20.0110501 20.2566,20.2393874 20.2375835,20.4673099 C20.4919908,20.4914437 20.7482653,20.5050665 21.0057844,20.5079017 C21.0039865,20.2602711 20.9938904,20.0119491 20.9753579,19.7633504 C20.7390682,19.7792552 20.5040231,19.7854096 20.2706377,19.7824361" id="Fill-155" fill="#034594"></path>
                            <path d="M13.3992049,11.7777737 C13.2047516,11.7501824 13.008293,11.729437 12.8101056,11.7157451 C12.8277391,11.5023444 12.8529793,11.2892203 12.8861719,11.0765803 C13.0986737,11.1092888 13.3095157,11.1496731 13.518145,11.1975258 C13.4713988,11.3905269 13.431706,11.5841503 13.3992049,11.7777737" id="Fill-157" fill="#E1DD1C"></path>
                            <path d="M15.6543163,11.6015211 C15.5077157,11.5165342 15.3589022,11.4359039 15.2084292,11.359146 C15.3131241,11.2020345 15.423282,11.048173 15.538488,10.8979074 C15.6949772,10.9933361 15.8495302,11.0928447 16.0021469,11.1966407 C15.880994,11.3281663 15.7650274,11.4631495 15.6543163,11.6015211" id="Fill-159" fill="#E1DD1C"></path>
                            <path d="M15.1878152,12.2537347 C15.0499968,12.1981371 14.9102422,12.146412 14.7685513,12.0990434 C14.8428197,11.9579749 14.9208914,11.8186352 15.0033197,11.6819232 C15.1501969,11.7452657 15.2951379,11.8131722 15.4381426,11.8848821 C15.350528,12.0054818 15.2673391,12.128571 15.1878152,12.2537347" id="Fill-161" fill="#9B9C9E"></path>
                            <path d="M14.7223306,11.1287065 C14.5327871,11.045241 14.3405467,10.9678607 14.1461626,10.8969807 C14.2384795,10.6972028 14.3363285,10.5008134 14.4396404,10.3078123 C14.6417694,10.4022729 14.8416165,10.5031645 15.0388358,10.6102106 C14.9278481,10.7794928 14.8227382,10.9525092 14.7223306,11.1287065" id="Fill-163" fill="#00B9F0"></path>
                            <path d="M14.3022922,11.960008 C14.1245044,11.9130543 13.9443655,11.8724625 13.762152,11.837956 C13.8254254,11.6603757 13.892917,11.4850773 13.9646959,11.3118535 C14.1538937,11.3657915 14.3410169,11.4265754 14.5255124,11.4932372 C14.4469566,11.6465454 14.3724807,11.802274 14.3022922,11.960008" id="Fill-165" fill="#8CC63F"></path>
                            <path d="M12.4026596,10.4401677 C12.1308953,10.395496 11.856849,10.3627184 11.5816271,10.3409357 C11.5973936,10.0370161 11.626368,9.73517098 11.6673747,9.43540042 C11.9654164,9.48698723 12.2621444,9.55060636 12.5565211,9.62757167 C12.4939393,9.89656994 12.4422833,10.1676428 12.4026596,10.4401677" id="Fill-167" fill="#8CC63F"></path>
                            <path d="M16.2464582,12.0488465 C16.135263,11.9503752 16.0208869,11.8548082 15.9032607,11.7626988 C16.020472,11.6545462 16.140726,11.5495055 16.2641609,11.4483373 C16.3813723,11.5572505 16.4951952,11.6697595 16.6058371,11.7851729 C16.4828863,11.8694683 16.3632546,11.9576361 16.2464582,12.0488465" id="Fill-169" fill="#8CC63F"></path>
                            <path d="M12.3032202,11.6958641 C12.0693507,11.693513 11.8338217,11.7004972 11.597117,11.7170935 C11.5787919,11.4680108 11.5690416,11.2189972 11.5677277,10.9705369 C11.8258693,10.972888 12.0826969,10.9855427 12.3375883,11.0091233 C12.3180185,11.2375989 12.3066086,11.4666278 12.3032202,11.6958641" id="Fill-171" fill="#9B9C9E"></path>
                            <path d="M12.4767068,13.9269385 C12.4399875,13.7615288 12.4082471,13.5952201 12.3805174,13.4286348 C12.1991338,13.4809131 12.0192023,13.5393459 11.8410687,13.6037257 C11.8847031,13.7817209 11.9328324,13.959163 11.9855948,14.1359827 C12.1476161,14.0604004 12.311297,13.9905576 12.4767068,13.9269385" id="Fill-173" fill="#E1DD1C"></path>
                            <path d="M13.2395278,13.6796053 C13.2281178,13.5314142 13.2210644,13.3825317 13.2188516,13.2330959 C13.0618783,13.2613096 12.9054582,13.293534 12.7502137,13.3307374 C12.7661876,13.4899235 12.7871405,13.6486256 12.8121732,13.806567 C12.9536566,13.7595441 13.0961081,13.7175693 13.2395278,13.6796053" id="Fill-175" fill="#8CC63F"></path>
                            <path d="M12.3079432,12.8956102 C12.2857457,12.6896779 12.2700483,12.4831232 12.2613353,12.276361 C12.0429557,12.3039523 11.8261666,12.3377673 11.6110372,12.377875 C11.6399424,12.5990898 11.6756244,12.8200971 11.717945,13.040482 C11.9129514,12.9858526 12.1096175,12.9379999 12.3079432,12.8956102" id="Fill-177" fill="#8CC63F"></path>
                            <path d="M13.2273088,12.7467069 C13.2363676,12.5629721 13.2521341,12.3790298 13.2744007,12.1949492 C13.0860328,12.2015186 12.8984947,12.2128594 12.7116481,12.2288333 C12.7058394,12.4255686 12.7071532,12.6222347 12.7148982,12.8182784 C12.8848027,12.7897881 13.0557446,12.7657926 13.2273088,12.7467069" id="Fill-179" fill="#55C5CF"></path>
                            <path d="M12.7239985,14.6266521 C12.6637678,14.4908391 12.6072712,14.3529516 12.555062,14.2129203 C12.416483,14.2920293 12.2800476,14.3748725 12.14624,14.4618647 C12.2145614,14.6065291 12.2874468,14.7491189 12.3639972,14.8894268 C12.4814851,14.7978014 12.60167,14.7103942 12.7239985,14.6266521" id="Fill-181" fill="#9B9C9E"></path>
                            <path d="M14.0381415,12.7367768 C14.0765204,12.593288 14.119325,12.4504907 14.1664861,12.308869 C14.009098,12.283283 13.8509491,12.261777 13.6919013,12.2455265 C13.6542139,12.4010476 13.6215053,12.5576751 13.5929459,12.714925 C13.7417593,12.7174144 13.8900887,12.7250902 14.0381415,12.7367768" id="Fill-183" fill="#034594"></path>
                            <path d="M13.6460609,10.7301741 C13.4273356,10.6638581 13.20619,10.6053562 12.9831773,10.55453 C13.0371844,10.3047558 13.1017025,10.0563646 13.176939,9.80997878 C13.4123989,9.88659834 13.6460609,9.97137774 13.8773718,10.0642478 C13.7907253,10.2846328 13.7138291,10.5068848 13.6460609,10.7301741" id="Fill-185" fill="#55C5CF"></path>
                            <path d="M2.43163371,30.7208601 L2.73465439,30.7208601 L2.73465439,28.4297416 L2.43163371,28.4297416 L2.43163371,30.7208601 Z M3.26587411,30.7207909 L3.26587411,28.4297416 L3.57684717,28.4297416 L4.78028596,30.2284342 L4.78028596,28.4297416 L5.07099771,28.4297416 L5.07099771,30.7207909 L4.76002465,30.7207909 L3.55658586,28.9204387 L3.55658586,30.7207909 L3.26587411,30.7207909 Z M6.65269371,29.8218941 L6.65269371,29.5536565 L7.62295456,29.552066 L7.62295456,30.4017963 C7.47414112,30.5207364 7.3204871,30.6098724 7.16206164,30.6701031 C7.00363618,30.7298497 6.84092334,30.7597231 6.67454549,30.7597231 C6.4493891,30.7597231 6.24456317,30.7117321 6.06110497,30.615197 C5.8770244,30.5191459 5.7383762,30.3793913 5.64446883,30.1975236 C5.55056147,30.0150335 5.50360778,29.811314 5.50360778,29.5861576 C5.50360778,29.363214 5.55056147,29.1552072 5.64391562,28.9620678 C5.73671657,28.7684444 5.87114655,28.6249556 6.04609915,28.5310482 C6.22105175,28.437694 6.42276588,28.3907404 6.65103408,28.3907404 C6.81637466,28.3907404 6.96629452,28.4174327 7.10017129,28.4713015 C7.23404806,28.5246863 7.33915793,28.5993696 7.41494767,28.6953515 C7.49122147,28.7913334 7.54882445,28.9162205 7.58879385,29.0703586 L7.31516245,29.145526 C7.28051769,29.0287296 7.23785138,28.937035 7.18716353,28.8703041 C7.13592247,28.8036423 7.06282963,28.7502576 6.967885,28.7102882 C6.87349357,28.6702496 6.7678305,28.6499883 6.65269371,28.6499883 C6.51397635,28.6499883 6.39392982,28.671356 6.29310733,28.7134691 C6.19173163,28.7556514 6.1106864,28.8111107 6.04824284,28.8799161 C5.98635249,28.9487907 5.93836154,29.0239581 5.90371678,29.106663 C5.8455606,29.2480081 5.81624048,29.401593 5.81624048,29.5675559 C5.81624048,29.7718286 5.85143845,29.9424939 5.9218344,30.080174 C5.99223035,30.2177849 6.09464331,30.3196447 6.2290733,30.3863756 C6.36350328,30.4529682 6.50595481,30.4866449 6.65691193,30.4866449 C6.78864502,30.4866449 6.91671309,30.4610589 7.04153105,30.4103019 C7.16690222,30.3602364 7.26129365,30.3062985 7.32581174,30.2486955 L7.32581174,29.8218941 L6.65269371,29.8218941 Z M8.37296876,30.4502713 L8.86207538,30.4502713 C9.01303251,30.4502713 9.13204177,30.4364411 9.21785844,30.4082274 C9.30381341,30.3799445 9.37206567,30.3404592 9.42330673,30.2892181 C9.49529316,30.2177849 9.55130565,30.1206966 9.59127506,29.9996128 C9.63131362,29.8779758 9.65157493,29.731306 9.65157493,29.5579439 C9.65157493,29.3184041 9.61208958,29.1343926 9.53367209,29.0058405 C9.45477054,28.8767352 9.3592727,28.7908493 9.2466945,28.7470766 C9.16564926,28.7156128 9.03440024,28.7001921 8.85460705,28.7001921 L8.37296876,28.7001921 L8.37296876,30.4502713 Z M8.06994809,30.7207909 L8.06994809,28.4297416 L8.85889442,28.4297416 C9.03709713,28.4297416 9.17304844,28.4409441 9.26695581,28.4627959 C9.39820484,28.4926693 9.51022982,28.5475753 9.60303077,28.626546 C9.72356136,28.728959 9.81428776,28.8591016 9.87403442,29.0180111 C9.93426514,29.1770589 9.96413847,29.3583735 9.96413847,29.5626462 C9.96413847,29.7366307 9.94387716,29.8908379 9.90280133,30.0251987 C9.86227872,30.1596287 9.8105536,30.2711005 9.74651956,30.35913 C9.68303874,30.4470904 9.61374921,30.516449 9.53795946,30.5666528 C9.46272293,30.6172715 9.37151246,30.6557196 9.26488127,30.6818588 C9.15762772,30.7079979 9.03495345,30.7207909 8.8967893,30.7207909 L8.06994809,30.7207909 Z M10.6016436,29.609669 C10.6016436,29.8859282 10.6757737,30.103063 10.8241031,30.2620417 C10.9728474,30.4210204 11.1590717,30.5004751 11.3830525,30.5004751 C11.6113898,30.5004751 11.7992046,30.4204671 11.9464275,30.259898 C12.0936505,30.0993288 12.1677806,29.8715447 12.1677806,29.5766147 C12.1677806,29.3903905 12.1357636,29.2277468 12.072836,29.0884762 C12.0099083,28.9492057 11.9175915,28.8415372 11.7965077,28.7647102 C11.6748707,28.6884364 11.5388502,28.6499883 11.3878931,28.6499883 C11.1729019,28.6499883 10.9883373,28.7236344 10.833646,28.8713414 C10.6789547,29.0185643 10.6016436,29.2650885 10.6016436,29.609669 L10.6016436,29.609669 Z M10.2890801,29.6048976 C10.2890801,29.2245658 10.3909398,28.9268698 10.5952126,28.7118786 C10.7994853,28.4968875 11.0630206,28.3891499 11.3863026,28.3891499 C11.5975596,28.3891499 11.7884861,28.4398377 11.9581832,28.5406602 C12.127742,28.6420359 12.2574006,28.7828278 12.3464674,28.9636583 C12.4356033,29.1440047 12.4798601,29.3493146 12.4798601,29.5782052 C12.4798601,29.8107608 12.4333905,30.0187677 12.3395522,30.201811 C12.2456449,30.3852692 12.1128054,30.5239865 11.9411029,30.618378 C11.768778,30.7127694 11.5836602,30.7597231 11.3847121,30.7597231 C11.1686837,30.7597231 10.9760975,30.7079979 10.8064696,30.6033721 C10.6362884,30.4994378 10.5077363,30.3569863 10.42026,30.1766399 C10.3327837,29.996985 10.2890801,29.8059202 10.2890801,29.6048976 L10.2890801,29.6048976 Z M12.8612291,30.7207909 L12.8612291,28.4297416 L13.3178346,28.4297416 L13.8598419,30.0518911 C13.9099766,30.2028482 13.946765,30.3159105 13.96917,30.391147 C13.9953092,30.3079581 14.0358318,30.1852147 14.0912911,30.0235391 L14.6397295,28.4297416 L15.0477909,28.4297416 L15.0477909,30.7207909 L14.7554195,30.7207909 L14.7554195,28.8030891 L14.0897006,30.7207909 L13.8160692,30.7207909 L13.1535313,28.770588 L13.1535313,30.7207909 L12.8612291,30.7207909 Z M16.6464289,29.609669 C16.6464289,29.8859282 16.720559,30.103063 16.8688884,30.2620417 C17.0177018,30.4210204 17.2038569,30.5004751 17.4279069,30.5004751 C17.6562443,30.5004751 17.844059,30.4204671 17.9912128,30.259898 C18.1384358,30.0993288 18.212635,29.8715447 18.212635,29.5766147 C18.212635,29.3903905 18.180618,29.2277468 18.1176904,29.0884762 C18.0546936,28.9492057 17.9624459,28.8415372 17.8412929,28.7647102 C17.7197251,28.6884364 17.5837046,28.6499883 17.4327475,28.6499883 C17.2177563,28.6499883 17.0331917,28.7236344 16.8785004,28.8713414 C16.7238091,29.0185643 16.6464289,29.2650885 16.6464289,29.609669 L16.6464289,29.609669 Z M16.3338654,29.6048976 C16.3338654,29.2245658 16.4357251,28.9268698 16.640067,28.7118786 C16.8443397,28.4968875 17.107875,28.3891499 17.4310879,28.3891499 C17.642414,28.3891499 17.8333405,28.4398377 18.0029685,28.5406602 C18.1725965,28.6420359 18.302255,28.7828278 18.3913218,28.9636583 C18.4803886,29.1440047 18.5246454,29.3493146 18.5246454,29.5782052 C18.5246454,29.8107608 18.4782449,30.0187677 18.3844067,30.201811 C18.2904993,30.3852692 18.1576598,30.5239865 17.9858882,30.618378 C17.8136324,30.7127694 17.6285146,30.7597231 17.4294974,30.7597231 C17.213469,30.7597231 17.0209519,30.7079979 16.851324,30.6033721 C16.6811428,30.4994378 16.5525215,30.3569863 16.4651144,30.1766399 C16.3775689,29.996985 16.3338654,29.8059202 16.3338654,29.6048976 L16.3338654,29.6048976 Z M18.9311163,30.7207909 L18.9311163,28.4297416 L20.4769919,28.4297416 L20.4769919,28.7001921 L19.234621,28.7001921 L19.234621,29.4096145 L20.3095077,29.4096145 L20.3095077,29.680065 L19.234621,29.680065 L19.234621,30.7207909 L18.9311163,30.7207909 Z M21.6569193,29.9846761 L21.9428596,29.9595742 C21.9562058,30.0742961 21.9876696,30.1681343 22.037251,30.2417804 C22.0869016,30.3153573 22.1636595,30.3746199 22.2677321,30.4199139 C22.3717355,30.4652771 22.4890851,30.487613 22.6192969,30.487613 C22.7350561,30.487613 22.8368467,30.4706018 22.9254294,30.4364411 C23.0140121,30.4017963 23.0801207,30.3548426 23.1233402,30.295096 C23.1665597,30.2348653 23.1884115,30.1697939 23.1884115,30.0987756 C23.1884115,30.0267892 23.167597,29.9644148 23.1254839,29.9104768 C23.0838548,29.856608 23.0150494,29.8117981 22.9195515,29.7755628 C22.8577303,29.7515673 22.7221939,29.7142257 22.5114901,29.6634687 C22.3013396,29.61285 22.1535634,29.5654122 22.0693372,29.5206022 C21.95994,29.4634833 21.8783415,29.3920501 21.8244727,29.3072016 C21.771088,29.2224222 21.7443956,29.1274084 21.7443956,29.0218144 C21.7443956,28.9066085 21.777035,28.7983177 21.8425903,28.6980484 C21.9082148,28.5972259 22.0041968,28.520883 22.1301211,28.4686738 C22.2565296,28.4168795 22.3962842,28.3907404 22.5504914,28.3907404 C22.7206726,28.3907404 22.8699701,28.4179859 23.0001127,28.4729612 C23.1297713,28.527314 23.2294873,28.6078752 23.2993992,28.7140223 C23.3687579,28.8201695 23.4065145,28.9407001 23.4119774,29.07513 L23.1212657,29.097051 C23.1052226,28.9524558 23.052391,28.8425745 22.962287,28.7689284 C22.8721138,28.6948674 22.7392743,28.6580098 22.5632153,28.6580098 C22.3797571,28.6580098 22.2463643,28.6916173 22.162069,28.7587632 C22.0783269,28.8260473 22.0362138,28.9070926 22.0362138,29.0015531 C22.0362138,29.0841888 22.0660871,29.1519571 22.1252805,29.2047886 C22.1839899,29.2581042 22.3359843,29.3125262 22.5824393,29.3679855 C22.8288943,29.4240671 22.997969,29.4725421 23.0897327,29.5141712 C23.2230563,29.5760615 23.3218042,29.6539258 23.385285,29.7478332 C23.4487659,29.8421554 23.4802297,29.9510686 23.4802297,30.0737429 C23.4802297,30.1959331 23.4455158,30.3105858 23.375673,30.4183235 C23.3057611,30.5260611 23.2054918,30.6098724 23.074796,30.6701031 C22.9441002,30.7298497 22.7968773,30.7597231 22.6336804,30.7597231 C22.4261575,30.7597231 22.2522422,30.7298497 22.1125567,30.6689966 C21.9721797,30.6086968 21.8622984,30.5181087 21.7822905,30.3964717 C21.7028357,30.2753879 21.6606535,30.1377769 21.6569193,29.9846761 L21.6569193,29.9846761 Z M24.3038208,29.7798502 L25.0810114,29.7798502 L24.8414716,29.145526 C24.7690011,28.953009 24.7145791,28.7945835 24.6793811,28.6702496 C24.650061,28.8174726 24.608916,28.9631742 24.5556004,29.1081843 L24.3038208,29.7798502 Z M23.6428734,30.7207909 L24.5230993,28.4297416 L24.8495623,28.4297416 L25.7872529,30.7207909 L25.441635,30.7207909 L25.1743656,30.0267892 L24.2162753,30.0267892 L23.9651181,30.7207909 L23.6428734,30.7207909 Z M27.5326298,28.4297416 L27.8362037,28.4297416 L27.8362037,29.7536419 C27.8362037,29.9835697 27.8100645,30.1665438 27.7577171,30.3020802 C27.7054387,30.4375475 27.6116005,30.5474288 27.4755801,30.6322082 C27.3394904,30.71761 27.1613569,30.7597231 26.940557,30.7597231 C26.7261191,30.7597231 26.5500601,30.7229346 26.4141087,30.6487353 C26.2774659,30.5751584 26.1798935,30.4679049 26.1217374,30.3276662 C26.0630971,30.1874275 26.0342611,29.9963627 26.0342611,29.7536419 L26.0342611,28.4297416 L26.3372126,28.4297416 L26.3372126,29.7521205 C26.3372126,29.9510686 26.3559526,30.0977384 26.3926719,30.1916457 C26.4294603,30.2860372 26.4935635,30.3585768 26.5831143,30.4097487 C26.6733567,30.4610589 26.783722,30.4866449 26.9138647,30.4866449 C27.1368774,30.4866449 27.295856,30.4358879 27.3908007,30.3345813 C27.4851921,30.2337588 27.5326298,30.0395822 27.5326298,29.7521205 L27.5326298,28.4297416 Z M28.6438209,30.4502713 L29.1329966,30.4502713 C29.2839538,30.4502713 29.4028939,30.4364411 29.4887797,30.4082274 C29.5746655,30.3799445 29.6429178,30.3404592 29.6940897,30.2892181 C29.7661453,30.2177849 29.8221578,30.1206966 29.8621963,29.9996128 C29.9021657,29.8779758 29.922427,29.731306 29.922427,29.5579439 C29.922427,29.3184041 29.8829417,29.1343926 29.8045934,29.0058405 C29.7255535,28.8767352 29.6301248,28.7908493 29.5176158,28.7470766 C29.4365014,28.7156128 29.3052524,28.7001921 29.1255283,28.7001921 L28.6438209,28.7001921 L28.6438209,30.4502713 Z M28.3408694,30.7207909 L28.3408694,28.4297416 L29.1297465,28.4297416 C29.3078801,28.4297416 29.4439697,28.4409441 29.5378771,28.4627959 C29.669057,28.4926693 29.7810819,28.5475753 29.8738829,28.626546 C29.9944135,28.728959 30.085209,28.8591016 30.1448865,29.0180111 C30.2051864,29.1770589 30.2350597,29.3583735 30.2350597,29.5626462 C30.2350597,29.7366307 30.2147984,29.8908379 30.1737226,30.0251987 C30.1331308,30.1596287 30.0814057,30.2711005 30.0173717,30.35913 C29.9538909,30.4470904 29.8845322,30.516449 29.8088116,30.5666528 C29.7336442,30.6172715 29.6423646,30.6557196 29.5357334,30.6818588 C29.4284798,30.7079979 29.3058056,30.7207909 29.1676414,30.7207909 L28.3408694,30.7207909 Z M30.7039742,30.7208601 L31.0069257,30.7208601 L31.0069257,28.4297416 L30.7039742,28.4297416 L30.7039742,30.7208601 Z M32.6632359,29.7798502 L33.4404265,29.7798502 L33.2008867,29.145526 C33.128347,28.953009 33.073925,28.7945835 33.0387271,28.6702496 C33.0094069,28.8174726 32.9683311,28.9631742 32.9149464,29.1081843 L32.6632359,29.7798502 Z M32.0022885,30.7207909 L32.8824453,28.4297416 L33.2089082,28.4297416 L34.146668,30.7207909 L33.800981,30.7207909 L33.5337807,30.0267892 L32.5756904,30.0267892 L32.324464,30.7207909 L32.0022885,30.7207909 Z M34.6966277,29.4410783 L35.3485163,29.4410783 C35.4866805,29.4410783 35.5954553,29.4266949 35.6733196,29.397928 C35.7517371,29.3690919 35.8109306,29.3232446 35.8515223,29.2602479 C35.8920449,29.1973203 35.9123063,29.1289988 35.9123063,29.0548687 C35.9123063,28.9465779 35.8733741,28.8575111 35.7944726,28.7875992 C35.7159859,28.7178257 35.5917212,28.6831117 35.4216092,28.6831117 L34.6966277,28.6831117 L34.6966277,29.4410783 Z M34.393607,30.7207909 L34.393607,28.4297416 L35.4093002,28.4297416 C35.613573,28.4297416 35.7688175,28.450487 35.8749646,28.4915628 C35.9811117,28.5326387 36.0659603,28.6052475 36.1299943,28.7092509 C36.1934751,28.8137384 36.2249389,28.9289443 36.2249389,29.0548687 C36.2249389,29.2175816 36.1726606,29.3541552 36.0670667,29.465627 C35.9619568,29.5770988 35.7991748,29.6481171 35.5794814,29.6784745 C35.6600426,29.7168534 35.7208265,29.7547483 35.7623864,29.7926432 C35.8509691,29.8736884 35.9347112,29.9755482 36.0142352,30.0972543 L36.4127537,30.7207909 L36.0312464,30.7207909 L35.7282948,30.2438549 C35.6397813,30.1068663 35.5666884,30.0012033 35.5090163,29.9285945 C35.4519665,29.8555708 35.4007946,29.8043989 35.3553623,29.7755628 C35.3100682,29.7461735 35.2641518,29.7259122 35.2172673,29.7142257 C35.1825534,29.7072414 35.12661,29.7035764 35.0481234,29.7035764 L34.6966277,29.7035764 L34.6966277,30.7207909 L34.393607,30.7207909 Z M37.1093831,29.7798502 L37.8865738,29.7798502 L37.6470339,29.145526 C37.5744943,28.953009 37.5200723,28.7945835 37.4848743,28.6702496 C37.4555542,28.8174726 37.4144783,28.9631742 37.3610936,29.1081843 L37.1093831,29.7798502 Z M36.4484357,30.7207909 L37.3286617,28.4297416 L37.6550555,28.4297416 L38.5928152,30.7207909 L38.2471974,30.7207909 L37.9799279,30.0267892 L37.0219068,30.0267892 L36.7706113,30.7207909 L36.4484357,30.7207909 Z M39.1257637,30.4502713 L39.6959156,30.4502713 C39.7941103,30.4502713 39.8629158,30.4466063 39.9024011,30.4396912 C39.9722439,30.4268982 40.0304001,30.4060837 40.0774229,30.3767636 C40.1242383,30.3479275 40.1626864,30.3052612 40.1931129,30.2497328 C40.2229862,30.1937203 40.2384761,30.1297554 40.2384761,30.0566625 C40.2384761,29.9713299 40.2165552,29.8971307 40.1728516,29.8336498 C40.129148,29.7707222 40.0682949,29.7265346 39.9904307,29.7008103 C39.9130504,29.6757776 39.8010946,29.6629846 39.655393,29.6629846 L39.1257637,29.6629846 L39.1257637,30.4502713 Z M39.1257637,29.3925342 L39.6213014,29.3925342 C39.755109,29.3925342 39.8517133,29.3834754 39.9104227,29.3659109 C39.9872497,29.3429527 40.0454059,29.3050579 40.0842689,29.2516731 C40.1232702,29.1983575 40.1429783,29.1316957 40.1429783,29.0516878 C40.1429783,28.975898 40.1247915,28.908683 40.0885562,28.8510801 C40.0517678,28.792993 39.9994895,28.7534385 39.9322745,28.7322091 C39.8645754,28.7108414 39.7482631,28.7001921 39.5834065,28.7001921 L39.1257637,28.7001921 L39.1257637,29.3925342 Z M38.8221898,30.7207909 L38.8221898,28.4297416 L39.6820853,28.4297416 C39.8570379,28.4297416 39.9973458,28.4531839 40.1030089,28.4991003 C40.209156,28.5454316 40.2917917,28.616934 40.3515384,28.7134691 C40.411285,28.8095202 40.4416424,28.9103427 40.4416424,29.0159366 C40.4416424,29.113509 40.4150192,29.2058259 40.3617036,29.2922649 C40.3088721,29.3787039 40.2283109,29.4485467 40.1210573,29.5019314 C40.2597747,29.5423849 40.3659218,29.6117436 40.4406743,29.7094542 C40.5153576,29.8075107 40.5526301,29.9232698 40.5526301,30.0566625 C40.5526301,30.1639161 40.5297411,30.2636322 40.4843087,30.355949 C40.4390147,30.4481968 40.3830022,30.5191459 40.3163404,30.5692806 C40.2496786,30.6194844 40.1659365,30.656826 40.0656672,30.682412 C39.9653979,30.7079979 39.8421013,30.7207909 39.6959156,30.7207909 L38.8221898,30.7207909 Z M41.0215446,30.7208601 L41.3244961,30.7208601 L41.3244961,28.4297416 L41.0215446,28.4297416 L41.0215446,30.7208601 Z M42.2680646,29.7798502 L43.0453935,29.7798502 L42.8058537,29.145526 C42.733314,28.953009 42.678892,28.7945835 42.6436941,28.6702496 C42.6143048,28.8174726 42.573229,28.9631742 42.5199134,29.1081843 L42.2680646,29.7798502 Z M41.6072555,30.7207909 L42.4873431,28.4297416 L42.8138061,28.4297416 L43.7515658,30.7207909 L43.4058789,30.7207909 L43.1386785,30.0267892 L42.1806574,30.0267892 L41.929431,30.7207909 L41.6072555,30.7207909 Z M0.232278968,30.7207909 L0.232278968,28.4297416 L0.535852851,28.4297416 L0.535852851,29.5658963 L1.67359797,28.4297416 L2.08435626,28.4297416 L1.12308506,29.3578894 L2.12653851,30.7207909 L1.72636036,30.7207909 L0.910790799,29.5611249 L0.535852851,29.9270731 L0.535852851,30.7207909 L0.232278968,30.7207909 Z" id="Fill-187" fill="#9B9C9E"></path>
                            <path d="M16.2539542,12.6268747 C16.2998015,12.7098562 16.4152149,12.9231877 16.402007,13.1260083 C16.402007,13.1260083 16.7117353,12.6191298 17.3538045,13.0415746 C17.3538045,13.0415746 16.8075098,12.9682743 16.6779204,13.2499273 C16.6779204,13.2499273 17.5171397,13.0302338 17.6973477,13.8074936 C17.6973477,13.8074936 17.3087179,13.3738463 16.9539029,13.4526787 C16.9539029,13.4526787 17.7593072,13.7343316 17.5340126,14.5622101 C17.5340126,14.5622101 17.4664518,13.8187653 16.9257584,13.7286612 C16.9257584,13.7286612 17.4270356,14.1397652 17.2354867,14.967782 C17.2354867,14.967782 17.2467584,14.3538574 16.8525272,14.061002 C16.8525272,14.061002 17.1172381,14.703002 16.689192,15.2719091 C16.689192,15.2719091 16.9088855,14.5340655 16.5540014,14.2636842 C16.5540014,14.2636842 16.4076082,14.1735802 16.4132095,14.4439615 C16.4132095,14.4439615 16.3712347,15.9917734 16.4478542,16.7466973 C16.4478542,16.7466973 17.9975332,15.435106 19.3238537,16.3071721 C19.3238537,16.3071721 18.0107411,15.6661403 16.4986804,17.0779317 L17.5080117,17.9644504 C17.5527525,17.8927406 17.6324839,17.8449571 17.7229337,17.8449571 C17.8624117,17.8449571 17.9761655,17.9586417 17.9761655,18.0981197 C17.9761655,18.4387587 17.497639,18.4145557 17.3228247,18.2102139 L16.2621832,17.2355273 L16.2545074,17.2125 L16.2468316,17.2355273 L15.1861901,18.2102139 C15.0113758,18.4145557 14.5328493,18.4387587 14.5328493,18.0981197 C14.5328493,17.9586417 14.6466031,17.8449571 14.7860811,17.8449571 C14.8765309,17.8449571 14.9561931,17.8927406 15.0010031,17.9644504 L16.0103344,17.0779317 C14.4982046,15.6661403 13.1851611,16.3071721 13.1851611,16.3071721 C14.5114125,15.435106 16.0611606,16.7466973 16.0611606,16.7466973 C16.1377801,15.9917734 16.0957362,14.4439615 16.0957362,14.4439615 C16.1014066,14.1735802 15.9549443,14.2636842 15.9549443,14.2636842 C15.6001294,14.5340655 15.8198228,15.2719091 15.8198228,15.2719091 C15.3917767,14.703002 15.6564876,14.061002 15.6564876,14.061002 C15.2621873,14.3538574 15.273459,14.967782 15.273459,14.967782 C15.0819792,14.1397652 15.5832565,13.7286612 15.5832565,13.7286612 C15.042563,13.8187653 14.9750023,14.5622101 14.9750023,14.5622101 C14.7497076,13.7343316 15.5551119,13.4526787 15.5551119,13.4526787 C15.200297,13.3738463 14.8116671,13.8074936 14.8116671,13.8074936 C14.9918752,13.0302338 15.8310253,13.2499273 15.8310253,13.2499273 C15.7015051,12.9682743 15.1552104,13.0415746 15.1552104,13.0415746 C15.7972795,12.6191298 16.1070078,13.1260083 16.1070078,13.1260083 C16.0938,12.9231186 16.2081761,12.709787 16.2539542,12.6268747" id="Fill-189" fill="#9B9C9E"></path>
                            <path d="M8.48362455,26.5723605 L8.03345007,25.4702282 C8.14208665,25.3770815 8.25860646,25.3149146 8.37498797,25.2684449 C8.49143864,25.2295819 8.60782015,25.206278 8.73976069,25.206278 C8.86395629,25.206278 8.99589683,25.2295819 9.12009244,25.2838657 C9.24428804,25.3304736 9.35292461,25.4003855 9.43832638,25.4702282 L8.99589683,26.5723605 L8.48362455,26.5723605 Z M6.90026893,26.5723605 L6.61301473,26.5723605 C6.50437816,26.5723605 6.40348652,26.5568014 6.31033982,26.5258217 C6.21719312,26.4947728 6.13179135,26.4559098 6.06194861,26.3938811 C5.99210587,26.3395283 5.93000807,26.2696164 5.89114508,26.1842838 C5.85235125,26.098882 5.82911643,26.0058045 5.82911643,25.8970987 C5.82911643,25.7961379 5.85235125,25.7030604 5.89895917,25.6176586 C5.94549795,25.532326 5.99985081,25.4546692 6.06969355,25.4003855 C6.14735038,25.3382185 6.22493805,25.2916106 6.31815391,25.2528859 C6.41904554,25.221837 6.51212309,25.206278 6.61301473,25.206278 L6.90026893,25.206278 L6.90026893,26.5723605 Z M1.34279234,26.5723605 L1.06335223,26.5723605 C0.954715658,26.5723605 0.853824019,26.5568014 0.760677317,26.5258217 C0.667530616,26.4947728 0.582128852,26.4481649 0.512286113,26.3938811 C0.442374224,26.3317833 0.388090511,26.2619406 0.349296673,26.1764697 C0.302688747,26.0911371 0.287198872,25.9979904 0.287198872,25.8893538 C0.287198872,25.7884622 0.310502835,25.6952463 0.349296673,25.6099137 C0.395835448,25.5245811 0.457933249,25.4469243 0.527775988,25.3925714 C0.597618726,25.3304736 0.68302049,25.2838657 0.776167192,25.2528859 C0.869313894,25.221837 0.962460595,25.198533 1.06335223,25.198533 L1.34279234,25.198533 L1.34279234,26.5723605 Z M3.05815765,24.9191621 L2.77097261,24.9191621 L2.77097261,26.5723605 L1.62997738,26.5723605 L1.62997738,24.9191621 L1.1798029,24.9191621 C1.00125443,24.9191621 0.838264993,24.9423969 0.690834579,24.9890048 C0.551079951,25.0355436 0.426884349,25.1053863 0.318178622,25.1907881 C0.217286983,25.2761899 0.139699307,25.3848265 0.0853464433,25.5012771 C0.0310627308,25.6176586 1.38302451e-05,25.7496683 1.38302451e-05,25.8893538 C1.38302451e-05,26.0601573 0.0310627308,26.1997737 0.0931605318,26.3239693 C0.16300327,26.4481649 0.248405034,26.5491256 0.357041611,26.6267133 C0.457933249,26.704301 0.589873789,26.7586539 0.729559266,26.7975168 C0.877058831,26.8362415 1.0245584,26.8595455 1.1798029,26.8595455 L3.05815765,26.8595455 L3.05815765,24.9191621 Z M30.8087521,24.7533375 L31.1037513,24.7533375 L31.1037513,24.4583383 L30.8087521,24.4583383 L30.8087521,24.7533375 Z M30.3042248,24.7533375 L30.5992239,24.7533375 L30.5992239,24.4583383 L30.3042248,24.4583383 L30.3042248,24.7533375 Z M42.9326909,27.019838 L43.2198759,27.019838 L43.2198759,24.4584075 L42.9326909,24.4584075 L42.9326909,27.019838 Z M41.8072547,26.7403979 L40.8215039,26.7403979 C40.8836017,26.6083882 40.9146506,26.4687028 40.9146506,26.3134583 C40.9146506,26.1659587 40.8836017,26.0340873 40.8292489,25.9021468 C40.774896,25.777882 40.7051224,25.6615005 40.6119066,25.5683538 C40.5187599,25.4752071 40.4101233,25.4053644 40.2781827,25.3510115 C40.1539871,25.2967278 40.0142325,25.2734238 39.8667329,25.2734238 C39.7271166,25.2734238 39.5872928,25.2967278 39.4632355,25.3510115 C39.3390399,25.4053644 39.2302651,25.482952 39.1449324,25.5760987 C39.0517857,25.6692454 38.9741981,25.777882 38.9275901,25.9098917 C38.8733064,26.0340873 38.8421884,26.1737036 38.8421884,26.3134583 C38.8421884,26.3911151 38.8500025,26.4687028 38.8654923,26.5385455 C38.8810514,26.6083882 38.9043553,26.670486 38.9354042,26.7403979 L38.0428002,26.7403979 C38.1048289,26.6083882 38.1358778,26.4687028 38.1358778,26.3134583 C38.1358778,26.1659587 38.1048289,26.0340873 38.0505451,25.9021468 C37.9961923,25.777882 37.9263495,25.6615005 37.8332028,25.5683538 C37.7400561,25.4752071 37.6313504,25.4053644 37.499479,25.3510115 C37.3752143,25.2967278 37.2355288,25.2734238 37.0880984,25.2734238 C36.9405988,25.2734238 36.8086583,25.2967278 36.6844627,25.3510115 C36.5602671,25.4053644 36.4516305,25.482952 36.3584146,25.5760987 C36.273082,25.6692454 36.1954944,25.777882 36.1411415,25.9098917 C36.0946027,26.0340873 36.0634847,26.1737036 36.0634847,26.3134583 C36.0634847,26.3911151 36.0712987,26.4687028 36.0867886,26.5385455 C36.1023477,26.6083882 36.1255825,26.670486 36.1488864,26.7403979 L35.2407234,26.7403979 L35.2407234,24.4584075 L34.9536075,24.4584075 L34.9536075,26.7403979 L34.0454444,26.7403979 L34.0454444,26.2979684 C34.0454444,26.1893318 34.0298854,26.088371 33.9989057,25.9874794 C33.9678568,25.8865877 33.9289938,25.8012551 33.8669651,25.7313432 C33.7893083,25.6537556 33.7039065,25.5915886 33.6107598,25.5450498 C33.5176131,25.506256 33.4011625,25.490697 33.2615461,25.490697 L31.9886104,25.490697 L32.5318624,24.4584075 L32.2214425,24.4584075 L31.6703073,25.482952 C31.6781214,25.5450498 31.6936112,25.5994027 31.7091703,25.6460106 C31.7324742,25.6924803 31.763454,25.7313432 31.7945029,25.7701371 L33.2615461,25.7701371 C33.3468787,25.7701371 33.4244664,25.7856961 33.4943783,25.8166759 C33.5564761,25.8399798 33.6107598,25.8788428 33.6495537,25.9253816 C33.6961616,25.9719204 33.7194656,26.0263424 33.7350246,26.088371 C33.7504453,26.1504688 33.7582594,26.2203116 33.7582594,26.2979684 L33.7582594,26.7403979 L31.1037513,26.7403979 L31.1037513,25.0793163 L30.6535076,25.0793163 C30.4750283,25.0793163 30.3120389,25.1103652 30.1645393,25.1569732 C30.0247847,25.2035119 29.8929133,25.2734238 29.7919525,25.3587564 C29.6910609,25.4441582 29.6134732,25.5528639 29.5591203,25.6692454 C29.4969534,25.7856961 29.4737877,25.9176366 29.4737877,26.0573913 C29.4737877,26.2203116 29.5048366,26.3678111 29.5668653,26.4920067 C29.6367772,26.6083882 29.7221098,26.7092799 29.8230014,26.7947508 C29.9317071,26.8723385 30.0559027,26.9266913 30.2033332,26.9654852 C30.3430878,27.004279 30.4982631,27.019838 30.6535076,27.019838 L36.3351798,27.019838 C36.4283265,27.1207297 36.544708,27.2060623 36.6689036,27.2604152 C36.8009133,27.322513 36.9405988,27.3458169 37.0880984,27.3458169 C37.2433429,27.3458169 37.3830284,27.322513 37.5149689,27.2604152 C37.6469094,27.2060623 37.7633601,27.1284746 37.8564377,27.019838 L39.1216976,27.019838 C39.2148443,27.1207297 39.3234809,27.2060623 39.4476765,27.2604152 C39.5796171,27.322513 39.7193025,27.3458169 39.8667329,27.3458169 C40.0220466,27.3458169 40.1617321,27.322513 40.2936726,27.2604152 C40.4256823,27.2060623 40.5420638,27.1284746 40.6352105,27.019838 L42.0944397,27.019838 L42.0944397,24.4584075 L41.8072547,24.4584075 L41.8072547,26.7403979 Z M30.8165662,26.7403979 L30.5371261,26.7403979 C30.4284204,26.7403979 30.3275288,26.7248389 30.2344512,26.6938592 C30.1413045,26.6628103 30.0559027,26.6162023 29.98606,26.5540354 C29.9161481,26.4997517 29.8617953,26.4298398 29.8230014,26.3445072 C29.7764626,26.2591746 29.7609036,26.1582829 29.7609036,26.0573913 C29.7609036,25.9486164 29.7842767,25.8555388 29.8230014,25.7701371 C29.8696093,25.6924803 29.9238931,25.6148926 30.0015499,25.5528639 C30.0713926,25.4985111 30.1567944,25.4519031 30.2498719,25.4130402 C30.3430878,25.3820604 30.4362345,25.3665705 30.5371261,25.3665705 L30.8165662,25.3665705 L30.8165662,26.7403979 Z M37.7865949,26.6083882 C37.7478702,26.7015349 37.6935174,26.7791918 37.6236746,26.8490345 C37.5615768,26.9111323 37.4761751,26.9654852 37.3830284,27.004279 C37.2976266,27.0430729 37.196735,27.0586319 37.0880984,27.0586319 C36.9793927,27.0586319 36.8862459,27.0430729 36.7930992,26.9965341 C36.7077666,26.9576711 36.6301098,26.9033874 36.5602671,26.8412896 C36.4981693,26.7713777 36.4438164,26.6938592 36.4050226,26.6006433 C36.3740428,26.5075658 36.3507389,26.4143499 36.3507389,26.3134583 C36.3507389,26.2125666 36.3740428,26.111675 36.4050226,26.0185283 C36.4438164,25.9253816 36.4981693,25.8477248 36.5602671,25.777882 C36.622434,25.7157842 36.7000217,25.6615005 36.7930992,25.6148926 C36.878501,25.5760987 36.9793927,25.5605397 37.0880984,25.5605397 C37.196735,25.5605397 37.2976266,25.5760987 37.3907733,25.6148926 C37.48392,25.6537556 37.5615768,25.7080393 37.6313504,25.7701371 C37.7012623,25.8399798 37.7478702,25.9176366 37.7865949,26.0107834 C37.8253888,26.1039301 37.8487619,26.2048908 37.8487619,26.3134583 C37.8487619,26.422164 37.8253888,26.5153107 37.7865949,26.6083882 L37.7865949,26.6083882 Z M40.5653678,26.6083882 C40.5265739,26.7015349 40.4721519,26.7791918 40.4023783,26.8490345 C40.3402805,26.9111323 40.2548788,26.9654852 40.169477,27.004279 C40.0763995,27.0430729 39.9755078,27.0586319 39.8667329,27.0586319 C39.7580964,27.0586319 39.6650188,27.0430729 39.5718721,26.9965341 C39.4864012,26.9576711 39.4088135,26.9033874 39.3390399,26.8412896 C39.276873,26.7713777 39.2225893,26.6938592 39.1915404,26.6006433 C39.1526774,26.5075658 39.1293734,26.4143499 39.1293734,26.3134583 C39.1293734,26.2125666 39.1526774,26.111675 39.1915404,26.0185283 C39.2225893,25.9253816 39.276873,25.8477248 39.3390399,25.777882 C39.4010686,25.7157842 39.4786563,25.6615005 39.5718721,25.6148926 C39.6572047,25.5760987 39.7580964,25.5605397 39.8667329,25.5605397 C39.9755078,25.5605397 40.0763995,25.5760987 40.169477,25.6148926 C40.2626237,25.6537556 40.3402805,25.7080393 40.4101233,25.7701371 C40.4800352,25.8399798 40.5343189,25.9176366 40.5653678,26.0107834 C40.6041616,26.1039301 40.6273964,26.2048908 40.6273964,26.3134583 C40.6273964,26.422164 40.6041616,26.5153107 40.5653678,26.6083882 L40.5653678,26.6083882 Z M27.7521988,26.8584391 L28.0393147,26.8584391 L28.0393147,24.2970777 L27.7521988,24.2970777 L27.7521988,26.8584391 Z M18.5001105,24.5920076 L18.7950405,24.5920076 L18.7950405,24.2970777 L18.5001105,24.2970777 L18.5001105,24.5920076 Z M19.0046378,24.5920076 L19.299637,24.5920076 L19.299637,24.2970777 L19.0046378,24.2970777 L19.0046378,24.5920076 Z M20.2542697,27.494907 L20.5491996,27.494907 L20.5491996,27.1999078 L20.2542697,27.1999078 L20.2542697,27.494907 Z M22.0938306,24.9179174 L21.8066455,24.9179174 L21.8066455,26.578999 L20.7277481,26.578999 L20.7277481,24.9179174 L20.4405631,24.9179174 L20.4405631,26.578999 L19.299637,26.578999 L19.299637,24.9179174 L18.8493933,24.9179174 C18.670914,24.9179174 18.5078554,24.9490354 18.360425,24.9955742 C18.2129255,25.0421821 18.0887299,25.1120249 17.9878382,25.1974266 C17.8869466,25.2828284 17.8015448,25.391465 17.747192,25.5078465 C17.6928391,25.6242971 17.6618593,25.7562377 17.6618593,25.8959923 C17.6618593,26.0589126 17.7006532,26.2064122 17.762751,26.3306078 C17.8248488,26.4470584 17.9101814,26.5478809 18.0188871,26.6333518 C18.1275237,26.7109395 18.2517193,26.7652924 18.3992189,26.8041554 C18.5389043,26.8428801 18.6864039,26.8584391 18.8493933,26.8584391 L22.0938306,26.8584391 L22.0938306,24.9179174 Z M19.0123828,26.578999 L18.7251977,26.578999 C18.6243061,26.578999 18.5234145,26.5634399 18.4225228,26.5324602 C18.329307,26.5014113 18.2517193,26.4548034 18.1818766,26.3927056 C18.1120338,26.3383527 18.049936,26.26851 18.0111422,26.1831082 C17.9723483,26.0977756 17.9490444,25.996884 17.9490444,25.8959923 C17.9490444,25.7872866 17.9723483,25.6941399 18.0188871,25.6087381 C18.0654259,25.5311504 18.1197788,25.4534936 18.1896215,25.391465 C18.2672783,25.3371121 18.3526801,25.2905733 18.4457576,25.2517103 C18.5389043,25.2206614 18.632051,25.2051716 18.7251977,25.2051716 L19.0123828,25.2051716 L19.0123828,26.578999 Z M20.7509829,27.494907 L21.045982,27.494907 L21.045982,27.1999078 L20.7509829,27.1999078 L20.7509829,27.494907 Z M26.6345075,26.578999 L25.4159246,26.578999 L25.9203828,25.3759059 C25.8427951,25.3138773 25.7573934,25.2517103 25.6720608,25.1896125 C25.586659,25.1353288 25.5012572,25.080976 25.4081105,25.0344372 C25.3149638,24.9955742 25.2296312,24.9567804 25.1364845,24.9334764 C25.0432687,24.9102416 24.9501911,24.8946826 24.8570444,24.8946826 C24.7638977,24.8946826 24.670751,24.9102416 24.5776043,24.9334764 C24.4844576,24.9567804 24.3913109,24.9955742 24.2982334,25.0344372 C24.2050175,25.080976 24.1196849,25.1275147 24.034214,25.1896125 C23.9488814,25.2517103 23.8712937,25.3138773 23.7936369,25.3759059 C24.2979568,26.5601898 24.3057708,26.5787224 24.3059091,26.578999 L23.2348258,26.578999 L23.2348258,24.9179174 L22.9476408,24.9179174 L22.9476408,26.9204677 C22.9476408,27.0059386 22.9476408,27.0757122 22.9321509,27.1300651 C22.9243368,27.184418 22.9165919,27.2309567 22.8932187,27.2620748 C22.8699839,27.3007995 22.8467491,27.3241034 22.8078861,27.3396625 C22.7769064,27.3551523 22.7302985,27.3629664 22.6759456,27.3629664 C22.6526416,27.3629664 22.6294068,27.3629664 22.6061029,27.3551523 C22.5905438,27.3551523 22.5595641,27.3474074 22.5285152,27.3396625 L22.4508583,27.6191026 C22.5362601,27.6345924 22.6138478,27.6501515 22.6837597,27.6501515 C22.7923271,27.6501515 22.877798,27.6345924 22.9476408,27.5957986 C23.0174835,27.5647497 23.0717672,27.5181418 23.1183751,27.456044 C23.1572381,27.3940153 23.1882179,27.3163585 23.2115218,27.2232118 C23.2270809,27.1378792 23.2348258,27.0369875 23.2348258,26.9204677 L23.2348258,26.8584391 L26.9216234,26.8584391 L26.9216234,24.2970777 L26.6345075,24.2970777 L26.6345075,26.578999 Z M24.6009083,26.578999 L24.1584787,25.4767976 C24.2671153,25.38372 24.375821,25.3138773 24.4922025,25.2750143 C24.6086532,25.2284064 24.7328488,25.2129165 24.8570444,25.2129165 C24.988985,25.2129165 25.1131806,25.2362205 25.2373762,25.2905733 C25.3693167,25.3371121 25.4779533,25.3992099 25.563355,25.4767976 L25.1131806,26.578999 L24.6009083,26.578999 Z M21.7989006,27.494907 L22.0938306,27.494907 L22.0938306,27.1999078 L21.7989006,27.1999078 L21.7989006,27.494907 Z M14.8716074,26.5723605 L14.8606123,26.5723605 L14.3981289,26.5723605 C14.2351395,26.5723605 14.1031989,26.5491256 14.0023073,26.5025177 C13.9091606,26.4559098 13.8315038,26.3783221 13.7772201,26.2851754 C13.8004549,26.2075877 13.8081998,26.122186 13.8081998,26.0135494 L13.8081998,25.0976414 L13.5210839,25.0976414 L13.5210839,26.0601573 C13.5210839,26.2308917 13.474476,26.3628322 13.3890742,26.4559098 C13.2959275,26.5568014 13.163987,26.6034094 12.9855077,26.6034094 C12.9001059,26.6034094 12.8225182,26.5956644 12.7526063,26.5646155 C12.6827636,26.5413116 12.6284107,26.5025177 12.574127,26.4637239 C12.5275191,26.417116 12.4887253,26.3628322 12.4576764,26.3006653 C12.4266275,26.2386366 12.4110684,26.1764697 12.4110684,26.1066961 L12.4110684,25.0976414 L12.1239525,25.0976414 L12.1239525,26.0833921 C12.1239525,26.1764697 12.1083935,26.2463816 12.0850896,26.3084794 C12.0618547,26.370508 12.0230609,26.417116 11.976453,26.4559098 C11.9298451,26.4947728 11.8833063,26.5258217 11.8212085,26.5413116 C11.7668556,26.5646155 11.7047578,26.5723605 11.6427292,26.5723605 L11.083849,26.5723605 L11.083849,25.0976414 L10.7966639,25.0976414 L10.7966639,26.5723605 L9.2986409,26.5723605 L9.79542331,25.3770815 C9.71776648,25.3071696 9.64010966,25.245141 9.55477704,25.182974 C9.46937528,25.1286903 9.37622858,25.0743374 9.29089596,25.0355436 C9.19774926,24.9890048 9.10453341,24.9501418 9.01145586,24.9268379 C8.91830916,24.9035339 8.82509331,24.8881132 8.73976069,24.8881132 C8.64661399,24.8881132 8.55346729,24.9035339 8.46038974,24.9268379 C8.36717389,24.9501418 8.27409634,24.9890048 8.18094963,25.0277987 C8.08780293,25.0743374 8.00240117,25.1209454 7.9169994,25.182974 C7.83159764,25.245141 7.74626503,25.3071696 7.67642229,25.3770815 L8.18094963,26.5723605 L7.18738482,26.5723605 L7.18738482,24.9191621 L6.7294654,24.9191621 C6.55091693,24.9191621 6.39567243,24.9423969 6.24824202,24.9890048 C6.1008116,25.0432885 5.97654685,25.1131313 5.87565521,25.198533 C5.76701863,25.2838657 5.68936181,25.3848265 5.62726401,25.5090221 C5.57298029,25.6254727 5.54193139,25.7574133 5.54193139,25.8970987 C5.54193139,26.0678331 5.57298029,26.2153327 5.64282303,26.3317833 C5.70492083,26.4559098 5.79025345,26.5491256 5.89895917,26.6267133 C6.00759575,26.704301 6.13179135,26.7664679 6.27929092,26.8051926 C6.41904554,26.8362415 6.5742209,26.8595455 6.7294654,26.8595455 L6.90026893,26.8595455 L6.90026893,26.9371332 C6.90026893,27.0924468 6.86147509,27.1932693 6.77600417,27.2631812 C6.69067156,27.325279 6.56647596,27.3563279 6.41123146,27.3563279 C6.32582969,27.3563279 6.24049708,27.348583 6.17065434,27.3330931 C6.1008116,27.3174649 6.02315477,27.2864852 5.93000807,27.2476913 L5.84460631,27.5193173 C5.95331204,27.5659253 6.04645874,27.5891601 6.13179135,27.612464 C6.21719312,27.635768 6.30259488,27.6434438 6.38792749,27.6434438 C6.6673676,27.6434438 6.86915087,27.5736011 7.00116057,27.4416605 C7.12528702,27.30972 7.18738482,27.1312407 7.18738482,26.9138984 L7.18738482,26.8595455 L11.6427292,26.8595455 C11.7824146,26.8595455 11.9065411,26.8284966 12.0152468,26.7664679 C12.1239525,26.704301 12.2092852,26.6267133 12.279197,26.5258217 C12.3412257,26.6422032 12.4421173,26.7353499 12.558568,26.7975168 C12.6750187,26.8595455 12.8225182,26.8906636 12.9855077,26.8906636 C13.156242,26.8906636 13.3037416,26.8595455 13.4201923,26.8051926 C13.5443187,26.743164 13.6374654,26.6500173 13.6995632,26.5258217 C13.7228672,26.5723605 13.7539161,26.6112234 13.7927099,26.6500173 C13.8237588,26.6888111 13.8702976,26.71986 13.9247196,26.7509089 C13.9790033,26.7819578 14.0411011,26.8129376 14.1186888,26.8284966 C14.1807866,26.8440556 14.2506294,26.8518006 14.3282862,26.8518006 L14.3282862,26.8595455 L15.1587924,26.8595455 L15.1587924,24.29037 L14.8716074,24.29037 L14.8716074,26.5723605 Z M15.9892986,26.8595455 L16.2764837,26.8595455 L16.2764837,24.29037 L15.9892986,24.29037 L15.9892986,26.8595455 Z M4.90546351,25.1675533 C4.82780668,25.0821515 4.74240492,25.0200537 4.64932737,24.9811907 C4.55618066,24.934652 4.43973,24.9191621 4.30778946,24.9191621 L4.09044716,24.9191621 L4.09044716,25.198533 L4.3465833,25.198533 C4.41649519,25.198533 4.47852384,25.2140229 4.54062164,25.245141 C4.60271944,25.2761899 4.6570723,25.3149146 4.69586614,25.3615225 C4.73465998,25.4158062 4.76577803,25.4702282 4.78126791,25.5245811 C4.79682693,25.5866097 4.80457187,25.6565216 4.80457187,25.7418542 L4.80457187,26.5723605 L3.46179336,26.5723605 L3.46179336,26.8595455 L5.09175691,26.8595455 L5.09175691,25.7341093 C5.09175691,25.6176586 5.07619788,25.516767 5.04514898,25.4158062 C5.01410008,25.3149146 4.96756131,25.2373269 4.90546351,25.1675533 L4.90546351,25.1675533 Z M0.838264993,24.5853691 L1.13319497,24.5853691 L1.13319497,24.29037 L0.838264993,24.29037 L0.838264993,24.5853691 Z M2.81751139,27.4882684 L3.11244137,27.4882684 L3.11244137,27.1932693 L2.81751139,27.1932693 L2.81751139,27.4882684 Z M1.33497825,24.5853691 L1.62997738,24.5853691 L1.62997738,24.29037 L1.33497825,24.29037 L1.33497825,24.5853691 Z M2.32072898,27.4882684 L2.61572811,27.4882684 L2.61572811,27.1932693 L2.32072898,27.1932693 L2.32072898,27.4882684 Z" id="Fill-190" fill="#9B9C9E"></path>
                            <path d="M40.155059,1.04535822 L40.5595245,1.04535822 L40.5595245,1.40874791 L40.1887356,1.40874791 C40.1090043,1.40874791 40.0437255,1.47395752 40.0437255,1.55375803 L40.0437255,1.69876816 L40.6783955,1.69876816 L40.6783955,2.09210033 L39.6316534,2.09210033 L39.6316534,1.5686947 C39.6316534,1.28081815 39.8672516,1.04535822 40.155059,1.04535822 L40.155059,1.04535822 Z M24.497216,4.88975148 C24.497216,3.8669357 25.2203995,3.05081293 26.253588,3.05081293 L27.4106263,3.05081293 L27.1109941,3.19540814 L27.1109941,5.9848303 C27.1109941,6.18115063 27.1213667,6.35679475 27.1523465,6.50138996 C27.1730227,6.59439836 27.1936298,6.67703407 27.2246787,6.74929711 L26.2638915,6.74929711 C25.2410757,6.74929711 24.497216,5.9228708 24.497216,4.90005502 L24.497216,4.88975148 Z M26.253588,7.22457348 L27.2763346,7.22457348 L27.2763346,6.85260904 C27.2866382,6.86298172 27.2970109,6.88365794 27.3073144,6.90433415 C27.3796466,7.00757693 27.4829585,7.0902818 27.6068775,7.15231045 C27.7205621,7.20389727 27.87553,7.23487702 28.0511741,7.23487702 L37.0702919,7.23487702 L37.0702919,2.58590924 L36.5743393,2.58590924 L36.5743393,6.73899357 L36.0577797,6.73899357 L28.0718503,6.73899357 C27.9788419,6.73899357 27.8962062,6.72869004 27.8341776,6.70801382 C27.7825216,6.67703407 27.7308656,6.63568164 27.6998859,6.57372214 C27.6586026,6.51176264 27.6378572,6.43936131 27.617181,6.33611853 C27.6068775,6.24317928 27.5966431,6.12949467 27.5966431,5.9848303 L27.5966431,2.58590924 L26.2638915,2.58590924 C24.9001602,2.58590924 23.9703528,3.66031184 23.9703528,4.90005502 L23.9703528,4.9104277 C23.9703528,6.15017088 24.8795531,7.22457348 26.253588,7.22457348 L26.253588,7.22457348 Z M41.967236,7.28653298 C41.8328752,7.28653298 41.6985835,7.26592592 41.5642918,7.23487702 L41.68828,6.75966979 C41.7502395,6.77004247 41.7915919,6.78034601 41.8225025,6.79064954 L41.9464906,6.79064954 C42.039499,6.79064954 42.1118312,6.78034601 42.1737907,6.74929711 C42.2358194,6.72869004 42.2874753,6.68733761 42.3184551,6.62537811 C42.3494348,6.56334946 42.3804837,6.49108643 42.3907873,6.3877745 C42.4114635,6.2947661 42.4114635,6.17077795 42.4114635,6.03648627 L42.4114635,2.58590924 L42.9073469,2.58590924 L42.9073469,6.03648627 C42.9073469,6.2328066 42.8969742,6.39807803 42.8659945,6.55304593 C42.8350148,6.70801382 42.7833588,6.8423055 42.7007231,6.95599012 C42.6283909,7.05930205 42.5354516,7.14193777 42.4114635,7.20389727 C42.2874753,7.25562238 42.142811,7.28653298 41.967236,7.28653298 L41.967236,7.28653298 Z M27.1110632,2.09002579 L27.5966431,2.09002579 L27.5966431,1.59414235 L27.1110632,1.59414235 L27.1110632,2.09002579 Z M38.4855409,3.79467267 C38.5578731,3.63970477 38.661185,3.51571662 38.7851732,3.41240469 C38.9091613,3.30909276 39.0537566,3.22645704 39.2190971,3.16442839 C39.374065,3.11277243 39.5290329,3.08179268 39.704677,3.08179268 L40.5001236,3.08179268 L40.2212367,3.22645704 L40.2212367,5.43729089 L39.7150497,5.43729089 C39.5290329,5.43729089 39.3533888,5.41661468 39.1984901,5.36495871 C39.0331495,5.31330274 38.8885543,5.23066703 38.7645661,5.13772778 C38.640578,5.0343467 38.5475696,4.9104277 38.4752374,4.77606687 C38.4029744,4.63147165 38.3719946,4.46613107 38.3719946,4.28018343 C38.3719946,4.10460846 38.4029744,3.93926788 38.4855409,3.79467267 L38.4855409,3.79467267 Z M38.4855409,5.54060282 C38.6715577,5.67489451 38.8885543,5.7679029 39.1365306,5.84016594 C39.3843686,5.90219459 39.6427175,5.93317434 39.9216044,5.93317434 L40.0455926,5.93317434 L40.2212367,5.58195526 L40.2212367,6.06746602 C40.2212367,6.33611853 40.138601,6.51176264 39.9939366,6.62537811 C39.8493414,6.73899357 39.6427175,6.79064954 39.374065,6.79064954 C39.2190971,6.79064954 39.0848055,6.78034601 38.9608173,6.74929711 C38.8368983,6.71838651 38.7025375,6.67703407 38.5371969,6.60470189 L38.3822982,7.07997827 C38.5785493,7.15231045 38.7438899,7.20389727 38.8885543,7.23487702 C39.0331495,7.26592592 39.1881865,7.28653298 39.3327126,7.28653298 C39.8182925,7.28653298 40.1695807,7.17291752 40.3865773,6.94561744 C40.6034355,6.71838651 40.7068166,6.40845071 40.7068166,6.02618273 L40.7068166,2.58590924 L39.9216044,2.58590924 C39.6117378,2.58590924 39.3327126,2.62719252 39.0848055,2.70982823 C38.8368983,2.7925331 38.6199709,2.91652125 38.4442576,3.06111646 C38.25831,3.21608436 38.1240183,3.39172847 38.0207064,3.59835234 C37.927698,3.8049762 37.876042,4.03220713 37.876042,4.28018343 C37.876042,4.56944301 37.927698,4.8174193 38.0413826,5.02404317 C38.1446945,5.23066703 38.2996624,5.40624199 38.4855409,5.54060282 L38.4855409,5.54060282 Z M26.119158,2.09002579 L26.6151106,2.09002579 L26.6151106,1.59414235 L26.119158,1.59414235 L26.119158,2.09002579 Z M36.3986952,8.22671305 L36.8946478,8.22671305 L36.8946478,7.73082961 L36.3986952,7.73082961 L36.3986952,8.22671305 Z M35.4069283,8.22671305 L35.9028118,8.22671305 L35.9028118,7.73082961 L35.4069283,7.73082961 L35.4069283,8.22671305 Z" id="Fill-191" fill="#9B9C9E"></path>
                            <path d="M5.29027625,7.17493673 L5.81658623,7.17493673 L5.81658623,2.55190066 L5.29027625,2.55190066 L5.29027625,7.17493673 Z M10.0990525,5.92634219 L10.0990525,5.93664573 C10.0990525,6.73119331 9.42828562,7.24719976 8.50995734,7.24719976 C7.77723095,7.24719976 7.17872708,6.99950007 6.6215065,6.50416984 L6.94140008,6.12238592 C7.42642678,6.55575665 7.89077726,6.7724766 8.5305644,6.7724766 C9.15997886,6.7724766 9.562439,6.44227949 9.562439,5.98823254 L9.562439,5.97792901 C9.562439,5.54448912 9.33548467,5.29685858 8.35512774,5.10074571 C7.2922734,4.86348785 6.8072467,4.52291806 6.8072467,3.75928107 L6.8072467,3.74897754 C6.8072467,3.0163203 7.44703384,2.47970678 8.32421714,2.47970678 C9.00521842,2.47970678 9.49024512,2.67575051 9.9545956,3.05760358 L9.65537825,3.45999456 C9.22193836,3.10919039 8.78849848,2.9543608 8.31384446,2.9543608 C7.7153406,2.9543608 7.323184,3.28462705 7.323184,3.69732157 L7.323184,3.71799779 C7.323184,4.15143767 7.56058015,4.39906821 8.58215122,4.61578816 C9.61402581,4.84281163 10.0990525,5.21429202 10.0990525,5.92634219 L10.0990525,5.92634219 Z M14.7529992,2.46940325 C13.349575,2.46940325 12.3898943,3.59421709 12.3898943,4.86348785 L12.3898943,4.87379138 C12.3898943,6.15329652 13.328968,7.2575033 14.7426956,7.2575033 C16.1564233,7.2575033 17.116104,6.14306214 17.116104,4.86348785 L17.116104,4.85311516 C17.116104,3.57354088 16.1667268,2.46940325 14.7529992,2.46940325 L14.7529992,2.46940325 Z M16.569187,4.87379138 C16.569187,5.92634219 15.8158535,6.7724766 14.7529992,6.7724766 C13.7004484,6.7724766 12.9265078,5.91596951 12.9265078,4.86348785 L12.9265078,4.85311516 C12.9265078,3.80056435 13.6797722,2.9543608 14.7426956,2.9543608 C15.80555,2.9543608 16.569187,3.81086789 16.569187,4.86348785 L16.569187,4.87379138 Z M10.9555596,7.17493673 L11.4818004,7.17493673 L11.4818004,2.55190066 L10.9555596,2.55190066 L10.9555596,7.17493673 Z M2.12232028,7.21622001 L0.130764969,2.55190066 L0.708661765,2.55190066 L0.997575588,3.24327462 L2.35971644,6.53514959 L2.49386982,6.85504316 L2.44221385,6.3494094 L4.02107465,2.55190066 L4.57829523,2.55190066 L2.58673991,7.21622001 L2.12232028,7.21622001 Z M21.3881976,2.55190066 L21.8938314,2.55190066 L21.8938314,7.17493673 L21.4810677,7.17493673 L18.1892619,3.0163203 L18.4781757,3.68701804 L18.4781757,7.17493673 L17.972542,7.17493673 L17.972542,2.55190066 L18.4575687,2.55190066 L21.594614,6.53514959 L21.3881976,5.96755632 L21.3881976,2.55190066 Z" id="Fill-192" fill="#9B9C9E"></path>
                        </g>
                    </g>
                </g>
            </g>
        </g>
    </g>
</svg>