<?xml version="1.0" encoding="UTF-8"?>
<svg width="71px" height="80px" viewBox="0 0 71 80" version="1.1" xmlns="http://www.w3.org/2000/svg" xmlns:xlink="http://www.w3.org/1999/xlink">
    <!-- Generator: sketchtool 57.1 (101010) - https://sketch.com -->
    <title>B807A641-EE80-4F19-85D7-CB5792D8FE80</title>
    <desc>Created with sketchtool.</desc>
    <defs>
        <path d="M33.6055447,65.6402592 L13.5270755,54.0417659 C12.6495706,53.5384059 12.1095676,52.6069007 12.1095676,51.5905379 L12.1095676,28.4128371 C12.1095676,27.38876 12.6495706,26.4553262 13.5367184,25.9519662 L33.613259,14.3631159 C34.4926925,13.8616845 35.5707699,13.8616845 36.4502034,14.3631159 L56.526744,25.9519662 C57.4042489,26.4649691 57.9442519,27.3964743 57.9442519,28.4128371 L57.9365376,51.6001808 C57.9365376,52.6069007 57.3965346,53.5461202 56.5171011,54.0514088 L36.4405605,65.6402592 C35.5630556,66.1513334 34.4830496,66.1513334 33.6055447,65.6402592 M68.6382402,18.964713 L36.4502034,0.3789664 C35.5707699,-0.126322133 34.4926925,-0.126322133 33.613259,0.3789664 L1.42715082,18.9550701 C0.549645924,19.4680729 0.00964291095,20.3995781 0.00964291095,21.4159409 L0,58.5797198 C0,59.5960826 0.540003013,60.5256592 1.41750791,61.0290191 L33.6055447,79.6166943 C34.4830496,80.1277686 35.5630556,80.1277686 36.4405605,79.6166943 L68.6285973,61.048305 C69.5041736,60.5372307 70.0461052,59.6037969 70.0461052,58.5874341 L70.0461052,21.4255838 C70.0461052,20.4188639 69.5041736,19.4757873 68.6382402,18.964713" id="path-1"></path>
    </defs>
    <g id="Page-1" stroke="none" stroke-width="1" fill="none" fill-rule="evenodd">
        <g id="Homepage" transform="translate(-99.000000, -327.000000)">
            <g id="Group-6" transform="translate(99.000000, 327.000000)">
                <g id="Group-10">
                    <mask id="mask-2" fill="white">
                        <use xlink:href="#path-1"></use>
                    </mask>
                    <use id="Fill-46" fill="#FFFFFF" opacity="0.100000001" xlink:href="#path-1"></use>
                </g>
            </g>
        </g>
    </g>
</svg>