<?xml version="1.0" encoding="UTF-8"?>
<svg width="30px" height="30px" viewBox="0 0 30 30" version="1.1" xmlns="http://www.w3.org/2000/svg" xmlns:xlink="http://www.w3.org/1999/xlink">
    <!-- Generator: sketchtool 55.1 (78136) - https://sketchapp.com -->
    <title>92C863D4-FA79-44B6-990D-790E33BA7035</title>
    <desc>Created with sketchtool.</desc>
    <g id="Page-1" stroke="none" stroke-width="1" fill="none" fill-rule="evenodd">
        <g id="About-Us" transform="translate(-538.000000, -3041.000000)">
            <g id="Group-24" transform="translate(0.000000, 2436.000000)">
                <g id="Group-19" transform="translate(539.000000, 606.000000)">
                    <g id="user-alt">
                        <circle id="Oval" stroke="#848484" cx="14" cy="14" r="14"></circle>
                        <path d="M18.2608696,7.91304348 C18.3217391,5.6 16.4956522,3.71304348 14.1826087,3.65217391 C14.1217391,3.65217391 14.0608696,3.65217391 14,3.65217391 C11.6869565,3.59130435 9.8,5.4173913 9.73913043,7.73043478 C9.73913043,7.79130435 9.73913043,7.85217391 9.73913043,7.91304348 C9.73913043,8.4 10.226087,10.773913 10.226087,10.773913 C10.5913043,12.8434783 11.9304348,14.6086957 14,14.6086957 C16.0695652,14.6086957 17.4086957,12.9043478 17.773913,10.773913 C17.773913,10.773913 18.2608696,8.4 18.2608696,7.91304348 Z" id="Path" stroke="#ebc03f"></path>
                        <path d="M3.65217391,23.4347826 L3.65217391,23.0086957 C3.65217391,21.1217391 5.05217391,19.7217391 6.93913043,19.2347826 L14,17.9565217 L21.1217391,19.2956522 C22.9478261,19.8434783 24.3478261,21.1217391 24.3478261,23.0695652 L24.3478261,23.4956522" id="Path" stroke="#ebc03f"></path>
                    </g>
                </g>
            </g>
        </g>
    </g>
</svg>