<?xml version="1.0" encoding="UTF-8"?>
<svg width="74px" height="52px" viewBox="0 0 74 52" version="1.1" xmlns="http://www.w3.org/2000/svg" xmlns:xlink="http://www.w3.org/1999/xlink">
    <!-- Generator: sketchtool 55.1 (78136) - https://sketchapp.com -->
    <title>35854FAC-11AE-4C96-A64F-97BBF4758AD8</title>
    <desc>Created with sketchtool.</desc>
    <g id="Page-1" stroke="none" stroke-width="1" fill="none" fill-rule="evenodd">
        <g id="Homepage" transform="translate(-1013.000000, -3217.000000)">
            <g id="Group-47" transform="translate(0.000000, 3028.000000)">
                <g id="Group-6" transform="translate(692.000000, 190.000000)">
                    <g id="Group-5" transform="translate(322.000000, 0.000000)">
                        <g id="users">
                            <path d="M33.9970493,9.73684211 C34.1302923,4.47368421 29.7332736,0 24.403554,0 C24.270311,0 24.137068,0 24.003825,0 C18.5408624,0 13.7441147,4.34210526 14.0106007,9.73684211 C14.0106007,10.7894737 15.0765446,16.3157895 15.0765446,16.3157895 C15.8760026,21.0526316 19.0738344,25 24.003825,25 C28.9338156,25 31.9984044,21.0526316 32.9311054,16.3157895 C32.9311054,16.3157895 33.9970493,10.9210526 33.9970493,9.73684211 Z" id="Path" stroke="#ebc03f"></path>
                            <path d="M49,50 L0,50 L0.794594595,40.676259 C1.19189189,37.1798561 4.9,34.7194245 8.60810811,34.0719424 L24.5,32 L40.5243243,34.0719424 C44.6297297,34.8489209 48.2054054,37.0503597 48.4702703,41.0647482 L49,50 Z" id="Path" stroke="#ebc03f"></path>
                            <path d="M60,15.9470199 C60,11.5761589 56.4,8 52,8 C47.6,8 44,11.5761589 44,15.9470199 C44,16.8741722 44.9333333,21.1125828 44.9333333,21.1125828 C45.6,24.8211921 48.1333333,28 52,28 C55.8666667,28 58.4,24.8211921 59.0666667,21.1125828 C59.2,21.1125828 60,16.7417219 60,15.9470199 Z" id="Path" stroke="#000000"></path>
                            <path d="M52,34 L65.2,35.6 C68.4,36.1333333 71.3333333,38 71.6,41.4666667 L72,50 L56.6666667,50" id="Path" stroke="#000000"></path>
                        </g>
                    </g>
                </g>
            </g>
        </g>
    </g>
</svg>