<?xml version="1.0" encoding="UTF-8"?>
<svg width="95px" height="94px" viewBox="0 0 95 94" version="1.1" xmlns="http://www.w3.org/2000/svg" xmlns:xlink="http://www.w3.org/1999/xlink">
    <!-- Generator: sketchtool 55.1 (78136) - https://sketchapp.com -->
    <title>62ECDBAE-D6F9-4B80-B895-97A0BB1A0649</title>
    <desc>Created with sketchtool.</desc>
    <g id="Page-1" stroke="none" stroke-width="1" fill="none" fill-rule="evenodd">
        <g id="Homepage" transform="translate(-135.000000, -3936.000000)" fill="#929292">
            <g id="Group-49" transform="translate(135.000000, 3921.000000)">
                <g id="Group" transform="translate(0.000000, 14.988338)">
                    <polyline id="Fill-38" points="7.10542736e-15 83.9295736 1.85663487 83.9295736 4.50274862 87.9305706 4.57897282 88.1292515 4.62797576 87.9305706 7.28770092 83.9295736 8.29496546 83.9295736 8.29496546 91.5509448 7.21147516 91.5509448 7.21147516 85.5806595 7.12980514 85.8661656 4.88387587 89.1383006 4.24956986 89.1383006 2.02542071 85.8661656 1.94102779 85.6241503 1.94102779 91.5509448 0.857537487 91.5509448 0.857537487 84.7020828 7.10542736e-15 84.470862"></polyline>
                    <path d="M11.2508801,86.2591472 L11.2508801,91.5495368 L10.2327254,91.5495368 L10.2327254,86.9038436 L9.59025384,86.7244049 L9.59025384,86.2591472 L11.2508801,86.2591472 Z M11.4196659,84.5864724 L10.5403498,85.1249448 L10.0122169,84.2274387 L10.9133099,83.6969448 L11.4196659,84.5864724 Z" id="Fill-39"></path>
                    <path d="M17.9451029,87.9618589 L17.9451029,91.5495368 L16.9296728,91.5495368 L16.9296728,88.2257761 C16.9296728,87.4532669 16.5893798,87.0534018 15.9033604,87.020862 C15.3833931,86.9881656 14.7790296,87.2846227 14.0685057,87.9075736 L14.0685057,91.5495368 L13.0530756,91.5495368 L13.0530756,86.9147945 L12.4078763,86.7244049 L12.4078763,86.2591472 L13.9623295,86.2591472 L14.0467256,87.1594693 C14.7899275,86.4604877 15.5303894,86.109589 16.2627091,86.109589 C17.2481857,86.109589 17.9451029,86.7678957 17.9451029,87.9618589" id="Fill-40"></path>
                    <path d="M20.7020198,86.2591472 L20.7020198,91.5495368 L19.6838652,91.5495368 L19.6838652,86.9038436 L19.0386659,86.7244049 L19.0386659,86.2591472 L20.7020198,86.2591472 Z M20.8708119,84.5864724 L19.9914958,85.1249448 L19.463355,84.2274387 L20.3617267,83.6969448 L20.8708119,84.5864724 Z" id="Fill-41"></path>
                    <path d="M24.4079459,91.6446534 C23.5912458,91.7590123 22.6493138,91.622908 21.8462204,91.2965706 L22.0476749,90.5321963 C23.3081198,90.9891626 24.8543995,91.1279264 24.8870775,90.1406227 C24.8870775,89.9201963 24.8026815,89.7625031 24.4923263,89.5911994 C24.3344321,89.5068773 24.2092159,89.4443006 24.1030398,89.3898589 C23.9859813,89.3490276 23.7927003,89.2729969 23.517732,89.166773 C22.4478594,88.7778589 21.8870562,88.3970798 21.9197186,87.5810798 C21.9523966,85.9409448 24.2935963,85.8566227 25.6357128,86.4604877 L25.4478807,87.222046 C24.3970481,86.7678957 22.8752573,86.7868252 22.8943286,87.5702853 C22.8943286,87.8449969 23.0522228,87.9945552 23.3380577,88.141454 C23.55041,88.258316 23.6347904,88.2802178 23.9424211,88.3862853 C24.0921575,88.437911 24.1955936,88.4814018 24.2691074,88.5112822 C25.3199244,88.8920613 25.8916098,89.2947423 25.8589474,90.1406227 C25.826285,91.0001135 25.2246461,91.5277914 24.4079459,91.6446534" id="Fill-42"></path>
                    <path d="M29.8553432,91.4853957 C28.9869094,91.7818528 28.3281034,91.7709018 27.8952566,91.4553589 C27.4596853,91.1481074 27.2364507,90.6720552 27.2364507,90.0356503 L27.2364507,87.0408865 L26.3489612,87.0408865 L26.3489612,86.5649908 L27.2364507,86.1950061 L27.2364507,84.998227 L28.2654875,84.998227 L28.2654875,86.2602423 L29.3762116,86.2602423 L29.3762116,87.0408865 L28.2654875,87.0408865 L28.2654875,89.907681 C28.2654875,90.7019356 28.6166784,91.0420399 29.6647709,90.7128865 L29.8553432,91.4853957 Z" id="Fill-43"></path>
                    <path d="M31.9610638,87.1355337 C32.7124392,86.3414356 33.2568956,85.9605 34.059989,86.1618405 L33.9647107,87.0512117 C33.2460133,86.9152638 32.7478261,87.2742975 31.9964663,88.0657362 L31.9964663,91.5500061 L30.9674138,91.5500061 L30.9674138,86.9152638 L30.3195058,86.7248742 L30.3195058,86.2571135 L31.8793923,86.2571135 L31.9610638,87.1355337 Z" id="Fill-44"></path>
                    <polyline id="Fill-45" points="38.8997659 86.2591472 39.9505829 86.2591472 36.9505773 93.8778589 35.8942957 93.8778589 37.015902 91.1470123 36.6021108 91.1470123 34.5358637 86.2591472 35.573074 86.2591472 37.3017525 90.385454"></polyline>
                    <path d="M45.8545174,91.6765675 C45.0595974,91.6765675 44.4252961,91.4126503 43.9271088,90.8932638 C43.4289216,90.3737209 43.1757491,89.6964847 43.1757491,88.8831442 C43.1757491,88.0671442 43.4289216,87.4007025 43.9271088,86.881316 C44.4252961,86.3644325 45.0595974,86.1114663 45.8545174,86.1114663 C46.6494531,86.1114663 47.2946366,86.3644325 47.7928238,86.881316 C48.2910111,87.4007025 48.5441992,88.0671442 48.5441992,88.8831442 C48.5441992,89.6964847 48.2910111,90.3737209 47.7928238,90.8932638 C47.2946366,91.4126503 46.6494531,91.6765675 45.8545174,91.6765675 M45.8545174,90.8524325 C46.3418224,90.8524325 46.7338334,90.6701779 47.0414641,90.3219387 C47.3490791,89.9738558 47.4960911,89.4870092 47.4960911,88.8831442 C47.4960911,88.2792791 47.3490791,87.8033834 47.0523463,87.4551442 C46.7447313,87.1042454 46.3527046,86.9356012 45.8545174,86.9356012 C45.3563302,86.9356012 44.9643191,87.1042454 44.6675863,87.4551442 C44.3599557,87.8033834 44.2129594,88.2792791 44.2129594,88.8831442 C44.2129594,89.4870092 44.3599557,89.9738558 44.6675863,90.3219387 C44.9752013,90.6701779 45.3672281,90.8524325 45.8545174,90.8524325" id="Fill-46"></path>
                    <path d="M52.7082754,84.1101074 C51.4260661,83.7811104 51.0122592,84.1428037 51.0122592,84.9343988 L51.0122592,86.2589908 L52.3489267,86.2589908 L52.3489267,87.0422945 L51.0122592,87.0422945 L51.0122592,91.5492239 L49.9968291,91.5492239 L49.9968291,87.0422945 L49.180129,87.0422945 L49.180129,86.2589908 L49.9968291,86.2589908 L49.9968291,84.9561442 C49.9968291,84.2679571 50.2200637,83.7510736 50.6746907,83.4111258 C51.1293177,83.0847883 51.8697952,83.052092 52.9097299,83.3268037 L52.7082754,84.1101074 Z" id="Fill-47"></path>
                    <polyline id="Fill-48" points="61.4467116 84.8089325 57.9185652 84.8089325 57.9185652 87.5914049 60.7906302 87.5914049 60.7906302 88.4809325 57.9185652 88.4809325 57.9185652 91.551727 56.8405191 91.551727 56.8405191 84.7246104 55.9693765 84.4689847 55.9693765 83.9303558 61.4467116 83.9303558"></polyline>
                    <path d="M63.9270317,86.2591472 L63.9270317,91.5495368 L62.9116016,91.5495368 L62.9116016,86.9038436 L62.2664181,86.7244049 L62.2664181,86.2591472 L63.9270317,86.2591472 Z M64.0958238,84.5864724 L63.2192323,85.1249448 L62.688367,84.2274387 L63.5894632,83.6969448 L64.0958238,84.5864724 Z" id="Fill-49"></path>
                    <path d="M70.6212671,87.9618589 L70.6212671,91.5495368 L69.605837,91.5495368 L69.605837,88.2257761 C69.605837,87.4532669 69.265544,87.0534018 68.5767845,87.020862 C68.0595416,86.9881656 67.4551938,87.2846227 66.7446542,87.9075736 L66.7446542,91.5495368 L65.7292241,91.5495368 L65.7292241,86.9147945 L65.0840249,86.7244049 L65.0840249,86.2591472 L66.6384937,86.2591472 L66.7228741,87.1594693 C67.4660761,86.4604877 68.2065536,86.109589 68.9388577,86.109589 C69.9216254,86.109589 70.6212671,86.7678957 70.6212671,87.9618589" id="Fill-50"></path>
                    <path d="M72.0570334,91.1146288 C71.7929631,90.7555951 71.6759046,90.363865 71.708567,89.9503896 C71.741245,89.5370706 71.8583034,89.2105767 72.0788136,88.9659018 C72.3428683,88.6503589 72.702217,88.4599693 73.1677419,88.3837822 C73.6359912,88.3212055 74.3111283,88.3102546 75.2013266,88.3539018 L75.2013266,87.7500368 C75.2013266,86.9041564 74.3329084,86.7326963 72.6096632,87.2304939 L72.4082087,86.4689356 C73.2630202,86.183273 74.0906182,86.0772055 74.8828137,86.1615276 C75.6777337,86.2458497 76.1977011,86.7463067 76.1977011,87.6004785 L76.1840944,90.9132883 L76.8429003,91.0847485 L76.8429003,91.5498497 L75.2857227,91.5498497 L75.2203823,90.7446442 C74.5343629,91.3812055 73.9953399,91.7402393 73.2439645,91.6967485 C72.7131149,91.6667117 72.3238127,91.4736626 72.0570334,91.1146288 M75.1713887,90.1190337 L75.1795465,89.0419325 C73.7938854,88.9659018 73.2031287,89.0093926 72.9063959,89.4200521 C72.5742763,89.8036472 72.6287188,90.7964264 73.4862548,90.8943589 C73.9626619,90.9459847 74.523465,90.6820675 75.1713887,90.1190337" id="Fill-51"></path>
                    <path d="M82.9967504,87.9618589 L82.9967504,91.5495368 L81.9785958,91.5495368 L81.9785958,88.2257761 C81.9785958,87.4532669 81.6410273,87.0534018 80.9522678,87.020862 C80.4323004,86.9881656 79.8306615,87.2846227 79.1174131,87.9075736 L79.1174131,91.5495368 L78.1019829,91.5495368 L78.1019829,86.9147945 L77.4567837,86.7244049 L77.4567837,86.2591472 L79.0139613,86.2591472 L79.0983574,87.1594693 C79.8388349,86.4604877 80.5793124,86.109589 81.3116165,86.109589 C82.2971087,86.109589 82.9967504,86.7678957 82.9967504,87.9618589" id="Fill-52"></path>
                    <path d="M84.8923108,90.9353466 C84.4267859,90.4158037 84.1926691,89.7385675 84.1926691,88.8926871 C84.1926691,88.0576012 84.4267859,87.3885 84.8814129,86.871773 C85.33878,86.363181 85.9404033,86.1102147 86.6917787,86.1102147 C87.3288045,86.1102147 87.9331679,86.2896534 88.5157356,86.6486871 L88.3360612,87.3777055 C87.7534936,87.0512117 87.241684,86.9043129 86.8088371,86.9233988 C85.8369673,86.9343497 85.2326038,87.7067025 85.2326038,88.8926871 C85.2326038,90.0677209 85.8369673,90.8292791 86.8523974,90.8727699 C87.3505846,90.8945153 87.8923321,90.7449571 88.4694665,90.4375491 L88.6545741,91.1665675 C88.0475019,91.5065153 87.4132006,91.6861104 86.7462212,91.6969049 C85.9730813,91.7078558 85.3605445,91.4520736 84.8923108,90.9353466" id="Fill-53"></path>
                    <path d="M90.1164734,90.8943589 C89.6618465,90.374816 89.4386119,89.7083742 89.4386119,88.8923742 C89.4386119,88.0574448 89.6700199,87.3910031 90.1491515,86.8714601 C90.6255586,86.3547331 91.2380798,86.0989509 92.0003374,86.1099018 C93.9495261,86.1099018 94.3932708,87.6657147 94.1101448,89.0937147 L90.454042,89.0937147 C90.4649399,90.2251012 91.0992412,90.8399172 92.2344542,90.8507117 C92.7843752,90.8507117 93.3370049,90.7038129 93.8760279,90.4183067 L94.0448044,91.1146288 C93.5139548,91.5062025 92.8578733,91.6967485 92.0874423,91.6967485 C91.2271975,91.6884571 90.5711004,91.4218804 90.1164734,90.8943589 L90.1164734,90.8943589 Z M93.2308287,88.3973926 C93.3043425,87.5596472 92.9749317,86.9449877 91.9894395,86.9340368 C91.1428015,86.9340368 90.5819983,87.5052055 90.4976023,88.3973926 L93.2308287,88.3973926 Z" id="Fill-54"></path>
                    <polyline id="Fill-55" points="80.2798552 63.4012914 80.2798552 64.0758681 79.3433721 64.3369693 79.3433721 75.3581319 77.8705749 75.3581319 77.8705749 63.4012914"></polyline>
                    <polyline id="Fill-56" points="84.9135429 65.2260276 83.5605442 66.0475031 82.7520019 64.6794202 84.1404031 63.8579448"></polyline>
                    <path d="M82.9436545,67.6935828 L82.9436545,76.2179356 C82.9436545,77.2298006 82.8837631,77.9805644 81.2721429,77.659546 L80.9781346,78.7937485 C83.940029,79.4683252 84.4164517,77.8418006 84.4327829,76.1880552 L84.4327829,68.6292607 L85.3529348,68.3681595 L85.3529348,67.6935828 L82.9436545,67.6935828 Z" id="Fill-57"></path>
                    <path d="M73.0245504,67.6935828 L73.0245504,76.2179356 C73.0245504,77.2298006 72.964659,77.9805644 71.3530388,77.659546 L71.0590149,78.7937485 C74.0209249,79.4683252 74.497332,77.8418006 74.5136632,76.1880552 L74.5136632,68.6292607 L75.433815,68.3681595 L75.433815,67.6935828 L73.0245504,67.6935828 Z" id="Fill-58"></path>
                    <polyline id="Fill-59" points="69.2309713 65.2260276 67.8779727 66.0475031 67.0721548 64.6794202 68.4578315 63.8579448"></polyline>
                    <polyline id="Fill-60" points="66.7743259 65.2260276 65.4213273 66.0475031 64.6155094 64.6794202 66.0039106 63.8579448"></polyline>
                    <path d="M67.282315,67.6935828 C65.8993784,67.6935828 62.5182283,67.9465491 62.5182283,71.6593804 C62.5182283,75.0810736 65.0608982,75.3584448 65.9728766,75.3584448 L69.5799702,75.3584448 L69.5799702,68.6456871 L70.5300756,68.3681595 L70.5300756,67.6935828 L67.282315,67.6935828 Z M65.9728766,74.1317853 C65.1833899,74.1317853 64.0236879,73.691089 64.0236879,71.6593804 C64.0236879,68.969365 66.3921167,68.890362 67.2795906,68.890362 L68.0935819,68.890362 L68.0935819,74.1317853 L65.9728766,74.1317853 Z" id="Fill-61"></path>
                    <path d="M94.1866492,67.6935828 L91.0069536,67.6935828 C89.8581338,67.6935828 88.9352575,68.0607515 88.2165602,68.8143313 C87.4924138,69.5649387 87.1248917,70.5304969 87.1248917,71.7110061 C87.1248917,74.395546 89.4878873,75.3584448 91.0069536,75.3584448 L92.7301988,75.3584448 C92.7301988,77.8879509 91.0695695,78.1191718 88.3553987,77.3222577 L88.0640992,78.4700706 C89.9996812,79.0548497 91.5024163,79.0548497 92.5777379,78.4564601 C93.6503507,77.8580706 94.1866492,76.9252086 94.1866492,75.3584448 L94.1866492,67.6935828 Z M92.7002453,74.1317853 L91.0069536,74.1317853 C89.6103946,74.1317853 88.6303513,73.0057178 88.6303513,71.7110061 C88.6303513,70.8379049 88.8426881,70.1470583 89.2891573,69.6411258 C89.7165708,69.1351933 90.2855317,68.890362 91.0069536,68.890362 L92.7002453,68.890362 L92.7002453,74.1317853 Z" id="Fill-62"></path>
                    <polyline id="Fill-63" points="22.4301659 77.6157423 23.2359682 78.9838252 24.5889825 78.1625061 23.815827 76.7942669"></polyline>
                    <polyline id="Fill-64" points="19.976245 77.6157423 20.7820629 78.9838252 22.1350616 78.1625061 21.3619217 76.7942669"></polyline>
                    <polyline id="Fill-65" points="7.74968084 64.9855767 6.97653628 63.6174939 5.59086739 64.4389693 6.39667903 65.8070521"></polyline>
                    <polyline id="Fill-66" points="5.29576462 64.9855767 4.52534296 63.6174939 3.13695117 64.4389693 3.9427628 65.8070521"></polyline>
                    <polyline id="Fill-67" points="56.2094746 63.4012914 56.2094746 75.3581319 57.6822719 75.3581319 57.6822719 64.3369693 58.6187549 64.0758681 58.6187549 63.4012914"></polyline>
                    <path d="M52.0061911,63.4012914 L52.0061911,74.1314724 L48.3827507,74.1314724 L48.3827507,71.6590675 C48.3827507,67.9463926 46.2239498,67.6934264 44.8409975,67.6934264 C43.4607698,67.6934264 41.3019532,67.9463926 41.3019532,71.6590675 L41.3019532,72.1105583 C41.3019532,74.1396074 40.14496,74.1314724 39.3527645,74.1314724 L33.5814054,74.1314724 L33.5814054,63.4012914 L32.1086238,63.4012914 L32.1086238,75.3581319 L39.3527645,75.3581319 C39.9816169,75.3581319 41.3836248,75.4397945 42.1948759,74.3708282 C43.017025,75.2494049 44.1957983,75.3581319 44.7566015,75.3581319 L53.4789727,75.3581319 L53.4789727,64.3369693 L54.4154557,64.0758681 L54.4154557,63.4012914 L52.0061911,63.4012914 Z M46.8773067,74.1314724 L44.7566015,74.1314724 C43.9671304,74.1314724 42.8074128,73.6909325 42.8074128,71.6590675 C42.8074128,68.9690521 43.9535081,68.8902055 44.8409975,68.8902055 C45.7311958,68.8902055 46.8773067,68.9690521 46.8773067,71.6590675 L46.8773067,74.1314724 Z" id="Fill-68"></path>
                    <path d="M27.9039624,63.4012914 L27.9039624,74.1314724 L25.2251941,74.1314724 C24.4629365,74.1314724 23.3413302,74.1342883 23.2569341,72.3255092 L23.2569341,67.6934264 L21.7705458,67.6934264 L21.7705458,72.1105583 C21.7705458,74.1396074 20.5863236,74.1314724 19.7941281,74.1314724 L7.76683093,74.1314724 C7.68243958,74.1314724 7.61710232,74.0662362 7.61710232,73.9845736 L7.61710232,68.0307147 L8.56719988,67.7558466 L8.56719988,67.0814264 L5.31672741,67.0814264 C3.93650121,67.0814264 0.857537487,67.3343926 0.857537487,71.0470675 C0.857537487,74.4661012 4.25773701,74.5476074 5.1697217,74.5476074 L6.12798329,74.5476074 L6.12798329,74.7461319 C6.12798329,75.0834202 6.40566196,75.3581319 6.74323208,75.3581319 L19.7941281,75.3581319 C20.3930425,75.3581319 21.6861498,75.426184 22.5110233,74.5150675 C23.3331567,75.426184 24.6289884,75.3581319 25.2251941,75.3581319 L29.3767596,75.3581319 L29.3767596,64.3369693 L30.3132427,64.0758681 L30.3132427,63.4012914 L27.9039624,63.4012914 Z M6.12798329,73.3209479 L5.1697217,73.3209479 C4.38024282,73.3209479 2.36299083,73.2094049 2.36299083,71.0470675 C2.36299083,68.3542362 4.4292442,68.2753896 5.31672741,68.2753896 L6.12798329,68.2753896 L6.12798329,73.3209479 Z" id="Fill-69"></path>
                    <path d="M46.4286611,56.2295337 C45.6310166,56.2295337 44.8878146,55.9222822 44.3270115,55.3645675 L41.1064957,52.1468742 C40.0665609,51.1106043 38.0438584,50.452454 36.5955815,50.6808589 L32.0955495,51.3934509 C30.4784804,51.6492331 28.9539808,50.544911 28.6953594,48.9265215 L27.9875442,44.4332025 C27.7561519,42.9834571 26.5065892,41.2644755 25.1971508,40.5952178 L21.1381391,38.5308129 C20.4330484,38.1717791 19.9103723,37.5597791 19.6653575,36.8036963 C19.4203428,36.0474571 19.4829587,35.2452239 19.8395829,34.5379509 L21.9058457,30.4851718 C22.5728094,29.1770061 22.5728094,27.052684 21.9058457,25.744362 L19.8395829,21.6915828 C19.4829587,20.9871258 19.4203428,20.1820767 19.6653575,19.4286534 C19.9103723,18.6697546 20.4330484,18.0577546 21.1381391,17.6987209 L25.1971508,15.634316 C26.5065892,14.9678742 27.7561519,13.2462331 27.9875442,11.7991472 L28.6953594,7.30301227 C28.9539808,5.68743865 30.4784804,4.58045706 32.0955495,4.83608282 L36.5955815,5.54867485 C38.0465829,5.77989571 40.0665609,5.1217454 41.1064957,4.08265951 L44.3270115,0.867625767 C44.8878146,0.307407975 45.6310166,-1.0658141e-13 46.4286611,-1.0658141e-13 C47.2235811,-1.0658141e-13 47.9667831,0.307407975 48.5275862,0.867625767 L51.7481177,4.08265951 C52.7880524,5.1217454 54.8107392,5.77989571 56.2590319,5.54867485 L60.7590482,4.83608282 C61.5403615,4.7137454 62.3243992,4.90131902 62.966874,5.3692362 C63.6120575,5.83699693 64.0340221,6.52518405 64.159254,7.30301227 L64.8697779,11.7991472 C65.0984615,13.2462331 66.3480084,14.9678742 67.6574625,15.634316 L71.7164586,17.6987209 C72.4215492,18.0577546 72.9442411,18.6697546 73.1892558,19.4286534 C73.4369794,20.1847362 73.371639,20.9871258 73.0150148,21.6915828 L70.9460432,25.744362 C70.2817883,27.052684 70.2817883,29.1770061 70.9460432,30.4851718 L73.0150148,34.5379509 C73.7582167,35.9986472 73.1756334,37.7883405 71.7164586,38.5308129 L67.6574625,40.5952178 C66.3480084,41.2644755 65.0984615,42.9834571 64.8697779,44.4332025 L64.159254,48.9265215 C63.9006325,50.544911 62.3761173,51.6492331 60.7590482,51.3934509 L56.2590319,50.6808589 C54.8080148,50.449638 52.7853279,51.1106043 51.7481177,52.1468742 L48.5275862,55.3645675 C47.9667831,55.9222822 47.2235811,56.2295337 46.4286611,56.2295337 M37.189047,50.2293681 C38.6591041,50.2293681 40.4259096,50.8903344 41.3923306,51.8585521 L44.6155865,55.0762454 C45.0974425,55.557773 45.7399173,55.8215337 46.4286611,55.8215337 C47.1146961,55.8215337 47.7571708,55.557773 48.2390112,55.0762454 L51.4622671,51.8585521 C52.5784245,50.7407761 54.7617457,50.0335031 56.3243566,50.2783344 L60.8216641,50.9909264 C62.2209475,51.2111963 63.5331104,50.256589 63.7536206,48.8639448 L64.4668846,44.3678098 C64.7146082,42.8066779 66.0621736,40.951592 67.4723392,40.2335245 L71.5313509,38.1663037 C72.7917802,37.5272393 73.2926919,35.9822209 72.6502328,34.725681 L70.58397,30.6702423 C69.8625482,29.2613282 69.8625482,26.968362 70.58397,25.5594479 L72.6502328,21.5040092 C72.9605723,20.9001442 73.0150148,20.2038221 72.8026781,19.5538067 C72.5876169,18.9009755 72.1384232,18.3732975 71.5313509,18.0632301 L67.4723392,15.9960092 C66.0621736,15.2779417 64.7146082,13.4230123 64.4668846,11.8617239 L63.7536206,7.36840491 C63.64746,6.69648773 63.2826624,6.10357362 62.7273082,5.69823313 C62.1719383,5.29570859 61.4968012,5.13253988 60.8216641,5.23860736 L56.3243566,5.95119939 C54.7644702,6.19884663 52.5784245,5.49157362 51.4622671,4.3709816 L48.2390112,1.15328834 C47.7571708,0.674576687 47.1146961,0.408 46.4286611,0.408 C45.7399173,0.408 45.0974425,0.674576687 44.6155865,1.15328834 L41.3923306,4.3709816 C40.2761732,5.49157362 38.0928677,6.19884663 36.5302411,5.95119939 L32.0329336,5.23860736 C30.6336502,5.01833742 29.3214873,5.97294479 29.1009771,7.36840491 L28.3877287,11.8617239 C28.1399895,13.4230123 26.7924398,15.2779417 25.3822584,15.9960092 L21.3232624,18.0632301 C20.718899,18.3732975 20.2669965,18.9009755 20.0546441,19.5538067 C19.8395829,20.2038221 19.8940254,20.9001442 20.2043806,21.5040092 L22.2706277,25.5594479 C22.9920495,26.968362 22.9920495,29.2613282 22.2706277,30.6702423 L20.2043806,34.725681 C19.8940254,35.3322055 19.8395829,36.0257117 20.0546441,36.6785429 C20.2669965,37.3285583 20.7161745,37.8590521 21.3232624,38.1663037 L25.3822584,40.2335245 C26.7924398,40.951592 28.1399895,42.8066779 28.3877287,44.3678098 L29.1009771,48.8639448 C29.3214873,50.256589 30.6363746,51.2140123 32.0329336,50.9909264 L36.5302411,50.2783344 C36.739869,50.245638 36.9603634,50.2293681 37.189047,50.2293681" id="Fill-70"></path>
                    <path d="M47.4204165,53.9755215 C46.5710383,53.9755215 45.7162269,53.6709294 45.0438142,53.053454 L43.0129383,51.1985245 C41.7034999,50.0017454 39.2261704,49.3190337 37.4920429,49.672592 L34.7914788,50.2220153 C33.8740515,50.4097454 32.9375684,50.2274908 32.1480974,49.7079479 C31.3613352,49.1884049 30.8223121,48.3969663 30.6371888,47.4775583 L30.0845591,44.7848834 C29.7306594,43.046816 28.1299215,41.0395123 26.5128524,40.3078344 L24.0083095,39.1681564 C23.1562069,38.7819018 22.5055744,38.0801043 22.1734391,37.1988681 C21.8413195,36.3149724 21.8712731,35.3602086 22.2605596,34.5061933 L23.4012216,32.0037515 C24.1335257,30.3908374 24.0191917,27.8259755 23.1453246,26.283773 L21.786877,23.8902147 C21.3240766,23.0768742 21.2097427,22.1275859 21.4629152,21.2191288 C21.7133632,20.3106718 22.2986709,19.554589 23.1153711,19.0949632 L25.511029,17.7376748 C27.0545999,16.8645736 28.4702145,14.7211656 28.6689445,12.9613528 L28.979284,10.2305061 C29.0854602,9.29764417 29.5482606,8.46255828 30.2860136,7.87511963 C31.0264911,7.28752454 31.941194,7.0237638 32.8749525,7.12717178 L35.6109034,7.43723926 C37.3749845,7.63294785 39.7760913,6.73262577 40.9766291,5.42711963 L42.8305552,3.39807055 C44.1454425,1.96741104 46.3777573,1.86666258 47.8124275,3.17780061 L49.8432878,5.03273006 C51.1500174,6.2295092 53.6273469,6.91222086 55.3641988,6.55866258 L58.059314,6.00923926 C59.9622179,5.62016871 61.8297507,6.84964417 62.2190373,8.75369632 L62.7689582,11.4463712 C63.1255824,13.1817791 64.7235958,15.1917423 66.3379404,15.9234202 L68.8452078,17.0630982 C70.6147378,17.8654877 71.3987599,19.9571135 70.5929577,21.7250613 L69.4550202,24.2275031 C68.7199916,25.8404172 68.8343256,28.4052791 69.7109171,29.9474816 L71.0666403,32.3383804 C71.5267162,33.1543804 71.6437746,34.1035123 71.3933266,35.0119693 C71.1428629,35.9205828 70.5521219,36.6740061 69.7381462,37.1391074 L67.3424883,38.4935798 C65.8016419,39.366681 64.3833028,41.510089 64.1845728,43.2670859 L63.8742177,46.000592 C63.7707816,46.9309509 63.3052567,47.7686963 62.5675037,48.356135 C61.8297507,48.9435736 60.9068744,49.2074908 59.9785648,49.1040828 L57.2426138,48.7940153 C55.4839817,48.5954908 53.0747015,49.4984724 51.879597,50.804135 L50.0202377,52.833184 C49.3260449,53.5892669 48.3759552,53.9755215 47.4204165,53.9755215 M38.4639128,49.172135 C40.159929,49.172135 42.1445202,49.8493712 43.2879066,50.896592 L45.3187669,52.7515215 C46.5846607,53.9102853 48.5610784,53.8233037 49.7207804,52.5584724 L51.5774153,50.5266074 C52.8514825,49.1367791 55.4159169,48.1765399 57.2888829,48.3888313 L60.0248338,48.6988988 C60.8469829,48.7913558 61.6582341,48.5574755 62.3143312,48.0351166 C62.9649637,47.5157301 63.3760304,46.7785767 63.4713244,45.9544417 L63.7789394,43.2235951 C63.9912917,41.3495798 65.5021846,39.0675644 67.1410338,38.1372055 L69.5366917,36.7827331 C70.2581136,36.3747331 70.7753565,35.7056319 70.9985911,34.9032423 C71.2190856,34.0981933 71.118374,33.2576319 70.7100161,32.5395644 L69.3542929,30.1460061 C68.4232588,28.5058712 68.3007515,25.7750245 69.0820648,24.0560429 L70.2200023,21.5564172 C70.9332507,19.9924693 70.2390579,18.1428589 68.6764313,17.4329264 L66.1718728,16.2934049 C64.4513677,15.5154202 62.7471781,13.3748282 62.3687737,11.5280337 L61.8188528,8.83254294 C61.4731265,7.1542362 59.8288283,6.06352454 58.1409856,6.40628834 L55.4458704,6.95852761 C53.5973933,7.3364908 50.9594452,6.60762883 49.5656107,5.33466258 L47.5347504,3.47691718 C46.2661478,2.31815337 44.2951633,2.40795092 43.1354457,3.67278221 L41.2760863,5.70183129 C40.0020348,7.09447546 37.4403249,8.05455828 35.5646344,7.84242331 L32.8314079,7.53235583 C32.0065344,7.43989877 31.1925587,7.67377914 30.5419106,8.19332209 C29.8885536,8.71286503 29.4774869,9.45267791 29.3821929,10.2768129 L29.0745779,13.0076595 C28.8622256,14.8816748 27.3540571,17.1636902 25.709759,18.0938926 L23.3168256,19.4485215 C22.5981282,19.8565215 22.0754363,20.5228067 21.8549262,21.3280123 C21.6317073,22.1304018 21.7324345,22.9708067 22.1435012,23.6915337 L23.5019488,26.085092 C24.4329829,27.725227 24.5527658,30.4560736 23.7714525,32.1723957 L22.633515,34.6748374 C21.9229911,36.2387853 22.6144594,38.0855798 24.1770859,38.7981718 L26.6843533,39.9351902 C28.4021496,40.7158344 30.1090637,42.8536104 30.4847436,44.7032209 L31.0346645,47.3960521 C31.2007165,48.2065767 31.6771236,48.9055583 32.3740408,49.368 C33.0709737,49.8276258 33.9012806,49.988135 34.7125317,49.8249663 L37.4076469,49.272727 C37.7370577,49.2048313 38.0936819,49.172135 38.4639128,49.172135" id="Fill-71"></path>
                    <path d="M48.3057138,51.7324601 C47.3910109,51.7324601 46.4735836,51.4277117 45.7140504,50.8049172 L44.9653995,50.1874417 C43.3646773,48.8683252 40.4218229,48.2154939 38.4100183,48.7323773 L37.4708108,48.9770521 C35.2929386,49.5374264 33.0633483,48.2264448 32.5025452,46.0531564 L32.2575304,45.1120031 C31.7402875,43.1046994 29.7448141,40.8499049 27.8119566,40.0883466 L26.9081359,39.7319724 C25.9008792,39.3349233 25.1032191,38.5650736 24.6676478,37.5669755 C24.2320765,36.5632454 24.2102963,35.4589233 24.6104808,34.4498742 L24.967105,33.5467362 C25.7266382,31.6156196 25.4380788,28.6181963 24.3219215,26.8666748 L23.8019541,26.0506748 C23.2193708,25.1367423 23.0287986,24.0460307 23.2629311,22.9797239 C23.5024969,21.9162331 24.1340737,21.010592 25.0487766,20.4284724 L25.8682012,19.9062699 C27.6186599,18.7909969 29.1513486,16.1962546 29.2792892,14.1235583 L29.3364562,13.1553405 C29.4045211,12.0755798 29.8891016,11.0826442 30.7085262,10.3592577 C31.5252263,9.63571472 32.5705944,9.27668098 33.6540894,9.33925767 L34.6259592,9.40183436 C36.7003954,9.52964724 39.4608353,8.32739264 40.7811716,6.72542945 L41.3991417,5.97732515 C42.09061,5.14239571 43.0679445,4.62285276 44.1568728,4.51944479 C45.2430923,4.4133773 46.3020827,4.73705521 47.1378384,5.42524233 L47.8891982,6.04271779 C49.4926606,7.36449387 52.4354992,8.01466564 54.444595,7.4951227 L55.3865113,7.25295092 C57.5616591,6.69007362 59.7885406,8.00105521 60.3520682,10.1770031 L60.5943584,11.1153405 C61.1143102,13.1254601 63.1097992,15.3802546 65.0426567,16.1418129 L65.9464617,16.4953712 C68.0372291,17.3223221 69.0689904,19.691319 68.2441169,21.7802853 L67.8874927,22.6806074 C67.1279595,24.6145399 67.4165345,27.6091472 68.5326919,29.3608252 L69.0526592,30.1794847 C70.2586459,32.0725859 69.7005673,34.596773 67.8058211,35.8043466 L66.9863965,36.3238896 C65.2332133,37.4390061 63.7032648,40.0312454 63.5753084,42.1037853 L63.5181415,43.0721595 C63.4500766,44.1545798 62.9655117,45.1501748 62.1460871,45.8709018 C61.3266625,46.5944448 60.2785544,46.9534785 59.2005083,46.8882423 L58.2313629,46.8309847 C56.1596669,46.6978528 53.3937624,47.9027669 52.0734261,49.5047301 L51.4527315,50.2528344 C50.6469292,51.2291871 49.4817627,51.7324601 48.3057138,51.7324601 M39.9236357,48.1502577 C41.8020507,48.1502577 43.9309137,48.803089 45.2240366,49.8718988 L45.9753963,50.4893742 C47.5380229,51.7759509 49.8520092,51.552865 51.1396675,49.9943926 L51.7576377,49.2436288 C53.1514721,47.5545276 56.0616641,46.2898528 58.2558675,46.4231411 L59.2250129,46.4829018 C60.1968828,46.542819 61.1388148,46.2163252 61.8738433,45.5663098 C62.6115963,44.916138 63.0499078,44.0212914 63.1097992,43.0475982 L63.1696907,42.0792239 C63.3058048,39.8924816 64.9174249,37.1561595 66.7658863,35.9784663 L67.5853109,35.4589233 C69.292225,34.3736871 69.7958612,32.1024663 68.7096417,30.3970951 L68.1896744,29.5784356 C67.0109011,27.7314847 66.7059949,24.5708926 67.5090883,22.5337086 L67.8657125,21.630727 C68.60619,19.7512362 67.6778804,17.6187791 65.7967409,16.8761503 L64.8956448,16.5199325 C62.8538866,15.7175429 60.7468037,13.3402546 60.1996073,11.2159325 L59.9546082,10.2775951 C59.450972,8.32473313 57.4446007,7.14156442 55.4872386,7.64749693 L54.5453223,7.88951227 C52.424617,8.43893558 49.321144,7.75074847 47.6278523,6.35544479 L46.8819258,5.74078528 C46.1251171,5.12065031 45.1723029,4.82951227 44.1949841,4.92478528 C43.2176653,5.01724233 42.3356248,5.48500307 41.7149302,6.23576687 L41.0996845,6.98371472 C39.7031256,8.6756319 36.7929492,9.94030675 34.5987458,9.8070184 L33.6295848,9.74725767 C32.6577149,9.68734049 31.7130584,10.0138344 30.9780299,10.6638497 C30.2402769,11.313865 29.8047056,12.2087117 29.7448141,13.1825613 L29.6821982,14.1507791 C29.5488086,16.3350184 27.9371884,19.074 26.0887113,20.2490337 L25.2692867,20.7712362 C24.4444132,21.2934387 23.8754523,22.1094387 23.6603911,23.0695215 C23.4480387,24.0269448 23.6222798,25.0089294 24.1449559,25.8330644 L24.6649233,26.6490644 C25.8436966,28.4985184 26.1486028,31.6591104 25.3427849,33.6964509 L24.9916096,34.5994325 C24.6322609,35.5052301 24.6513166,36.5006687 25.0406188,37.4009908 C25.4353544,38.3039724 26.1486028,38.994819 27.0551479,39.3538528 L27.9589529,39.7075675 C29.9979866,40.5126166 32.1078096,42.8925644 32.6549904,45.011411 L32.8972807,45.9525644 C33.4036413,47.9080859 35.409997,49.0885951 37.3673591,48.5826626 L38.3065666,48.3379877 C38.8047538,48.2128344 39.3519503,48.1502577 39.9236357,48.1502577" id="Fill-72"></path>
                    <path d="M49.1352065,49.6766595 C48.2477327,49.6766595 47.3847478,49.3964724 46.6551682,48.8687945 C44.9019694,47.5931687 41.8012365,47.0981871 39.7404227,47.7644724 C37.5135569,48.4825399 35.1233323,47.2586963 34.4019104,45.0391012 C33.7376712,42.9801718 31.5162387,40.7552577 29.4554249,40.0833405 C28.3855523,39.7352577 27.514394,38.9844939 26.9971511,37.9727853 C26.4853571,36.9635798 26.3928033,35.8157669 26.7412541,34.7441411 C27.4136824,32.6850552 26.9291019,29.5843804 25.6577591,27.8327025 C24.9962444,26.9187699 24.7294495,25.8009939 24.9091238,24.6802454 C25.0887982,23.5596534 25.6904371,22.5804847 26.60514,21.9195184 C28.3555987,20.6493681 29.7875602,17.8532853 29.7929934,15.6881319 C29.7957179,13.3544908 31.6959131,11.4613896 34.0262306,11.4613896 L34.0398529,11.4613896 C36.2068273,11.4613896 39.0026696,10.038865 40.2794457,8.29266258 C40.9409761,7.38138957 41.9264683,6.783 43.048059,6.60888037 C44.1696653,6.43210123 45.2885471,6.69867791 46.2005256,7.36230368 C47.9482754,8.63808589 51.0544573,9.13306748 53.1152711,8.46662577 C55.3367036,7.74855828 57.7323615,8.97255828 58.4510588,11.1919969 C59.1180225,13.2510828 61.3340061,15.4759969 63.3975444,16.1477577 C65.6189769,16.8713006 66.8358615,19.2676748 66.1089907,21.4842975 C65.4365781,23.5433834 65.9265919,26.6440583 67.1979346,28.3985521 C68.569989,30.2888374 68.1425754,32.9408374 66.2505537,34.3117362 C64.4973706,35.5818865 63.0654248,38.3779693 63.0627003,40.5431227 C63.0599758,42.8741043 61.1597807,44.769865 58.8267387,44.769865 L58.8158408,44.769865 C56.6488665,44.769865 53.8475752,46.1897301 52.5762481,47.938592 C51.9119932,48.849865 50.9292411,49.4482546 49.8076348,49.6222178 C49.5816757,49.6603896 49.3584411,49.6766595 49.1352065,49.6766595 M41.8093942,47.0628313 C43.6279178,47.0628313 45.60706,47.6013037 46.8974428,48.5397975 C47.7168674,49.1353712 48.7323132,49.3802025 49.7450188,49.2225092 C50.7577245,49.062 51.6479384,48.5207117 52.2468373,47.6992362 C53.5889537,45.8579172 56.5345325,44.361865 58.8158408,44.361865 L58.8267387,44.361865 C60.9365461,44.361865 62.6543424,42.6510184 62.6570669,40.5431227 C62.6597913,38.2611074 64.1652353,35.3179693 66.0109879,33.9825828 C67.7206108,32.7423129 68.1071886,30.3459387 66.8657994,28.637908 C65.5264074,26.7909571 65.0146134,23.5271135 65.7224129,21.3593006 C66.37851,19.3546564 65.2786838,17.1895031 63.2695881,16.5340123 C61.1026137,15.8268957 58.7641228,13.4877791 58.0617566,11.3171503 C57.4138486,9.30984663 55.2468586,8.20552454 53.2405029,8.85569632 C51.0680796,9.55733742 47.8039879,9.03513497 45.9582509,7.69145706 C45.1333774,7.09306748 44.1233806,6.85105215 43.1106749,7.0087454 C42.0952448,7.1692546 41.2077709,7.71054294 40.6088565,8.5320184 C39.26674,10.3706779 36.3211612,11.8693896 34.0398529,11.8693896 L34.0262306,11.8693896 C31.9191477,11.8693896 30.2013513,13.5802362 30.1986269,15.6881319 C30.1959024,17.9701472 28.6904584,20.9104693 26.8447058,22.2513313 C26.0171078,22.8470613 25.4753759,23.733773 25.3120328,24.7428221 C25.1486896,25.7573466 25.3909799,26.7692117 25.9871699,27.5933466 C27.3265619,29.4402975 27.8410803,32.7041411 27.1332808,34.871954 C26.8174767,35.8375123 26.8964238,36.8737822 27.3619487,37.7877147 C27.8274736,38.7016472 28.6169446,39.3788834 29.5833812,39.6972423 C31.75308,40.4043589 34.0915709,42.7434755 34.7912127,44.9141043 C35.4418452,46.918592 37.6061107,48.0257301 39.6151908,47.3755583 C40.2685634,47.1634233 41.0253721,47.0628313 41.8093942,47.0628313" id="Fill-73"></path>
                    <path d="M50.0441942,47.8372178 C49.3146146,47.8372178 48.6013662,47.6332178 47.9724982,47.2388282 C46.2792065,46.1806564 43.3935348,45.9250307 41.5423332,46.670319 C40.5704633,47.0592331 39.5032995,47.0484387 38.5341541,46.6376227 C37.5650087,46.2243037 36.8163578,45.462589 36.4243467,44.4943712 C35.6811448,42.6421012 33.4950991,40.740865 31.5595171,40.2566779 C30.544087,40.0037117 29.6865511,39.3673067 29.1448036,38.4641687 C28.6030717,37.5611871 28.4451619,36.5058313 28.7010745,35.4913067 C29.1856394,33.5573742 28.5377313,30.7368865 27.2555063,29.2054785 C25.8643963,27.5462577 26.082182,25.0630583 27.7455358,23.6730736 C29.2782088,22.3919724 30.4106974,19.7318374 30.2745833,17.7381442 C30.1275713,15.5784663 31.7636961,13.6989755 33.9279616,13.5522331 C35.9207106,13.4134693 38.403489,11.9257086 39.4624794,10.2337914 C40.6140236,8.39779141 43.0477928,7.84023313 44.8826475,8.99086196 C46.5759392,10.0515368 49.4616266,10.307319 51.3128125,9.56203067 C52.2819579,9.17030061 53.3518462,9.18125153 54.3182671,9.59457055 C55.2901527,10.0053865 56.0360634,10.7669448 56.4280902,11.7379785 C57.1740009,13.587589 59.3573221,15.4888252 61.2956286,15.9728558 C63.3972782,16.5005337 64.6794875,18.6384663 64.1540869,20.738227 C63.6695063,22.674819 64.3174144,25.4954632 65.5996394,27.0240552 C66.9907494,28.6832761 66.7702549,31.1666319 65.1069011,32.5564601 C63.5769525,33.8402209 62.4417238,36.5003558 62.5778536,38.4913896 C62.6513517,39.5357945 62.3110587,40.545 61.6168659,41.3392546 C60.925382,42.1306933 59.9698433,42.6094049 58.9299086,42.6801166 C56.9344352,42.8160644 54.4489479,44.3039816 53.3899575,45.9957423 C52.8346033,46.882454 51.963445,47.4999294 50.9371327,47.7338098 C50.6403999,47.801862 50.3409427,47.8372178 50.0441942,47.8372178 M44.0169382,45.8407086 C45.5223978,45.8407086 47.0904577,46.2078773 48.1875594,46.8934049 C48.982495,47.391046 49.9271358,47.5488957 50.8472877,47.3367607 C51.7674395,47.1244693 52.5460283,46.5723865 53.04694,45.7781319 C54.1658219,43.9910982 56.7928721,42.4190153 58.8999707,42.2721166 C59.8364537,42.2095399 60.6885407,41.7826104 61.3119598,41.0726779 C61.9299299,40.3600859 62.2375606,39.4542883 62.1722202,38.5212699 C62.0252082,36.4133742 63.2257616,33.600865 64.8455552,32.2463926 C66.3346679,31.0006472 66.5333979,28.7757331 65.2865754,27.2851564 C63.9308523,25.6695828 63.2448173,22.6857699 63.7566269,20.637635 C64.2303095,18.7554847 63.0814741,16.840638 61.1976258,16.3700613 C59.1476942,15.8559939 56.8391569,13.8458742 56.0496858,11.8903528 C55.6984949,11.019911 55.0288067,10.3398589 54.1603729,9.97003067 C53.2919548,9.60004601 52.3364161,9.58643558 51.4652578,9.93733436 C49.5078957,10.7261135 46.4561563,10.4568773 44.6648619,9.33628528 C43.0205637,8.30815031 40.8399827,8.80579141 39.8082057,10.4514018 C38.6893238,12.2410951 36.0622736,13.8133344 33.955175,13.9574172 C32.0168842,14.0907055 30.5495359,15.7743313 30.6829256,17.7109233 C30.8272131,19.8161595 29.6266596,22.6313282 28.0068661,23.9859571 C26.5177533,25.2317025 26.3217478,27.4566166 27.5658615,28.9443773 C28.9242934,30.5627669 29.6103284,33.5437638 29.0985345,35.5918988 C28.8698509,36.5003558 29.0086895,37.4441687 29.4959945,38.2548497 C29.980575,39.0625583 30.7482659,39.633727 31.6575356,39.8622883 C33.704727,40.3735399 36.0159888,42.3836595 36.8054756,44.3419969 C37.1566508,45.2096227 37.8263546,45.8923344 38.6947728,46.2596595 C39.5604821,46.6294877 40.5187453,46.6430982 41.3871634,46.2921994 C42.1494211,45.9849479 43.0668484,45.8407086 44.0169382,45.8407086" id="Fill-74"></path>
                    <path d="M50.9616216,46.0178006 C50.3981096,46.0178006 49.8264086,45.8871718 49.2928345,45.6124601 C47.6567098,44.7665798 44.9888237,44.7503098 43.3445256,45.5744448 C42.4788162,46.0096656 41.4906152,46.0775613 40.5650144,45.7729693 C39.6367048,45.4629018 38.8853294,44.818362 38.4497581,43.9505798 C37.627609,42.3077853 35.4796903,40.727411 33.6638912,40.4282945 C32.7056281,40.2706012 31.8644233,39.7482423 31.2954624,38.9541442 C30.7264858,38.1625491 30.4978179,37.1996503 30.6584366,36.242227 C30.9551694,34.4281288 30.146627,31.8876718 28.8562442,30.5793497 C27.4433541,29.1513497 27.4569608,26.8421135 28.8889066,25.4305399 C30.1983607,24.1384877 31.0395498,21.6061656 30.7618727,19.7892515 C30.4597066,17.8036933 31.8317609,15.9432883 33.8163365,15.6440153 C35.63486,15.3666442 37.8045745,13.8134908 38.6512125,12.1788313 C39.0976817,11.3193405 39.8544904,10.6829356 40.7855245,10.3864785 C41.7165742,10.092681 42.7020508,10.1741871 43.5623112,10.6175429 C45.1984359,11.4635798 47.8636132,11.4798497 49.5106202,10.6557147 C50.3763295,10.2204939 51.3645306,10.1497822 52.2901313,10.4571902 C53.2184409,10.7672577 53.9670919,11.4117975 54.4053877,12.2767638 C55.2275367,13.9223742 57.3754554,15.502592 59.1912545,15.801865 C60.1495177,15.9595583 60.9907224,16.4817607 61.559699,17.2760153 C62.1286599,18.0676104 62.354619,19.0303528 62.1967248,19.9877761 C61.899992,21.8020307 62.7057942,24.3398282 63.9989015,25.6508098 C65.4145161,27.0788098 65.3981849,29.388046 63.9662391,30.7996196 C62.6595095,32.0916718 61.8155959,34.6211779 62.0932731,36.440908 C62.3954548,38.4236503 61.0233848,40.2868712 59.0388092,40.5888037 C57.2202857,40.8635153 55.0505869,42.4165123 54.2039332,44.0485123 C53.5560252,45.2997331 52.2792334,46.0178006 50.9616216,46.0178006 M46.2683242,44.5653957 C47.4307507,44.5653957 48.5959173,44.7938006 49.4779578,45.2481074 C51.0623488,46.0694264 53.0224354,45.4492914 53.84186,43.8635982 C54.7402317,42.1281902 57.0406113,40.4772607 58.9761933,40.1834632 C60.7402744,39.9168865 61.957159,38.2631411 61.6876396,36.5006687 C61.3963558,34.5722117 62.2892786,31.8821963 63.6803886,30.5112975 C64.9490069,29.2574172 64.9653381,27.2038067 63.7103421,25.936316 C62.3355633,24.5464877 61.4753029,21.8483374 61.7938158,19.9225399 C61.9326544,19.071184 61.7311999,18.2171687 61.2275637,17.5153712 C60.7212187,16.8082546 59.9752923,16.3431534 59.1259141,16.2043896 C57.1957811,15.8861871 54.9144571,14.2078804 54.0378656,12.4616779 C53.6513034,11.6919847 52.9870486,11.1181564 52.162175,10.8461043 C51.3400416,10.5713926 50.4607256,10.6366288 49.693019,11.0202239 C47.9479936,11.8959847 45.1140399,11.8797147 43.3744791,10.9820521 C42.6122215,10.5876626 41.7329054,10.5114755 40.9080319,10.7753926 C40.0831583,11.0391534 39.4080212,11.6050031 39.0105612,12.3665613 C38.1121895,14.1018129 35.8118099,15.7528988 33.8789524,16.0466963 C32.1121625,16.3131166 30.8952779,17.966862 31.1647816,19.7294908 C31.4587899,21.6606074 30.5658671,24.3479632 29.1747571,25.7215215 C27.90343,26.9754018 27.8898077,29.0261963 29.1448036,30.2936871 C30.5195981,31.6836718 31.3798428,34.3818221 31.0586211,36.3102791 C30.9197669,37.1589755 31.1212213,38.0129908 31.6248575,38.7174479 C32.1312182,39.4219049 32.877129,39.8870061 33.7292316,40.0257699 C35.6566402,40.3466319 37.9406886,42.0221227 38.8145557,43.7683252 C39.2038423,44.5381748 39.8680971,45.1120031 40.6929707,45.3867147 C41.5123953,45.6587669 42.3917113,45.5961902 43.1621267,45.2099356 C44.0196627,44.7801902 45.1439934,44.5653957 46.2683242,44.5653957" id="Fill-75"></path>
                    <path d="M43.3581323,44.9937331 C43.1049598,44.9937331 42.8490628,44.9638528 42.5931658,44.9067515 C41.7111253,44.705411 40.9570411,44.1750736 40.4779095,43.4106994 C39.5740888,41.9772239 37.461557,40.7152086 35.7682653,40.6010061 C33.903457,40.4758528 32.4905669,38.8574632 32.6157987,36.9970583 C32.7301327,35.3024816 31.7609716,33.0422117 30.4597066,31.9569755 C29.7682227,31.3803313 29.3408248,30.5643313 29.2591532,29.6613497 C29.1774816,28.7583681 29.4524342,27.8797914 30.0295686,27.1916043 C31.1157881,25.8887577 31.6629688,23.4897239 31.2491777,21.8442699 C30.7918262,20.0354908 31.8943769,18.1913558 33.704727,17.7370491 C35.351734,17.3209141 37.2029356,15.7025245 37.8372369,14.1277822 C38.5314296,12.3978497 40.5051229,11.5546288 42.2419749,12.2454755 C43.8154837,12.8792209 46.2655998,12.6562914 47.705719,11.7559693 C48.4679609,11.2744417 49.3745061,11.1222239 50.2592711,11.3262239 C51.1440204,11.5247485 51.8953958,12.0579018 52.3772519,12.8194601 C53.2810569,14.2555951 55.3935887,15.5176104 57.0868961,15.6318129 C58.9516887,15.7543067 60.3645788,17.3725399 60.2366382,19.2331012 C60.1250131,20.924862 61.0941741,23.1879479 62.3954548,24.273184 C63.0869231,24.8524877 63.5116121,25.6656718 63.5960082,26.5688098 C63.6749553,27.4717914 63.4027115,28.3475521 62.8255771,29.0412147 C61.7366488,30.3440613 61.1921769,32.7402791 61.6059681,34.3858896 C62.060595,36.1946687 60.9607845,38.0388037 59.1504187,38.4931104 C57.5034117,38.9092454 55.6522258,40.527635 55.0179088,42.1023773 C54.6830648,42.9374632 54.0378656,43.592954 53.2021098,43.9519877 C52.3718029,44.308362 51.4516511,44.3191564 50.6131708,43.9818681 C49.0369375,43.3509387 46.5868371,43.5738681 45.1494424,44.4770061 C44.6049704,44.816954 43.9870003,44.9937331 43.3581323,44.9937331 M40.9842545,12.4114601 C39.8000479,12.4114601 38.6811661,13.1185767 38.2129167,14.28 C37.5405041,15.9609663 35.5613619,17.6880828 33.8027298,18.1314387 C32.2101653,18.5339632 31.2437287,20.1551687 31.6439132,21.7463374 C32.0849334,23.5033344 31.5050746,26.0628773 30.3426325,27.450046 C29.8335631,28.0592301 29.5939973,28.8317393 29.6674954,29.6259939 C29.7382848,30.4202485 30.1112402,31.1355 30.7183281,31.6442439 C32.1121625,32.8056718 33.1439238,35.2181595 33.0241409,37.0242791 C32.9125315,38.6617546 34.1566295,40.0842791 35.7954787,40.1930061 C37.6058445,40.3153436 39.8599394,41.6618374 40.8236358,43.193089 C41.2483249,43.8650061 41.9071308,44.3301074 42.6857196,44.509546 C43.4643084,44.6863252 44.2619529,44.5503773 44.9316567,44.1314264 C46.4670542,43.168684 49.0832223,42.9319877 50.7656161,43.6065644 C51.5006446,43.900362 52.309187,43.889411 53.0442156,43.576684 C53.7765196,43.2611411 54.3427717,42.6844969 54.6395045,41.9501595 C55.3146416,40.2691933 57.2910594,38.5420767 59.0496915,38.0987209 C60.6422716,37.6960399 61.611417,36.0776503 61.2112325,34.4864816 C60.7674878,32.7294847 61.3500711,30.1699417 62.5125132,28.7801135 C63.0215827,28.170773 63.2611484,27.3984202 63.1876503,26.6068252 C63.1168766,25.8125706 62.7411811,25.0945031 62.1313844,24.5885706 C60.7429832,23.4273037 59.7084974,21.0146595 59.8310048,19.2058804 C59.9426299,17.5684049 58.6985162,16.1486963 57.0569425,16.0371534 C55.2493169,15.9146595 52.995222,14.5683221 52.0315099,13.0342546 C51.1549183,11.6470859 49.3146146,11.2254755 47.9235046,12.1013926 C46.3881071,13.064135 43.7719391,13.3008313 42.0868052,12.6262546 C41.724732,12.4793558 41.3517766,12.4114601 40.9842545,12.4114601" id="Fill-76"></path>
                    <path d="M44.9931766,44.0599325 C44.8733937,44.0599325 44.7508863,44.0544571 44.628379,44.0410031 C43.7871742,43.9457301 43.03309,43.5295951 42.5103982,42.8741043 C41.5303549,41.6419693 39.4450521,40.700816 37.8797011,40.7715276 C36.1265179,40.8503742 34.6537363,39.4959018 34.5775137,37.7551748 C34.5039999,36.1829356 33.3796848,34.2001933 32.0647974,33.332411 C31.3624312,32.8701258 30.8832996,32.1575337 30.7145075,31.3279233 C30.5430066,30.4983129 30.7063498,29.655092 31.1691345,28.9532945 C32.0348438,27.6396534 32.2934653,25.373908 31.7408356,23.9024172 C31.4413783,23.113638 31.4740407,22.2568067 31.8252316,21.4871135 C32.1736824,20.7146043 32.7998259,20.1298252 33.5920215,19.8333681 C35.0648031,19.2811288 36.602925,17.5975031 37.0221652,16.079862 C37.2453998,15.2719969 37.7762494,14.5947607 38.5112936,14.1758098 C39.2517554,13.7596748 40.1011336,13.6509479 40.9151092,13.8766933 C42.4341756,14.2954877 44.6664903,13.8385215 45.8997061,12.8566933 C46.5558032,12.3316748 47.3833856,12.0977945 48.2245903,12.1902515 C49.065795,12.2855245 49.8171548,12.7016595 50.3452956,13.3571503 C51.3253388,14.5892853 53.4160906,15.5304387 54.9759927,15.459727 C56.7291758,15.3807239 58.2019574,16.7353528 58.27818,18.4760798 C58.3462449,20.0481626 59.4732845,22.0310613 60.7881875,22.8986871 C62.2446379,23.8589264 62.6448224,25.8227393 61.6865592,27.2778037 C60.8154009,28.5889417 60.5622284,30.8573466 61.1148582,32.3288374 C61.727395,33.9608374 60.8970725,35.7858865 59.2636723,36.3978865 C57.7908907,36.9499693 56.2500442,38.6335951 55.8308041,40.1513926 C55.604845,40.9592577 55.0794444,41.6364939 54.3416913,42.0526288 C53.6039383,42.4715798 52.7518357,42.5803067 51.9405845,42.3545613 C50.4187937,41.9356104 48.186479,42.3925767 46.9559877,43.3745613 C46.39246,43.8233926 45.706425,44.0599325 44.9931766,44.0599325 M38.0375953,40.3580521 C39.7036736,40.3580521 41.8134809,41.3455123 42.8289111,42.6183221 C43.2862625,43.1923067 43.9396352,43.5513405 44.6746637,43.6356626 C45.4069678,43.7173252 46.1283896,43.5105092 46.700075,43.0535429 C48.0204113,42.0036626 50.4187937,41.5113405 52.0494695,41.9628313 C52.7545602,42.1560368 53.4977621,42.0635798 54.1375124,41.6990706 C54.7826959,41.3372209 55.2427719,40.7471227 55.4387931,40.0398497 C55.8879711,38.4133252 57.5377025,36.6100215 59.1193848,36.0142914 C60.5431728,35.483954 61.2673191,33.8927853 60.7310049,32.4729202 C60.1375394,30.8927025 60.412492,28.4609724 61.3462662,27.0520583 C62.1792975,25.7845675 61.8308311,24.0737209 60.5649529,23.2387914 C59.1547716,22.3084325 57.9460604,20.1814509 57.8698378,18.4951656 C57.8017729,16.9773681 56.5086657,15.7996748 54.9950483,15.867727 C53.3099144,15.9410982 51.0775996,14.9320491 50.0267827,13.6127761 C49.5694312,13.0389479 48.9106253,12.6799141 48.1783056,12.595592 C47.443277,12.5139294 46.7245796,12.7207454 46.1528942,13.1748957 C44.8325579,14.227592 42.4341756,14.7170982 40.8062242,14.2682669 C40.0984091,14.0752178 39.3579316,14.1676748 38.7127324,14.532184 C38.0729978,14.8938773 37.6101974,15.4841319 37.4169007,16.188589 C36.9677227,17.8179294 35.3125423,19.6212331 33.73086,20.2141472 C33.044825,20.472589 32.5003687,20.9838405 32.1954625,21.6557577 C31.8905563,22.3275184 31.8660517,23.0728067 32.1192399,23.7581779 C32.7127054,25.3385521 32.4404773,27.7701258 31.5094275,29.1790399 C31.1038098,29.7883804 30.96768,30.5227178 31.1119675,31.2462607 C31.261704,31.9698037 31.6782196,32.5899387 32.2907408,32.9924632 C33.7009221,33.9200061 34.9096333,36.0496472 34.9831315,37.736089 C35.0539208,39.2510706 36.3415791,40.4315798 37.8606454,40.3635276 C37.9178124,40.3608681 37.9804283,40.3580521 38.0375953,40.3580521" id="Fill-77"></path>
                    <path d="M46.6200475,43.0984417 C45.8768456,43.0984417 45.1309191,42.8210706 44.5537848,42.2635123 C43.5002433,41.2461718 41.4666586,40.6205613 40.0210904,40.8735276 C39.2452261,41.0094755 38.4584795,40.8326963 37.8078313,40.3757301 C37.1571988,39.9215798 36.724352,39.2415276 36.5854978,38.4608834 C36.3377742,37.0194294 35.0582737,35.3193773 33.7406619,34.6748374 C32.2706048,33.9567699 31.6607924,32.1778712 32.3794898,30.7090399 C33.024689,29.3899233 32.9893021,27.2684172 32.3032671,25.9737055 C31.9330362,25.2745675 31.8595224,24.4721779 32.0909304,23.7134356 C32.3250473,22.9545368 32.8395657,22.3344018 33.5364829,21.9617577 C34.8323146,21.2762301 36.0546482,19.5381626 36.2615516,18.0885736 C36.3704366,17.3079294 36.7842434,16.6116074 37.4185448,16.1355552 C38.0555706,15.6596595 38.8341594,15.4556595 39.6181971,15.567046 C41.0691986,15.7765215 43.0810032,15.0856748 44.1018823,14.0329785 C45.2398198,12.8581012 47.1263925,12.8280644 48.2997325,13.9677423 C49.353274,14.9850828 51.3895832,15.6106933 52.8297024,15.357727 C53.6082912,15.2216227 54.3950378,15.3957423 55.0456859,15.8527086 C55.6963184,16.3096748 56.1291653,16.9895706 56.265295,17.7675552 C56.5184675,19.2118252 57.7952436,20.9090613 59.1155799,21.5537577 C60.5829125,22.2718252 61.1954494,24.0533834 60.4740275,25.5220583 C59.8315528,26.8385153 59.8642152,28.9628374 60.5502502,30.2575491 C60.9204811,30.9565307 60.9939949,31.7562607 60.7598624,32.5151595 C60.5257456,33.2767178 60.0166761,33.8968528 59.3170344,34.2668374 C58.0184782,34.9522086 56.7988691,36.6929356 56.5919657,38.142681 C56.4803562,38.9233252 56.0719983,39.6169877 55.4322481,40.0956994 C54.7979467,40.5715951 54.0193579,40.7729356 53.2380446,40.6613926 C51.7843187,40.4547331 49.7725141,41.1427638 48.751635,42.1954601 C48.1690517,42.7965092 47.3959119,43.0984417 46.6200475,43.0984417 M40.6907942,40.4110859 C42.1445202,40.4110859 43.8731987,41.0366963 44.8396353,41.9697147 C45.8523409,42.9515429 47.474859,42.927138 48.4576267,41.9126135 C49.5601617,40.778411 51.7271517,40.0357822 53.2925028,40.2588681 C53.9649154,40.3539847 54.6400525,40.1800215 55.187249,39.766546 C55.7398787,39.358546 56.091054,38.7574969 56.1890567,38.0855798 C56.4122913,36.5216319 57.7271787,34.6476166 59.1264621,33.9078037 C59.7253766,33.5867853 60.1718458,33.0509724 60.3733003,32.3954816 C60.5720303,31.7399908 60.5094144,31.0491442 60.188177,30.4479387 C59.450424,29.0499755 59.4123127,26.7624847 60.1065054,25.3426196 C60.7299245,24.0751288 60.2017837,22.5410613 58.9331811,21.9209264 C57.514842,21.2246043 56.1346142,19.3940798 55.8651106,17.8382669 C55.7480521,17.1691656 55.3723566,16.581727 54.8115534,16.187181 C54.2507659,15.7927914 53.5701799,15.6405736 52.9032006,15.7574356 C51.3432984,16.0321472 49.1518195,15.357727 48.0166065,14.2588804 C47.0039008,13.2768957 45.3786583,13.3041166 44.3958906,14.3159816 C43.2933399,15.450184 41.1236411,16.1926564 39.5583057,15.9723865 C38.8886019,15.8771135 38.2134648,16.0485736 37.6635438,16.4620491 C37.1163631,16.8727086 36.7624633,17.4710982 36.6671694,18.1456748 C36.4439504,19.7096227 35.1236141,21.583638 33.7297796,22.3234509 C33.1281407,22.6416534 32.6843959,23.1774663 32.4829415,23.8331135 C32.2787625,24.4886043 32.3468274,25.1794509 32.6653403,25.783316 C33.4058178,27.1786196 33.4412046,29.4687699 32.7442874,30.888635 C32.1263173,32.1561258 32.6517336,33.6901933 33.9203362,34.3103282 C35.3386753,35.0038344 36.7161786,36.8343589 36.9911312,38.3929877 C37.1081896,39.062089 37.4811607,39.6468681 38.0446727,40.0412577 C38.6054758,40.4356472 39.2833374,40.5880215 39.9530412,40.4710031 C40.1871581,40.4329877 40.4376061,40.4110859 40.6907942,40.4110859" id="Fill-78"></path>
                    <path d="M48.1992715,41.9126135 C47.6357438,41.9126135 47.0667829,41.7439693 46.5767534,41.390411 C45.4959829,40.6069509 43.5086829,40.2968834 42.2400803,40.7130184 C40.7863387,41.1890706 39.2155544,40.394816 38.7391473,38.942411 C38.3253561,37.6721043 36.8988436,36.2550552 35.6275165,35.8470552 C34.9251503,35.6213098 34.3507404,35.1316472 34.0131719,34.4734969 C33.6756033,33.8125307 33.6129874,33.0617669 33.8389308,32.3601258 C34.2500132,31.089819 33.9287758,29.1070767 33.1420136,28.0299755 C32.7091667,27.4315859 32.5294924,26.7025675 32.6438263,25.9682301 C32.7581759,25.2365521 33.150187,24.5918558 33.7436525,24.1567914 C34.8244231,23.3706718 35.7336927,21.5755031 35.7309682,20.2427761 C35.7255192,18.7140276 36.9669084,17.4710982 38.496857,17.4656227 C39.8335245,17.4629632 41.6221102,16.5462147 42.4061323,15.4637945 C42.8362703,14.8680644 43.478745,14.4736748 44.2110491,14.3539969 C44.9460777,14.2369785 45.6783817,14.4110982 46.2745717,14.8408436 C47.3580667,15.6214877 49.3453824,15.9343712 50.6167095,15.5180798 C51.3163512,15.2870153 52.0677109,15.3467761 52.7292413,15.6814049 C53.3907717,16.0158773 53.88351,16.587046 54.1149181,17.2888436 C54.5287092,18.5563344 55.9552217,19.9733834 57.2238244,20.3841994 C57.928915,20.6099448 58.5006004,21.0967914 58.8408934,21.7577577 C59.178462,22.4187239 59.2410779,23.1693313 59.0151188,23.8711288 C58.6040521,25.1386196 58.922565,27.1241779 59.7120361,28.2012791 C60.1476231,28.7970092 60.3245729,29.5286871 60.2102233,30.2630245 C60.0958894,30.9947025 59.7038783,31.6392423 59.1103971,32.0744632 C58.0296423,32.8605828 57.1203727,34.6529356 57.1230971,35.9884785 C57.1258216,36.7256319 56.8399711,37.421954 56.3118459,37.946816 C55.7891541,38.4718344 55.0949613,38.762816 54.3599171,38.7656319 C53.0205408,38.7682914 51.2319552,39.6848834 50.4506419,40.7674601 C49.9088944,41.515408 49.0568074,41.9126135 48.1992715,41.9126135 M43.5522432,40.1174448 C44.7201186,40.1174448 45.9887369,40.4600521 46.8163192,41.0584417 C47.8753096,41.8201564 49.3562646,41.5834601 50.1185223,40.5281043 C50.9815071,39.3339847 52.8844111,38.3602914 54.3572083,38.3576319 C54.9833362,38.354816 55.5795262,38.1073252 56.0259954,37.6584939 C56.4724646,37.209819 56.7174637,36.6167485 56.7147392,35.9884785 C56.7120304,34.5169877 57.6757269,32.613092 58.8681225,31.7453098 C59.921664,30.9756166 60.1530563,29.4959908 59.3826409,28.4432945 C58.5142071,27.2548067 58.1739141,25.1467546 58.6258323,23.7459755 C58.8191133,23.1475859 58.7673953,22.508365 58.4760958,21.9453313 C58.1875365,21.3822975 57.697507,20.9635031 57.1040415,20.7731135 C55.6993091,20.3216227 54.1829673,18.8147761 53.7256158,17.4166564 C53.5296103,16.8182669 53.1103702,16.3314202 52.5468425,16.0457577 C51.9806061,15.7602515 51.3408558,15.7084693 50.7419413,15.9043344 C49.3426579,16.3641166 47.2328349,16.0349632 46.0377304,15.1726564 C45.5286609,14.8054877 44.9025174,14.6559294 44.2790983,14.7593374 C43.6502459,14.8572699 43.1030495,15.1944018 42.7355431,15.7031503 C41.8725582,16.8971135 39.9723631,17.8709632 38.4995815,17.8736227 C37.1928519,17.8762822 36.1338615,18.939773 36.1365859,20.2427761 C36.1420349,21.7142669 35.1755983,23.6181626 33.9859428,24.4857883 C33.4795821,24.855773 33.1447381,25.4051963 33.0494598,26.0308067 C32.9487325,26.6564172 33.098469,27.2792117 33.4714244,27.7878037 C34.3398425,28.9764479 34.6774111,31.0845 34.2282331,32.4852791 C34.034952,33.0836687 34.08667,33.7227331 34.3779538,34.2857669 C34.6638044,34.8488006 35.1538338,35.2677515 35.7527483,35.4581411 C37.1547406,35.9096319 38.6710824,37.4164785 39.1284338,38.8145982 C39.5340673,40.0520521 40.8734592,40.7294448 42.112124,40.3267638 C42.5395375,40.1853405 43.0377248,40.1174448 43.5522432,40.1174448" id="Fill-79"></path>
                    <path d="M49.6189728,40.5338926 C49.2187883,40.5338926 48.8213283,40.4386196 48.4538062,40.2537055 C47.3567045,39.6933313 45.4973452,39.6933313 44.4002434,40.2537055 C43.7877223,40.563773 43.090805,40.6182147 42.4292746,40.4059233 C41.7731932,40.1911288 41.2396191,39.7368221 40.9265395,39.1248221 C40.3684608,38.0287914 38.8657413,36.9380798 37.6488567,36.7448742 C36.9682707,36.6361472 36.3720807,36.271638 35.9637228,35.7114202 C35.5580894,35.151046 35.3920374,34.4709939 35.4981979,33.7910982 C35.6942191,32.5752331 35.1197936,30.8099448 34.2486509,29.9396595 C33.7613459,29.4554724 33.4918423,28.8054571 33.4918423,28.1172699 C33.4918423,27.4236074 33.7613459,26.7762515 34.2486509,26.2922209 C35.1197936,25.4191196 35.6942191,23.6538313 35.4981979,22.4379663 C35.3920374,21.7607301 35.5580894,21.0806779 35.9637228,20.5204601 C36.3720807,19.9627454 36.9682707,19.5929172 37.6488567,19.4868497 C38.8657413,19.2936442 40.3684608,18.203089 40.9265395,17.1069018 C41.2396191,16.4949018 41.7731932,16.0405951 42.4292746,15.8258006 C43.090805,15.6108497 43.7877223,15.6652914 44.4002434,15.9780184 C45.4973452,16.5357331 47.3567045,16.5357331 48.4538062,15.9780184 C49.0663431,15.6652914 49.7659848,15.6108497 50.4247907,15.8258006 C51.0808721,16.0405951 51.6144462,16.4949018 51.9302346,17.1069018 C52.4883133,18.203089 53.988324,19.2936442 55.2079331,19.4868497 C56.6126654,19.7099356 57.5763619,21.0345276 57.3558517,22.4379663 C57.1625707,23.6538313 57.7342561,25.4191196 58.6081388,26.2922209 C59.0927037,26.7762515 59.3594986,27.4236074 59.3594986,28.1172699 C59.3594986,28.8054571 59.0927037,29.4554724 58.6081388,29.9396595 C57.7342561,30.8127607 57.1625707,32.5752331 57.3558517,33.7910982 C57.5763619,35.1973528 56.6126654,36.5219448 55.2079331,36.7448742 C53.988324,36.9380798 52.4883133,38.0287914 51.9302346,39.1248221 C51.6144462,39.7368221 51.0808721,40.1911288 50.4247907,40.4059233 C50.1579958,40.4902454 49.8884765,40.5338926 49.6189728,40.5338926 M46.4256704,39.4214356 C47.2287638,39.4214356 48.0291328,39.5764693 48.6389295,39.8891963 C49.1534479,40.1502975 49.7442046,40.1937883 50.2968344,40.0170092 C50.8521886,39.8347546 51.3013823,39.4539755 51.565437,38.939908 C52.1834071,37.7187239 53.789594,36.5544847 55.1425927,36.3396902 C56.3268149,36.1547761 57.1380661,35.0368436 56.950234,33.8536748 C56.7351571,32.5045215 57.3504184,30.6168957 58.3168394,29.6513374 C58.7279217,29.2433374 58.9511407,28.6965736 58.9511407,28.1172699 C58.9511407,27.5324908 58.7251973,26.9883865 58.3168394,26.5805429 C57.3504184,25.6121687 56.7351571,23.7272025 56.950234,22.3753896 C57.1380661,21.1922209 56.3268149,20.0771043 55.1425927,19.8893742 C53.789594,19.6772393 52.1834071,18.5103405 51.565437,17.291816 C51.3013823,16.7777485 50.8521886,16.3943098 50.2968344,16.2147147 C49.7442046,16.0352761 49.1534479,16.0814264 48.6389295,16.3425276 C47.4193204,16.9626626 45.4347449,16.9626626 44.2151358,16.3425276 C43.7006017,16.0814264 43.1098607,16.0352761 42.5572309,16.2147147 C42.0018767,16.3943098 41.5526831,16.7777485 41.2886127,17.291816 C40.6679181,18.5103405 39.0644713,19.6772393 37.711457,19.8893742 C37.1397716,19.9791718 36.6361354,20.2892393 36.2931336,20.759816 C35.9528406,21.2303926 35.814002,21.8042209 35.9038313,22.3753896 C36.1188925,23.7272025 35.5036469,25.6121687 34.5372103,26.5805429 C34.1288681,26.9883865 33.9056334,27.5324908 33.9056334,28.1172699 C33.9056334,28.6965736 34.1288681,29.2433374 34.5372103,29.6513374 C35.5036469,30.6168957 36.1188925,32.5045215 35.9038313,33.8536748 C35.814002,34.4248436 35.9528406,34.9986718 36.2931336,35.4692485 C36.6361354,35.9424847 37.1397716,36.2498926 37.711457,36.3396902 C39.0644713,36.5544847 40.6679181,37.7187239 41.2886127,38.939908 C41.5526831,39.4539755 42.0018767,39.8347546 42.5572309,40.0170092 C43.1098607,40.1966043 43.7006017,40.1502975 44.2151358,39.8891963 C44.8249325,39.5764693 45.6253015,39.4214356 46.4256704,39.4214356" id="Fill-80"></path>
                    <path d="M54.6435912,30.4362055 L54.2842425,30.3220031 C53.747944,30.1506994 53.1109182,30.0690368 52.4031031,30.0745123 C50.6499199,30.0881227 48.6544465,30.6511564 47.0401019,31.5840184 C46.5800259,28.8151564 46.7950871,25.6165491 46.863152,24.7924141 C47.5301157,25.1703773 48.344107,25.8776503 48.8667832,27.8278528 L48.9348481,28.080819 L48.9811328,27.8223773 C49.3731438,25.649089 47.8921888,24.2348558 47.8377463,24.1858896 C47.8949133,24.1804141 48.2923733,24.1912086 48.8531765,24.4496503 C49.3731438,24.6916656 50.1571816,25.2140245 50.9248725,26.3291411 L51.0854912,26.5684969 L51.0283242,26.2856503 C50.4566388,23.500362 48.1753149,22.9318528 48.0419253,22.9019724 C48.0800366,22.8747515 48.8096162,22.3525491 50.9766062,23.0679571 L51.1780607,23.1305337 L51.0419309,22.972684 C49.7107124,21.4196871 47.6989078,21.8330061 47.4811221,21.8847883 L47.4838466,21.8793129 C47.568227,21.6997178 47.8921888,21.2699724 48.5564437,20.8103466 L48.7606227,20.6689233 L48.5156079,20.7042791 C47.4239552,20.8593129 46.8223162,21.3733804 46.6862021,21.5529755 C46.6725798,21.3136196 46.6263107,20.8729233 46.4820232,20.5437699 L46.4275807,20.4214325 L46.3731225,20.5437699 C46.2261262,20.8729233 46.1825659,21.3136196 46.1689592,21.5529755 C46.0328295,21.3733804 45.4312062,20.8593129 44.3395378,20.7042791 L44.0945231,20.6689233 L44.2959775,20.8103466 C44.9575079,21.2646534 45.2814698,21.6889233 45.3740236,21.8847883 C45.1698603,21.8384816 43.1362599,21.4250061 41.8132148,22.972684 L41.6771007,23.1305337 L41.8785552,23.0679571 C44.048254,22.3525491 44.7778336,22.8747515 44.8132204,22.9019724 C44.6771063,22.9318528 42.3985069,23.5031779 41.824097,26.2856503 L41.7696545,26.5684969 L41.9302732,26.3291411 C42.6979641,25.2140245 43.4792774,24.6916656 43.9992448,24.4496503 C44.5437167,24.1993436 44.9330033,24.1858896 45.0119661,24.1858896 L45.0173994,24.1858896 C44.9575079,24.2401748 43.4820019,25.6545644 43.8740286,27.8223773 L43.9202977,28.080819 L43.9883625,27.8278528 C44.5137632,25.8776503 45.3223056,25.1703773 45.9919937,24.7924141 C46.0600586,25.6165491 46.2723953,28.8179724 45.8150438,31.5840184 C44.2006992,30.6511564 42.2025013,30.0881227 40.4493182,30.0745123 L40.3730956,30.0745123 C39.695234,30.0745123 39.0881461,30.1561748 38.5709032,30.3220031 L38.2115545,30.4362055 L38.5899588,30.4362055 C41.6471471,30.4362055 43.4956086,31.1896288 45.6272117,32.4926319 C45.580927,32.5279877 45.5264845,32.5660031 45.4665931,32.6094939 C44.5927259,33.2377638 42.5455188,34.7092546 41.5328132,34.7092546 C41.3504144,34.7092546 41.1952446,34.6875092 41.0482327,34.6468344 L40.8576761,34.5895767 L41.0046724,34.7610368 C41.1271798,34.9051196 41.4103058,35.2397485 41.9329977,35.2397485 C43.1879936,35.2397485 44.9030654,34.0484448 45.9293934,33.3330368 C46.1226745,33.1997485 46.2941754,33.0827301 46.4248562,32.9957485 C46.5609703,33.0827301 46.7297467,33.1997485 46.9230434,33.3356963 C47.9493558,34.0484448 49.6671521,35.2397485 50.9221481,35.2397485 C51.4421154,35.2397485 51.7279659,34.9051196 51.8477488,34.7610368 L51.9974853,34.5895767 L51.8069131,34.6468344 C51.6599167,34.6875092 51.5020069,34.7092546 51.3196237,34.7092546 C50.3096269,34.7092546 48.2597109,33.2377638 47.3858438,32.6094939 C47.3259524,32.5660031 47.2714942,32.5279877 47.2225007,32.4926319 C49.3568127,31.1896288 51.2079986,30.4362055 54.2651869,30.4362055 L54.6435912,30.4362055 Z" id="Fill-81"></path>
                </g>
            </g>
        </g>
    </g>
</svg>