<?xml version="1.0" encoding="UTF-8"?>
<svg width="88px" height="78px" viewBox="0 0 88 78" version="1.1" xmlns="http://www.w3.org/2000/svg" xmlns:xlink="http://www.w3.org/1999/xlink">
    <!-- Generator: sketchtool 55.1 (78136) - https://sketchapp.com -->
    <title>4AE92E2E-9E15-4448-A4E4-8B504A09238A</title>
    <desc>Created with sketchtool.</desc>
    <g id="Page-1" stroke="none" stroke-width="1" fill="none" fill-rule="evenodd">
        <g id="Homepage" transform="translate(-471.000000, -3944.000000)" fill="#929292">
            <g id="Group-49" transform="translate(135.000000, 3921.000000)">
                <g id="Group-23" transform="translate(336.000000, 23.548360)">
                    <path d="M57.8322776,7.02282515 C57.8322776,7.02282515 53.9502158,-1.27844172 44.6126303,1.43613497 C44.6126303,1.43613497 44.4356961,1.40609816 44.3757263,1.19677914 C44.3757263,1.19677914 44.3431579,0.568352761 44.0354803,3.97903932e-13 C43.7224789,0.568352761 43.6952342,1.19677914 43.6952342,1.19677914 C43.6297842,1.40609816 43.4556684,1.43613497 43.4556684,1.43613497 C34.1179263,-1.27844172 30.2332026,7.02282515 30.2332026,7.02282515 C33.6225105,3.59033742 37.3439224,3.82969325 37.3439224,3.82969325 C32.2994184,8.21960429 33.5409329,13.3277393 33.5409329,13.3277393 C34.8612066,8.21960429 38.4166447,6.86231595 38.4166447,6.86231595 C35.5254145,13.6459417 39.9846263,18.0360092 39.9846263,18.0360092 C37.7550987,10.3738067 42.6308105,6.78346933 42.6308105,6.78346933 C42.2169724,13.2488926 44.0354803,18.0360092 44.0354803,18.0360092 C44.0354803,18.0360092 45.8539882,13.2488926 45.4374882,6.78346933 C45.4374882,6.78346933 50.3132,10.3738067 48.0835158,18.0360092 C48.0835158,18.0360092 52.5455461,13.6459417 49.6516539,6.86231595 C49.6516539,6.86231595 53.2070921,8.21960429 54.5273658,13.3277393 C54.5273658,13.3277393 55.7660618,8.21960429 50.7270382,3.82969325 C50.7270382,3.82969325 54.4456316,3.59033742 57.8322776,7.02282515" id="Fill-1"></path>
                    <path d="M46.0179263,39.6226196 L54.8164105,39.6226196 C54.8164105,39.6226196 43.5405342,30.6439601 37.2790987,26.7545061 C37.2790987,26.7545061 25.9379289,18.912865 19.7419434,20.1694049 C19.7419434,20.1694049 11.0657474,20.4686779 11.6237947,32.082911 C11.6237947,32.082911 10.4478868,23.2621012 19.8017566,22.2665061 C19.8017566,22.2665061 24.0187408,21.5457791 30.5250658,26.2757945 C30.5250658,26.2757945 43.6005039,36.391316 46.0179263,39.6226196" id="Fill-3"></path>
                    <path d="M41.9955697,39.6226196 L33.1970855,39.6226196 C33.1970855,39.6226196 44.4756237,30.6439601 50.7343974,26.7545061 C50.7343974,26.7545061 62.0755671,18.912865 68.2717092,20.1694049 C68.2717092,20.1694049 76.9504105,20.4686779 76.3923632,32.082911 C76.3923632,32.082911 77.5684276,23.2621012 68.2117395,22.2665061 C68.2117395,22.2665061 63.9949118,21.5457791 57.4884303,26.2757945 C57.4884303,26.2757945 44.4129921,36.391316 41.9955697,39.6226196" id="Fill-4"></path>
                    <path d="M33.1956763,24.2656748 C36.2256355,20.0334571 41.0604803,20.349 41.0604803,20.349 C48.4951618,20.5883558 55.3119829,28.2504018 55.3119829,28.2504018 L60.5824303,33.1000951 C71.6732303,42.1358558 75.7649513,34.3159601 75.7649513,34.3159601 L75.7649513,34.2968742 C73.7803132,38.9643129 68.2648197,39.6226196 68.2648197,39.6226196 C60.2692724,40.6398037 52.2765434,31.3620276 52.2765434,31.3620276 L47.8146697,27.0536227 C38.3327184,19.6309325 33.1956763,24.2467454 33.1956763,24.2467454 L33.1956763,24.2656748 Z" id="Fill-5"></path>
                    <polygon id="Fill-6" points="25.4675658 28.9007301 22.4457487 31.8219663 19.4184513 28.9007301 22.4457487 25.9794939"></polygon>
                    <polygon id="Fill-7" points="20.2221711 28.9007301 17.2003539 31.8219663 14.1757184 28.9007301 17.2003539 25.9794939"></polygon>
                    <path d="M86.5472908,52.4719601 C82.3738355,52.6323129 81.3830039,56.1819755 81.3830039,56.1819755 C80.5144605,60.5310552 85.5563026,60.8112423 85.5563026,60.8112423 L86.5472908,59.8946503 C86.0490566,60.0116687 84.5736132,59.6552945 84.5736132,59.6552945 C82.1914211,58.8555644 82.6217,56.5001779 82.6217,56.5001779 C83.5309539,53.2280429 86.5880013,53.5490613 86.5880013,53.5490613 L86.5880013,62.0080215 C86.2587158,63.2456319 85.8040105,63.3244785 85.8040105,63.3244785 C85.0173579,63.8440215 83.6969276,63.6046656 83.6969276,63.6046656 L83.6560605,64.4832423 C85.4719066,64.8422761 86.7132645,64.0045307 86.7132645,64.0045307 C87.7042526,63.5230031 87.8675645,62.1685307 87.8675645,62.1685307 L87.8675645,52.4719601 L86.5472908,52.4719601 Z" id="Fill-8"></path>
                    <path d="M77.2928487,62.0075521 C76.9635632,63.2451626 76.5061961,63.3240092 76.5061961,63.3240092 C75.7222053,63.8435521 74.401775,63.6041963 74.401775,63.6041963 L74.3582461,64.4826166 C76.1767539,64.8416503 77.41545,64.0039049 77.41545,64.0039049 C78.4062816,63.5251933 78.5724118,62.1680613 78.5724118,62.1680613 L78.5724118,53.5484356 L77.2928487,53.5484356 L77.2928487,62.0075521 Z" id="Fill-9"></path>
                    <path d="M66.9218421,62.0075521 C66.5925566,63.2451626 66.1378513,63.3240092 66.1378513,63.3240092 C65.3538605,63.8435521 64.0307684,63.6041963 64.0307684,63.6041963 L63.9899013,64.4826166 C65.8084092,64.8416503 67.0471053,64.0039049 67.0471053,64.0039049 C68.0380934,63.5251933 68.2040671,62.1680613 68.2040671,62.1680613 L68.2040671,53.5484356 L66.9218421,53.5484356 L66.9218421,62.0075521 Z" id="Fill-10"></path>
                    <polygon id="Fill-11" points="71.9234434 60.7313006 73.2029424 60.7313006 73.2029424 47.2049774 71.9234434 47.2049774"></polygon>
                    <polygon id="Fill-12" points="48.6201118 60.7313006 49.9023332 60.7313006 49.9023332 47.2049774 48.6201118 47.2049774"></polygon>
                    <path d="M43.3938197,59.8136135 L39.5743895,59.8136135 C40.6060882,54.107089 36.9282053,52.9511411 36.9282053,52.9511411 C32.9617474,51.754362 29.9482289,56.8216656 29.9482289,56.8216656 C29.7005211,57.2187147 28.2521658,59.8136135 28.2521658,59.8136135 L28.2521658,55.2658528 L26.9726026,55.2658528 L26.9726026,59.8136135 L23.4173211,59.8136135 L23.4173211,58.7773436 C23.4173211,58.7773436 23.5832947,54.2267669 18.0897224,52.9919724 L12.0977592,52.9919724 L12.0977592,53.9684816 L17.5534395,53.9684816 C17.5534395,53.9684816 21.4355013,54.1887515 22.0561803,58.4563252 L22.0561803,59.8136135 L7.01786842,59.8136135 L7.01786842,52.1922423 L5.73564342,52.1922423 L5.69493289,52.1922423 C0.944327632,52.1922423 0.239252632,56.1035982 0.239252632,56.1035982 C-0.400372368,61.1491564 4.52153026,60.7003252 4.52153026,60.7003252 L5.40087763,59.8869847 C5.08787632,59.8380184 3.59865395,59.8136135 3.59865395,59.8136135 C0.985194737,59.0764601 1.54324211,56.2612914 1.54324211,56.2612914 C2.45265263,52.9893129 5.73564342,53.2693436 5.73564342,53.2693436 L5.73564342,59.8136135 L5.73564342,60.2705798 L5.73564342,60.7302055 L7.01786842,60.7302055 L26.9726026,60.7302055 L28.2521658,60.7302055 L43.3938197,60.7302055 L44.6760447,60.7302055 L44.6760447,59.8136135 L44.6760447,47.2039417 L43.3938197,47.2039417 L43.3938197,59.8136135 Z M32.8801697,54.7844816 C36.9718908,52.2304141 38.0444566,55.7853957 38.0444566,55.7853957 C38.6324105,57.071816 38.43105,58.9541227 38.2921645,59.8136135 L29.4935237,59.8136135 C29.9482289,56.8216656 32.8801697,54.7844816 32.8801697,54.7844816 L32.8801697,54.7844816 Z" id="Fill-13"></path>
                    <path d="M55.9342276,56.4615368 C55.9342276,56.4615368 55.43615,59.7745031 59.1956105,60.7319264 L62.7510487,60.7319264 L62.7510487,52.2728098 L60.5595697,52.2728098 C60.5595697,52.2728098 56.6366408,52.8711994 55.9342276,56.4615368 L55.9342276,56.4615368 Z M61.5123526,59.8614847 L59.2472816,59.8614847 C56.8489618,59.1025859 57.1647816,56.4696718 57.1647816,56.4696718 C57.6111882,53.6164877 60.1130066,53.1404356 60.1130066,53.1404356 L61.5123526,53.1404356 L61.5123526,59.8614847 Z" id="Fill-14"></path>
                    <path d="M6.10783158,50.3163497 C6.655075,50.3163497 7.09881974,49.8892638 7.09881974,49.3589264 C7.09881974,48.8312485 6.655075,48.4015031 6.10783158,48.4015031 C5.56074474,48.4015031 5.117,48.8312485 5.117,49.3589264 C5.117,49.8892638 5.56074474,50.3163497 6.10783158,50.3163497" id="Fill-15"></path>
                    <path d="M3.38038289,50.3163497 C3.92746974,50.3163497 4.37121447,49.8892638 4.37121447,49.3589264 C4.37121447,48.8312485 3.92746974,48.4015031 3.38038289,48.4015031 C2.83313947,48.4015031 2.38939474,48.8312485 2.38939474,49.3589264 C2.38939474,49.8892638 2.83313947,50.3163497 3.38038289,50.3163497" id="Fill-16"></path>
                    <path d="M61.9742605,48.4011902 C61.4271737,48.4011902 60.9834289,48.8309356 60.9834289,49.3586135 C60.9834289,49.8862914 61.4271737,50.3160368 61.9742605,50.3160368 C62.5215039,50.3160368 62.9652487,49.8862914 62.9652487,49.3586135 C62.9652487,48.8309356 62.5215039,48.4011902 61.9742605,48.4011902" id="Fill-17"></path>
                    <path d="M77.912275,48.4011902 C77.3650316,48.4011902 76.9212868,48.8309356 76.9212868,49.3586135 C76.9212868,49.8862914 77.3650316,50.3160368 77.912275,50.3160368 C78.4595184,50.3160368 78.9032632,49.8862914 78.9032632,49.3586135 C78.9032632,48.8309356 78.4595184,48.4011902 77.912275,48.4011902" id="Fill-18"></path>
                    <path d="M59.2493171,50.3163497 C59.7964039,50.3163497 60.2401487,49.8892638 60.2401487,49.3589264 C60.2401487,48.8312485 59.7964039,48.4015031 59.2493171,48.4015031 C58.7020737,48.4015031 58.2583289,48.8312485 58.2583289,49.3589264 C58.2583289,49.8892638 58.7020737,50.3163497 59.2493171,50.3163497" id="Fill-19"></path>
                    <path d="M19.0177658,66.4673926 C18.8380132,66.4673926 18.6828434,66.5218344 18.5575803,66.6279018 C18.4324737,66.7339693 18.3698421,66.8672577 18.3698421,67.0277669 C18.3698421,67.1882761 18.4324737,67.3242239 18.5575803,67.4357669 C18.6828434,67.5444939 18.8380132,67.6015951 19.0177658,67.6015951 C19.1973618,67.6015951 19.3498697,67.5444939 19.4723145,67.4357669 C19.5920974,67.3242239 19.6520671,67.1882761 19.6520671,67.0277669 C19.6520671,66.8672577 19.5920974,66.7339693 19.4723145,66.6279018 C19.3498697,66.5218344 19.1973618,66.4673926 19.0177658,66.4673926" id="Fill-20"></path>
                    <path d="M23.6623671,71.8050276 L22.7340105,71.413454 C22.0561803,71.122316 21.7157776,70.7742331 21.7157776,70.3743681 C21.7157776,70.1758436 21.8274184,70.0098589 22.0533618,69.8793865 C22.2439184,69.7650276 22.4672,69.7052669 22.7149079,69.7052669 C22.9953408,69.7052669 23.2375684,69.7568926 23.4417474,69.8629601 C23.4417474,69.8629601 24.1006316,70.2683006 24.2857079,70.5674172 L24.6369145,70.0697761 L23.7766697,69.5502331 L23.5670105,69.4957914 C23.2375684,69.4114693 22.9572921,69.3679785 22.7313487,69.3679785 C22.2194921,69.3679785 21.7920316,69.5067423 21.4572658,69.778638 C21.1223434,70.0533497 20.9563697,70.4123834 20.9563697,70.8585552 C20.9563697,71.2419939 21.1115395,71.5656718 21.4137368,71.826773 C21.6042934,71.9899417 21.9526816,72.1831472 22.4590579,72.4062331 C22.9626158,72.6291626 23.2920579,72.7923313 23.4500461,72.9012147 C23.8147184,73.1405706 23.9971329,73.4126227 23.9971329,73.7198742 C23.9971329,73.9592301 23.8991145,74.1496196 23.7058961,74.2910429 C23.5098592,74.4324663 23.2784355,74.5059939 23.011625,74.5059939 L22.3637013,74.3564356 C21.89005,74.2774325 21.1469263,73.4207577 21.1469263,73.4207577 L20.7139855,73.7389601 C21.1251618,74.3564356 21.7812276,74.6772975 21.7812276,74.6772975 C22.2249724,74.794316 22.6333303,74.8514172 23.0089632,74.8514172 C23.5289618,74.8514172 23.9835105,74.7018589 24.3727658,74.4080613 C24.7593592,74.1116043 24.9553961,73.7363006 24.9553961,73.2819939 C24.9553961,72.6754693 24.5226118,72.1831472 23.6623671,71.8050276" id="Fill-21"></path>
                    <path d="M28.0302934,74.1344448 C27.6410382,74.1344448 27.4476632,73.8515982 27.4476632,73.2804294 L27.4476632,69.9266319 L28.8089605,69.9266319 L28.8089605,69.5214479 L27.4476632,69.5214479 L27.4476632,67.8213957 L27.2381605,67.8213957 C27.0638882,68.2076503 26.9278211,68.471411 26.8324645,68.6101748 C26.4295868,69.1760245 25.9695579,69.5513282 25.4550395,69.7390583 L25.4550395,69.9266319 L26.3860579,69.9266319 L26.3860579,73.3972914 C26.3860579,73.7672761 26.4295868,74.0391718 26.5166447,74.2159509 C26.7018776,74.5859356 27.0339816,74.7708497 27.515775,74.7708497 C28.1964237,74.7708497 28.6836974,74.498954 28.9804145,73.7591411 L28.7327066,73.7591411 C28.5856789,74.0773436 28.3515934,74.1344448 28.0302934,74.1344448" id="Fill-22"></path>
                    <path d="M32.8183211,69.5431933 C32.6576711,69.4288344 32.4699329,69.3690736 32.2521316,69.3690736 C31.740275,69.3690736 31.2421974,69.7553282 30.7547671,70.5250215 L30.7547671,69.3690736 L29.6931618,69.3690736 L29.6931618,74.6893436 L30.7547671,74.6893436 L30.7547671,70.9982577 C31.0923513,70.4134785 31.3754461,70.1224969 31.6015461,70.1224969 C31.6695013,70.1224969 31.8055684,70.1877331 32.0044237,70.318362 C32.2031224,70.4488344 32.3690961,70.514227 32.4998395,70.514227 C32.6631513,70.514227 32.799375,70.4624448 32.9027171,70.3591933 C33.0062158,70.2557853 33.0607053,70.1334479 33.0607053,69.994684 C33.0607053,69.8097699 32.9816329,69.6573957 32.8183211,69.5431933" id="Fill-23"></path>
                    <path d="M36.7157276,73.3364356 L34.7909026,69.370638 L33.5985539,69.370638 L36.2065329,74.4842485 L35.7845526,75.3845706 C35.5260408,75.9529233 35.2293237,76.2385859 34.9080237,76.2385859 C34.8616763,76.2385859 34.7583342,76.2087055 34.5950224,76.1487883 C34.3499763,76.0699417 34.1566013,76.0319264 34.0178724,76.0319264 C33.5794513,76.0319264 33.3618066,76.2058896 33.3618066,76.5513129 C33.3618066,76.7445184 33.4488645,76.8995521 33.6231368,77.0137546 C33.8000711,77.130773 33.9987697,77.1878742 34.227375,77.1878742 C34.6548355,77.1878742 35.0631934,77.0218896 35.4443066,76.6900767 C35.7682684,76.4127055 36.0214566,76.0726012 36.2065329,75.6646012 L39.1494342,69.370638 L38.5859066,69.370638 L36.7157276,73.3364356 Z" id="Fill-24"></path>
                    <path d="M45.8024737,69.3693865 C45.3125382,69.3693865 44.8496908,69.483589 44.4140882,69.7066748 C43.9758237,69.9296043 43.6274355,70.2750276 43.3661053,70.7401288 C43.104775,71.208046 42.9713697,71.6786227 42.9713697,72.1573344 C42.9713697,72.8046902 43.1918329,73.3921288 43.6274355,73.9143313 C44.1527579,74.5399417 44.8551711,74.8528252 45.7399987,74.8528252 C46.2789434,74.8528252 46.7662171,74.7331472 47.2073,74.4937914 C47.6429026,74.2544356 47.9912908,73.8925859 48.2526211,73.4057393 C48.4976671,72.951589 48.6201118,72.4863313 48.6201118,72.0076196 C48.6201118,71.3439939 48.3915066,70.7620307 47.9396197,70.2614172 C47.4059987,69.6658436 46.6927816,69.3693865 45.8024737,69.3693865 M46.0121329,74.4365337 C45.3778316,74.4365337 44.8932197,74.0994018 44.5557921,73.4220092 C44.3026039,72.8998067 44.1773408,72.3205031 44.1773408,71.6867577 C44.1773408,71.216181 44.2481145,70.8380613 44.3841816,70.5470798 C44.6373697,70.0084509 45.0457276,69.7392147 45.6092553,69.7392147 C46.0692842,69.7392147 46.4477355,69.9214693 46.7525947,70.2805031 C47.2044816,70.8108405 47.4277632,71.5317239 47.4277632,72.4428405 C47.4277632,73.772908 46.9567737,74.4365337 46.0121329,74.4365337" id="Fill-25"></path>
                    <path d="M54.24615,67.0571779 C53.8705171,66.8013957 53.4593408,66.6762423 53.0129342,66.6762423 C52.5283224,66.6762423 52.0955382,66.7824663 51.7089447,66.9999202 C50.9385763,67.4379571 50.5546447,67.9002423 50.5546447,68.9094479 L50.5546447,69.2575307 L49.4249276,69.2575307 L49.4249276,69.6492607 L50.5546447,69.6492607 L50.5546447,73.3129693 C50.5546447,73.6856135 50.5274,73.9304448 50.4730671,74.0527822 C50.3586079,74.3303098 50.1109,74.4689172 49.727125,74.4689172 L49.4657947,74.4689172 L49.4657947,74.6893436 L52.9775474,74.6893436 L52.9775474,74.4689172 L52.4412645,74.4689172 C52.1771158,74.4689172 51.9676132,74.3900706 51.809625,74.2269018 C51.6898421,74.1045644 51.6272105,73.799816 51.6272105,73.3129693 L51.6272105,69.6492607 L53.1353789,69.6492607 L53.1353789,69.2575307 L51.6272105,69.2575307 L51.6272105,68.8877025 C51.6272105,68.0824969 51.6572737,67.8486166 51.7170868,67.6555675 C51.8313895,67.2801074 52.0955382,67.0925337 52.5038961,67.0925337 C52.8278579,67.0925337 53.1190947,67.2611779 53.3777632,67.5956503 C53.6336132,67.9302791 53.8758408,68.0989233 54.1046026,68.0989233 C54.2270474,68.0989233 54.3441684,68.0471411 54.4584711,67.9492086 C54.5701118,67.8486166 54.629925,67.7398896 54.629925,67.6228712 C54.629925,67.4162117 54.502,67.2258221 54.24615,67.0571779" id="Fill-26"></path>
                    <path d="M69.6018474,69.9563558 C69.1961513,69.5646258 68.6462461,69.3687607 67.9574553,69.3687607 C67.0835882,69.3687607 66.4002776,69.6544233 65.9130039,70.225592 C65.4665974,70.7315245 65.2433158,71.3815399 65.2433158,72.173135 C65.2433158,72.8993374 65.4611171,73.5139969 65.8993816,74.022589 C66.3703711,74.5748282 67.0046724,74.8521994 67.7996237,74.8521994 C68.4174842,74.8521994 68.9565855,74.6455399 69.4111342,74.226589 C69.8385947,73.8350153 70.1080671,73.3589632 70.2115658,72.8040644 L69.9882842,72.689862 C69.6425579,73.5221319 69.0763684,73.9382669 68.2977013,73.9382669 C67.6035868,73.9382669 67.0591618,73.6663712 66.66975,73.1250828 C66.3295039,72.6599816 66.1607118,72.1077423 66.1607118,71.4632025 L70.2115658,71.4632025 C70.2115658,70.8512025 70.0073868,70.3479294 69.6018474,69.9563558 L69.6018474,69.9563558 Z M66.1607118,71.150319 C66.2042408,70.7750153 66.3512684,70.4622883 66.5963145,70.2093221 C66.8549829,69.926319 67.1925671,69.7877117 67.6035868,69.7877117 C68.1343895,69.7877117 68.5183211,70.0079816 68.7442645,70.4513374 C68.8122197,70.5901012 68.8585671,70.8213221 68.8721895,71.150319 L66.1607118,71.150319 Z" id="Fill-27"></path>
                    <path d="M73.5097447,69.2497086 C72.9952263,69.2497086 72.5350408,69.3476411 72.1240211,69.5380307 C71.6204632,69.7855215 71.3699368,70.1199939 71.3699368,70.5470798 C71.3699368,70.908773 71.5495329,71.0883681 71.9117,71.0883681 C72.2928132,71.0883681 72.4724092,70.9061135 72.456125,70.5416043 L72.4425026,70.2152669 C72.4316987,70.0220613 72.5297171,69.8617086 72.7284158,69.7365552 C72.8998697,69.6276718 73.0985684,69.5733865 73.32185,69.5733865 C73.7438303,69.5733865 74.0378855,69.7148098 74.2011974,69.992181 C74.3317842,70.196181 74.3944158,70.5090644 74.3944158,70.9359939 L74.3944158,71.1454693 C73.3871434,71.4718067 72.6657842,71.7438589 72.2411421,71.9696043 C71.5114842,72.3531994 71.1466553,72.8128252 71.1466553,73.3431626 C71.1466553,73.7294172 71.2692566,74.0476196 71.5169645,74.2979264 C71.7646724,74.5480767 72.1022566,74.6732301 72.5297171,74.6732301 C72.7882289,74.6732301 73.033275,74.6297393 73.2592184,74.5344663 C73.4172066,74.472046 73.7928395,74.2380092 74.3944158,73.8300092 L74.3944158,74.6732301 L75.4561776,74.6732301 L75.4561776,71.0231319 C75.4561776,70.5226748 75.4153105,70.1907055 75.3363947,70.0275368 C75.0941671,69.5079939 74.4842921,69.2497086 73.5097447,69.2497086 L73.5097447,69.2497086 Z M74.3944158,73.460181 C73.8690934,73.8436196 73.4471132,74.0368252 73.1258132,74.0368252 C72.8590026,74.0368252 72.6440197,73.9415521 72.4778895,73.7456871 C72.3172395,73.552638 72.2328434,73.3295521 72.2328434,73.0820613 C72.2328434,72.6468405 72.5405211,72.2715368 73.1530579,71.9614693 C73.3490947,71.8580613 73.7655947,71.6948926 74.3944158,71.4718067 L74.3944158,73.460181 Z" id="Fill-28"></path>
                    <path d="M81.2727724,74.1344448 C80.8806987,74.1344448 80.6874803,73.8515982 80.6874803,73.2804294 L80.6874803,69.9266319 L82.0512829,69.9266319 L82.0512829,69.5214479 L80.6874803,69.5214479 L80.6874803,67.8213957 L80.4778211,67.8213957 C80.3035487,68.2076503 80.1701434,68.471411 80.072125,68.6101748 C79.6692474,69.1760245 79.2118803,69.5513282 78.6973618,69.7390583 L78.6973618,69.9266319 L79.6283803,69.9266319 L79.6283803,73.3972914 C79.6283803,73.7672761 79.6719092,74.0391718 79.7591237,74.2159509 C79.9442,74.5859356 80.2736421,74.7708497 80.7554355,74.7708497 C81.4360842,74.7708497 81.9233579,74.4010215 82.2227368,73.6612086 L81.9750289,73.6612086 C81.8280013,73.9765951 81.5939158,74.1344448 81.2727724,74.1344448" id="Fill-29"></path>
                    <path d="M86.7279829,74.4573405 L87.8060289,74.4573405 L87.8060289,74.3104417 L87.8060289,71.6883221 C87.8060289,71.0519172 87.7651618,70.6085613 87.6890645,70.3637301 C87.4603026,69.7001043 87.0002737,69.3709509 86.3033408,69.3709509 C85.93585,69.3709509 85.5710211,69.4851534 85.2035303,69.7163742 C84.9883908,69.855138 84.7052961,70.0971534 84.3569079,70.4453926 L84.3569079,66.4171748 L83.2815237,67.0344939 L83.2815237,74.3104417 L83.2788618,74.4573405 L84.3569079,74.4573405 L84.3569079,74.3104417 L84.3569079,70.7934755 C84.8740882,70.2903589 85.3558816,70.0400521 85.7943026,70.0400521 C86.0011434,70.0400521 86.1754158,70.0835429 86.3141447,70.167865 C86.5211421,70.2903589 86.6517289,70.5268988 86.7035566,70.875138 C86.7198408,70.9974755 86.7308013,71.2667117 86.7308013,71.6830031 L86.7308013,74.3076258 L86.7279829,74.4573405 Z" id="Fill-30"></path>
                    <polygon id="Fill-31" points="78.0771526 70.7930061 78.0771526 70.4447669 78.0771526 66.4192086 77.001925 67.0340245 77.001925 74.3071564 76.9991066 74.4567147 78.0771526 74.4567147 78.0771526 74.309816"></polygon>
                    <path d="M19.5493513,70.7930061 L19.5493513,70.4447669 L19.5493513,69.0086319 L18.4741237,69.6234479 L18.4741237,74.3071564 C18.4741237,74.3615982 18.4713053,74.4105644 18.4713053,74.7695982 L19.5493513,74.7695982 L19.5493513,74.309816 L19.5493513,70.7930061 Z" id="Fill-32"></path>
                    <path d="M10.4759145,66.4673926 C10.2935,66.4673926 10.1383303,66.5218344 10.0130671,66.6279018 C9.88780395,66.7339693 9.82799079,66.8672577 9.82799079,67.0277669 C9.82799079,67.1882761 9.88780395,67.3242239 10.0130671,67.4357669 C10.1383303,67.5444939 10.2935,67.6015951 10.4759145,67.6015951 C10.6555105,67.6015951 10.8080184,67.5444939 10.9278013,67.4357669 C11.0502461,67.3242239 11.1102158,67.1882761 11.1102158,67.0277669 C11.1102158,66.8672577 11.0502461,66.7339693 10.9278013,66.6279018 C10.8080184,66.5218344 10.6555105,66.4673926 10.4759145,66.4673926" id="Fill-33"></path>
                    <path d="M11.0075,70.7930061 L11.0075,70.4447669 L11.0075,69.0086319 L9.92945395,69.6234479 L9.92945395,74.3071564 C9.92945395,74.3615982 9.92945395,74.4105644 9.92945395,74.7695982 L11.0075,74.7695982 L11.0075,74.309816 L11.0075,70.7930061 Z" id="Fill-34"></path>
                    <path d="M63.5959487,67.9481135 C63.5959487,67.8040307 63.6014289,67.6815368 63.6095711,67.5754693 L62.3627329,67.5754693 C62.3655513,67.6707423 62.3655513,67.7958957 62.3655513,67.9481135 L62.3655513,70.5838436 L58.6713842,70.5838436 L58.6713842,67.9481135 C58.6713842,67.8040307 58.6740461,67.6815368 58.6821882,67.5754693 L57.4326882,67.5754693 C57.4381684,67.6680828 57.4408303,67.7930798 57.4408303,67.9481135 L57.4408303,74.2339417 C57.4408303,74.4080613 57.4326882,74.5576196 57.4190658,74.682773 L58.6767079,74.682773 C58.6740461,74.582181 58.6713842,74.4324663 58.6713842,74.2339417 L58.6713842,71.002638 L62.3655513,71.002638 L62.3655513,74.2339417 C62.3655513,74.4080613 62.3574092,74.5576196 62.3409684,74.682773 L63.6095711,74.682773 C63.6014289,74.5848405 63.5959487,74.4352822 63.5959487,74.2339417 L63.5959487,67.9481135 Z" id="Fill-35"></path>
                    <path d="M15.6148355,69.3693865 C14.9886763,69.3693865 14.3352724,69.7310798 13.6574421,70.4572822 L13.6574421,69.3693865 L12.5820579,69.3693865 L12.5820579,74.6895 L13.6574421,74.6895 L13.6574421,70.791911 C14.1501961,70.299589 14.6484303,70.0520982 15.1465079,70.0520982 C15.7537211,70.0520982 16.0531,70.500773 16.0531,71.3929601 L16.0531,74.6895 L17.1175237,74.6895 L17.1175237,71.308638 C17.1175237,70.8408773 17.0739947,70.492638 16.9869368,70.2697086 C16.72545,69.671319 16.2682395,69.3693865 15.6148355,69.3693865" id="Fill-36"></path>
                    <polygon id="Fill-37" points="4.24955263 73.0241779 1.48374211 67.6005 -8.52651283e-14 67.6005 -8.52651283e-14 74.6915337 0.563527632 74.6887178 0.563527632 68.2478558 3.81128816 74.6887178 4.01280526 74.6887178 7.26056579 68.2478558 7.26056579 74.6887178 8.45839474 74.6915337 8.45839474 67.6005 6.97731447 67.6005"></polygon>
                </g>
            </g>
        </g>
    </g>
</svg>