<?xml version="1.0" encoding="UTF-8"?>
<svg width="73px" height="74px" viewBox="0 0 73 74" version="1.1" xmlns="http://www.w3.org/2000/svg" xmlns:xlink="http://www.w3.org/1999/xlink">
    <!-- Generator: sketchtool 55.1 (78136) - https://sketchapp.com -->
    <title>E9A2FC6F-2DFA-4FC7-A964-DF699B053F4A</title>
    <desc>Created with sketchtool.</desc>
    <g id="Page-1" stroke="none" stroke-width="1" fill="none" fill-rule="evenodd">
        <g id="Homepage" transform="translate(-314.000000, -3950.000000)" fill="#929292">
            <g id="Group-49" transform="translate(135.000000, 3921.000000)">
                <g id="Group-14" transform="translate(179.000000, 29.866258)">
                    <path d="M36.3487222,71.4993436 C55.723488,71.5074755 71.5512709,55.7045153 71.5648988,36.3357791 C71.5756972,16.9833129 55.767017,1.17769325 36.3704867,1.15325979 C17.0091867,1.12872699 1.16787539,16.9506166 1.15426306,36.3166933 C1.14337079,55.6691595 16.9737999,71.493865 36.3487222,71.4993436 L36.3487222,71.4993436 Z M38.1780341,-5.68434189e-14 C38.2189012,0.0924570552 38.297817,0.0516257669 38.3604486,0.0542852761 C46.7724959,0.563033742 54.1473643,3.60394785 60.4521722,9.16889264 C65.7634867,13.8580767 69.3868801,19.6379724 71.347092,26.4460031 C72.0847354,29.0000706 72.5148578,31.6085798 72.6618854,34.2658988 C72.6647038,34.3284755 72.629317,34.410138 72.7163749,34.4481534 L72.7163749,38.2642362 C72.6264986,38.3022515 72.6618854,38.3839141 72.6592236,38.4464908 C72.2616696,44.9117577 70.3125749,50.8684325 66.7217499,56.2567546 C61.9794433,63.3803282 55.5166472,68.2789877 47.3768907,70.9417822 C44.4502736,71.8992055 41.439417,72.4404939 38.3604486,72.5981871 C38.297817,72.6008466 38.2162393,72.5628313 38.1780341,72.6526288 L34.4212354,72.6526288 C34.3831867,72.5628313 34.3014525,72.5981871 34.2388209,72.5927117 C23.8721986,71.8583742 15.3076433,67.5363589 8.55079197,59.6674969 C4.76136224,55.2585 2.26225263,50.1694509 0.928309605,44.5173681 C0.457351447,42.5128804 0.168776447,40.4783558 0.0598914474,38.4192699 C0.0544425,38.3485583 0.0925538158,38.2561012 -1.42108547e-14,38.2044755 L-1.42108547e-14,34.3882362 C0.133389605,34.0972546 0.0843803947,33.7817117 0.106160526,33.4797791 C0.484564868,28.7145644 1.74228526,24.1938681 3.92560645,19.9399049 C7.43203539,13.1156043 12.5853617,7.88231595 19.342213,4.24035276 C22.6770314,2.44518405 26.2188472,1.23745399 29.9402591,0.563033742 C31.3504091,0.307251534 32.7769999,0.141423313 34.2062525,0.0597607362 C34.279688,0.0542852761 34.3722262,0.100592025 34.4212354,-5.68434189e-14 L38.1780341,-5.68434189e-14 Z" id="Fill-340"></path>
                    <path d="M36.3726788,10.8370307 C22.1974301,10.8370307 10.6519249,22.3669417 10.6492625,36.5352423 C10.6464446,50.6789816 22.1647051,62.2034172 36.3426157,62.2360262 C50.4879578,62.2686534 62.0605512,50.706046 62.0687053,36.5352423 C62.0823157,22.3968221 50.5260064,10.8398466 36.3726788,10.8370307 M36.3454341,63.3892473 C21.5576486,63.3837699 9.48682092,51.3263374 9.47585315,36.5460368 C9.46505645,21.7604172 21.5440262,9.68921779 36.356238,9.68373822 C51.1603078,9.67560736 63.2447578,21.7468067 63.2420964,36.5405613 C63.2420964,51.3263374 51.1521657,63.3947209 36.3454341,63.3892473" id="Fill-341"></path>
                    <path d="M32.1511538,5.93508589 C31.9360143,5.97044172 31.7100709,6.01674847 31.5412788,6.19634356 C31.4896078,6.25344479 31.4133538,6.31868098 31.557563,6.36498773 C31.8542801,6.46010429 32.1428551,6.56617178 32.4369104,6.65315337 C32.5131643,6.67223926 32.627467,6.70211963 32.660192,6.57164724 C32.711863,6.37578221 32.3742788,5.9433773 32.1511538,5.93508589 L32.1511538,5.93508589 Z M43.6149249,5.90254601 C43.6529736,6.15269632 43.4678972,6.32415644 43.3916433,6.53347546 C43.2336551,6.94695092 43.225513,6.94429141 43.6503117,7.02313804 C43.7564722,7.04222393 43.8652946,7.06396933 43.9742736,7.08305521 C44.0694736,6.38939264 44.1266249,6.29411963 44.7310196,5.93242638 C44.6085749,6.6450184 44.5866538,7.34947546 44.091238,7.9125092 C44.0204643,7.98869632 43.9606512,7.98603681 43.8815788,7.97242638 C43.6013025,7.91798466 43.2663801,7.94786503 43.0595393,7.8011227 C42.6375591,7.49637423 42.1775301,7.8228681 41.7663538,7.63513804 C41.6493893,7.58069632 41.5105038,7.58617178 41.3825788,7.55629141 C41.1755814,7.50998466 40.993167,7.43379755 40.9551183,7.16456135 C40.5223341,7.54815644 40.083913,7.2570184 39.6511288,7.22447853 C39.5531104,7.21618712 39.455092,7.16456135 39.3570736,7.17003681 C38.9405736,7.19178221 38.654817,7.0286135 38.5267354,6.61779755 C38.5023091,6.63969939 38.4832064,6.64783436 38.4777262,6.66410429 C38.333517,7.10198466 38.0205157,7.1891227 37.5902367,7.15095092 C37.1928393,7.11293558 36.7844814,7.14281595 36.3816038,7.16190184 C36.014113,7.18083129 35.7173959,7.10198466 35.6193775,6.69132515 C35.5839907,6.71041104 35.5512657,6.71573006 35.5486038,6.72934049 C35.4233407,7.16190184 35.1130012,7.22447853 34.7101236,7.20539264 C34.2800012,7.18630675 33.8443986,7.17551227 33.4142762,7.25983436 C33.2237196,7.29519018 33.0929762,7.35229141 33.0793538,7.56990184 C33.0657314,7.80644172 32.9432867,7.84179755 32.7309657,7.76561043 C32.2300696,7.58617178 31.718213,7.43113804 31.217317,7.24622393 C31.0294222,7.17817178 30.9096393,7.17551227 30.8689288,7.40125767 C30.8280617,7.64874847 30.6511275,7.75747546 30.4278459,7.78751227 C29.9159893,7.85540798 29.4232354,7.99964724 28.9278196,8.13559509 C28.7671696,8.18190184 28.7018762,8.16015644 28.6447249,7.99417178 C28.2554696,6.91707055 27.8524354,5.84544479 27.455038,4.76834356 C27.4306117,4.6976319 27.3869262,4.63223926 27.4359354,4.54259816 C27.5475762,4.33046319 27.6401143,4.11003681 27.7708578,3.83532515 C28.0785354,4.79556442 28.4460262,5.66866564 28.7889341,6.54990184 C29.0231762,7.15376687 29.025838,7.15095092 29.6546591,7.0286135 C29.9487143,6.96869632 30.2480933,6.90893558 30.5476288,6.87623926 C30.7845328,6.8490184 30.9124578,6.73481595 30.961467,6.50907055 C31.0948722,5.87266564 31.5522393,5.49720552 32.0748999,5.18713804 C32.3960433,4.99127301 32.4968801,5.05666564 32.6002222,5.40474847 C32.7146814,5.79647853 32.9977762,6.07119018 33.3081157,6.31868098 C33.3679288,6.36764724 33.4415209,6.36217178 33.5094762,6.35669632 C34.0921064,6.29693558 34.6800604,6.30507055 35.2655091,6.30507055 C35.4642078,6.30773006 35.5457854,6.23983436 35.5185407,6.04944479 C35.4532472,5.56259816 35.7853512,5.28507055 36.090367,4.93151227 C36.1338959,5.24971472 36.1121314,5.5136319 36.0686025,5.77739264 C36.0167749,6.10920552 36.2046696,6.32681595 36.5286314,6.28066564 C37.0730564,6.20447853 37.6148196,6.25610429 38.1565828,6.27519018 C38.4124328,6.28332515 38.5267354,6.20166258 38.5023091,5.95964724 C38.450638,5.48093558 38.7255907,5.17900307 39.0930814,4.85266564 C39.0739788,5.09468098 39.0684986,5.29320552 39.0440722,5.48641104 C38.9678183,6.11202147 39.0576946,6.24249387 39.6755551,6.35669632 C40.0377222,6.42208896 40.4078749,6.47371472 40.7755222,6.53629141 C40.9414959,6.56069632 41.1076262,6.54442638 41.1483367,6.36764724 C41.2518354,5.92429141 41.6711538,5.8263589 41.9623907,5.5788681 C41.891617,5.86719018 41.7773143,6.13095092 41.6085222,6.36764724 C41.4995433,6.52002147 41.5131657,6.61513804 41.6900999,6.68319018 C41.9922972,6.80552761 42.308117,6.85996933 42.6347407,6.8707638 C42.7028525,6.87357975 42.7982091,6.87357975 42.809013,6.78644172 C42.8689828,6.29959509 43.3044288,6.16098773 43.6175867,5.91068098 L43.6149249,5.90254601 Z" id="Fill-342"></path>
                    <path d="M64.1410157,23.5987638 L64.0838643,23.6422546 C64.3942038,24.278816 64.699063,24.9125613 65.0067407,25.5463067 C65.0258433,25.5816626 65.0557499,25.6115429 65.0883183,25.6361043 C65.2190617,25.7285613 65.3225604,25.7204264 65.404138,25.5625767 C65.6137972,25.1681871 65.5566459,24.6215798 65.2163999,24.3467117 C64.8788157,24.074816 64.5030262,23.8462546 64.1410157,23.5987638 M62.1427551,16.1379018 C61.7343972,16.7228374 61.3833472,17.2503589 61.0020775,17.7562914 C60.8170012,18.0011227 60.7925749,18.1943282 60.9831314,18.449954 C61.2526038,18.8144632 61.4921696,19.2005613 61.7290736,19.586816 C61.827092,19.7446656 61.9304341,19.7881564 62.0638393,19.671138 C62.4449525,19.3474601 62.8669328,19.4726135 63.332442,19.5242393 C63.0956946,19.7690706 62.8260657,19.8724785 62.5675538,19.994816 C62.3007433,20.1173098 62.2381117,20.3457147 62.3932814,20.5878865 C62.4095657,20.6122914 62.4260064,20.6557822 62.4449525,20.6585982 C62.915942,20.6775276 62.8370262,21.1399693 63.0249209,21.3848006 C63.1064986,21.4963436 63.1528459,21.6349509 63.237242,21.8090706 C63.653742,21.2460368 64.1436775,21.4935276 64.6746367,21.6430859 C64.3478564,21.8200215 64.0592814,21.9831902 63.7653828,22.130089 C63.5311407,22.2469509 63.5067143,22.4019847 63.6128749,22.6250706 C63.7271775,22.8589509 63.9177341,22.9977147 64.1247314,23.1255276 C64.7100236,23.4790859 65.3061196,23.8163742 65.8832696,24.1835429 C66.591163,24.6378497 66.7054657,25.4619847 66.1691828,26.1174755 C66.1010709,26.2044571 66.0221551,26.2751687 65.896892,26.2779847 C65.4694314,26.2834601 65.0476078,26.3214755 64.6256275,26.2779847 C64.4241104,26.2588988 64.2988472,26.1664417 64.2091275,25.9815276 C63.6673643,24.8146288 63.1256012,23.6477301 62.5592551,22.4891227 C62.4150459,22.1898497 62.6763762,22.135408 62.7934972,21.9968006 C62.7743946,21.9695798 62.7607722,21.9396994 62.7499683,21.9423589 C62.3633749,21.9858497 62.1618578,21.7737147 62.0666578,21.4282914 C62.0176486,21.2486963 61.8923854,21.2161564 61.7235933,21.1509202 C61.429538,21.0312423 61.3315196,20.4816626 61.4866893,20.1880215 C61.5084538,20.1445307 61.538517,20.1063589 61.6174328,19.9812055 C61.0156999,20.2260368 60.8279617,19.8479172 60.607342,19.4888834 C60.4141236,19.1734969 60.2371893,18.8388681 59.967717,18.5777669 C59.7907828,18.4117822 59.9323301,18.2894448 60.0002854,18.1534969 C60.0466328,18.0663589 60.1635972,17.9739018 60.1064459,17.8869202 C60.0356722,17.7916472 59.8886446,17.8434294 59.7961064,17.8814448 C59.5266341,17.9956472 59.3523617,17.9005307 59.1809078,17.6855798 C58.8760486,17.3076166 58.5466064,16.9512423 58.2226446,16.5922086 C58.0619946,16.4126135 58.075617,16.2848006 58.2797959,16.1515123 C58.6609091,15.9040215 59.0283999,15.6321258 59.5158301,15.5667331 C59.3960472,15.6674816 59.2734459,15.7680736 59.1564814,15.8714816 C59.0066354,15.9964785 58.9876893,16.1244479 59.1292367,16.2821411 C59.4802867,16.6710552 59.8261696,17.0654448 60.1664157,17.4653098 C60.2725762,17.5904632 60.351492,17.5849877 60.4549907,17.4707853 C60.6563512,17.2531748 60.8143393,17.005684 60.9558867,16.7527178 C61.1110564,16.4780061 61.3097551,16.309362 61.6310551,16.2740061 C61.7780828,16.2549202 61.922292,16.197819 62.1427551,16.1379018" id="Fill-343"></path>
                    <path d="M41.4160867,66.3888589 C41.7535143,65.8313006 42.2136999,65.5783344 42.8126143,65.5647239 C43.0249354,65.5592485 43.2236341,65.6053988 43.3733236,65.749638 C43.5449341,65.9182822 43.6183696,65.8394356 43.716388,65.6762669 C43.9640959,65.2599755 44.3616499,65.0831963 44.8243407,65.0342301 C45.3225749,64.9826043 45.7390749,65.2382301 45.9105288,65.765908 C46.1093841,66.377908 46.248113,67.0089939 46.408763,67.6317883 C46.5476486,68.1622822 46.5421683,68.1649417 45.9896012,68.2982301 C45.7581775,68.3553313 45.4804064,68.5321104 45.3034722,68.4288589 C45.1210578,68.3254509 45.1537828,67.993638 45.0911512,67.7624172 C44.9849907,67.3761626 44.8897907,66.9844325 44.7917722,66.5928589 C44.7291407,66.3370767 44.5875933,66.1767239 44.304342,66.2120798 C44.0458301,66.2446196 43.8988025,66.4350092 43.9260472,66.7397577 C43.9831986,67.3217209 44.1818972,67.8766196 44.3207828,68.4423129 C44.3724538,68.6546043 44.3315867,68.7279755 44.132888,68.7688067 C43.8552736,68.825908 43.5803209,68.8830092 43.3135104,68.9699908 C43.1365762,69.029908 43.0902288,68.9673313 43.054842,68.8149571 C42.926917,68.2738252 42.7935117,67.7378558 42.6546262,67.2020429 C42.6110972,67.0388742 42.5757104,66.8702301 42.401438,66.7751135 C42.2490867,66.6907914 42.1075393,66.7180123 41.9741341,66.8049939 C41.7754354,66.9409417 41.7209459,67.1477577 41.7699551,67.3680276 C41.8815959,67.8766196 41.9877564,68.3935031 42.145588,68.8911442 C42.2409446,69.1985521 42.145588,69.2883497 41.8624933,69.3318405 C41.6147854,69.3698558 41.3697393,69.4405675 41.1301736,69.5112791 C40.9886262,69.5521104 40.9369551,69.5140951 40.9042301,69.3726718 C40.6701446,68.4069571 40.4277604,67.4413988 40.1800525,66.4758405 C40.1420038,66.3208067 40.158288,66.2393006 40.3380407,66.2092638 C40.5475433,66.1767239 40.7545407,66.1222822 40.9532393,66.0542301 C41.2418143,65.953638 41.4323709,65.9753834 41.4160867,66.3888589" id="Fill-344"></path>
                    <path d="M8.83294724,17.1615 C9.75300513,17.7598896 10.6650775,18.2522117 11.5688512,18.7581442 C11.9662486,18.9810736 12.0016354,18.9213129 12.2521617,18.5214479 C12.5189722,18.086227 12.8838012,17.7135828 13.1994643,17.3083988 C13.2757183,17.2104663 13.4581328,17.1125337 13.379217,16.9983313 C13.2974828,16.8867883 13.1150683,16.9819049 12.9790012,17.0119417 C12.7312933,17.066227 12.5816038,17.2675675 12.4181354,17.4443466 C12.0943301,16.9575 11.9662486,16.4761288 12.3202736,15.9620613 C12.5053499,15.6954847 12.7312933,15.4996196 13.057917,15.426092 C13.5860578,15.3092301 13.7875749,15.4152975 13.9781314,15.9238896 C14.008038,16.0055521 14.0462433,16.0843988 14.0950959,16.1959417 C14.5089341,15.7008037 14.9854038,15.317365 15.4318104,14.8957546 C15.5489314,14.7870276 15.4753393,14.7244509 15.4100459,14.6537393 C15.2113472,14.4361288 14.9691196,14.2701442 14.7322157,14.096181 C14.4491209,13.8867055 14.1577275,13.685365 13.8719709,13.481365 C13.795717,13.4323988 13.7276051,13.3508926 13.6295867,13.3781135 C13.3328696,13.4650951 13.2649143,13.280181 13.2240472,13.0544356 C13.185842,12.8285337 13.0824999,12.6163988 13.0987841,12.3662485 C13.4772354,12.6300092 13.8555301,12.4587055 14.2095551,12.3662485 C14.5062722,12.2874018 14.6150946,12.360773 14.585188,12.6436196 C14.5306986,13.1985184 14.8084696,13.5494172 15.2467341,13.8296043 C15.6849986,14.1069755 15.9762354,14.512316 16.2430459,14.9501963 C16.3520249,15.1324509 16.3329222,15.2629233 16.1858946,15.3962117 C15.9137604,15.6491779 15.6414696,15.9076196 15.3638551,16.1577699 C15.1377551,16.3617699 14.917292,16.5712454 14.7484999,16.8215521 C14.5988104,17.0472975 14.4326801,17.1397546 14.168688,17.0308712 C14.1060564,17.0064663 14.0326209,17.0172607 13.9645091,17.0119417 C13.9590288,17.0444816 13.9482249,17.066227 13.956367,17.0798374 C14.1632078,17.4063313 14.1060564,17.670092 13.8311038,17.9529387 C13.302963,18.4915675 12.919188,19.1470583 12.4835854,19.7617178 C12.3746064,19.9167515 12.2930288,19.9384969 12.1242367,19.8352454 C11.1578314,19.2531258 10.1886078,18.6792975 9.21406039,18.1079724 C9.08879724,18.0346012 9.01802355,17.9476196 8.98811697,17.8115153 C8.94443145,17.6156503 8.89276039,17.4226012 8.83294724,17.1615" id="Fill-345"></path>
                    <path d="M9.09349461,47.7223896 C9.05528934,47.4966442 9.02804461,47.2109816 8.84296829,47.0586074 C8.71770513,46.9553558 8.49990382,47.1510644 8.32296961,47.2083221 C8.2196275,47.240862 8.11879066,47.2871687 8.01544855,47.325184 C7.92823408,47.3524049 7.90380776,47.3987117 7.93637618,47.4802178 C8.01544855,47.6842178 8.08074197,47.9018282 8.23043145,48.0678129 C8.37479724,48.2309816 8.55439329,48.2990337 8.76953276,48.2064202 C8.97371171,48.1194387 9.09067618,47.9725399 9.09349461,47.7223896 M10.2504564,48.2228466 C10.247638,48.8974233 9.89924987,49.3216933 9.21860118,49.5474387 C8.58429987,49.7622331 8.0262525,49.6100153 7.64780118,49.1176933 C7.37284855,48.7586595 7.23405697,48.3370491 7.08978513,47.9209141 C7.02716921,47.7522699 6.97000224,47.7087791 6.79032789,47.7821503 C6.38469447,47.9562699 5.96545434,48.1003528 5.55709645,48.2663374 C5.42370684,48.3207791 5.36653987,48.3153037 5.31482184,48.1684049 C5.19231447,47.8175061 5.05347592,47.4720828 4.91463737,47.1266595 C4.86835263,47.0096411 4.89285724,46.9553558 5.02079789,46.9090491 C6.37379658,46.3949816 7.72405513,45.8727791 9.07439197,45.3532362 C9.16144987,45.3178804 9.23504197,45.288 9.28123276,45.4212883 C9.58891039,46.2616933 9.95373934,47.0776933 10.2122512,47.937184 C10.247638,48.0513865 10.2449762,48.1765399 10.2504564,48.2228466" id="Fill-346"></path>
                    <path d="M65.861192,48.7090675 C66.1035762,48.706408 66.2967946,48.6220859 66.3866709,48.3827301 C66.4765472,48.1460337 66.4057736,47.9420337 66.2205407,47.787 C65.9974157,47.5994264 65.733267,47.4933589 65.4475104,47.474273 C65.1833617,47.4580031 64.9820012,47.574865 64.8811643,47.8387822 C64.7804841,48.1025429 64.900267,48.2876135 65.1044459,48.4343558 C65.3277275,48.594865 65.5835775,48.6846626 65.861192,48.7090675 L65.861192,48.7090675 Z M67.0699814,48.0263558 C67.2060486,48.3473742 67.2741604,48.6737117 67.1651814,49.0219509 C66.9256157,49.7916442 66.2805104,50.126273 65.349492,49.9385429 C65.0009472,49.8704908 64.6743236,49.7318834 64.3802683,49.5305429 C63.4927788,48.9240184 63.5009209,47.7599356 64.3967091,47.1587301 C64.4292775,47.1343252 64.4591841,47.1125798 64.516492,47.0689325 C64.0808893,46.9002883 63.6643893,46.7318006 63.2450709,46.5820859 C63.0872393,46.5249847 63.0435538,46.4652239 63.1144841,46.2992393 C63.2369288,46.0137331 63.3430893,45.7199356 63.4492499,45.426138 C63.4927788,45.3091196 63.5363078,45.2765798 63.6670512,45.3282055 C65.017388,45.850408 66.3703867,46.3672914 67.7287091,46.8813589 C67.8649328,46.9329847 67.881217,46.9955613 67.8214038,47.1261902 C67.7315275,47.3273742 67.6335091,47.5313742 67.5871617,47.7463252 C67.516388,48.0427822 67.3829828,48.1297638 67.1135104,47.9692546 C67.0862657,47.9692546 67.0618393,47.9665951 67.0400749,47.9665951 L67.0699814,48.0263558 Z" id="Fill-347"></path>
                    <path d="M12.0099341,55.3112209 C12.0044538,55.0202393 11.7457854,54.7918344 11.4354459,54.8353252 C11.0297499,54.8924264 10.738513,55.1425767 10.5670591,55.5044264 C10.4391341,55.7736626 10.6160683,56.1082914 10.8910209,56.1816626 C11.315663,56.2932055 12.020738,55.7464417 12.0099341,55.3112209 M9.88093013,55.7519172 C9.57607092,56.1326963 9.42356303,55.9341718 9.26839329,55.694816 C9.12684592,55.4772055 8.81118276,55.284 8.84656961,55.0692055 C8.87913803,54.8842914 9.20591829,54.7455276 9.40179855,54.5904939 C10.365542,53.8397301 11.3292854,53.0917822 12.2848867,52.3328834 C12.4400564,52.2077301 12.5189722,52.218681 12.630613,52.3791902 C12.7884446,52.610411 12.9653788,52.8333405 13.1504551,53.0454755 C13.270238,53.1842393 13.2757183,53.2577669 13.1150683,53.3719693 C12.7557196,53.6275951 12.4154736,53.9104417 12.0343604,54.2151902 C12.5379183,54.3157822 12.8728407,54.5768834 13.0879801,54.9875429 C13.2594341,55.3059018 13.3003012,55.6513252 13.1805183,55.983138 C12.9082275,56.7365613 12.3229354,57.1717822 11.5879538,57.3865767 C10.6323525,57.6612883 9.82659724,56.9813926 9.88093013,55.983138 C9.88374855,55.9341718 9.88093013,55.8823896 9.88093013,55.7519172" id="Fill-348"></path>
                    <path d="M59.8955341,57.0510092 C59.843863,57.1107699 59.8029959,57.1652117 59.7566486,57.2168374 C59.4491275,57.5486503 59.1469301,57.8887546 58.8256301,58.2096166 C58.6867446,58.3483804 58.7085091,58.419092 58.8419143,58.5387699 C59.2067433,58.8624479 59.5524696,59.2023957 59.9118183,59.5260736 C60.0289393,59.6294816 60.0698064,59.7001933 59.939063,59.8308221 C59.6803946,60.0836319 59.4355051,60.355684 59.1931209,60.6249202 C59.106063,60.7228528 59.0489117,60.7283282 58.9508933,60.6330552 C57.8946117,59.6402761 56.830188,58.6503129 55.7629459,57.6630092 C55.6567854,57.5650767 55.6840301,57.5079755 55.7657643,57.4208374 C56.5062262,56.6348742 57.2440262,55.8459387 57.9790078,55.0545 C58.0688841,54.953908 58.1368393,54.951092 58.2185736,55.0518405 C58.2267157,55.0599755 58.2348578,55.0654509 58.2429999,55.0707699 C58.4282328,55.2530245 58.7438959,55.4216687 58.765817,55.6230092 C58.7902433,55.8296687 58.4636196,56.0145828 58.2866854,56.2077883 C58.0361591,56.4851595 57.7884512,56.7626871 57.5216407,57.0237883 C57.3963775,57.1516012 57.4209604,57.2168374 57.5379249,57.3283804 C57.9708657,57.7309049 57.9653854,57.7337209 58.3764051,57.295684 C58.5970249,57.0591442 58.8311104,56.8333988 59.0379512,56.583092 C59.1768367,56.4117883 59.2720367,56.4280583 59.4082604,56.5804325 C59.5199012,56.7082454 59.6586301,56.8143129 59.7838933,56.9339908 C59.8192801,56.9666871 59.8491867,57.0047025 59.8955341,57.0510092" id="Fill-349"></path>
                    <path d="M62.5938591,51.5938528 C62.6727749,51.4851258 62.5830551,51.3898528 62.5612907,51.2947362 C62.4061209,50.5957546 62.8551893,49.809635 63.4923091,49.6872975 C63.7945064,49.6273804 64.0721209,49.7226534 64.3334512,49.8586012 C64.9433262,50.1877546 65.5475643,50.530362 66.1574393,50.8621748 C66.2745604,50.9247515 66.3262314,50.9737178 66.2444972,51.1124816 C66.0757051,51.3871933 65.9205354,51.6673804 65.7736643,51.9557025 C65.7000722,52.1026012 65.6292986,52.0753804 65.5149959,52.0099877 C65.0330459,51.738092 64.5512525,51.4715153 64.0639788,51.2077546 C63.7154341,51.0200245 63.4949709,51.0499049 63.3452814,51.2866012 C63.1846314,51.5395675 63.2554051,51.8195982 63.5821854,52.0264141 C64.0094893,52.2901748 64.445092,52.5512761 64.8969788,52.766227 C65.1991762,52.9076503 65.2127986,53.0409387 65.0330459,53.291089 C64.8914986,53.495089 64.7826762,53.7236503 64.6683736,53.9493957 C64.6084038,54.0664141 64.5567328,54.082684 64.4369499,54.0146319 C63.5413183,53.5141748 62.6428683,53.0191933 61.7445749,52.5268712 C61.6355959,52.466954 61.6274538,52.4153282 61.6846051,52.3173957 C61.8153486,52.0997853 61.9487538,51.8849908 62.0494341,51.6564294 C62.1474525,51.438819 62.253613,51.3544969 62.4604538,51.5259571 C62.4986591,51.5558374 62.5503301,51.5667883 62.5966775,51.5857178 C62.6129617,51.5911933 62.6265841,51.5966687 62.6428683,51.6048037 C62.6402064,51.5938528 62.6402064,51.5885337 62.637388,51.5775828 C62.6239222,51.5830583 62.6074814,51.5885337 62.5938591,51.5938528" id="Fill-350"></path>
                    <path d="M24.3373946,64.3303988 C24.8628736,64.0556871 25.344667,64.0420767 25.826617,64.292227 C26.294788,64.5425337 26.5099275,64.9613282 26.3737038,65.4727362 C26.1695249,66.2641748 25.7829314,66.9877178 25.5079788,67.752092 C25.461788,67.8744294 25.396338,67.8581595 25.301138,67.8173282 C25.0016025,67.6895153 24.7077038,67.5617025 24.402688,67.455635 C24.2340525,67.3985337 24.255817,67.3168712 24.307488,67.1890583 C24.5334314,66.6315 24.756713,66.0737853 24.9745143,65.5107515 C25.0642341,65.2823466 25.0070828,65.0919571 24.7811393,64.9749387 C24.5551959,64.8552607 24.3483551,64.9015675 24.1877051,65.0974325 C24.1006472,65.2035 24.0298736,65.3286534 23.9725657,65.4564663 C23.8310183,65.7801442 23.7059117,66.1064816 23.5725064,66.432819 C23.3356025,67.0204141 23.3382643,67.0204141 22.7448301,66.7837178 C22.1214893,66.5335675 22.1214893,66.5335675 22.3746775,65.8998221 C22.685017,65.1354479 23.0006801,64.3765491 23.3002157,63.6068558 C23.3709893,63.4272607 23.441763,63.375635 23.6186972,63.4735675 C23.7712051,63.5524141 23.9371788,63.6041963 24.0923486,63.6666166 C24.5143288,63.8352607 24.5143288,63.8352607 24.3373946,64.3303988" id="Fill-351"></path>
                    <path d="M62.9475709,55.4599969 C63.0999222,55.9632699 63.0047222,56.4092853 62.6970446,56.8118098 C62.3486564,57.2661166 61.8695249,57.4130153 61.3631486,57.1464387 C60.6389709,56.7628436 60.0128117,56.2298466 59.3349814,55.7810153 C59.2343012,55.7129632 59.269688,55.6532025 59.3213591,55.5824908 C59.5119157,55.3104387 59.7079525,55.0412025 59.890367,54.7636748 C59.985567,54.6169325 60.0618209,54.6848282 60.1598393,54.7528804 C60.6363091,55.0873528 61.1154407,55.4246411 61.6000525,55.751135 C61.8095551,55.8952178 62.0328367,55.9360491 62.217913,55.7048282 C62.3976657,55.4845583 62.3759012,55.2559969 62.1906683,55.0493374 C62.0926499,54.9377945 61.972867,54.839862 61.8504222,54.7528804 C61.5728078,54.5515399 61.2895564,54.3584908 61.0092801,54.1626258 C60.5437709,53.8362883 60.5409525,53.8362883 60.8649143,53.3793221 C61.0037999,53.1834571 61.129063,52.8679141 61.3031788,52.8325583 C61.4719709,52.799862 61.7007328,53.0556442 61.8967696,53.191592 C62.5583157,53.6512178 63.2170433,54.1217945 63.8840696,54.5732853 C64.0528617,54.6876442 64.0610038,54.7746258 63.9357407,54.9187086 C63.8432025,55.0249325 63.7750907,55.1472699 63.6906946,55.2614724 C63.5900143,55.4002362 63.5165788,55.5932853 63.3803551,55.6613374 C63.2469499,55.7265736 63.1353091,55.4926933 62.9475709,55.4599969" id="Fill-352"></path>
                    <path d="M50.906963,63.089816 C50.9995012,62.5729325 51.2309249,62.2031043 51.655567,61.966408 C52.2109525,61.6563405 52.7254709,61.7270521 53.1037657,62.2411196 C53.5720933,62.8803405 53.9123393,63.6065429 54.3235157,64.2865951 C54.399613,64.4117485 54.3098933,64.4416288 54.2336393,64.4877791 C53.9613486,64.6428129 53.6863959,64.7925276 53.4224038,64.9583558 C53.2835183,65.0481534 53.226367,65.018273 53.1446328,64.8821687 C52.8505775,64.3546472 52.5485367,63.8322883 52.232717,63.3182209 C52.1101157,63.1223558 51.9305196,63.0162883 51.6909538,63.1387822 C51.4568683,63.2584601 51.3424091,63.4460337 51.418663,63.7099509 C51.4676722,63.8623252 51.5329657,64.0090675 51.612038,64.1506472 C51.8052564,64.5042055 52.0120972,64.8496288 52.2109525,65.1977117 C52.412313,65.5404755 52.4151314,65.5486104 52.0639249,65.739 C51.8025946,65.8777638 51.527642,66.1986258 51.2880762,66.1197791 C51.0757551,66.0490675 50.9722564,65.6601534 50.8278907,65.4098466 C50.4549196,64.7734417 50.0983893,64.1287454 49.7172762,63.5032914 C49.5838709,63.2883405 49.6328801,63.1985429 49.8315788,63.1006104 C50.0247972,63.0109693 50.212692,62.9075613 50.3841459,62.7852239 C50.5775209,62.6464601 50.6973038,62.673681 50.7816999,62.8939509 C50.8008025,62.9455767 50.8443314,62.9918834 50.906963,63.089816" id="Fill-353"></path>
                    <path d="M8.19754987,53.1146227 C7.67207092,53.0112147 7.29909987,52.7718589 7.06499868,52.3258436 C6.77916382,51.7764202 6.87171763,51.2895736 7.36173145,50.9059785 C7.67473276,50.6639632 8.03689987,50.5089294 8.37714592,50.3130644 C8.70924987,50.1226748 9.0496525,49.9458957 9.38175645,49.7528466 C9.51234329,49.6738436 9.58311697,49.6847945 9.65389066,49.8288773 C9.81735908,50.1525552 10.1630854,50.4926595 10.116738,50.7755061 C10.0732091,51.0392669 9.56417092,51.1371994 9.26745382,51.3167945 C8.99782487,51.4773037 8.71473013,51.615911 8.45073803,51.7790798 C8.25470118,51.9015736 8.14039855,52.0702178 8.24107882,52.3150491 C8.33909724,52.551589 8.51603145,52.6495215 8.76921961,52.6168252 C8.94349197,52.5978957 9.09584329,52.5188926 9.24553276,52.4373865 C9.66218934,52.2088252 10.0786893,51.9858957 10.4870472,51.7491994 C10.6257762,51.6676933 10.6884078,51.6811472 10.7591814,51.822727 C10.898067,52.0946227 11.0477564,52.3557239 11.2029262,52.6141656 C11.2791801,52.7447945 11.2846604,52.8126902 11.1321525,52.8943528 C10.2474814,53.3730644 9.37079592,53.8625706 8.48878671,54.3548926 C8.36900382,54.4202853 8.30637224,54.4284202 8.23826039,54.2869969 C8.13209987,54.0612515 8.01513539,53.8353497 7.87076961,53.6286902 C7.73204066,53.4301656 7.77008934,53.3159632 7.98522882,53.2316411 C8.03956171,53.2098957 8.08857092,53.1745399 8.19754987,53.1146227" id="Fill-354"></path>
                    <path d="M31.7708236,66.7062791 C31.471288,66.7089387 31.2943538,66.8749233 31.182713,67.1441595 C31.1255617,67.2855828 31.1772328,67.3154632 31.3079762,67.3290736 C31.5365814,67.350819 31.7653433,67.3916503 31.996767,67.4215307 C32.1220301,67.4379571 32.2989643,67.5194632 32.3642578,67.4133957 C32.4431736,67.2801074 32.3750617,67.1006687 32.2880038,66.9592454 C32.1682209,66.7715153 31.9886249,66.7008037 31.7708236,66.7062791 M33.4695486,68.7570736 C33.0802933,69.2792761 32.6011617,69.502362 32.0049091,69.4887515 C31.7027117,69.4806166 31.4005143,69.4452607 31.1064591,69.3772086 C30.1618183,69.1624141 29.6310157,68.3844294 29.7670828,67.4270061 C29.9059683,66.4478374 30.6763367,65.822227 31.6482222,65.8984141 C31.931317,65.9201595 32.2062696,65.9691258 32.4785604,66.0507883 C33.5049354,66.3499049 33.8043143,67.2284816 33.6355222,68.174954 C33.6082775,68.3273282 33.5185578,68.270227 33.4341617,68.2592761 C32.7154643,68.1560245 31.996767,68.0635675 31.2780696,67.9520245 C31.0602683,67.9166687 31.0139209,67.965635 31.0657486,68.1777699 C31.1690907,68.6156503 31.6345999,68.8387362 32.0293354,68.5965644 C32.2036078,68.4878374 32.3479736,68.4797025 32.5330499,68.5313282 C32.829767,68.6156503 33.1319643,68.678227 33.4695486,68.7570736" id="Fill-355"></path>
                    <path d="M48.1925104,64.6542331 C47.7650499,64.6460982 47.4601907,65.0404877 47.569013,65.4539632 C47.5907775,65.5464202 47.6208407,65.5736411 47.7105604,65.5382853 C48.0263801,65.4078129 48.3421999,65.277184 48.6606814,65.1575061 C48.756038,65.1194908 48.766842,65.073184 48.7178328,64.9998129 C48.5925696,64.8120828 48.4483604,64.6489141 48.1925104,64.6542331 M50.3594064,65.6742331 C50.2695301,66.313454 49.9864354,66.7596258 49.4501525,67.0343374 C48.8894433,67.317184 48.3259157,67.6108252 47.6725117,67.4476564 C46.9210893,67.2600828 46.5291722,66.713319 46.3740025,66.000727 C46.2269749,65.3234908 46.4419578,64.7332362 47.0164459,64.3252362 C47.5635328,63.9389816 48.1679275,63.6941503 48.8567183,63.8002178 C49.599842,63.9117607 49.9455683,64.4585245 50.2042367,65.0867945 C50.2778288,65.2526227 50.1198407,65.2391687 50.0464051,65.2690491 C49.3930012,65.5356258 48.7395972,65.796727 48.0890117,66.0633037 C47.8250196,66.1693712 47.8140591,66.2236564 48.0237183,66.4223374 C48.3285775,66.7106595 48.8239933,66.6426074 49.0281722,66.2563528 C49.1235288,66.0714387 49.2514538,65.9952515 49.428388,65.9462853 C49.7279236,65.8646227 50.0246407,65.7749816 50.3594064,65.6742331" id="Fill-356"></path>
                    <path d="M5.85002434,34.6937669 C6.10048803,34.6964264 6.31554921,34.6529356 6.5006725,34.5169877 C6.69122908,34.3727485 6.79740526,34.1878344 6.74839605,33.9430031 C6.70483579,33.7064632 6.55239053,33.5758344 6.32915592,33.5187331 C6.02969868,33.445362 5.72751697,33.4398865 5.43895763,33.5514294 C5.18849395,33.646546 5.05510434,33.8397515 5.06598658,34.1116472 C5.07688447,34.3727485 5.22117197,34.5387331 5.45801329,34.6311902 C5.59140289,34.682816 5.73024145,34.7019018 5.85002434,34.6937669 M4.70392908,34.7563436 C4.20572618,33.9322086 4.35001368,33.2031902 5.08776671,32.7843957 C5.87180447,32.3355644 6.96618171,32.618411 7.35546829,33.3718344 C7.75020382,34.1388681 7.44800645,35.1099018 6.64766882,35.4390552 C5.65946776,35.8415798 4.63313974,35.8361043 3.64221421,35.4335798 C2.89356329,35.1316472 2.55599474,34.2939018 2.79556053,33.5187331 C2.93712355,33.0562914 3.28014105,32.8197515 3.72661026,32.7027331 C3.76199711,32.6919387 3.82732184,32.6728528 3.84366868,32.6919387 C4.00972066,32.8931227 3.90356013,33.1542239 3.98250724,33.3799693 C4.02061855,33.4807178 3.97978276,33.545954 3.86544882,33.5703589 C3.62043408,33.6302761 3.48432,33.7934448 3.48159553,34.046411 C3.48159553,34.3184632 3.63404079,34.5033773 3.87360658,34.6039693 C4.1349525,34.7128528 4.41262961,34.7563436 4.70392908,34.7563436" id="Fill-357"></path>
                    <path d="M10.3323472,20.9625644 C10.0736788,20.8755828 9.84241171,20.7559049 9.64089461,20.9190736 C9.43123539,21.0905337 9.51296961,21.3461595 9.52377355,21.6208712 C9.80420645,21.3923098 10.0492525,21.1937853 10.3323472,20.9625644 M7.84963145,25.6163926 C8.08637882,25.3825123 8.24702882,25.1187515 8.38043408,24.8276135 C8.45668803,24.6644448 8.39405645,24.6154785 8.25517092,24.5774632 C7.99665908,24.512227 7.73517224,24.4496503 7.39226434,24.4305644 C7.69712355,24.7977331 7.89864066,25.1567669 7.84963145,25.6163926 M8.66634724,24.6916656 C8.71535645,24.928362 8.87318803,25.0506994 8.99030908,25.1975982 C9.12089592,25.3607669 9.13999855,25.5076656 9.00925513,25.6871043 C8.80789461,25.9510215 8.61185776,26.2230736 8.4457275,26.5085798 C8.34504724,26.6800399 8.27427355,26.6310736 8.14634855,26.5548865 C7.46569987,26.141411 7.21528316,25.5050061 7.160825,24.7542423 C7.14721829,24.5719877 7.14176934,24.4360399 6.87226566,24.3598528 C6.64630658,24.2972761 6.50474355,23.9628037 6.29240684,23.7070215 C6.90220355,23.7750736 7.43579329,23.9437178 7.97473803,24.0660552 C8.2226025,24.1204969 8.46483013,24.1749387 8.71253803,24.221089 C8.86770776,24.2509693 8.99030908,24.2102945 9.03931829,24.0388344 C9.17538539,23.5684141 9.45033803,23.1685491 9.67894329,22.7441227 C9.74971697,22.6055153 9.73077092,22.5157178 9.64355645,22.3986994 C9.34683934,21.9935153 9.02021566,21.6017853 9.00393145,21.0604969 C8.99563276,20.7776503 9.01739724,20.5002791 9.08284724,20.2227515 C9.12089592,20.0650583 9.20795382,20.0079571 9.36860382,20.0378374 C9.72262882,20.1058896 10.0791591,20.1737853 10.4385078,20.2255675 C10.9829328,20.3070736 11.1055341,20.7831258 11.3314775,21.1612454 C11.3941091,21.2673129 11.2824683,21.3189387 11.2171749,21.3760399 C10.904017,21.6617025 10.5936775,21.9500245 10.2697157,22.2192607 C10.1336486,22.3334632 10.1090657,22.4340552 10.2017604,22.5754785 C10.2615736,22.668092 10.3051025,22.7741595 10.3732143,22.8611411 C10.4848551,23.0106994 10.4712328,23.1439877 10.3813564,23.3018374 C10.1771775,23.6608712 9.98395908,24.0225644 9.84241171,24.4142945 C9.70900645,24.7922577 9.51563145,24.8793957 9.11823408,24.7922577 C8.97386829,24.7623773 8.82965908,24.7270215 8.66634724,24.6916656" id="Fill-358"></path>
                    <path d="M36.7262341,67.2613344 C36.6064512,67.2722853 36.4840064,67.2749448 36.3642236,67.2913712 C36.2552446,67.3076411 36.1844709,67.2940307 36.1191775,67.1851472 C35.9666696,66.9213865 35.7053393,66.9295215 35.4466709,66.9648773 C35.3297064,66.9813037 35.2479722,67.0654693 35.242492,67.1934387 C35.2398301,67.3103006 35.3134222,67.3810123 35.4222446,67.4055736 C35.6754328,67.4626748 35.9341012,67.5171166 36.1899512,67.5660828 C36.4077525,67.6067577 36.6227354,67.6557239 36.8269143,67.7455215 C37.1972236,67.9060307 37.4449314,68.1671319 37.4666959,68.5832669 C37.4939407,69.0022178 37.3088643,69.3204202 36.9576578,69.5461656 C36.7589591,69.6739785 36.5383393,69.7365552 36.3070722,69.7692515 C35.7679709,69.8480982 35.2371683,69.8099264 34.7198314,69.6630276 C34.314292,69.5516411 34.0420012,69.2850644 33.9059341,68.8797239 C33.8677288,68.768181 33.8705472,68.7165552 34.0092762,68.7110798 C34.3415367,68.6948098 34.6736407,68.6757239 35.0057446,68.6485031 C35.1255275,68.6377086 35.1745367,68.6893344 35.231688,68.7899264 C35.4004801,69.0729294 35.7435446,69.168046 36.0510657,69.0402331 C36.1708486,68.9912669 36.268867,68.9205552 36.2662051,68.7817914 C36.2633867,68.6377086 36.1653683,68.5669969 36.0374433,68.5343006 C35.7162999,68.4527945 35.3949999,68.3766074 35.0738564,68.2949448 C34.9376328,68.259589 34.7989038,68.2242331 34.6708222,68.1671319 C34.3088117,68.0094387 34.0855301,67.740046 34.0611038,67.3375215 C34.0393393,66.9213865 34.2325578,66.5950491 34.602867,66.4371994 C35.3433288,66.1271319 36.1028933,66.1789141 36.835213,66.4753712 C37.0992051,66.5814387 37.2434143,66.823454 37.3578736,67.0790798 C37.4068828,67.1798282 37.3851183,67.2287945 37.2706591,67.2341135 C37.091063,67.2450644 36.9086486,67.2586748 36.7288959,67.2694693 C36.7288959,67.2668098 36.7262341,67.2641503 36.7262341,67.2613344" id="Fill-359"></path>
                    <path d="M47.2167104,8.15296012 C47.4100854,8.30533436 47.6441709,8.45223313 47.8593104,8.38965644 C48.0061814,8.34882515 47.856492,8.09038344 47.8674525,7.93003067 C47.8701143,7.91907975 47.8483499,7.90280982 47.8373893,7.88919939 C47.633367,7.97618098 47.4345117,8.06050307 47.2167104,8.15296012 M47.2384749,6.28989571 C47.0725012,6.51282515 46.9581986,6.45853988 46.8329354,6.24906442 C46.7267749,6.06680982 46.5824091,5.90911656 46.4408617,5.75126687 C46.2012959,5.48750613 46.1604288,5.26707975 46.3538038,4.96796319 C46.4654446,4.79118405 46.6206143,4.64162577 46.7458775,4.4729816 C46.8846064,4.28791104 47.0017275,4.33140184 47.1323143,4.48111656 C47.5516328,4.96796319 47.8347275,5.53365644 48.049867,6.13486196 C48.1668314,6.46119939 48.2485657,6.80114724 48.3602064,7.18740184 C48.6977907,6.73325153 49.0842275,6.36060736 48.9644446,5.76753681 C48.9454986,5.66694479 48.9998314,5.61797853 49.0679433,5.57182822 C49.3156512,5.38675767 49.5688393,5.20731902 49.8791788,4.98423313 C49.7567341,5.42758896 50.0479709,5.63972393 50.2440078,5.88721472 C50.377413,6.06133436 50.3991775,6.17021779 50.1923367,6.28989571 C50.0507893,6.36874233 49.928188,6.47746933 49.7976012,6.56992638 C49.748592,6.60528221 49.6641959,6.66253988 49.6450933,6.64892945 C49.3728025,6.44492945 49.3483762,6.7196411 49.2613183,6.84745399 C49.0760854,7.11403067 48.8582841,7.3533865 48.5969538,7.54377607 C48.4391222,7.65797853 48.4037354,7.77499693 48.4309801,7.94896012 C48.5235183,8.45223313 48.2894328,8.8683681 48.068813,9.28997853 C48.0061814,9.40965644 47.940888,9.37977607 47.8483499,9.34442025 C47.2303328,9.10772393 46.606992,8.87384356 45.986313,8.63980675 C45.8230012,8.58004601 45.7793157,8.47131902 45.8065604,8.30799387 C45.8447657,8.09867485 45.9236814,7.90280982 46.0188814,7.71242025 C46.062567,7.61448773 46.1333407,7.47024847 46.2067762,7.45945399 C46.3401814,7.4403681 46.2694078,7.61167178 46.3265591,7.69067485 C46.4327196,7.83741718 46.574267,7.89999387 46.7458775,7.8701135 C47.0533986,7.82114724 47.3555959,7.7396411 47.6468328,7.62809816 C47.7666157,7.58179141 47.7938604,7.51107975 47.7531499,7.39421779 C47.6305486,7.01328221 47.5026236,6.62984356 47.2384749,6.28989571" id="Fill-360"></path>
                    <path d="M16.8485367,59.4401871 C17.7441683,59.4456626 18.8439788,60.3677301 18.9964867,61.2353558 C19.0400157,61.4718957 18.9855262,61.6949816 18.9338551,61.920727 C18.8984683,62.0676258 18.8331749,62.0594908 18.7241959,61.9887791 C18.5663643,61.8853712 18.4002341,61.7902546 18.2369222,61.6923221 C18.027263,61.5616933 17.8177604,61.4828466 17.8558091,61.1264724 C17.899338,60.7348988 17.3113841,60.4329663 16.9274525,60.6070859 C16.6034907,60.7566442 16.3803657,61.0204049 16.2659064,61.3576933 C16.1788486,61.6134755 16.2414801,61.8581503 16.4511393,62.0432209 C16.6524999,62.22 16.8894038,62.320592 17.142592,62.1873037 C17.3140459,62.1029816 17.4120643,62.1383374 17.5291854,62.2689663 C17.7087814,62.4701503 17.9048183,62.6633558 18.1008551,62.8509294 C18.2178196,62.9598129 18.1933933,63.0195736 18.0626499,63.0902853 C17.6979775,63.2916258 17.322188,63.3814233 16.905688,63.2834908 C16.105413,63.0902853 15.2043012,62.225319 15.0845183,61.512727 C14.9021038,60.4819325 15.7977354,59.4320521 16.8485367,59.4401871" id="Fill-361"></path>
                    <path d="M55.7535512,12.0230153 C55.6555328,11.8570307 55.8133643,11.5388282 55.4785986,11.5170828 C55.350517,11.5089479 55.1381959,11.5142669 55.127392,11.7373528 C55.1164314,11.9440123 55.4403933,12.3330828 55.6173275,12.3166564 C55.7861196,12.3003865 55.7098657,12.1344018 55.7535512,12.0230153 M54.7326564,14.3158252 C53.9322249,14.2315031 53.2734972,14.1065061 52.6691025,13.7745368 C52.5983288,13.733862 52.5275551,13.6956902 52.4621051,13.6495399 C51.5556696,13.0401994 51.4820775,12.2922515 52.2444604,11.5197423 C52.5765643,11.1879294 52.9684814,10.9430982 53.3796578,10.7283037 C53.4449512,10.6956074 53.5511117,10.6004908 53.6164051,10.7173528 C53.6654143,10.8071503 53.5456314,10.8451656 53.491142,10.8914724 C53.3005854,11.0410307 53.0964064,11.174319 52.9086683,11.3293528 C52.4403407,11.7101319 52.3614249,12.2270153 52.7697828,12.6730307 C53.3823196,13.3447914 54.185413,13.6495399 55.0810446,13.7066411 C55.2689393,13.7202515 55.5900828,13.1626933 55.5193091,12.9776227 C55.4812604,12.8825061 55.4212907,12.9422669 55.3722814,12.9477423 C55.0729025,12.9830982 54.8142341,12.8770307 54.5911091,12.6893006 C54.1772709,12.3384018 54.185413,11.8733006 54.6155354,11.5469632 C54.9476393,11.2966564 55.3043262,11.0926564 55.7126841,10.9975399 C56.1889972,10.8833374 56.5021551,11.070911 56.4966749,11.5550982 C56.4857143,12.406454 56.2733933,13.214319 55.595563,13.8045736 C55.3179486,14.046589 55.0592801,14.3784018 54.7326564,14.3158252" id="Fill-362"></path>
                    <path d="M53.5443788,59.2277393 C53.764842,59.5296718 53.9716828,59.798908 54.1650578,60.0817546 C54.2630762,60.2259939 54.3255512,60.2668252 54.4890196,60.1443313 C54.8782749,59.8452147 54.886417,59.8533497 55.1831341,60.2585337 C55.2103788,60.299365 55.2348051,60.3456718 55.270192,60.3810276 C55.4389841,60.5441963 55.4172196,60.6583988 55.2158591,60.7943466 C54.8591722,61.0310429 54.8673143,61.0419939 55.1123604,61.3819417 C55.2756722,61.6022117 55.4281801,61.8252975 55.5969722,62.040092 C55.7930091,62.2958742 55.9154538,62.3094847 56.1222946,62.0591779 C56.2693222,61.8823988 56.3374341,61.9122791 56.4735012,62.0646534 C56.9336867,62.5841963 56.9390104,62.5787209 56.4055459,63.0194172 C56.3047091,63.1037393 56.1985486,63.1825859 56.0897262,63.2532975 C55.5398209,63.6095153 55.1668499,63.5660245 54.7422078,63.060092 C54.4589564,62.7201442 54.2004446,62.3584509 53.944438,61.9966012 C53.8464196,61.8579939 53.7703222,61.7872822 53.6287749,61.9368405 C53.4870709,62.0890583 53.367288,62.0754479 53.2611275,61.8823988 C53.2067946,61.7763313 53.1332025,61.6783988 53.0516249,61.5886012 C52.8881564,61.4118221 52.8338236,61.2622638 53.1059578,61.1371104 C53.2883722,61.0501288 53.1931722,60.9331104 53.1087762,60.8542638 C52.8773525,60.6339939 52.9072591,60.4218589 53.059767,60.1660767 C53.2367012,59.8777546 53.3755867,59.5650276 53.5443788,59.2277393" id="Fill-363"></path>
                    <path d="M39.209263,64.8842025 C39.2474683,65.2731166 39.2881788,65.6158804 39.3099433,65.9558282 C39.3209038,66.1189969 39.3562907,66.1789141 39.5387051,66.1516933 C40.0178367,66.0863006 40.0178367,66.0972515 40.074988,66.5786227 L40.0831301,66.6385399 C40.1376196,67.0573344 40.1376196,67.0654693 39.7183012,67.0818957 C39.4951762,67.0926902 39.3861972,67.1389969 39.4325446,67.4000982 C39.4870341,67.6965552 39.4870341,68.0011472 39.5114604,68.3030798 C39.541367,68.651319 39.6503459,68.7409601 39.9824499,68.6322331 C40.1730064,68.5696564 40.2138736,68.6050123 40.2519222,68.7954018 C40.3989499,69.5216043 40.4044301,69.5216043 39.669292,69.6168773 C39.5714301,69.6304877 39.4705933,69.6331472 39.369913,69.6359632 C38.6294512,69.6685031 38.3191117,69.3992669 38.2401959,68.6539785 C38.1965104,68.2541135 38.1475012,67.851589 38.1285551,67.4490644 C38.1175946,67.2722853 38.0604433,67.2123681 37.8944696,67.2560153 C37.6874722,67.3076411 37.5975959,67.2287945 37.6030762,67.0166595 C37.6058946,66.8969816 37.5894538,66.7744877 37.5705078,66.6548098 C37.5404446,66.4317239 37.5404446,66.2496258 37.8562643,66.2931166 C38.0386788,66.3175215 38.0195762,66.1760982 37.9978117,66.0726902 C37.9162341,65.7408773 38.0604433,65.5586227 38.3490183,65.4145399 C38.6349314,65.2731166 38.8962617,65.079911 39.209263,64.8842025" id="Fill-364"></path>
                    <path d="M27.9211736,67.2760399 C28.3049486,66.7022117 28.6506749,66.2180245 28.9528722,65.7094325 C29.097238,65.4672607 29.2387854,65.4319049 29.4836749,65.5217025 C29.7287209,65.6141595 29.9819091,65.6848712 30.2377591,65.7447883 C30.3957472,65.7828037 30.3821249,65.8399049 30.2977288,65.9433129 C29.5898354,66.8137546 28.8847604,67.6813804 28.1825038,68.5544816 C28.1170538,68.6333282 28.0599025,68.6660245 27.9510801,68.6251933 C27.782288,68.5626166 27.6080157,68.4945644 27.4284196,68.4782945 C27.0390078,68.4429387 26.9438078,68.2171933 26.9110828,67.863635 C26.821363,66.8816503 26.704242,65.9024816 26.5817972,64.9206534 C26.5572143,64.7166534 26.6007433,64.694908 26.7804959,64.7546687 C27.0473064,64.8416503 27.3194407,64.9233129 27.5943933,64.9830736 C27.8095328,65.0267209 27.8829683,65.1218374 27.877488,65.3503988 C27.8666841,65.8616503 27.8857867,66.3785337 27.8965907,66.8926012 C27.8965907,66.9905337 27.9075512,67.0884663 27.9211736,67.2760399" id="Fill-365"></path>
                    <path d="M21.2377578,66.0475031 C21.030917,65.9359601 20.8185959,65.8217577 20.6061183,65.7073988 C20.0155025,65.3946718 20.0155025,65.3946718 20.3285038,64.8072331 C20.9137959,63.7083865 21.5045683,62.6121994 22.076238,61.5078773 C22.1878788,61.2929264 22.2830788,61.2766564 22.4736354,61.3936748 C22.7487446,61.5595031 23.0345012,61.7064018 23.325738,61.8478252 C23.4619617,61.9158773 23.4892064,61.9729785 23.4129525,62.1198773 C22.7323038,63.3847086 22.0599538,64.6521994 21.3847854,65.9196902 C21.3548788,65.9767914 21.3439183,66.063773 21.2377578,66.0475031" id="Fill-366"></path>
                    <path d="M68.3576867,37.6938497 C68.286913,37.514411 68.1425472,37.4055276 67.9682749,37.3457669 C67.8159236,37.2939847 67.8159236,37.4626288 67.7559538,37.538816 C67.7124249,37.6013926 67.6688959,37.6775798 67.6552736,37.7537669 C67.6335091,37.8761043 67.497442,38.0230031 67.6089262,38.1099847 C67.6906604,38.1753773 67.848492,38.0855798 67.9682749,38.0366135 C68.1425472,37.9713773 68.297717,37.8923742 68.3576867,37.6938497 M69.3893854,37.8787638 C69.3785814,38.139865 69.2504999,38.2786288 69.0926683,38.3928313 C68.7904709,38.6132577 68.4420828,38.7028988 68.0744354,38.751865 C67.5763578,38.8172577 67.0673196,38.7654755 66.5690854,38.8662239 C66.2097367,38.9395951 65.861192,39.051138 65.572617,39.271408 C65.3793986,39.4183067 65.1996459,39.4481871 64.984663,39.3721564 C64.8512578,39.3258497 64.7070486,39.3067638 64.5763051,39.2577975 C64.4591841,39.2169663 64.2632711,39.2333926 64.2632711,39.0891534 C64.2604854,38.966816 64.440238,38.9123742 64.5545407,38.8497975 C65.0227117,38.5886963 65.529088,38.4147331 66.0572288,38.3330706 C66.3594262,38.2867638 66.5145959,38.2024417 66.5009736,37.8543589 C66.4901696,37.4926656 66.588188,37.1389509 66.8358959,36.8453098 C66.9963893,36.6575798 67.1842841,36.5677822 67.421188,36.5950031 C68.169792,36.6793252 68.7660446,37.0464939 69.2641222,37.5932577 C69.3458564,37.6830552 69.3975275,37.7972577 69.3893854,37.8787638" id="Fill-367"></path>
                    <path d="M15.8382893,56.3432669 C15.7756578,56.3812822 15.7130262,56.4030276 15.6694972,56.4438589 C14.6213578,57.4175521 13.5733749,58.3940613 12.5278972,59.3732301 C12.427217,59.4685031 12.3645854,59.484773 12.266567,59.3705706 C12.0515841,59.1257393 11.8337828,58.8918589 11.6050209,58.6632975 C11.5098209,58.5627055 11.5234433,58.5110798 11.6159814,58.4239417 C12.6749249,57.4421135 13.7312064,56.4574693 14.7820078,55.4754847 C14.8582617,55.407589 14.9180749,55.3314018 15.0270538,55.4510798 C15.2448551,55.7013865 15.4789407,55.9407423 15.7048841,56.1827577 C15.7376091,56.2181135 15.7675157,56.2561288 15.8382893,56.3432669" id="Fill-368"></path>
                    <path d="M68.6421907,35.9607883 C68.3644196,35.9335675 68.0922854,35.8655153 67.833617,35.7458374 C67.3327209,35.5146166 67.223742,35.2535153 67.4116367,34.7258374 C67.4551657,34.5980245 67.596713,34.4484663 67.5314196,34.3450583 C67.3953525,34.1355828 67.2373643,33.9397178 67.1366841,33.7058374 C67.1012972,33.6243313 66.9896564,33.7086534 66.9188828,33.7303988 C66.1920433,33.9561442 65.4434393,33.9017025 64.7001591,33.8799571 C64.6185814,33.8772975 64.5368472,33.8608712 64.4605933,33.8391258 C64.3816775,33.8173804 64.3027617,33.7738896 64.3054236,33.6786166 C64.3080854,33.5942945 64.3871578,33.5617546 64.455113,33.5481442 C64.7300657,33.4937025 65.0078367,33.4502117 65.2882696,33.4012454 C66.2274301,33.2352607 67.1067775,32.8953129 67.9206749,32.3975153 C68.1848236,32.2371626 68.8000222,32.4302117 68.9279472,32.7075828 C68.9742946,32.8055153 68.8898986,32.8300767 68.8435512,32.870908 C68.6503328,33.0476871 68.4569578,33.2216503 68.301788,33.4366012 C68.1547604,33.6379417 68.1602407,33.8173804 68.3263709,34.0077699 C68.5141091,34.2227209 68.7591551,34.3696196 68.9824367,34.5409233 C69.0450683,34.5898896 69.1729933,34.611635 69.1294643,34.7313129 C69.0940775,34.8182945 68.9960591,34.8182945 68.9143249,34.8075 C68.7428709,34.7884141 68.6257499,34.8591258 68.5358736,35.0005491 C68.3753801,35.2561748 68.429713,35.4548558 68.699342,35.5908037 C68.7074841,35.5962791 68.718288,35.5962791 68.7265867,35.6017546 C68.8327472,35.6641748 69.0123433,35.6913957 68.9661525,35.8600399 C68.9252854,36.0095982 68.7619736,35.944362 68.6421907,35.9607883" id="Fill-369"></path>
                    <path d="M6.59975566,38.3102301 C6.59975566,37.6819601 6.61065355,37.1189264 6.59430671,36.5585521 C6.58887342,36.3382822 6.63786697,36.2647546 6.87470829,36.2702301 C7.44096039,36.2838405 7.44096039,36.2702301 7.44096039,36.8442147 C7.44096039,37.5893466 7.42999987,38.334635 7.4491025,39.0799233 C7.45192092,39.3138037 7.37832882,39.3601104 7.15783434,39.3601104 C6.90193737,39.3627699 6.71681408,39.2867393 6.51265079,39.1262301 C5.50265395,38.3210245 4.33477855,37.8886196 3.04710461,37.7933466 C2.84565013,37.7770767 2.79938105,37.7199755 2.79938105,37.5295859 C2.80208987,36.8495337 2.79665658,36.8578252 3.47724263,36.9665521 C4.60973118,37.1461472 5.63061026,37.5866871 6.59975566,38.3102301" id="Fill-370"></path>
                    <path d="M57.6169972,13.9036012 C57.5080183,13.9280061 57.3256038,13.8627699 57.3337459,14.0939908 C57.3365643,14.3223957 57.6822907,14.7059908 57.900092,14.6923804 C58.0933104,14.6814294 58.1095946,14.5073098 58.1150749,14.3577515 C58.1260354,14.0722454 57.9491012,13.9089202 57.6169972,13.9036012 M54.276542,14.466635 C54.6549933,14.771227 54.7938788,15.2989049 55.2974367,15.4511227 C55.7657643,15.592546 56.2420775,15.6687331 56.7266893,15.6524632 C57.2031591,15.6361933 57.7013933,15.6280583 57.9790078,15.1003804 C57.8482643,15.0595491 57.7693486,15.1410552 57.6794722,15.171092 C57.3011775,15.3096994 56.9282064,15.1981564 56.6941209,14.8691595 C56.574338,14.7005153 56.5552354,14.5209202 56.6451117,14.3305307 C56.9145841,13.751227 58.0634038,13.2534294 58.6786025,13.4547699 C58.8746393,13.5173466 58.9699959,13.655954 58.9616972,13.8654294 C58.9399328,14.3278712 58.8148262,14.763092 58.5207709,15.1221258 C57.9108959,15.8591227 57.129567,16.3024785 56.1796025,16.4249724 C55.7739064,16.4765982 55.420038,16.3569202 55.142267,16.0523282 C54.7802564,15.6524632 54.5107841,15.1928374 54.2712183,14.7141258 C54.2411551,14.6515491 54.2193907,14.5863129 54.276542,14.466635" id="Fill-371"></path>
                    <path d="M22.2373578,7.95365337 C22.980638,8.22836503 23.3208841,8.74790798 23.4026183,9.46863497 C23.4815341,10.189362 23.4896762,10.189362 22.8417525,10.5457362 C22.1366775,10.9319908 21.4316025,11.3237209 20.7238657,11.7045 C19.9968696,12.0988896 19.4388222,11.8867546 19.1530657,11.1114294 C19.0304643,10.7796166 18.9352643,10.4423282 18.9106814,10.0887699 C18.9052012,10.0153988 18.8644907,9.90385583 18.9651709,9.87929448 C19.0686696,9.85223006 19.0768117,9.96643252 19.1067183,10.0371442 C19.1638696,10.1867025 19.2155407,10.3390767 19.2809907,10.4859755 C19.4687288,10.9157209 19.8036512,11.0626196 20.2581999,10.9210399 C20.492442,10.8503282 20.6966209,10.7170399 20.9061236,10.6001779 C21.5241407,10.2628896 22.1366775,9.91465031 22.7573564,9.58831288 C22.9887801,9.46863497 22.9670157,9.35443252 22.8118459,9.20205828 C22.7628367,9.15309202 22.7138275,9.08238037 22.6538578,9.06876994 C22.1448196,8.94377301 22.2155933,8.55470245 22.2373578,8.18753374 C22.2401762,8.1194816 22.2373578,8.04876994 22.2373578,7.95365337" id="Fill-372"></path>
                    <path d="M6.16391816,41.3051503 C5.87534316,40.9270307 5.64395079,40.5925583 5.52416789,40.1492025 C5.76645816,40.1492025 5.98967711,40.1546779 6.21563618,40.1463865 C6.33814355,40.1410675 6.35447474,40.2307086 6.39531053,40.3097117 C6.62670289,40.7774724 6.91800237,41.1773374 7.40259855,41.4357791 C7.66392882,41.5772025 7.48965645,41.876319 7.50327882,42.0994049 C7.51690118,42.3034049 7.3182025,42.1999969 7.22561737,42.1999969 C5.84540526,42.2081319 4.46245303,42.1999969 3.08222526,42.2109479 C2.85083289,42.2136074 2.79637474,42.1483712 2.80182368,41.9252853 C2.81270592,41.3051503 2.80182368,41.3051503 3.41162039,41.3051503 L6.16391816,41.3051503 Z" id="Fill-373"></path>
                    <path d="M6.16391816,30.406638 C5.86989421,30.0257025 5.64122632,29.6885706 5.53232566,29.2858896 C5.56227921,29.2722791 5.57861039,29.2588252 5.59494158,29.2560092 C6.05229303,29.1879571 6.40891724,29.2533497 6.60764724,29.7674172 C6.7410525,30.1100245 7.05139197,30.3440613 7.38897618,30.5344509 C7.65844855,30.6866687 7.49779855,30.9886012 7.50061697,31.2171626 C7.50327882,31.3994172 7.31006039,31.3068037 7.21201066,31.3068037 C5.83178289,31.3150951 4.44884632,31.3068037 3.06861855,31.3150951 C2.85899066,31.3177546 2.79909921,31.2579939 2.80182368,31.0485184 C2.80727263,30.406638 2.79909921,30.406638 3.45245618,30.406638 L6.16391816,30.406638 Z" id="Fill-374"></path>
                    <path d="M16.3221183,58.5664601 C16.2731091,58.6209018 16.2349038,58.6672086 16.1940367,58.7106994 C15.4999222,59.4259509 14.8056512,60.1413589 14.117017,60.8620859 C14.0108564,60.9764448 13.9454064,60.9845798 13.8337657,60.8675613 C13.6269249,60.6499509 13.4091236,60.437816 13.1805183,60.2392914 C13.047113,60.122273 13.0715393,60.0515613 13.185842,59.9346994 C13.8774512,59.2329018 14.5634236,58.5229693 15.2440722,57.8103773 C15.3583749,57.6906994 15.4318104,57.666138 15.5544117,57.7967669 C15.7612525,58.0143773 15.9845341,58.2183773 16.2023354,58.4278528 C16.2458643,58.4685276 16.2784328,58.5174939 16.3221183,58.5664601" id="Fill-375"></path>
                    <path d="M24.9358393,10.4772147 C25.1318762,10.3711472 25.3360551,10.414638 25.5292736,10.4201135 C25.9784986,10.4282485 26.332367,10.2622638 26.588217,9.89509509 C26.8741301,9.49257055 27.1462643,9.08457055 27.2906301,8.60319939 C27.377688,8.3148773 27.3042525,8.10806135 27.0401038,7.96945399 C26.9013749,7.89326687 26.7651512,7.78719939 26.6127999,7.74902761 C26.2479709,7.6593865 26.1662367,7.44991104 26.204442,7.09353681 C26.256113,6.57946933 26.2398288,6.57133436 26.6943775,6.82430061 C27.5275341,7.28392638 27.903167,8.1543681 27.7343749,9.23960429 C27.5409999,10.4934847 27.1844696,10.7791472 25.9185288,10.6974847 C25.7279722,10.6838742 25.5374157,10.6757393 25.3468591,10.6458589 C25.2079736,10.6241135 25.0419999,10.6431994 24.9358393,10.4772147" id="Fill-376"></path>
                    <path d="M65.611292,31.0017423 C65.2683841,30.9962669 64.9226578,31.0261472 64.5877354,30.9336902 C64.5006775,30.9119448 64.3971788,30.8847239 64.3998407,30.7759969 C64.4053209,30.6835399 64.5006775,30.6508436 64.5767749,30.6372331 C65.0532446,30.5474356 65.5297143,30.4712485 66.0033657,30.373316 C66.6811959,30.2318926 67.3046933,29.949046 67.8845051,29.5792178 C68.1104486,29.432319 68.3172893,29.4050982 68.5596736,29.5085061 C68.709363,29.5737423 68.8645328,29.6145736 69.0115604,29.6798098 C69.1040986,29.7233006 69.2592683,29.7233006 69.2674104,29.8511135 C69.2755525,29.9707914 69.1394854,30.0225736 69.0550893,30.0878098 C68.3717788,30.5909264 67.5849696,30.8166718 66.7574499,30.9391656 C66.3763367,30.9962669 65.9952236,31.0044018 65.611292,31.0017423" id="Fill-377"></path>
                    <path d="M65.6911472,42.6264571 C65.2636867,42.6183221 64.9289209,42.6455429 64.6021407,42.5612209 C64.5122643,42.536816 64.403442,42.5095951 64.3979617,42.4088466 C64.3924814,42.3027791 64.5041222,42.2702393 64.5939986,42.2538129 C65.0487038,42.1694908 65.5059143,42.0987791 65.9606196,42.0036626 C66.6276459,41.8675583 67.2455064,41.6064571 67.8171762,41.2366288 C68.089467,41.0625092 68.3399933,41.0135429 68.6312301,41.1549663 C68.8435512,41.2610337 69.2301446,41.2719847 69.243767,41.4597147 C69.2573893,41.7043896 68.911663,41.8240675 68.6883814,41.9465613 C67.724638,42.4795583 66.6766551,42.6319325 65.6911472,42.6264571" id="Fill-378"></path>
                    <path d="M25.0419999,9.75726994 C24.889492,9.49882822 24.7725275,9.30296319 24.6580683,9.10991411 C24.3041999,8.51418405 23.9775762,7.89686503 23.5828407,7.32835583 C23.2942657,6.91753988 23.2615407,6.50688037 23.3568972,6.04991411 C23.3786617,5.94118712 23.3922841,5.83230368 23.4085683,5.72357669 C23.4520972,5.70996626 23.4820038,5.73171166 23.5065867,5.76972699 C24.0101446,6.59120245 24.4920946,7.42894785 24.8758696,8.313 C25.0664262,8.75088037 25.1536407,9.20237117 25.0419999,9.75726994" id="Fill-379"></path>
                    <path d="M51.9890801,6.71338344 C52.0706578,6.77861963 51.9998841,6.84667178 51.9781196,6.89829755 C51.6814025,7.71977301 51.3574407,8.53029755 50.9600433,9.31094172 C50.7149972,9.79231288 50.4073196,10.2193988 49.8547525,10.4995859 C50.056113,9.95829755 50.2385275,9.46597546 50.4264222,8.97083742 C50.5598275,8.62541411 50.7340999,8.28812577 50.8130157,7.92909202 C50.9600433,7.26546626 51.4418367,6.9690092 51.9944038,6.71870245 L51.9890801,6.71338344 Z" id="Fill-380"></path>
                    <path d="M17.9810722,14.0576963 C17.4147262,13.5273589 16.8676393,13.0132914 16.3203959,12.4992239 C16.1733683,12.3604601 16.0427814,12.1972914 15.8766512,12.0885644 C15.3403683,11.7321902 15.411142,11.1664969 15.3049814,10.5599724 C16.1761867,11.3812914 17.0037064,12.1157853 17.6461499,13.0242423 C17.9048183,13.3859356 17.9946946,13.7096135 17.9810722,14.0576963" id="Fill-381"></path>
                    <path d="M39.2465288,3.4755092 C39.1921959,3.5407454 39.1621328,3.59252761 39.1186038,3.6360184 C38.6585749,4.09298466 38.8192249,4.08484969 38.2665012,3.75835583 C38.0814249,3.64962883 37.9726025,3.66323926 37.8308986,3.81013804 C37.6785472,3.97330675 37.095917,3.82906748 37.0115209,3.61959202 C36.9870946,3.55983129 37.0306236,3.52995092 37.0605301,3.49459509 C37.1449262,3.40745706 37.2348025,3.32595092 37.3137183,3.23349387 C37.4280209,3.10286503 37.5288578,3.06484969 37.6866893,3.19532209 C37.928917,3.40213804 38.1849236,3.50273006 38.4271512,3.1762362 C38.506067,3.07298466 38.5959433,3.10286503 38.6912999,3.15996626 C38.8627538,3.26337423 39.0423499,3.3584908 39.2465288,3.4755092" id="Fill-382"></path>
                    <path d="M17.2152446,57.647365 C17.1662354,57.6991472 17.119888,57.750773 17.0736972,57.7997393 C16.6218104,58.2811104 16.6218104,58.2811104 16.1534828,57.8296196 C16.1481591,57.8214847 16.1398604,57.8160092 16.1345367,57.8106902 C15.6444446,57.3372975 15.6554051,57.2230951 16.2106341,56.8043006 C16.2624617,56.7661288 16.3005104,56.730773 16.363142,56.7906902 C16.6272907,57.0489755 16.8939446,57.3047577 17.1580933,57.5630429 C17.1798578,57.5821288 17.1908183,57.6093497 17.2152446,57.647365" id="Fill-383"></path>
                    <path d="M56.9257012,10.7533344 C56.8494472,10.7722638 56.7977762,10.720638 56.7569091,10.6417914 C56.7107183,10.5519939 56.6426064,10.4703313 56.6180236,10.3752147 C56.5472499,10.1358589 56.4057025,10.0541963 56.1689551,10.1331994 C56.043692,10.1766902 55.9511538,10.1413344 55.8885222,10.0271319 C55.8014643,9.86114724 55.6190499,9.66528221 55.6951472,9.51838344 C55.7768814,9.35521472 56.0544959,9.40152147 56.2423907,9.34442025 C56.3731341,9.30358896 56.383938,9.41779141 56.416663,9.49663804 C56.4465696,9.57016564 56.4764762,9.64619632 56.5065393,9.71972393 C56.577313,9.91558896 56.6889538,10.016181 56.9175591,9.94546933 C57.0074354,9.91558896 57.1461643,9.85567178 57.216938,9.98348466 C57.3232551,10.1766902 57.4184551,10.3752147 57.5028512,10.5792147 C57.5191354,10.6227055 57.4375578,10.6417914 57.3885486,10.6525859 C57.2415209,10.6852822 57.0944933,10.7151626 56.9257012,10.7533344" id="Fill-384"></path>
                    <path d="M5.73052329,23.6705706 C5.76591013,23.7331472 5.79312355,23.7739785 5.81490368,23.8201288 C6.07897408,24.3697086 6.08987197,24.2309448 5.65973395,24.5899785 C5.51544645,24.712316 5.46372842,24.8102485 5.55900671,24.9925031 C5.64340276,25.1611472 5.29766079,25.6262485 5.10710421,25.5990276 C4.97914789,25.5827577 4.99275461,25.4303834 4.93286316,25.3434018 C4.78041789,25.1257914 4.79402461,24.9598067 5.06354395,24.8374693 C5.28677855,24.7368773 5.37660789,24.5682331 5.22688711,24.3315368 C5.13160882,24.1819785 5.18605132,24.0785706 5.32761434,23.988773 C5.45827947,23.8991319 5.57806237,23.7902485 5.73052329,23.6705706" id="Fill-385"></path>
                    <path d="M19.8125762,7.99636196 C20.0140933,8.04532822 20.1774051,7.94739571 20.2237525,7.67268405 C20.2780854,7.38436196 20.5123275,7.51765031 20.6646788,7.50951534 C20.7736578,7.50403988 20.9750183,7.38170245 20.9886407,7.61010736 C21.0077433,7.9447362 20.8580538,8.15687117 20.6402525,8.16500613 C20.5503762,8.16766564 20.4551762,8.17861656 20.3652999,8.16500613 C20.1774051,8.13512577 20.1011512,8.22476687 20.0576222,8.39341104 C20.0031328,8.58661656 19.4396051,8.74696933 19.3253025,8.58927607 C19.2354262,8.4641227 19.3552091,8.30908896 19.3905959,8.1704816 C19.4151788,8.0778681 19.4151788,7.95819018 19.5676867,7.98275153 C19.6301617,7.9908865 19.6901314,7.9908865 19.8125762,7.99636196" id="Fill-386"></path>
                    <path d="M35.0832512,4.10346626 C34.9608064,4.13068712 34.8981749,4.2367546 34.8137788,4.32389264 C34.7511472,4.38912883 34.6968143,4.47079141 34.5904972,4.41087423 C34.4353275,4.32389264 34.1985801,4.27492638 34.1686736,4.10894172 C34.1414288,3.9648589 34.3456078,3.83970552 34.4572486,3.71455215 C34.5306841,3.63023006 34.5987959,3.69828221 34.6695696,3.73629755 C34.7375249,3.77712883 34.8082986,3.81530061 34.8764104,3.85879141 C35.0533446,3.97846933 35.2030341,3.9648589 35.3500617,3.79621472 C35.4126933,3.72268712 35.472663,3.57860429 35.6087301,3.64931595 C35.7801841,3.73629755 36.0034657,3.80982515 36.0769012,3.95390798 C36.1476749,4.08453681 35.9164078,4.21782515 35.823713,4.35377301 C35.7557578,4.45984049 35.6821657,4.42448466 35.5951078,4.37004294 C35.4508986,4.28040184 35.2983907,4.20139877 35.1487012,4.11989264 C35.1350788,4.10894172 35.1133143,4.10894172 35.0832512,4.10346626" id="Fill-387"></path>
                    <path d="M63.5668407,18.2132577 C63.5831249,17.7020061 63.5914236,17.6965307 64.0705551,17.8133926 C64.4624722,17.9086656 64.478913,17.9113252 64.4081393,18.3221411 C64.3808946,18.4798344 64.4760946,18.754546 64.1984801,18.7654969 C63.7956025,18.7791074 63.5532183,18.5450706 63.5668407,18.2132577" id="Fill-388"></path>
                    <path d="M35.471567,3.2309908 C35.4742288,3.27995706 35.1012578,3.63351534 35.0658709,3.60911043 C34.9080393,3.50570245 34.6603314,3.4132454 34.6467091,3.25821166 C34.6330867,3.10036196 34.8726525,2.9835 35.0168617,2.8664816 C35.0522486,2.83926074 35.4660867,3.17936503 35.471567,3.2309908" id="Fill-389"></path>
                    <path d="M51.9942472,6.71979755 C52.0078696,6.71166258 52.021492,6.7008681 52.0351143,6.68991718 L52.0351143,6.71713804 C52.0186736,6.71713804 52.0050512,6.71447853 51.988767,6.71447853 L51.9942472,6.71979755 Z" id="Fill-390"></path>
                    <path d="M43.6172736,5.90989877 C43.6335578,5.90989877 43.6526604,5.90989877 43.6689446,5.90989877 C43.6471801,5.95073006 43.6282341,5.93711963 43.6146117,5.90442331 L43.6172736,5.90989877 Z" id="Fill-391"></path>
                    <path d="M38.869017,14.4375368 C40.0668459,14.5217025 41.1585143,15.0658067 42.3345788,15.2235 C42.4025341,15.231635 42.5033709,15.215365 42.5086946,15.3051626 C42.5196551,15.6641963 42.8163722,15.8056196 43.0260314,16.0122791 C43.2955038,16.2733804 43.5759367,16.5236871 43.6548525,16.9152607 C43.6739551,17.0023988 43.6957196,17.0893804 43.6575143,17.1982638 C42.6312959,16.7086012 41.5368091,16.5263466 40.363563,16.3877393 C40.5758841,16.6515 40.8099696,16.7630429 41.0576775,16.8309387 C41.4660354,16.9424816 41.8798736,17.0268037 42.2910499,17.1328712 C42.4842683,17.1818374 42.6803051,17.2362791 42.8680433,17.3124663 C43.5731183,17.5979724 43.9298051,18.2099724 43.7963999,18.9526012 C43.7365867,19.2708037 43.7638314,19.5481748 43.9080407,19.828362 C43.932467,19.8828037 43.9489078,19.9425644 43.965192,19.9998221 C43.9950986,20.0977546 43.9733341,20.2010061 43.8998986,20.2473129 C43.8018801,20.3044141 43.7719736,20.1792607 43.7229643,20.127635 C43.5269275,19.912684 43.3009841,19.7549908 43.0069288,19.7141595 C42.7946078,19.6897546 42.6312959,19.5863466 42.4842683,19.4313129 C42.2447025,19.1838221 41.977892,18.9716871 41.6376459,18.8737546 C41.4769959,18.8274479 41.3218262,18.800227 41.1666564,18.8818896 C41.1556959,18.9879571 41.2510525,19.012362 41.305542,19.0586687 C41.5314854,19.2463988 41.7546104,19.4339724 41.9888525,19.608092 C42.6258157,20.0813282 42.895288,20.6961442 42.715692,21.4821074 C42.6420999,21.8057853 42.555042,22.1268037 42.4869301,22.4531411 C42.4407393,22.668092 42.3453828,22.6353957 42.222938,22.5266687 C42.0323814,22.3525491 41.9234025,22.1268037 41.806438,21.9010583 C41.5858183,21.4713129 41.4035604,21.0196656 41.0985446,20.6388865 C40.8073078,20.2717178 40.4534393,20.0079571 39.9633472,19.9644663 C39.957867,19.9970061 39.9497249,20.0268865 39.9552051,20.0297025 C40.6602801,20.4974632 41.0005262,21.1856503 41.1611762,21.9825644 C41.240092,22.3879049 41.3381104,22.7877699 41.4932801,23.1712086 C41.5396275,23.2908865 41.6266854,23.4513957 41.3653551,23.4676656 C41.196563,23.4786166 41.2211459,23.6391258 41.2075236,23.7533282 C41.1611762,24.1178374 41.101363,24.4740552 40.8181117,24.7432914 C40.6820446,24.8712607 40.5895064,24.9582423 40.5132525,24.6699202 C40.3417986,24.0034785 39.9061959,23.4786166 39.4734117,22.888362 C39.4433486,23.6852761 39.7101591,24.4360399 39.4325446,25.2138681 C39.3018012,25.0779202 39.1956407,24.9527669 39.0731959,24.8412239 C38.8118657,24.604684 38.6620196,24.6481748 38.5505354,24.9799877 C38.3980275,25.4477485 38.387067,25.4505644 38.0223946,25.1132761 C37.5268222,24.6536503 37.2518696,24.0605798 37.0287446,23.4404448 C36.9279078,23.1549387 36.8327078,22.8692761 36.7292091,22.5864294 C36.6938222,22.4966319 36.6584354,22.368819 36.5278486,22.4096503 C36.4107275,22.4450061 36.3753407,22.5537331 36.380819,22.6788865 C36.4243499,23.5247669 36.4597367,24.3706472 36.5006038,25.216684 C36.593142,27.1912914 36.688342,29.1687147 36.7810367,31.1434785 C36.8735749,33.0174939 36.9632946,34.8915092 37.0395486,36.7655245 C37.0505091,37.0347607 37.1593314,37.1463037 37.4017157,37.2251503 C38.0795459,37.4482362 38.741092,37.295862 39.3998196,37.1599141 C40.042263,37.0266258 40.6793828,37.0048804 41.3273064,37.1001534 C41.8853538,37.1816595 42.4297788,37.0130153 42.9825025,36.9640491 C43.2955038,36.9341687 43.6058433,36.9260337 43.9053788,37.0457117 C43.9897749,37.075592 44.0686907,37.1245583 44.1394643,37.179 C44.2183801,37.2415767 44.3109183,37.3285583 44.2918157,37.4264908 C44.2700512,37.5435092 44.1339841,37.5162883 44.0414459,37.5380337 C43.420767,37.6821166 42.8381367,37.8861166 42.5141749,38.5062515 C42.3972104,38.7319969 42.171267,38.7348129 41.9561275,38.6966411 C41.528667,38.6232699 41.101363,38.5226779 40.662942,38.5743037 C40.3717051,38.607 40.0587038,38.598865 39.7945551,38.8544908 C40.3389801,39.0721012 40.8971841,39.216184 41.3844578,39.6623558 C40.9325709,39.632319 40.5595999,39.6024387 40.1811486,39.5861687 C39.4488288,39.5534724 38.7329499,39.6459294 38.0577814,39.9588129 C37.7936328,40.0784908 37.5241604,40.0539294 37.2601683,39.9559969 C36.9034814,39.8227086 36.560417,39.8119141 36.2092104,39.9913528 C35.888067,40.1573374 35.5586249,40.0703558 35.2373249,39.9832178 C34.9269854,39.8988957 34.6194643,39.7901687 34.3117867,39.7003712 C33.9878249,39.6024387 33.6693433,39.6187086 33.3834301,39.8145736 C33.214638,39.9287761 33.067767,39.9206411 32.9152591,39.7928282 C32.7055999,39.6187086 32.4769946,39.4772853 32.136592,39.4175245 C32.5667143,39.1645583 32.9833709,39.0938466 33.4025328,39.0530153 C33.8979486,39.006865 34.3907025,39.0176595 34.8862749,39.0339294 C34.9542301,39.0367454 35.0686893,39.0965061 35.0849736,38.9768282 C35.0985959,38.8898466 35.0087196,38.8408804 34.9379459,38.8055245 C34.6357486,38.6559663 34.3091249,38.6423558 33.9906433,38.6531503 C32.9968367,38.6858466 32.0222893,38.8435399 31.099413,39.2379294 C30.9796301,39.2897117 30.9143367,39.2897117 30.8299407,39.1753528 C30.3044617,38.4737117 29.5586762,38.2152699 28.7255196,38.1418988 C28.4342828,38.1173374 28.1430459,38.1065429 27.8489907,38.0765061 C27.7101051,38.0628957 27.574038,38.0222209 27.4432946,37.9785736 C27.3562367,37.9486933 27.2636986,37.8834571 27.285463,37.782865 C27.3098893,37.6767975 27.4215301,37.7257638 27.4923038,37.7174724 C28.6248393,37.5815245 29.7573749,37.4537117 30.8897538,37.3149479 C31.431517,37.2497117 31.9543341,37.3667301 32.4796564,37.4482362 C32.9207393,37.5162883 33.3644841,37.5461687 33.7999301,37.3992699 C33.9742025,37.3421687 34.0477946,37.2497117 34.0504564,37.0511871 C34.1321907,34.2278834 34.2192486,31.4045798 34.3063064,28.5812761 C34.368938,26.5439356 34.4342314,24.509411 34.496863,22.472227 C34.4996814,22.376954 34.5350683,22.276362 34.4588143,22.156684 C34.2111064,22.6380552 33.952438,23.0897025 33.9225314,23.6226994 C33.9143893,23.796819 33.8653801,23.9164969 33.6884459,23.9981595 C33.4542038,24.104227 33.3508617,24.308227 33.4242972,24.5746472 C33.4814486,24.7705123 33.4460617,24.920227 33.2528433,25.0344294 C32.8390051,25.2737853 32.4633722,25.5592914 32.2264683,26.0026472 C32.1938999,24.9881227 31.8917025,24.0144294 31.9216091,23.0053804 C31.9378933,22.5183773 32.0440538,22.056092 32.2781393,21.5473436 C31.6385143,21.8982423 31.3717038,22.4612761 31.0204972,23.0379202 C30.9633459,22.5429387 30.9143367,22.1186687 30.8626657,21.656227 C30.6530064,21.8057853 30.5822328,22.0071258 30.4896946,22.1865644 C30.3345249,22.4913129 30.1983012,22.8066994 30.0378078,23.1086319 C29.9642157,23.2447362 29.8470946,23.3997699 29.656538,23.2337853 C29.5204709,23.1167669 29.5068486,23.2528712 29.4714617,23.3181074 C29.2564788,23.7234479 29.0468196,24.1312914 28.7745288,24.5311564 C28.7745288,24.1150215 28.7690486,23.6988865 28.7773472,23.280092 C28.7800091,23.1195828 28.7555828,23.0080399 28.5921143,22.9182423 C28.3307841,22.7713436 28.246388,22.5266687 28.3444064,22.2410061 C28.5431051,21.6507515 28.7637249,21.0686319 28.9542814,20.4757178 C29.0984907,20.032362 29.4796038,19.7712607 29.8771578,19.5564663 C30.1765367,19.3931411 30.4868762,19.2517178 30.8244604,19.0858896 C30.394338,18.8737546 30.0050828,18.9144294 29.6347736,19.1566012 C29.2564788,19.4067515 28.8698854,19.6461074 28.4233222,19.7631258 C28.3307841,19.7875307 28.2382459,19.8311779 28.118463,19.7848712 C28.355367,18.8818896 29.1802249,18.6533282 29.9097262,18.2400092 C29.5993867,18.1502117 29.367963,18.2317178 29.1366959,18.3215153 C28.6492657,18.5147209 28.1810946,18.7593957 27.6584341,18.8491933 C27.4107262,18.892684 27.0649999,19.004227 26.9369183,18.8465337 C26.7900472,18.6642791 26.964163,18.3460767 27.0867643,18.1203313 C27.5821801,17.1899724 28.4179986,16.7222117 29.400688,16.4801963 C29.689263,16.4121442 29.9751762,16.5372975 30.2936578,16.6025337 C30.2064433,16.346908 30.0158867,16.2707209 29.817188,16.2190951 C29.283567,16.0858067 28.728338,16.134773 28.1320854,16.0150951 C28.4969143,15.6016196 28.9134143,15.3350429 29.4143104,15.1909601 C29.9125446,15.0493804 30.4052986,15.1310429 30.9741499,15.2887362 C30.4189209,14.502773 29.7002236,14.1327883 28.8371604,13.8962485 C29.2618025,13.7058589 29.6674986,13.6215368 30.0731946,13.5343988 C30.8462249,13.3657546 31.624892,13.2923834 32.414363,13.4256718 C33.0649486,13.5372147 33.503213,13.9070429 33.7645433,14.5082485 C33.9062472,14.8264509 33.9987854,15.1745337 34.2601157,15.4628558 C34.477917,15.1854847 34.4887209,14.8807362 34.3935209,14.6007055 C34.1212301,13.7792301 34.3961828,13.1454847 34.9869551,12.5879264 C35.2619078,12.3321442 35.5504828,12.0956043 35.8417196,11.8617239 C35.9887472,11.7447055 36.0432367,11.7881963 36.1276328,11.9324356 C36.4515946,12.4818589 36.5685591,13.0312822 36.1984064,13.6105859 C36.0949078,13.7682791 36.067663,13.9452147 36.1711617,14.1246534 C36.3318117,14.410316 36.399767,14.4265859 36.6584354,14.2307209 C37.8617446,13.3167883 39.1929788,13.0502117 40.6576183,13.4228558 C41.6212051,13.6676871 42.4706459,14.1382638 43.3418512,14.7774847 C41.7818551,14.8345859 40.3472788,14.3721442 38.869017,14.4375368" id="Fill-392"></path>
                    <path d="M11.3905078,37.0285031 C13.3479012,36.7375215 15.3079564,36.6913712 17.2761538,36.9035061 C22.4133525,37.4582485 26.8670841,39.6370123 30.961467,42.6588405 C32.5267867,43.8121288 34.0022301,45.0660092 35.4070564,46.3987362 C35.5758486,46.5565859 35.6683867,46.5592454 35.8371788,46.3987362 C38.1211959,44.2500092 40.5577209,42.2943313 43.2500959,40.6706227 C46.3018196,38.8346227 49.5603841,37.539911 53.099538,37.0067577 C55.1547933,36.6966902 57.7165814,36.6885552 59.9188643,37.0285031 C59.0940064,37.1211166 58.3262999,37.1754018 57.5640736,37.2788098 C54.5723196,37.6949448 51.732917,38.5871319 49.007817,39.8818436 C46.0159064,41.3043681 43.353438,43.2163988 40.821713,45.3325859 C39.7273828,46.2437025 38.6465183,47.1657699 37.5985354,48.1286687 C37.424263,48.2865184 37.4161209,48.3708405 37.584913,48.5421442 C38.6847236,49.6546012 39.7381867,50.8132086 40.7590814,51.9991933 C40.897967,52.162362 40.9742209,52.1678374 41.1265722,52.0209387 C41.4151472,51.738092 41.7228249,51.4741748 42.0685512,51.2620399 C42.5993538,50.9357025 43.2962867,51.0907362 43.6149249,51.5966687 C43.9088236,52.0644294 43.7754183,52.6682945 43.3099091,52.9864969 C43.013192,53.1878374 42.6920486,53.2150583 42.3544643,53.1388712 C42.2863525,53.1226012 42.2237209,53.0844294 42.1502854,53.1006994 C41.8725143,53.1632761 41.815363,53.3101748 41.976013,53.5468712 C42.297313,54.0146319 42.6239367,54.4744141 42.9778051,54.914954 C43.4841814,55.5515153 44.134767,55.926819 44.9351986,56.0682423 C45.2237736,56.1172086 45.5068683,56.1905798 45.7873012,56.2777178 C46.8189999,56.6013957 47.1240157,57.8524601 46.3398683,58.6032239 C45.5967446,59.307681 44.6874907,59.4572393 43.718267,59.2369693 C42.6265986,58.9894785 41.8289854,58.3067669 41.2300709,57.3928344 C40.7346551,56.6420706 40.2555236,55.8859877 39.7491472,55.1435153 C39.6401683,54.9830061 39.5667328,54.9639202 39.4006025,55.0809387 C39.0304499,55.3420399 38.6438564,55.5759202 38.205592,55.7173436 C37.661167,55.8886472 37.1574525,55.7364294 36.8580736,55.3093436 C36.5939249,54.9285644 36.6048854,54.4417178 36.8851617,54.0690736 C37.1955012,53.6637331 37.7427446,53.5169908 38.2491209,53.7045644 C38.2871696,53.7181748 38.3225564,53.7427362 38.3607617,53.7535307 C38.4587801,53.7807515 38.5840433,53.8024969 38.6438564,53.7291258 C38.7091499,53.6419877 38.589367,53.5712761 38.5403578,53.5033804 C37.680113,52.3799724 36.7600551,51.3083466 35.801792,50.2692607 C35.6683867,50.1251779 35.597613,50.1115675 35.4532472,50.2637853 C34.4841801,51.3083466 33.5613038,52.3881074 32.6955788,53.5196503 C32.6520499,53.579411 32.5458893,53.6448037 32.6030407,53.7209908 C32.6628538,53.8024969 32.788117,53.794362 32.8806551,53.7508712 C33.1147407,53.6393282 33.3597867,53.6039724 33.6156367,53.6366687 C34.2064091,53.7100399 34.6529722,54.2704141 34.571238,54.8279724 C34.4786999,55.4452914 33.9151722,55.8723773 33.3135959,55.7772607 C32.7582104,55.6874632 32.3035051,55.3881902 31.8516183,55.0809387 C31.6909683,54.9720552 31.6147143,54.9720552 31.5004117,55.1406994 C30.9940354,55.8833282 30.5149038,56.6420706 30.019488,57.3901748 C29.3335157,58.4237853 28.4214433,59.1471718 27.1446986,59.3050215 C26.4504275,59.3893436 25.799842,59.2424448 25.2090696,58.8561902 C24.5312393,58.4128344 24.4033143,57.8742055 24.5721064,57.063681 C24.645542,56.7101227 24.9042104,56.5006472 25.2281722,56.3620399 C25.5848591,56.2123252 25.960492,56.1280031 26.3361249,56.0655828 C27.2128104,55.918684 27.8796801,55.4507669 28.3996788,54.7544448 C28.6937341,54.3573957 28.9823091,53.9548712 29.262742,53.5495307 C29.3198933,53.470684 29.4722446,53.3837025 29.3689025,53.277635 C29.2654038,53.1687515 29.1346604,53.0464141 28.9441038,53.1197853 C28.8788104,53.1415307 28.8080367,53.1551411 28.7399249,53.166092 C28.2200828,53.2286687 27.7680393,52.9893129 27.564017,52.5486166 C27.3842643,52.1515675 27.4768025,51.6917853 27.8062446,51.3871933 C28.1655933,51.0525644 28.7263025,50.9901442 29.153763,51.2484294 C29.5104499,51.4605644 29.8234512,51.7352761 30.1229867,52.0209387 C30.2535736,52.1432761 30.3324893,52.1814479 30.4768551,52.0154632 C31.5085538,50.8132086 32.5784578,49.6436503 33.6864104,48.5122638 C33.7927275,48.4007209 33.8688249,48.3245337 33.705513,48.1802945 C30.7355236,45.5175 27.7218486,42.9118067 24.2318604,40.9262485 C21.0194867,39.0957239 17.5974538,37.863589 13.9386736,37.3115061 C13.0920512,37.1835368 12.2399486,37.1128252 11.3905078,37.0285031" id="Fill-393"></path>
                    <path d="M33.8072893,40.3658742 C34.5097025,40.2788926 35.193013,40.3142485 35.8572209,40.515589 C36.5024828,40.711454 37.1313038,40.6706227 37.7493209,40.4148405 C38.3264709,40.1754847 38.9280472,40.0694172 39.6223183,40.1565552 C38.751113,40.5182485 38.0869051,41.1111626 37.3163801,41.535589 C36.6820788,41.8836718 36.0941249,41.9027577 35.4978722,41.4130951 C34.9888341,40.9914847 34.403542,40.6678067 33.8072893,40.3658742" id="Fill-394"></path>
                </g>
            </g>
        </g>
    </g>
</svg>