<?xml version="1.0" encoding="UTF-8"?>
<svg width="152px" height="28px" viewBox="0 0 152 28" version="1.1" xmlns="http://www.w3.org/2000/svg" xmlns:xlink="http://www.w3.org/1999/xlink">
    <!-- Generator: sketchtool 55.1 (78136) - https://sketchapp.com -->
    <title>73CBB5BF-EE82-4F0E-B0E3-AA6601F08FF6</title>
    <desc>Created with sketchtool.</desc>
    <g id="Page-1" stroke="none" stroke-width="1" fill="none" fill-rule="evenodd">
        <g id="Homepage" transform="translate(-1153.000000, -4140.000000)" fill="#929292">
            <g id="Group-49" transform="translate(135.000000, 3921.000000)">
                <g id="Group-29" transform="translate(1018.000000, 219.548893)">
                    <path d="M4.49287632,9.94005644 L4.49287632,4.98703344 L2.46204737,4.98703344 L2.46204737,10.1848564 C2.46204737,12.1241862 0.964839474,12.7606537 0.00109605263,12.7606537 L0.439360526,14.3028561 C2.27415263,14.3028561 4.49287632,13.2638485 4.49287632,9.94005644" id="Fill-149"></path>
                    <path d="M21.3692684,8.75252301 C21.3692684,9.64738528 21.1650895,10.0445126 20.6233263,10.0445126 C20.1360526,10.0445126 19.5916276,9.57667362 19.1041974,8.85588405 C19.0198013,8.73076196 18.9681303,8.64101135 18.9681303,8.64101135 L18.9681303,8.48597761 C18.9709487,7.1912816 19.1151579,6.43241411 20.3320895,6.43241411 C20.661375,6.43241411 21.0207237,6.46232577 21.3692684,6.50584785 L21.3692684,8.75252301 Z M51.434775,10.8659255 C52.2950197,11.4479982 52.8122,11.4588865 53.6671211,11.4588865 C54.3585737,11.4588865 55.0282618,11.3364865 55.4937711,10.863219 C56.3540158,11.4479982 56.8740145,11.4588865 57.7287789,11.4588865 C58.9782789,11.4588865 60.1734461,11.0726475 60.1734461,8.88308926 L60.1734461,4.9853908 L58.1397987,4.9853908 L58.1397987,8.82325031 C58.1397987,9.63923466 57.7043526,9.94115153 57.2551276,9.94115153 C56.6916,9.94115153 56.1117882,9.56307883 56.1117882,8.27653344 L56.1117882,4.9853908 L54.0781408,5.63002454 L54.0781408,8.82325031 C54.0781408,9.63923466 53.6398763,9.94115153 53.1879895,9.94115153 C52.6271237,9.94115153 52.0499737,9.56307883 52.0499737,8.27653344 L52.0499737,4.9853908 L50.0136645,5.63002454 L50.0136645,8.82325031 C50.0136645,9.71539049 49.5237289,9.94115153 48.9248145,9.94115153 L45.0970855,9.94115153 C44.3647658,9.94115153 43.7523855,9.56307883 43.7523855,8.27653344 L43.7523855,4.9853908 L41.7187382,4.9853908 L41.7187382,8.82325031 C41.7187382,9.71539049 41.2259842,9.94115153 40.6270697,9.94115153 L34.8421039,9.94115153 C34.1124461,9.94115153 33.4945855,9.56307883 33.4945855,8.27653344 L33.4945855,4.9853908 L31.4637566,4.9853908 L31.4637566,8.82325031 C31.4637566,9.71539049 30.9681842,9.94115153 30.37475,9.94115153 L24.7476158,9.94115153 C24.0181145,9.94115153 23.4000974,9.56307883 23.4000974,8.27653344 L23.4000974,4.9853908 C22.6024842,4.7705181 21.1978145,4.54475706 19.989025,4.54475706 C17.9063684,4.54475706 16.9509237,5.64634141 16.9399632,7.55031534 L16.9373013,7.55031534 L16.9373013,8.82325031 C16.9373013,9.71539049 16.5480461,9.94115153 16.0443316,9.94115153 L9.44265,9.94115153 C8.94723421,9.94115153 8.55516053,9.71539049 8.55516053,8.82325031 L8.55516053,1.26178067 L6.52166974,1.26178067 L6.52166974,8.88308926 C6.52166974,10.6483307 7.21312237,11.4452761 8.71847237,11.4561644 L8.71847237,11.4588865 L16.7439263,11.4588865 C17.7322526,11.4588865 18.3175447,11.1433592 18.674075,10.4824242 C18.674075,10.4824242 18.7857158,10.596658 18.8593079,10.6646475 C19.3982526,11.2059202 20.0870434,11.5568034 20.7866382,11.5568034 C21.5870697,11.5568034 22.2349934,11.2956865 22.6868803,10.800658 C23.6097566,11.4561644 24.1895684,11.4588865 25.2240855,11.4588865 L30.8484013,11.4588865 C31.6189263,11.4588865 32.3756724,11.3772865 32.8820487,10.8659255 C33.7449553,11.4479982 34.3221053,11.4588865 35.3185737,11.4588865 L41.1062013,11.4588865 C41.8712461,11.4588865 42.6306539,11.3772865 43.1370303,10.8659255 C44.0000934,11.4479982 44.5772434,11.4588865 45.5762171,11.4588865 L49.4011276,11.4588865 C50.1716526,11.4588865 50.9257368,11.3772865 51.434775,10.8659255 L51.434775,10.8659255 Z" id="Fill-150"></path>
                    <path d="M39.8726724,4.44439969 C40.4744053,4.44439969 40.9588605,3.95479969 40.9588605,3.35913221 C40.9588605,2.76074264 40.4744053,2.27115828 39.8726724,2.27115828 C39.2737579,2.27115828 38.7891461,2.76074264 38.7891461,3.35913221 C38.7891461,3.95479969 39.2737579,4.44439969 39.8726724,4.44439969" id="Fill-151"></path>
                    <path d="M37.3044645,4.44439969 C37.9060408,4.44439969 38.3906526,3.95479969 38.3906526,3.35913221 C38.3906526,2.76074264 37.9060408,2.27115828 37.3044645,2.27115828 C36.7028882,2.27115828 36.2209382,2.76074264 36.2209382,3.35913221 C36.2209382,3.95479969 36.7028882,4.44439969 37.3044645,4.44439969" id="Fill-152"></path>
                    <path d="M28.7280092,3.35777117 C28.7280092,3.95616074 29.2152829,4.44303865 29.8141974,4.44303865 C30.4131118,4.44303865 30.9003855,3.95616074 30.9003855,3.35777117 C30.9003855,2.7593816 30.4131118,2.27251933 29.8141974,2.27251933 C29.2152829,2.27251933 28.7280092,2.7593816 28.7280092,3.35777117" id="Fill-153"></path>
                    <path d="M28.5098947,2.16779724 C29.1088092,2.16779724 29.5960829,1.68364141 29.5960829,1.08525184 C29.5960829,0.489584356 29.1088092,3.69704267e-13 28.5098947,3.69704267e-13 C27.9109803,3.69704267e-13 27.4237066,0.489584356 27.4237066,1.08525184 C27.4237066,1.68364141 27.9109803,2.16779724 28.5098947,2.16779724" id="Fill-154"></path>
                    <path d="M27.2073145,4.44439969 C27.8062289,4.44439969 28.2908408,3.95479969 28.2908408,3.35913221 C28.2908408,2.76074264 27.8062289,2.27115828 27.2073145,2.27115828 C26.6057382,2.27115828 26.1211263,2.76074264 26.1211263,3.35913221 C26.1211263,3.95479969 26.6057382,4.44439969 27.2073145,4.44439969" id="Fill-155"></path>
                    <path d="M67.4415276,10.8909561 C68.2800079,11.4485457 68.7945263,11.4594184 69.6384868,11.4594184 C70.8908053,11.4594184 72.0776737,11.070473 72.0776737,8.88363681 L72.0776737,1.26232822 L70.0495066,1.26232822 L70.0495066,8.82379785 C70.0495066,9.63978221 69.6112421,9.93897699 69.1593553,9.93897699 C68.6067882,9.93897699 68.0323,9.56905491 68.0186776,8.31243681 L68.0186776,1.26232822 L65.9878487,1.26232822 L65.9878487,8.82379785 C65.9878487,9.71321595 65.595775,9.93897699 65.1003592,9.93897699 L63.9570197,9.93897699 L63.9570197,1.26232822 L62.4378908,1.26232822 L62.4378908,9.93897699 L61.6510816,9.93897699 L61.2020132,11.4594184 L65.7944737,11.4594184 C66.5350921,11.4594184 67.0740368,11.2799015 67.4415276,10.8909561" id="Fill-156"></path>
                    <path d="M19.1840526,19.382647 C17.9589789,19.382647 16.5325447,19.6111223 15.7239711,19.8287187 L15.7239711,26.8434761 L17.5996303,26.8434761 L17.5996303,21.2376531 C18.0460368,21.1669352 18.5225066,21.1261352 18.9552908,21.1261352 C20.2076092,21.1261352 20.4091263,21.9176427 20.4091263,23.1851397 L20.4091263,26.8434761 L22.2847855,26.8434761 L22.2847855,22.4779528 C22.2847855,20.5223061 21.3183803,19.382647 19.1840526,19.382647" id="Fill-157"></path>
                    <path d="M32.0138184,19.382647 C31.1781566,19.382647 30.2007908,19.5676033 29.4412263,19.9565566 C29.0737355,19.6655218 28.3550382,19.382647 27.4022553,19.382647 C26.2452934,19.382647 24.8050803,19.6111223 24.0129474,19.8287187 L24.0129474,26.8434761 L25.8859447,26.8434761 L25.8859447,21.2376531 C26.3187289,21.1669352 26.7760961,21.1261352 27.1952579,21.1261352 C28.4258118,21.1261352 28.6137066,21.9176427 28.6137066,23.1851397 L28.6137066,26.8434761 L30.4867039,26.8434761 L30.4867039,22.4779528 C30.4867039,22.2277164 30.4594592,22.0046806 30.4267342,21.7952442 C30.4212539,21.7653248 30.41045,21.7326848 30.4049697,21.7054858 C30.3968276,21.6374868 30.3886855,21.5667674 30.3695829,21.49877 C30.8023671,21.2539731 31.3823355,21.1261352 31.7960171,21.1261352 C33.0210908,21.1261352 33.2089855,21.9040416 33.2089855,23.1851397 L33.2089855,26.8434761 L35.0874632,26.8434761 L35.0874632,22.4779528 C35.0874632,20.5059861 34.1182395,19.382647 32.0138184,19.382647" id="Fill-158"></path>
                    <path d="M12.9869711,16.6496383 C12.4315855,16.6496383 11.9850224,17.0984227 11.9850224,17.6478601 C11.9850224,18.2027307 12.4315855,18.6542434 12.9869711,18.6542434 C13.5368763,18.6542434 13.9887632,18.2027307 13.9887632,17.6478601 C13.9887632,17.0984227 13.5368763,16.6496383 12.9869711,16.6496383" id="Fill-159"></path>
                    <path d="M3.96363947,25.287391 C3.66426053,25.5621058 3.20141316,25.7062637 2.83940263,25.7062637 C2.14795,25.7062637 1.71500921,25.3445094 1.71500921,24.667242 C1.71500921,23.7886966 2.72228158,23.5901407 3.96363947,23.5439013 L3.96363947,25.287391 Z M3.14426184,19.3823748 C2.34116842,19.3823748 1.20330921,19.6054106 0.370152632,19.814847 L0.775848684,21.2455425 C1.51897237,21.0687445 2.22420395,20.9245866 2.67609079,20.9245866 C3.59614868,20.9245866 3.94735526,21.2265019 3.96363947,22.2519242 L3.96363947,22.2900037 C1.54089342,22.3960821 -1.42108547e-14,23.0352701 -1.42108547e-14,24.7624399 C-1.42108547e-14,26.0244975 0.922876316,26.9465618 2.48005395,26.9465618 C3.14426184,26.9465618 3.69416711,26.8350439 4.263175,26.5276891 C4.30404211,26.663687 4.32298816,26.7208055 4.36385526,26.8459244 L5.79310789,26.8296044 C5.79310789,26.3808122 5.81221053,25.8069027 5.81221053,25.303711 L5.81221053,21.9445694 C5.81221053,19.695169 4.41568289,19.3823748 3.14426184,19.3823748 L3.14426184,19.3823748 Z" id="Fill-160"></path>
                    <path d="M40.3245592,25.287391 C40.0251803,25.5621058 39.5623329,25.7062637 39.2003224,25.7062637 C38.5060513,25.7062637 38.0759289,25.3445094 38.0759289,24.667242 C38.0759289,23.7886966 39.0860197,23.5901407 40.3245592,23.5439013 L40.3245592,25.287391 Z M39.5051816,19.3823748 C38.6994263,19.3823748 37.5614105,19.6054106 36.7338908,19.814847 L37.1394303,21.2455425 C37.8798921,21.0687445 38.5851237,20.9245866 39.0341921,20.9245866 C39.9570684,20.9245866 40.308275,21.2265019 40.3245592,22.2519242 L40.3245592,22.2900037 C37.904475,22.3960821 36.3609197,23.0352701 36.3609197,24.7624399 C36.3609197,26.0244975 37.2864579,26.9465618 38.8436355,26.9465618 C39.5025197,26.9465618 40.0550868,26.8350439 40.629575,26.5276891 C40.6649618,26.663687 40.6839079,26.7208055 40.724775,26.8459244 L42.1540276,26.8296044 C42.1540276,26.3808122 42.1731303,25.8069027 42.1731303,25.303711 L42.1731303,21.9445694 C42.1731303,19.695169 40.7792645,19.3823748 39.5051816,19.3823748 L39.5051816,19.3823748 Z" id="Fill-161"></path>
                    <path d="M9.46425789,24.3791983 L9.46425789,16.4967791 L7.59126053,16.4967791 L7.59126053,24.4471973 C7.59126053,26.6095598 8.77264868,26.8434761 9.64933421,26.8434761 L10.8416829,26.8434761 L10.8416829,25.4046206 L10.2944395,25.4046206 C9.83441053,25.4046206 9.46425789,25.2006253 9.46425789,24.3791983" id="Fill-162"></path>
                    <polygon id="Fill-163" points="12.0598671 26.8445634 13.9355576 26.8445634 13.9355576 19.642129 12.0598671 19.642129"></polygon>
                    <path d="M84.0785105,25.5052596 C83.3,25.5052596 82.9978026,25.1870243 82.9978026,24.2078415 L82.9978026,20.9792583 L85.0013868,20.9792583 L85.0013868,19.6410418 L82.8806816,19.6709613 L82.7092276,17.6364414 L81.1085211,17.6364414 L81.1085211,19.7716002 L79.8970697,19.8042387 L79.8970697,20.9792583 L81.1085211,20.9792583 L81.1085211,24.4499178 C81.1085211,26.6965977 82.7527566,27.0610725 83.8336211,27.0610725 C84.1793474,27.0610725 84.7727816,27.0039525 85.3879803,26.8026761 L85.0749789,25.3719822 C84.742875,25.4481396 84.3399974,25.5052596 84.0785105,25.5052596" id="Fill-164"></path>
                    <path d="M100.870037,22.4213772 C101.000624,21.4857133 101.474275,20.9798027 102.353622,20.9798027 C103.175818,20.9798027 103.551451,21.5129123 103.578696,22.4213772 L100.870037,22.4213772 Z M102.323716,19.3859104 C100.409851,19.3859104 98.9071632,20.5908495 98.9071632,23.2156036 C98.9071632,25.8920367 100.276446,27.0616153 102.337338,27.0616153 C102.971639,27.0616153 103.853649,26.87394 104.558724,26.4849868 L104.112317,25.1739692 C103.578696,25.3915656 103.028791,25.4922029 102.514272,25.4922029 C101.460653,25.4922029 100.927188,24.8285349 100.853596,23.7922337 L100.853596,23.7623142 L103.0778,23.7623142 C103.59498,23.7623142 104.545101,23.7106353 105.190363,23.7106353 L105.280083,22.8239299 C105.280083,20.8356448 104.400892,19.3859104 102.323716,19.3859104 L102.323716,19.3859104 Z" id="Fill-165"></path>
                    <path d="M94.4416882,19.382647 C93.6032079,19.382647 92.6530868,19.5512833 91.8609539,19.9592755 C91.3545776,19.5676033 90.6767474,19.382647 89.8409289,19.382647 C88.6459184,19.382647 87.2356118,19.6111223 86.4408171,19.8287187 L86.4408171,26.8434761 L88.3136579,26.8434761 L88.3136579,21.2403736 C88.7437803,21.1669352 89.2066276,21.1261352 89.6231276,21.1261352 C90.8510197,21.1261352 91.0360961,21.9176427 91.0360961,23.1851397 L91.0360961,26.8434761 L92.9117553,26.8434761 L92.9117553,22.4806717 C92.9117553,22.102599 92.8682263,21.7870842 92.7974526,21.49877 C93.2302368,21.2539731 93.8073868,21.1261352 94.2267053,21.1261352 C95.4489605,21.1261352 95.6368553,21.9040416 95.6368553,23.1851397 L95.6368553,26.8434761 L97.5098526,26.8434761 L97.5098526,22.4806717 C97.5098526,20.5059861 96.5432908,19.382647 94.4416882,19.382647" id="Fill-166"></path>
                    <path d="M54.8082684,19.382647 C53.5831947,19.382647 52.1539421,19.6111223 51.3481868,19.8287187 L51.3481868,26.8434761 L53.2238461,26.8434761 L53.2238461,21.2403736 C53.6704092,21.1669352 54.1467224,21.1261352 54.5796632,21.1261352 C55.831825,21.1261352 56.0333421,21.9176427 56.0333421,23.1851397 L56.0333421,26.8434761 L57.9090013,26.8434761 L57.9090013,22.4806717 C57.9090013,20.5195872 56.9425961,19.382647 54.8082684,19.382647" id="Fill-167"></path>
                    <path d="M118.347066,25.5052596 C117.571217,25.5052596 117.26902,25.1870243 117.26902,24.2078415 L117.26902,20.9792583 L119.272761,20.9792583 L119.272761,19.6410418 L117.157379,19.6709613 L116.980445,17.6364414 L115.379738,17.6364414 L115.379738,19.7716002 L114.165625,19.8042387 L114.165625,20.9792583 L115.379738,20.9792583 L115.379738,24.4499178 C115.379738,26.6965977 117.02413,27.0610725 118.104838,27.0610725 C118.450564,27.0610725 119.043999,27.0039525 119.659354,26.8026761 L119.343534,25.3719822 C119.014092,25.4481396 118.611214,25.5052596 118.347066,25.5052596" id="Fill-168"></path>
                    <path d="M110.201672,19.382647 C108.976599,19.382647 107.547346,19.6111223 106.741434,19.8287187 L106.741434,26.8434761 L108.61725,26.8434761 L108.61725,21.2403736 C109.063657,21.1669352 109.537308,21.1261352 109.970249,21.1261352 C111.225229,21.1261352 111.426589,21.9176427 111.426589,23.1851397 L111.426589,26.8434761 L113.302405,26.8434761 L113.302405,22.4806717 C113.302405,20.5168667 112.333182,19.382647 110.201672,19.382647" id="Fill-169"></path>
                    <path d="M68.6725513,22.4213772 C68.8032947,21.4857133 69.2824263,20.9798027 70.1589553,20.9798027 C70.9838132,20.9798027 71.3541224,21.5129123 71.3868474,22.4213772 L68.6725513,22.4213772 Z M70.1317105,19.3859104 C68.2125224,19.3859104 66.7153145,20.5908495 66.7153145,23.2156036 C66.7153145,25.8920367 68.0817789,27.0616153 70.1481513,27.0616153 C70.7769724,27.0616153 71.6618,26.87394 72.3640566,26.4849868 L71.91765,25.1739692 C71.3868474,25.3915656 70.8367855,25.4922029 70.3169434,25.4922029 C69.2661421,25.4922029 68.7325211,24.8285349 68.6589289,23.7922337 L68.6589289,23.7623142 L70.8804711,23.7623142 C71.4003132,23.7623142 72.3532526,23.7106353 72.9983579,23.7106353 L73.0855724,22.8239299 C73.0855724,20.8356448 72.2034066,19.3859104 70.1317105,19.3859104 L70.1317105,19.3859104 Z" id="Fill-170"></path>
                    <path d="M48.6111868,16.6496383 C48.0584632,16.6496383 47.6093947,17.0984227 47.6093947,17.6478601 C47.6093947,18.2027307 48.0584632,18.6542434 48.6111868,18.6542434 C49.1610921,18.6542434 49.6129789,18.2027307 49.6129789,17.6478601 C49.6129789,17.0984227 49.1610921,16.6496383 48.6111868,16.6496383" id="Fill-171"></path>
                    <path d="M77.1638276,22.3656182 C76.2981026,21.995704 76.02315,21.8705866 76.02315,21.5142733 C76.02315,21.0682001 76.4178855,20.8370043 77.0631474,20.8370043 C77.626675,20.8370043 78.0976645,20.9403638 78.5794579,21.0682001 L78.7509118,19.7435846 C78.1656197,19.5504667 77.49875,19.3818304 76.7636118,19.3818304 C75.3316974,19.3818304 74.1883579,20.2331752 74.1883579,21.6013113 C74.1883579,22.2513798 74.4061592,22.8552088 75.0703671,23.3148815 C75.573925,23.6603158 76.5104237,23.9187106 76.9569868,24.1499064 C77.3734868,24.3811022 77.4605447,24.5687791 77.4605447,24.7700555 C77.4605447,25.3466856 76.8998355,25.6186814 76.1620355,25.6186814 C75.4406763,25.6186814 74.8499039,25.4745235 74.2727539,25.1862092 L74.0712368,26.6441037 C74.6512053,26.872579 75.2391592,27.0629763 76.2791566,27.0629763 C77.5776658,27.0629763 79.4234184,26.4999457 79.4234184,24.5959796 C79.4234184,23.9486301 79.1783724,23.4753594 78.6611921,23.1000057 C78.2418737,22.7953699 77.8172316,22.6430535 77.1638276,22.3656182" id="Fill-172"></path>
                    <polygon id="Fill-173" points="47.6843961 26.8445634 49.5600866 26.8445634 49.5600866 19.642129 47.6843961 19.642129"></polygon>
                    <polygon id="Fill-174" points="62.6004197 24.5967947 60.8689697 19.6410418 58.7946118 19.6410418 61.6366763 26.9169145 63.3654645 26.9169145 66.2756408 19.6410418 64.2855224 19.6410418"></polygon>
                    <path d="M106.107133,3.4323 C106.703386,3.4323 107.193478,2.94271564 107.193478,2.3497546 C107.193478,2.19744294 107.163414,2.0532819 107.106263,1.92545337 C106.942951,1.53649233 106.553696,1.26178067 106.107133,1.26178067 C105.502895,1.26178067 105.020945,1.74864294 105.020945,2.34703252 C105.020945,2.43679877 105.048189,2.51567669 105.069954,2.59727669 C105.187075,3.07054417 105.595433,3.4323 106.107133,3.4323" id="Fill-175"></path>
                    <path d="M81.97315,9.94005644 L80.7889434,9.94005644 C80.1491618,9.94005644 79.7353237,9.65990061 79.7353237,9.20839417 C79.7353237,8.70519939 80.3016697,8.44136043 80.9331526,8.44136043 C81.0747,8.44136043 81.1891592,8.45497086 81.2925013,8.4767319 L81.7689711,6.89915798 C81.3252263,6.8012411 80.9441132,6.7713138 80.6010487,6.7713138 C79.3052013,6.7713138 77.7235974,7.4349865 77.7235974,8.88471626 C77.7235974,9.31175521 77.8405618,9.62998896 77.9930697,9.94005644 L77.3016171,9.94005644 L76.8552105,11.4605135 L81.5294053,11.4605135 L81.97315,9.94005644 Z" id="Fill-176"></path>
                    <polygon id="Fill-177" points="119.216549 11.4594184 119.216549 1.26505031 119.216549 1.26232822 117.188538 1.26232822 117.188538 1.26505031 117.188538 11.4594184"></polygon>
                    <path d="M100.61998,8.75252301 C100.61998,9.64738528 100.41862,10.0445126 99.8768566,10.0445126 C99.3867645,10.0445126 98.8451579,9.57667362 98.3550658,8.85588405 C98.2733316,8.73076196 98.2189987,8.64101135 98.2189987,8.64101135 L98.2189987,8.48597761 C98.2243224,7.1912816 98.37135,6.43241411 99.5856197,6.43241411 C99.9149053,6.43241411 100.274254,6.46232577 100.61998,6.50584785 L100.61998,8.75252301 Z M107.120982,4.9853908 L107.120982,4.9853908 L105.090153,4.9853908 L105.090153,8.82325031 C105.090153,9.48962945 104.812382,9.78339571 104.425945,9.88946319 L104.420464,9.89218528 C104.292539,9.9275411 104.150992,9.94115153 104.001146,9.94115153 C103.268826,9.94115153 102.653628,9.56307883 102.653628,8.27653344 L102.653628,4.9853908 C101.856014,4.7705181 100.451345,4.54475706 99.2452171,4.54475706 C97.1598987,4.54475706 96.2044539,5.64634141 96.1908316,7.55031534 L96.1881697,7.55031534 L96.1881697,8.82325031 C96.1881697,9.71539049 95.7987579,9.94115153 95.2978618,9.94115153 L86.2053224,9.94115153 C85.7044263,9.94115153 85.3178329,9.71539049 85.3178329,8.82325031 L85.3178329,1.26178067 L83.2841855,1.26178067 L83.2841855,8.88308926 C83.2841855,10.6483307 83.9729763,11.4452761 85.4784829,11.4561644 L85.4784829,11.4588865 L96.000275,11.4588865 C96.9857829,11.4588865 97.5737368,11.1433592 97.9276053,10.4824242 C97.9276053,10.4824242 98.0392461,10.596658 98.1128382,10.6646475 C98.6546013,11.2059202 99.3405737,11.5568034 100.040168,11.5568034 C100.837782,11.5568034 101.485705,11.2956865 101.940411,10.800658 C101.940411,10.800658 101.943072,10.8033801 101.945891,10.8033801 C102.863287,11.4561644 103.070128,11.4588865 104.104645,11.4588865 L104.08288,11.4534423 C104.213467,11.4534423 104.330588,11.4588865 104.477616,11.4588865 C105.81433,11.4588865 107.120982,11.2195307 107.120982,8.88308926 L107.120982,4.9853908 Z" id="Fill-178"></path>
                    <path d="M115.039962,9.92400552 C115.108074,9.62210429 115.157083,9.28753804 115.157083,8.88227577 L115.157083,1.26096718 L113.126254,1.26096718 L113.126254,8.82514325 C113.126254,9.02099264 113.099009,9.17058221 113.063622,9.30385491 C113.022755,9.48066534 112.957462,9.62210429 112.867586,9.71729908 C112.78867,9.79889908 112.693313,9.85601595 112.584491,9.89137178 C112.47833,9.92672761 112.361209,9.94033804 112.235946,9.94033804 L111.095268,9.94033804 L111.095268,1.26096718 L109.576296,1.26096718 L109.576296,9.94033804 L108.789487,9.94033804 L108.430138,11.153434 L108.340262,11.4580574 L112.932879,11.4580574 C113.313992,11.4580574 113.646253,11.4118288 113.929347,11.313912 C114.522782,11.1044678 114.873988,10.6447951 115.039962,9.92400552" id="Fill-179"></path>
                    <path d="M108.954521,14.3015107 L108.954521,14.3015107 L110.98535,14.3015107 L111.137858,13.7874276 L111.184049,13.6187991 L110.653246,13.6187991 C110.50888,13.6187991 110.389097,13.5861497 110.30752,13.5317549 C110.225786,13.471916 110.179595,13.390316 110.179595,13.289677 C110.179595,13.0612095 110.429964,12.9442537 110.715878,12.9442537 C110.775691,12.9442537 110.822038,12.9524043 110.862905,12.9605706 L110.881851,12.9605706 L111.094329,12.2479316 C110.892812,12.2044252 110.72402,12.1935368 110.571512,12.1935368 C110.391916,12.1935368 110.209501,12.2288926 110.032567,12.2860252 C109.773899,12.3676095 109.531671,12.506342 109.395447,12.7212147 C109.31935,12.8408926 109.275664,12.9823316 109.275664,13.145516 C109.275664,13.3386433 109.324674,13.4773601 109.390124,13.6187991 L109.15322,13.6187991 L108.954521,14.3015107 Z" id="Fill-180"></path>
                    <path d="M141.380768,22.2807548 L135.084103,24.3914383 L135.084103,5.65369417 L141.380768,3.67356442 L141.380768,22.2807548 Z M125.495991,26.8448356 L151.186682,26.8448356 L151.186682,1.25824509 L125.495991,1.25824509 L125.495991,26.8448356 Z" id="Fill-181"></path>
                </g>
            </g>
        </g>
    </g>
</svg>