<?xml version="1.0" encoding="UTF-8"?>
<svg width="65px" height="66px" viewBox="0 0 65 66" version="1.1" xmlns="http://www.w3.org/2000/svg" xmlns:xlink="http://www.w3.org/1999/xlink">
    <!-- Generator: sketchtool 55.1 (78136) - https://sketchapp.com -->
    <title>CA9504BE-D862-43ED-90BB-78C0B393FF35</title>
    <desc>Created with sketchtool.</desc>
    <g id="Page-1" stroke="none" stroke-width="1" fill="none" fill-rule="evenodd">
        <g id="Homepage" transform="translate(-691.000000, -3219.000000)">
            <g id="Group-47" transform="translate(0.000000, 3028.000000)">
                <g id="Group-6" transform="translate(692.000000, 190.000000)">
                    <g id="Group-38" transform="translate(0.000000, 2.000000)">
                        <g id="calendar">
                            <path d="M6.87718607,55.595416 C8.53363899,56.4227563 10.3986019,56.8888889 12.3671498,56.8888889 L44.5217391,56.8888889 C51.3236715,56.8888889 56.8888889,51.3236715 56.8888889,44.5217391 L56.8888889,7.11111111 L63.1111111,7.11111111 L63.1111111,51.6328502 C63.1111111,58.4347826 57.5458937,64 50.7439614,64 L18.589372,64 C13.1716734,64 8.53855023,60.4694108 6.87718607,55.595416 Z" id="Combined-Shape" stroke="#292929"></path>
                            <path d="M0,0 L56.8888889,0 L56.8888889,0 L56.8888889,44.5217391 C56.8888889,51.3236715 51.3236715,56.8888889 44.5217391,56.8888889 L12.3671498,56.8888889 C5.56521739,56.8888889 0,51.3236715 0,44.5217391 L0,0 L0,0 Z" id="Path" stroke="#292929"></path>
                            <path d="M11.1304348,9.89371981 L45.7584541,9.89371981" id="Path" stroke="#ebc03f"></path>
                            <path d="M11.035628,36.3448068 L11.035628,26.4378019 L8.65700483,26.4378019 L9.37922705,24.9619565 L12.7391304,24.9619565 L12.7391304,36.3448068 L11.035628,36.3448068 Z M24.5481366,28.5495169 C24.5481366,27.8639257 24.3597327,27.3117976 23.9829192,26.8931159 C23.6061057,26.4744343 23.1115455,26.2650966 22.4992236,26.2650966 C21.8136324,26.2650966 21.2732795,26.4692009 20.8781487,26.8774155 C20.4830179,27.2856301 20.2854555,27.8429916 20.2854555,28.5495169 C20.2854555,29.2717427 20.4790928,29.8382628 20.8663733,30.2490942 C21.2536538,30.6599256 21.7874649,30.8653382 22.4678226,30.8653382 C23.0801445,30.8653382 23.5799382,30.6494587 23.9672187,30.2176932 C24.3544993,29.7859278 24.5481366,29.2298746 24.5481366,28.5495169 Z M23.4962042,32.0193237 C23.2554623,32.1396946 23.0107989,32.2286632 22.7622067,32.2862319 C22.5136144,32.3438006 22.2611009,32.3725845 22.0046584,32.3725845 C20.9736548,32.3725845 20.1258372,32.0271774 19.4611801,31.3363527 C18.796523,30.6455279 18.4641994,29.7584595 18.4641994,28.6751208 C18.4641994,27.4923451 18.8370822,26.5398587 19.5828588,25.8176329 C20.3286355,25.095407 21.313831,24.7342995 22.5384748,24.7342995 C23.6793823,24.7342995 24.5991597,25.0862485 25.2978347,25.790157 C25.9965097,26.4940655 26.3458419,27.4190764 26.3458419,28.5652174 C26.3458419,29.7950947 25.5058745,31.5875486 23.8259144,33.9426329 L23.6296584,34.2252415 L21.604296,37.067029 L20.1912526,36.3448068 L23.4962042,32.0193237 Z M30.3046066,36.1014493 L34.999051,26.4378019 L29.6844375,26.4378019 L29.6844375,24.9619565 L37.6053312,24.9619565 L31.8197032,36.77657 L30.3046066,36.1014493 Z M45.1359557,28.5809179 L42.2078156,32.7101449 L45.0888543,32.7101449 L45.0888543,29.7192029 C45.0888543,29.5621973 45.0927794,29.386877 45.1006296,29.1932367 C45.1084799,28.9995965 45.1202552,28.7954922 45.1359557,28.5809179 Z M45.0888543,36.3448068 L45.0888543,34.013285 L39.5779847,34.013285 L46.2663905,24.7342995 L46.7923567,24.7342995 L46.7923567,32.7101449 L48.1896997,32.7101449 L48.1896997,34.013285 L46.7923567,34.013285 L46.7923567,36.3448068 L45.0888543,36.3448068 Z" id="1974" fill="#ebc03f" fill-rule="nonzero"></path>
                        </g>
                    </g>
                </g>
            </g>
        </g>
    </g>
</svg>