<?xml version="1.0" encoding="UTF-8"?>
<svg width="65px" height="50px" viewBox="0 0 65 50" version="1.1" xmlns="http://www.w3.org/2000/svg" xmlns:xlink="http://www.w3.org/1999/xlink">
    <!-- Generator: sketchtool 55.1 (78136) - https://sketchapp.com -->
    <title>8A685E96-3933-425D-89EF-58A23848CC97</title>
    <desc>Created with sketchtool.</desc>
    <g id="Page-1" stroke="none" stroke-width="1" fill="none" fill-rule="evenodd">
        <g id="Homepage" transform="translate(-134.000000, -2725.000000)">
            <g id="Group-15" transform="translate(0.000000, 2328.000000)">
                <g id="Group-18" transform="translate(135.000000, 398.000000)">
                    <g id="constructdion-crane">
                        <path d="M61.2914613,29.2305851 L61.2914613,27.7932334 C62.441762,27.3999637 63.2726035,26.2981068 63.2726035,25.0027483 C63.2726035,23.7073897 62.441762,22.6055328 61.2914613,22.2122632 L61.2914613,4.9591224 L59.4342644,6.44936126 L59.4342644,22.2123885 C58.2839637,22.6056581 57.4531222,23.707515 57.4531222,25.0028736 C57.4531222,26.2982322 58.2839637,27.400089 59.4342644,27.7933587 L59.4342644,30.0157459 C59.4342644,30.5348417 59.8500566,30.9556829 60.3629247,30.9556829 C60.9432756,30.9556829 61.4154065,31.4335469 61.4154065,32.0209449 C61.4154065,32.6083429 60.9432756,33.0862069 60.3629247,33.0862069 C59.7825739,33.0862069 59.310443,32.6083429 59.310443,32.0209449 C59.310443,31.501849 58.8946508,31.0810078 58.3817826,31.0810078 C57.8689144,31.0810078 57.4531222,31.501849 57.4531222,32.0209449 C57.4531222,33.6449054 58.7584473,34.966081 60.3629247,34.966081 C61.9674022,34.966081 63.2727273,33.6449054 63.2727273,32.0209449 C63.2726035,30.7257116 62.441762,29.6238548 61.2914613,29.2305851 Z M60.3628009,23.9374863 C60.9431518,23.9374863 61.4152827,24.4153503 61.4152827,25.0027483 C61.4152827,25.5901463 60.9431518,26.0680103 60.3628009,26.0680103 C59.7824501,26.0680103 59.3103192,25.5901463 59.3103192,25.0027483 C59.3103192,24.4153503 59.7824501,23.9374863 60.3628009,23.9374863 Z" id="Shape" stroke="#292929" fill="#ebc03f" fill-rule="nonzero"></path>
                        <path d="M61.2914613,5.9591224 L62.1708408,5.253543 C62.1757936,5.2495326 62.180375,5.24539687 62.1852041,5.24138648 C62.2056346,5.22471826 62.2256936,5.20754874 62.2456289,5.1902539 C62.2651927,5.17346036 62.2847564,5.15666682 62.3037011,5.1394973 C62.3164547,5.12796741 62.3288369,5.11593621 62.3414666,5.10415567 C62.3661071,5.08109588 62.3904999,5.05791076 62.4141498,5.03409903 C62.4162548,5.03209383 62.4183597,5.03008863 62.4204647,5.02808343 C62.4224458,5.02607823 62.4240555,5.02394771 62.4259128,5.02194251 C63.4514015,3.97923901 63.5676698,2.29637572 62.6426002,1.11506284 C62.1599445,0.499216088 61.4690212,0.110207476 60.6969948,0.0198481946 C60.0738018,-0.0529655952 59.4581619,0.0758684426 58.9241203,0.384794419 L23.4978317,16.0509132 C21.9929066,16.1622017 20.8019925,17.4361297 20.8019925,18.9871512 C20.8019925,20.2825097 21.632834,21.3843666 22.7831347,21.7776363 L22.7831347,23.0602117 L18.697029,23.0602117 L18.697029,22.006229 C18.697029,21.482872 18.4949525,20.9922249 18.1279459,20.6246468 C17.7615584,20.2575701 17.2749404,20.0628151 16.7597196,20.0638177 C13.9666807,20.0931438 12.3305049,20.094397 11.5386671,20.0829924 C11.215741,19.4691509 10.5775656,19.0498136 9.84380004,19.0498136 L7.86265789,19.0498136 C6.80435652,19.0498136 5.94342644,19.9211979 5.94342644,20.9923502 L5.94342644,23.2148627 C4.79312578,23.6081323 3.96228429,24.7099892 3.96228429,26.0053478 C3.96228429,27.3007064 4.79312578,28.4025632 5.94342644,28.7958329 L5.94342644,34.0261439 C5.94342644,35.0971708 6.80435652,35.9686805 7.86265789,35.9686805 L17.7683686,35.9686805 C18.82667,35.9686805 19.6876001,35.0972962 19.6876001,34.0261439 L19.6876001,28.9504839 L25.596728,28.9504839 L23.6668479,41.3211833 L2.80566874,46.1200006 L0.928660381,46.1200006 C0.415792208,46.1200006 0,46.5408417 0,47.0599376 C0,47.5790335 0.415792208,48 0.928660381,48 L2.90683081,48 L23.7112998,48 C23.7136524,48 23.7145191,48 23.7153859,48 L35.5945618,48 C35.5954286,48 35.5962953,48 35.5971621,48 L38.5703611,48 C39.0832293,48 39.4990215,47.5790335 39.4990215,47.0599376 C39.4990215,46.5408417 39.0832293,46.1200006 38.5703611,46.1200006 L36.3922192,46.1200006 L33.5939797,28.1824926 C33.5947226,28.1817407 33.5954656,28.1809887 33.5962085,28.1803621 L59.4342644,7.44936126 L61.2914613,5.9591224 Z M33.0778922,23.448719 L57.5838776,3.81318346 C57.7185953,4.25796168 57.9581896,4.67692295 58.3051372,5.02808343 C58.482697,5.20779939 58.6794492,5.36094647 58.8901932,5.48664738 L34.4134296,25.125692 C34.1921608,24.4115905 33.7085145,23.8144172 33.0778922,23.448719 Z M60.483403,1.88731512 C60.7628678,1.92002493 61.0128632,2.06063951 61.1870799,2.28309128 C61.5231311,2.71220387 61.479546,3.32404023 61.1047387,3.70089232 C61.0887657,3.71693391 61.0718022,3.73159693 61.0550863,3.7465106 C61.0446853,3.75565932 61.0349034,3.76530934 61.0240071,3.77408208 C60.8375321,3.92722916 60.6068529,4.01069557 60.3632962,4.01082089 C60.0811073,4.01069557 59.8171201,3.89990832 59.6185106,3.69876179 C59.2081665,3.28343495 59.2081665,2.60755755 59.6185106,2.1922307 C59.6290354,2.18157808 59.6381982,2.17017351 59.6481039,2.15914491 L59.709024,2.11039351 C59.7376268,2.08745905 59.7672201,2.06627913 59.7975563,2.04672844 C59.8244255,2.03269205 59.8503042,2.01765306 59.8751923,2.00136081 C60.0605529,1.90285541 60.2706778,1.86250078 60.483403,1.88731512 Z M23.7100616,17.9220145 C23.7130333,17.9221398 23.7137762,17.9220145 23.7143953,17.9220145 C24.2935079,17.9235184 24.7642768,18.4006305 24.7642768,18.9871512 C24.7642768,19.5745492 24.2921459,20.0524132 23.7117951,20.0524132 C23.1314442,20.0524132 22.6593133,19.5745492 22.6593133,18.9871512 C22.6593133,18.4003798 23.1304537,17.9228918 23.7100616,17.9220145 Z M24.6404554,21.7776363 C25.7907561,21.3843666 26.6215976,20.2825097 26.6215976,18.9871512 C26.6215976,18.2423451 26.3464665,17.5617053 25.8943946,17.0424841 L53.0903996,5.01605223 L30.5702615,23.0602117 L24.6404554,23.0602117 L24.6404554,21.7776363 Z M16.7789119,21.9435665 C16.7858459,21.9434412 16.8039239,21.9433158 16.8213827,21.960736 C16.8397082,21.9790335 16.8397082,21.9995867 16.8397082,22.006229 L16.8397082,23.0602117 L11.7630315,23.0602117 L11.7630315,21.9647464 C12.5999402,21.9743964 14.0862921,21.9718899 16.7789119,21.9435665 Z M7.86265789,20.9296877 L9.84380004,20.9296877 C9.87797474,20.9296877 9.90571073,20.9577605 9.90571073,20.9923502 L9.90571073,23.0602117 L7.8007472,23.0602117 L7.8007472,20.9923502 C7.8007472,20.9577605 7.82848319,20.9296877 7.86265789,20.9296877 Z M6.87208682,24.9400858 L31.6363636,24.9400858 C32.2167145,24.9400858 32.6888454,25.4179498 32.6888454,26.0053478 C32.6888454,26.2968536 32.5724533,26.5610386 32.3843686,26.753663 L32.3769393,26.7595533 C32.3470984,26.7834903 32.3198577,26.8091819 32.2937314,26.8358762 C32.1134474,26.982381 31.884997,27.0706098 31.6363636,27.0706098 L6.87208682,27.0706098 C6.29173599,27.0706098 5.81960505,26.5927458 5.81960505,26.0053478 C5.81960505,25.4179498 6.29173599,24.9400858 6.87208682,24.9400858 Z M17.8302793,34.0261439 C17.8302793,34.0606083 17.8025433,34.0888064 17.7683686,34.0888064 L7.86265789,34.0888064 C7.82848319,34.0888064 7.8007472,34.0607336 7.8007472,34.0261439 L7.8007472,28.9504839 L17.8302793,28.9504839 L17.8302793,34.0261439 Z M28.7265611,28.9504839 L28.7265611,32.0836074 L26.9882327,32.0836074 L27.4769557,28.9504839 L28.7265611,28.9504839 Z M33.729688,41.107003 L30.5838819,41.107003 L30.5838819,33.9634814 L32.6154193,33.9634814 L33.729688,41.107003 Z M28.7265611,41.107003 L25.5806312,41.107003 L26.6950237,33.9634814 L28.7265611,33.9634814 L28.7265611,41.107003 Z M28.7265611,42.9868771 L28.7265611,46.1200006 L24.7985753,46.1200006 L25.2874222,42.9868771 L28.7265611,42.9868771 Z M23.354818,43.3207427 L22.9182238,46.1200006 L11.1861477,46.1200006 L23.354818,43.3207427 Z M30.5838819,46.1200006 L30.5838819,42.9868771 L34.0230208,42.9868771 L34.5118676,46.1200006 L30.5838819,46.1200006 Z M32.3220865,32.0836074 L30.5838819,32.0836074 L30.5838819,28.9504839 L31.6363636,28.9504839 C31.7022366,28.9504839 31.7674905,28.9474761 31.8322491,28.9430897 L32.3220865,32.0836074 Z" id="Shape" stroke="#292929" fill="#F6F6F6" fill-rule="nonzero"></path>
                        <rect id="Rectangle" fill="#F6F6F6" x="7.63636364" y="24" width="1.09090909" height="4.36363636"></rect>
                        <rect id="Rectangle" fill="#F6F6F6" x="12" y="24" width="1.09090909" height="4.36363636"></rect>
                        <rect id="Rectangle" fill="#F6F6F6" x="16.3636364" y="24" width="1.09090909" height="4.36363636"></rect>
                        <rect id="Rectangle" fill="#F6F6F6" x="20.7272727" y="24" width="1.09090909" height="4.36363636"></rect>
                        <rect id="Rectangle" fill="#F6F6F6" x="25.0909091" y="24" width="1.09090909" height="4.36363636"></rect>
                        <rect id="Rectangle" fill="#F6F6F6" x="29.4545455" y="24" width="1.09090909" height="4.36363636"></rect>
                    </g>
                </g>
            </g>
        </g>
    </g>
</svg>