<?xml version="1.0" encoding="UTF-8"?>
<svg width="58px" height="58px" viewBox="0 0 58 58" version="1.1" xmlns="http://www.w3.org/2000/svg" xmlns:xlink="http://www.w3.org/1999/xlink">
    <!-- Generator: sketchtool 55.1 (78136) - https://sketchapp.com -->
    <title>A9BEE833-0906-4E08-8131-53C20909012F</title>
    <desc>Created with sketchtool.</desc>
    <g id="Page-1" stroke="none" stroke-width="1" fill="none" fill-rule="evenodd">
        <g id="Homepage" transform="translate(-963.000000, -2717.000000)" fill-rule="nonzero" stroke="#292929">
            <g id="Group-15" transform="translate(0.000000, 2328.000000)">
                <g id="Group-22" transform="translate(964.000000, 390.000000)">
                    <g id="crane">
                        <path d="M42.3525333,37.9030259 L35.3469333,44.9086259 L32.9333333,44.9086259 C32.4179,44.9086259 32,45.3265259 32,45.8419592 L32,54.2419592 C32,54.7573926 32.4179,55.1752926 32.9333333,55.1752926 L55.3333333,55.1752926 C55.8487667,55.1752926 56.2666667,54.7573926 56.2666667,54.2419592 L56.2666667,45.8419592 C56.2666667,45.3265259 55.8487667,44.9086259 55.3333333,44.9086259 L52.9197333,44.9086259 L45.9141333,37.9030259 L44.1333333,36 L42.3525333,37.9030259 Z M54.4,46.7752926 L54.4,53.3086259 L33.8666667,53.3086259 L33.8666667,46.7752926 L54.4,46.7752926 Z M50.2802667,44.9086259 L37.9864,44.9086259 L44.1333333,38.7618092 L50.2802667,44.9086259 Z" id="Shape" fill="#ebc03f"></path>
                        <path d="M46.6666667,28 C47.1821,28 47.6,27.5821 47.6,27.0666667 L47.6,14 L55.0666667,14 C55.5821,14 56,13.5821 56,13.0666667 L56,9.33333333 C55.9952167,9.29868333 55.9883333,9.2645 55.9794667,9.23066667 C55.9735167,9.16311667 55.9601,9.09638333 55.9393333,9.03186667 C55.9220667,8.98438333 55.9008333,8.93853333 55.8758667,8.89466667 C55.79175,8.73553333 55.6616667,8.60545 55.5025333,8.52133333 C55.45575,8.4952 55.40675,8.47338333 55.356,8.456 C55.3289333,8.44666667 55.3074667,8.42893333 55.2794667,8.4224 L19.8128,0.0224 C19.7430333,0.00676666667 19.6716333,-0.0007 19.6,-4.5e-05 L15.8666667,-4.5e-05 C15.7563,0.00245 15.6472167,0.0245 15.5446667,0.0653333333 C15.5194667,0.0746666667 15.4961333,0.0830666667 15.4718667,0.0942666667 C15.4476,0.105466667 15.4289333,0.108266667 15.4084,0.119466667 L0.475066667,8.51946667 C0.428983333,8.55026667 0.385933333,8.58526667 0.346266667,8.624 C0.315583333,8.64581667 0.2863,8.6695 0.258533333,8.69493333 C0.180366667,8.7745 0.11725,8.86748333 0.0718666667,8.96933333 L0.0718666667,8.98053333 C0.03115,9.08308333 0.00898333333,9.19216667 0.00653333333,9.30253333 C0.00653333333,9.31385 0,9.32306667 0,9.33426667 L0,13.0676 C0,13.5830333 0.4179,14.0009333 0.933333333,14.0009333 L14,14.0009333 L14,31.3469333 L10.5401333,34.8068 C10.3651333,34.9818 10.2666667,35.2191 10.2666667,35.4666667 L10.2666667,50.4 L8.4,50.4 L8.4,56 L27.0666667,56 L27.0666667,50.4 L25.2,50.4 L25.2,35.4666667 C25.2,35.2191 25.1015333,34.9818 24.9265333,34.8068 L21.4666667,31.3469333 L21.4666667,14 L40.1333333,14 L40.1333333,27.0666667 C40.1333333,27.5821 40.5512333,28 41.0666667,28 L42.9333333,28 L42.9333333,30.8 C42.9333333,31.3154333 43.3512333,31.7333333 43.8666667,31.7333333 C44.89765,31.7333333 45.7333333,32.5690167 45.7333333,33.6 C45.7333333,34.6309833 44.89765,35.4666667 43.8666667,35.4666667 C42.8356833,35.4666667 42,34.6309833 42,33.6 L42,32.6666667 L40.1333333,32.6666667 L40.1333333,33.6 C40.1381167,34.96255 40.8871167,36.21345 42.0858667,36.8610667 C42.6790107,37.1070313 43.3176506,37.2300135 44.0017865,37.2300135 C44.6859224,37.2300135 45.2344824,37.1070313 45.6474667,36.8610667 C47.4552167,35.8866667 48.1307167,33.6313833 47.1564333,31.8236333 C46.6628167,30.9079167 45.8082333,30.2408167 44.8,29.9842667 L44.8,28 L46.6666667,28 Z M47.6,10.2666667 L54.1333333,10.2666667 L54.1333333,12.1333333 L47.6,12.1333333 L47.6,10.2666667 Z M45.7333333,22.4 L42,22.4 L42,14 L45.7333333,14 L45.7333333,22.4 Z M45.7333333,12.1333333 L42,12.1333333 L42,10.2666667 L45.7333333,10.2666667 L45.7333333,12.1333333 Z M16.8,1.86666667 L18.6666667,1.86666667 L18.6666667,8.4 L16.8,8.4 L16.8,1.86666667 Z M15.8666667,10.2666667 L19.6,10.2666667 L19.6,11.7469333 L19.2136,12.1333333 L15.8666667,12.1333333 L15.8666667,10.2666667 Z M19.6,14.3864 L19.6,21.0802667 L16.2530667,17.7333333 L19.6,14.3864 Z M15.8666667,14 L17.3469333,14 L15.8666667,15.4802667 L15.8666667,14 Z M15.8666667,19.9865167 L19.2136,23.3333333 L15.8666667,26.6802667 L15.8666667,19.9865167 Z M19.6,25.5865167 L19.6,31.7333333 L19.6,32.2802667 L16.2530667,28.9333333 L19.6,25.5865167 Z M15.8666667,31.7333333 L15.8666667,31.1864 L19.2136,34.5333333 L15.8666667,37.8802667 L15.8666667,31.7333333 Z M19.6,36.7865167 L19.6,43.4803833 L16.2530667,40.1333333 L19.6,36.7865167 Z M15.8666667,42.3865167 L19.2136,45.7333333 L15.8666667,49.0802667 L15.8666667,42.3865167 Z M19.6,47.9865167 L19.6,50.4 L17.1864,50.4 L19.6,47.9865167 Z M14.9333333,2.52933333 L14.9333333,8.4 L4.49586667,8.4 L14.9333333,2.52933333 Z M1.86666667,12.1333333 L1.86666667,10.2666667 L14,10.2666667 L14,12.1333333 L1.86666667,12.1333333 Z M12.1333333,35.8531833 L14,33.9865167 L14,50.4 L12.1333333,50.4 L12.1333333,35.8531833 Z M25.2,52.2666667 L25.2,54.1333333 L10.2666667,54.1333333 L10.2666667,52.2666667 L25.2,52.2666667 Z M23.3333333,35.8531833 L23.3333333,50.4 L21.4666667,50.4 L21.4666667,33.9865167 L23.3333333,35.8531833 Z M40.1333333,12.1333333 L21.4666667,12.1333333 L21.4666667,10.2666667 L40.1333333,10.2666667 L40.1333333,12.1333333 Z M20.5333333,8.4 L20.5333333,2.11306667 L47.0764,8.4 L46.6666667,8.4 L20.5333333,8.4 Z M42,26.1333333 L42,24.2666667 L45.7333333,24.2666667 L45.7333333,26.1333333 L42,26.1333333 Z" id="Shape" fill="#F6F6F6"></path>
                    </g>
                </g>
            </g>
        </g>
    </g>
</svg>