<?xml version="1.0" encoding="UTF-8"?>
<svg width="66px" height="58px" viewBox="0 0 66 58" version="1.1" xmlns="http://www.w3.org/2000/svg" xmlns:xlink="http://www.w3.org/1999/xlink">
    <!-- Generator: Sketch 58 (84663) - https://sketch.com -->
    <title>Hospitality and Hous</title>
    <desc>Created with Sketch.</desc>
    <g id="Page-1" stroke="none" stroke-width="1" fill="none" fill-rule="evenodd">
        <g id="Homepage" transform="translate(-505.000000, -2717.000000)">
            <g id="Group-15" transform="translate(0.000000, 2328.000000)">
                <g id="Group-19" transform="translate(506.000000, 390.000000)">
                    <g id="Hospitality-and-Hous">
                        <g id="modern" fill-rule="nonzero" stroke="#292929" stroke-width="0.9">
                            <path d="M46.009054,54.1265761 L50.1194347,40.8110866 C50.2070354,40.5270136 50.1536919,40.218661 49.9760437,39.9797486 C49.797906,39.7408359 49.5165071,39.6000136 49.2170009,39.6000136 L46.5464035,39.6000136 L49.724987,35.9901034 C49.7259657,35.9891321 49.7269445,35.9881609 49.7279233,35.9871897 L53.2823578,31.9509274 C53.6254196,31.5614806 53.5852898,30.9700263 53.1923101,30.6296245 C52.8003092,30.2892226 52.2037438,30.3290414 51.8606818,30.7184884 L49.3231983,33.5995211 L46.1989371,25.6037204 L60.2688793,21.1707273 L54.3174161,27.9282617 C53.9743542,28.3177087 54.0149735,28.9096484 54.4074638,29.2500503 C54.5860908,29.4054406 54.8077841,29.4816789 55.0280093,29.4816789 C55.2908114,29.4816789 55.5526346,29.3729057 55.739092,29.1611865 L63.9123825,19.8805024 C64.190845,19.5638948 64.2231448,19.1020943 63.9911742,18.7505238 C63.7592037,18.3994389 63.3192427,18.2440486 62.9159859,18.3712744 L36.268739,26.767205 L36.9044556,21.8253088 C36.9044556,21.8243375 36.904945,21.8228809 36.904945,21.8219096 C36.9059238,21.8160825 36.9054345,21.8136545 36.9059238,21.810741 C36.909839,21.7801485 36.9117965,21.7490705 36.9122859,21.7179924 C36.9122859,21.7092517 36.9117965,21.700511 36.9117965,21.6917702 C36.9117965,21.6665193 36.9108178,21.6412684 36.9083708,21.6160175 C36.907392,21.60582 36.9064132,21.5961081 36.904945,21.5859107 C36.9020087,21.5621166 36.8980936,21.5383224 36.8931997,21.5145282 C36.8912422,21.5043308 36.8892845,21.4941332 36.8868376,21.4844214 C36.880965,21.4611129 36.8746029,21.4382899 36.8672621,21.4154669 C36.8638364,21.4052695 36.8609,21.395072 36.8574743,21.38536 C36.8491547,21.3630227 36.8398563,21.3406854 36.8295791,21.318348 C36.8251746,21.3091217 36.8217489,21.2994098 36.8173444,21.2901836 C36.8163656,21.2877555 36.8153869,21.2858132 36.814408,21.2833852 C36.7840659,21.2226859 36.7473617,21.1673281 36.706253,21.1158551 C36.7028273,21.1114848 36.6984228,21.1071143 36.6945077,21.1022585 C36.6764003,21.0804067 36.6573141,21.0590405 36.6367598,21.0391311 C36.6264825,21.0279624 36.6215887,21.0245633 36.6171842,21.0206786 C36.5985874,21.0031972 36.5799905,20.9866869 36.5604149,20.9711479 C36.551606,20.9643496 36.5432864,20.9575512 36.5349668,20.9512385 C36.5158806,20.9371563 36.496305,20.9240452 36.4767295,20.9114197 C36.467431,20.9055927 36.4581326,20.8997654 36.4483448,20.8939384 C36.4268117,20.8813129 36.4042999,20.8696586 36.3817879,20.8589756 C36.3739577,20.8550908 36.3666169,20.8512061 36.3587867,20.8473213 C36.3284445,20.8337246 36.2976129,20.8215847 36.266292,20.8113873 C36.2584618,20.8089593 36.2506316,20.8070169 36.2432907,20.804589 C36.2188213,20.7973051 36.1938624,20.7905067 36.1689035,20.7851652 C36.158137,20.7827372 36.146881,20.7812805 36.1361145,20.779338 C36.1131132,20.7749676 36.0906012,20.7715684 36.0676,20.7691405 C36.056344,20.7681694 36.045088,20.7671981 36.0338322,20.766227 C36.009852,20.7647702 35.9863613,20.7642846 35.9618919,20.7642846 C35.9521041,20.7642846 35.9423164,20.7642846 35.9320392,20.7647702 C35.9041439,20.7657414 35.8762488,20.7681694 35.8478641,20.7715684 C35.8429703,20.7725397 35.8385658,20.7720541 35.8336719,20.7730253 L35.8233947,20.7744821 L14.921578,23.7739999 C14.915216,23.7749711 14.9093433,23.7769135 14.9034706,23.7778847 C14.8868315,23.7803127 14.8701922,23.7837118 14.8540423,23.7875965 C14.8393606,23.7905102 14.824679,23.7939092 14.8104867,23.797794 C14.7953156,23.8016788 14.7806339,23.8065348 14.7654629,23.8113908 C14.7507812,23.8162467 14.7356102,23.8211025 14.7209285,23.8264441 C14.7067362,23.8317857 14.6930333,23.8380984 14.6793304,23.8439255 C14.6646487,23.8502383 14.649967,23.8560654 14.6362641,23.8633493 C14.6215824,23.8701477 14.6078795,23.8784028 14.5941766,23.8856867 C14.5814525,23.8929707 14.568239,23.8997689 14.5555149,23.9075384 C14.5403438,23.9172503 14.5251727,23.9279335 14.510491,23.9386165 C14.5002139,23.9454148 14.4899367,23.9522131 14.4801489,23.9599827 C14.4625309,23.9730937 14.4458917,23.9876615 14.4292524,24.0022294 C14.4228904,24.0080566 14.4155495,24.0133981 14.4091875,24.0197108 C14.3891225,24.0386489 14.3700364,24.0585584 14.3514395,24.079439 C14.3489926,24.0818669 14.3465457,24.0842949 14.3440988,24.0867228 C14.2897765,24.1483934 14.2442632,24.2188046 14.2065803,24.2960141 C14.201197,24.3066971 14.1953244,24.3173803 14.1904305,24.328549 C14.1248524,24.4790833 14.1023404,24.6373872 14.1170221,24.7898638 C14.1175115,24.7961765 14.1189796,24.8029749 14.119469,24.8092876 C14.1224053,24.8335674 14.1258311,24.857847 14.1307249,24.8816411 L15.54506,31.8110762 L9.14874204,34.7528082 C8.92509104,34.8557544 8.75037909,35.041737 8.66326786,35.2709377 L7.01060013,39.6000136 L0.944130464,39.6000136 C0.632878875,39.6000136 0.341202857,39.7524902 0.165512069,40.0074275 C-0.010668013,40.2623646 -0.0488403778,40.5872274 0.0637190967,40.8751849 L5.23754282,54.1265761 L1.87494896,54.1265761 C1.3537494,54.1265761 0.931406405,54.5461298 0.931406405,55.063288 C0.931406405,55.5804463 1.3537494,56 1.87494896,56 L63.2012999,56 C63.7229888,56 64.1454545,55.5804463 64.1454545,55.063288 C64.1454545,54.5461298 63.7229888,54.1265761 63.2012999,54.1265761 L46.009054,54.1265761 Z M47.9401842,41.4734375 L44.0343682,54.1265761 L33.7537674,54.1265761 L44.8966722,41.4734375 L47.9401842,41.4734375 Z M27.7102991,54.1265761 L23.9199789,28.6819046 L34.8088908,23.317541 L30.8438587,54.1265761 L27.7102991,54.1265761 Z M22.9431579,27.0716729 L18.4867791,25.1555166 L30.2629537,23.4656474 L22.9431579,27.0716729 Z M35.6594493,31.4998101 L40.7016272,43.3895938 L33.004023,52.1307822 L35.6594493,31.4998101 Z M47.9206087,35.1922714 L43.8552518,39.8088193 C43.7720555,39.8758313 43.7010941,39.9569256 43.6448145,40.0477317 L42.0841519,41.8196665 L36.5026671,28.6590816 L44.3955376,26.1718661 L47.9206087,35.1922714 Z M10.2924448,36.2916576 L15.9306988,33.6985824 L17.1355753,39.6000136 L9.02933093,39.6000136 L10.2924448,36.2916576 Z M2.32225071,41.4734375 L7.65659399,41.4734375 C7.66344551,41.4739232 7.66442422,41.4734375 7.66540306,41.4734375 L17.5177883,41.4734375 L20.1012743,54.1265761 L17.9195769,54.1265761 L17.9195769,47.3578729 C17.9195769,46.8407147 17.4972339,46.4216465 16.9760343,46.4216465 L12.0361387,46.4216465 C11.5144498,46.4216465 11.0921068,46.8407147 11.0921068,47.3578729 L11.0921068,54.1265761 L7.26214629,54.1265761 L2.32225071,41.4734375 Z M12.9801708,54.1265761 L12.9801708,48.2950704 L16.0320024,48.2950704 L16.0320024,54.1265761 L12.9801708,54.1265761 Z M16.3408071,26.2748122 L22.0162547,28.714925 L25.8016807,54.1265761 L22.0275105,54.1265761 L16.3408071,26.2748122 Z" id="Shape" fill="#FFFFFF"></path>
                            <path d="M33.6357447,8.12080606 L33.6524477,8.12080606 C34.8727568,8.12080606 35.8656089,9.08407337 35.8656089,10.2684966 C35.8656089,12.4662332 37.7088453,14.2545455 39.9740808,14.2545455 L50.8733462,14.2545455 C53.1385817,14.2545455 54.9818182,12.4662332 54.9818182,10.2684966 L54.9818182,10.1197883 C54.9818182,7.92157505 53.1385817,6.1337394 50.8733462,6.1337394 L50.8566432,6.1337394 C49.6363341,6.1337394 48.6429908,5.17047209 48.6429908,3.98604889 C48.6429908,1.78831225 46.8002456,0 44.5345189,0 L42.2324384,0 C41.7092382,0 41.2847829,0.411807511 41.2847829,0.919417434 C41.2847829,1.42702736 41.7092382,1.83883487 42.2324384,1.83883487 L44.5345189,1.83883487 C45.7548279,1.83883487 46.7481713,2.8021023 46.7481713,3.98604889 C46.7481713,6.18426214 48.5909164,7.97209779 50.8566432,7.97209779 L50.8733462,7.97209779 C52.0936553,7.97209779 53.0865073,8.9353651 53.0865073,10.1197883 L53.0865073,10.2684966 C53.0865073,11.4524432 52.0936553,12.4157105 50.8733462,12.4157105 L39.9740808,12.4157105 C38.7537717,12.4157105 37.7609196,11.4524432 37.7609196,10.2684966 C37.7609196,8.07028332 35.9176832,6.28244767 33.6524477,6.28244767 L33.6357447,6.28244767 C32.4154357,6.28244767 31.4220924,5.31918036 31.4220924,4.13475716 L31.4220924,3.98604889 C31.4220924,2.8021023 32.4149444,1.83883487 33.6357447,1.83883487 L38.5223847,1.83883487 C39.0455847,1.83883487 39.4695488,1.42702736 39.4695488,0.919417434 C39.4695488,0.411807511 39.0455847,0 38.5223847,0 L33.6357447,0 C31.370018,0 29.5272727,1.78831225 29.5272727,3.98604889 L29.5272727,4.13475716 C29.5272727,6.33297041 31.370018,8.12080606 33.6357447,8.12080606 L33.6357447,8.12080606 Z" id="Path" fill="#ebc03f"></path>
                        </g>
                        <path d="M32.0727273,52.9454545 L32.0727273,53.9636364 L20.7071951,53.9636364 L20.7071951,52.9454545 L32.0727273,52.9454545 Z M32.5818182,49.8909091 L32.5818182,50.9090909 L20.3636364,50.9090909 L20.3636364,49.8909091 L32.5818182,49.8909091 Z M33.1231981,46.8363636 L33.1231981,47.8545455 L19.3454545,47.8545455 L19.3454545,46.8363636 L33.1231981,46.8363636 Z M33.1231981,43.7818182 L33.1231981,44.8 L19.3454545,44.8 L19.3454545,43.7818182 L33.1231981,43.7818182 Z M33.6,40.7272727 L33.6,41.7454545 L18.3272727,41.7454545 L18.3272727,40.7272727 L33.6,40.7272727 Z M33.6,37.6727273 L33.6,38.6909091 L18.3272727,38.6909091 L18.3272727,37.6727273 L33.6,37.6727273 Z M33.6,34.6181818 L33.6,35.6363636 L17.3090909,35.6363636 L17.3090909,34.6181818 L33.6,34.6181818 Z M34.6181818,31.5636364 L34.6181818,32.5818182 L16.2909091,32.5818182 L16.2909091,31.5636364 L34.6181818,31.5636364 Z M34.6181818,28.5090909 L34.6181818,29.5272727 L16.2909091,29.5272727 L16.2909091,28.5090909 L34.6181818,28.5090909 Z M35.6363636,25.4545455 L35.6363636,26.4727273 L27.4909091,26.4727273 L27.4909091,25.4545455 L35.6363636,25.4545455 Z" id="Combined-Shape" fill="#FFFFFF"></path>
                    </g>
                </g>
            </g>
        </g>
    </g>
</svg>