<?xml version="1.0" encoding="UTF-8"?>
<svg width="53px" height="50px" viewBox="0 0 53 50" version="1.1" xmlns="http://www.w3.org/2000/svg" xmlns:xlink="http://www.w3.org/1999/xlink">
    <!-- Generator: Sketch 58 (84663) - https://sketch.com -->
    <title>hospital</title>
    <desc>Created with Sketch.</desc>
    <g id="Page-1" stroke="none" stroke-width="1" fill="none" fill-rule="evenodd">
        <g id="Homepage" transform="translate(-328.000000, -2725.000000)">
            <g id="Group-15" transform="translate(0.000000, 2328.000000)">
                <g id="Group-17" transform="translate(329.000000, 398.000000)">
                    <g id="hospital">
                        <path d="M50.8363636,12.5624727 L44.52,12.5624727 L44.52,0.723927273 C44.52,0.3624318 44.22695,0.0693818182 43.8654545,0.0693818182 L7.62545455,0.0693818182 C7.26395907,0.0693818182 6.97090909,0.3624318 6.97090909,0.723927273 L6.97090909,12.5624727 L0.654545455,12.5624727 C0.293049982,12.5624727 0,12.8555227 0,13.2170182 L0,47.2760727 C0,47.6375682 0.293049982,47.9306182 0.654545455,47.9306182 L10.2338182,47.9306182 C10.3098173,47.9306182 10.3852026,47.9170031 10.4565818,47.8909091 L41.0347636,47.8909091 C41.1061429,47.9170031 41.1815282,47.9306182 41.2575273,47.9306182 L50.8363636,47.9306182 C51.1978591,47.9306182 51.4909091,47.6375682 51.4909091,47.2760727 L51.4909091,13.2170182 C51.4909091,12.8555227 51.1978591,12.5624727 50.8363636,12.5624727 Z M9.57927273,46.6215273 L1.30909091,46.6215273 L1.30909091,13.8715636 L9.57927273,13.8715636 L9.57927273,46.6215273 Z M14.9143636,30.1090909 L18.4863273,27.8794909 L25.7454545,23.3410909 L36.5781818,30.1090909 L14.9143636,30.1090909 Z M33.4909091,26.6366182 L26.0923636,22.0145455 C25.8800873,21.8818434 25.6107127,21.8818434 25.3984364,22.0145455 L17.8909091,26.7078545 L17.8909091,10.1454545 L33.4909091,10.1454545 L33.4909091,26.6366182 Z M35.4545455,31.4181818 L35.4545455,46.5818182 L29.6112,46.5818182 L29.6112,35.52 C29.6112,35.1585045 29.31815,34.8654545 28.9566545,34.8654545 L22.5342545,34.8654545 C22.1727591,34.8654545 21.8797091,35.1585045 21.8797091,35.52 L21.8797091,46.5818182 L15.9272727,46.5818182 L15.9272727,31.4181818 L35.4545455,31.4181818 Z M28.3021091,46.5818182 L23.1888,46.5818182 L23.1888,36.1745455 L28.3021091,36.1745455 L28.3021091,46.5818182 Z M40.6025455,13.2170182 L40.6025455,46.5818182 L36.7636364,46.5818182 L36.7636364,31.4181818 L38.8613455,31.4181818 C39.1533754,31.4181635 39.4100655,31.2246922 39.4905197,30.9439634 C39.5709738,30.6632346 39.4557265,30.3631696 39.2080364,30.2084727 L34.8,27.4544727 L34.8,9.49090909 C34.8,9.12941362 34.50695,8.83636364 34.1454545,8.83636364 L17.2363636,8.83636364 C16.8748682,8.83636364 16.5818182,9.12941362 16.5818182,9.49090909 L16.5818182,27.5250545 L12.2836364,30.2086909 C12.0362821,30.3633934 11.9211778,30.6631264 12.001404,30.9436273 C12.0816302,31.2241281 12.3378159,31.4176682 12.6295636,31.4181818 L14.6181818,31.4181818 L14.6181818,46.5818182 L10.8883636,46.5818182 L10.8883636,13.2170182 C10.8883636,12.8555227 10.5953137,12.5624727 10.2338182,12.5624727 L8.28,12.5624727 L8.28,1.37847273 L43.2109091,1.37847273 L43.2109091,12.5624727 L41.2570909,12.5624727 C40.8955954,12.5624727 40.6025455,12.8555227 40.6025455,13.2170182 Z M50.1818182,46.6215273 L41.9116364,46.6215273 L41.9116364,13.8715636 L50.1818182,13.8715636 L50.1818182,46.6215273 Z" id="Shape" stroke="#292929" stroke-width="0.3" fill="#F6F6F6" fill-rule="nonzero"></path>
                        <rect id="Rectangle" stroke="#ebc03f" x="23" y="14" width="5" height="5" rx="1"></rect>
                        <path d="M44.3607273,43.9501091 L47.7328364,43.9501091 C48.0943318,43.9501091 48.3873818,43.6570591 48.3873818,43.2955636 L48.3873818,17.1977455 C48.3873818,16.83625 48.0943318,16.5432 47.7328364,16.5432 L44.3607273,16.5432 C43.9992318,16.5432 43.7061818,16.83625 43.7061818,17.1977455 L43.7061818,43.2955636 C43.7061818,43.6570591 43.9992318,43.9501091 44.3607273,43.9501091 L44.3607273,43.9501091 Z M45.0152727,17.8522909 L47.0782909,17.8522909 L47.0782909,42.6410182 L45.0152727,42.6410182 L45.0152727,17.8522909 Z" id="Shape" stroke="#292929" stroke-width="0.3" fill="#F6F6F6" fill-rule="nonzero"></path>
                        <path d="M3.75807273,43.9501091 L7.13018182,43.9501091 C7.49167729,43.9501091 7.78472727,43.6570591 7.78472727,43.2955636 L7.78472727,17.1977455 C7.78472727,16.83625 7.49167729,16.5432 7.13018182,16.5432 L3.75807273,16.5432 C3.39657725,16.5432 3.10352727,16.83625 3.10352727,17.1977455 L3.10352727,43.2955636 C3.10352727,43.6570591 3.39657725,43.9501091 3.75807273,43.9501091 L3.75807273,43.9501091 Z M4.41261818,17.8522909 L6.47563636,17.8522909 L6.47563636,42.6410182 L4.41261818,42.6410182 L4.41261818,17.8522909 Z" id="Shape" stroke="#292929" stroke-width="0.3" fill="#F6F6F6" fill-rule="nonzero"></path>
                    </g>
                </g>
            </g>
        </g>
    </g>
</svg>