<?xml version="1.0" encoding="UTF-8"?>
<svg width="67px" height="49px" viewBox="0 0 67 49" version="1.1" xmlns="http://www.w3.org/2000/svg" xmlns:xlink="http://www.w3.org/1999/xlink">
    <!-- Generator: sketchtool 55.1 (78136) - https://sketchapp.com -->
    <title>47B19D9D-7471-4EA1-B157-E317EF4ED2FB</title>
    <desc>Created with sketchtool.</desc>
    <g id="Page-1" stroke="none" stroke-width="1" fill="none" fill-rule="evenodd">
        <g id="Homepage" transform="translate(-1140.000000, -2726.000000)" fill-rule="nonzero" stroke="#292929" stroke-width="1.3">
            <g id="Group-15" transform="translate(0.000000, 2328.000000)">
                <g id="Group-21" transform="translate(1141.000000, 399.000000)">
                    <g id="industry">
                        <path d="M56.6973351,31.8987337 L8.16450576,31.8987337 C7.53808354,31.8987337 7.03050463,32.4063126 7.03050463,33.0327348 C7.03050463,33.6591571 7.53808354,34.166736 8.16450576,34.166736 L56.6973351,34.166736 C57.3237573,34.166736 57.8313362,33.6591571 57.8313362,33.0327348 C57.8313362,32.4063126 57.3237573,31.8987337 56.6973351,31.8987337 Z" id="Path" fill="#ebc03f"></path>
                        <path d="M56.6973351,35.9809866 L8.16450576,35.9809866 C7.53808354,35.9809866 7.03050463,36.4885655 7.03050463,37.1149877 C7.03050463,37.7414099 7.53808354,38.2489888 8.16450576,38.2489888 L56.6973351,38.2489888 C57.3237573,38.2489888 57.8313362,37.7414099 57.8313362,37.1149877 C57.8313362,36.4885655 57.3237573,35.9809866 56.6973351,35.9809866 Z" id="Path" fill="#ebc03f"></path>
                        <path d="M56.6973351,40.0632395 L8.16450576,40.0632395 C7.53808354,40.0632395 7.03050463,40.5708184 7.03050463,41.1972406 C7.03050463,41.8236628 7.53808354,42.3312417 8.16450576,42.3312417 L56.6973351,42.3312417 C57.3237573,42.3312417 57.8313362,41.8236628 57.8313362,41.1972406 C57.8313362,40.5708184 57.3237573,40.0632395 56.6973351,40.0632395 Z" id="Path" fill="#ebc03f"></path>
                        <path d="M49.7800794,13.6603667 L49.7800794,14.7943678 C49.7800794,15.42079 50.2876583,15.9283689 50.9140805,15.9283689 C51.5405027,15.9283689 52.0480816,15.42079 52.0480816,14.7943678 L52.0480816,13.6603667 C52.0480816,13.0339444 51.5405027,12.5263655 50.9140805,12.5263655 C50.2876583,12.5263655 49.7800794,13.0339444 49.7800794,13.6603667 Z" id="Path" fill="#F6F6F6"></path>
                        <path d="M63.7276885,44.4044604 L61.8000378,44.4044604 L61.8000378,29.581856 C61.8000378,28.9554338 61.2924589,28.4478548 60.6660367,28.4478548 L55.3011529,28.4478548 L55.3011529,13.9887356 C55.3011529,11.4059346 53.2474012,9.2950293 50.6874315,9.2002268 L50.6874315,7.68247968 C50.6874315,6.04709885 49.3568702,4.71653752 47.7214893,4.71653752 L42.3138159,4.71653752 C40.6784351,4.71653752 39.3478737,6.04709885 39.3478737,7.68247968 L39.3478737,28.4478548 L32.7714232,28.4478548 L32.7714232,26.0347004 C32.7714232,25.4082782 32.2638443,24.9006993 31.637422,24.9006993 L29.9445851,24.9006993 L29.4542431,1.11071631 C29.4415422,0.493668494 28.9377433,0 28.3205443,0 L24.4969949,0 C23.8797959,0 23.375997,0.493668494 23.3632962,1.11071631 L22.8729541,24.9006993 L21.179966,24.9006993 C20.5535438,24.9006993 20.0459648,25.4082782 20.0459648,26.0347004 L20.0459648,28.4478548 L18.5087129,28.4478548 L18.5087129,26.0347004 C18.5087129,25.4082782 18.001134,24.9006993 17.3747118,24.9006993 L15.6817237,24.9006993 L15.1913816,1.11071631 C15.1786808,0.493668494 14.6748819,0 14.0576829,0 L10.2342846,0 C9.61708562,0 9.11328671,0.493668494 9.1005859,1.11071631 L8.61024381,24.9006993 L6.91710452,24.9006993 C6.29068229,24.9006993 5.78310338,25.4082782 5.78310338,26.0347004 L5.78310338,28.4478548 L4.195653,28.4478548 C3.56923077,28.4478548 3.06165186,28.9554338 3.06165186,29.581856 L3.06165186,44.4044604 L1.13400113,44.4044604 C0.507578908,44.4044604 0,44.9120393 0,45.5384615 C0,46.1648838 0.507578908,46.6724627 1.13400113,46.6724627 L63.7276885,46.6724627 C64.3541108,46.6724627 64.8616897,46.1648838 64.8616897,45.5384615 C64.8616897,44.9120393 64.3541108,44.4044604 63.7276885,44.4044604 Z M25.6077112,2.26815347 L27.2096768,2.26815347 L27.6755245,24.8749953 L25.1418635,24.8749953 L25.6077112,2.26815347 Z M11.3450009,2.26815347 L12.9468153,2.26815347 L13.412663,24.8749953 L10.8791533,24.8749953 L11.3450009,2.26815347 Z M53.0331506,13.9887356 L53.0331506,28.448006 L52.0480816,28.448006 L52.0480816,18.777698 C52.0480816,18.1512758 51.5405027,17.6436968 50.9140805,17.6436968 C50.2876583,17.6436968 49.7800794,18.1512758 49.7800794,18.777698 L49.7800794,28.448006 L45.5679456,28.448006 L45.5679456,13.9888868 C45.5679456,12.5964846 46.7005859,11.4638443 48.0929881,11.4638443 L50.5081081,11.4638443 C51.9005103,11.4638443 53.0331506,12.5963334 53.0331506,13.9887356 Z M41.615876,7.68247968 C41.615876,7.2976753 41.9290115,6.98453978 42.3138159,6.98453978 L47.7214893,6.98453978 C48.1062937,6.98453978 48.4194292,7.2976753 48.4194292,7.68247968 L48.4194292,9.1956908 L48.0929881,9.1956908 C45.4501607,9.1956908 43.2999433,11.3459081 43.2999433,13.9887356 L43.2999433,28.4478548 L41.615876,28.4478548 L41.615876,7.68247968 L41.615876,7.68247968 Z M22.3139671,27.1687016 L30.5034209,27.1687016 L30.5034209,28.4478548 L22.3139671,28.4478548 L22.3139671,27.1687016 Z M8.05110565,27.1687016 L16.2407106,27.1687016 L16.2407106,28.4478548 L8.05110565,28.4478548 L8.05110565,27.1687016 Z M5.32965413,44.4044604 L5.32965413,30.7158571 L59.5320355,30.7158571 L59.5320355,44.4044604 L5.32965413,44.4044604 Z" id="Shape" fill="#F6F6F6"></path>
                    </g>
                </g>
            </g>
        </g>
    </g>
</svg>