<?xml version="1.0" encoding="UTF-8"?>
<svg width="59px" height="55px" viewBox="0 0 59 55" version="1.1" xmlns="http://www.w3.org/2000/svg" xmlns:xlink="http://www.w3.org/1999/xlink">
    <!-- Generator: sketchtool 55.1 (78136) - https://sketchapp.com -->
    <title>4DB2161E-65D8-438D-9FBD-B676A701E213</title>
    <desc>Created with sketchtool.</desc>
    <g id="Page-1" stroke="none" stroke-width="1" fill="none" fill-rule="evenodd">
        <g id="Homepage" transform="translate(-769.000000, -2720.000000)" fill-rule="nonzero" stroke="#292929" stroke-width="0.8">
            <g id="Group-15" transform="translate(0.000000, 2328.000000)">
                <g id="Group-20" transform="translate(770.000000, 393.000000)">
                    <g id="school">
                        <path d="M56.6571125,51.3121019 L54.8004246,51.3121019 L54.8004246,27.7940552 L56.6571125,27.7940552 C56.9650977,27.7940552 57.2486645,27.6262781 57.3969745,27.3562144 C57.545172,27.0861507 57.534482,26.7567856 57.3691805,26.4969618 L51.0676943,16.5946263 C50.9127452,16.3511189 50.6442569,16.2037091 50.3556263,16.2037091 L33.6010998,16.2037091 L29.5944798,12.1972017 L29.5944798,8.8895966 L37.7526539,8.8895966 C38.0639023,8.8895966 38.3499448,8.71833121 38.4967919,8.44387898 C38.6436391,8.16953928 38.6275478,7.83646072 38.4548195,7.57753715 L36.9665435,5.34501062 L38.4549321,3.11248408 C38.6276603,2.85356051 38.6436391,2.52048195 38.4969045,2.24614225 C38.3499448,1.97169002 38.0639023,1.80042463 37.7526539,1.80042463 L29.5944798,1.80042463 L29.5944798,0.843949045 C29.5944798,0.377864119 29.2166157,0 28.7505308,0 C28.2844459,0 27.9065817,0.377864119 27.9065817,0.843949045 L27.9065817,12.1972017 L23.8999618,16.2038217 L7.14543524,16.2038217 C6.8569172,16.2038217 6.58831635,16.3512314 6.4333673,16.5947389 L0.131881104,26.4970743 C-0.0334203822,26.7568981 -0.0441104034,27.0862633 0.104087049,27.356327 C0.252397028,27.6262781 0.535963907,27.7940552 0.843949045,27.7940552 L2.70063694,27.7940552 L2.70063694,51.3121019 L0.843949045,51.3121019 C0.377864119,51.3121019 -2.07934557e-05,51.689966 -2.07934557e-05,52.156051 C-2.07934557e-05,52.6221359 0.377864119,53 0.843949045,53 L56.6571125,53 C57.1231975,53 57.5010824,52.6221359 57.5010824,52.156051 C57.5010824,51.689966 57.1231975,51.3121019 56.6571125,51.3121019 Z M49.8923546,17.8917197 L55.1197749,26.1061571 L43.5034352,26.1061571 L35.2889979,17.8917197 L49.8923546,17.8917197 Z M36.175707,3.48832272 L35.2499512,4.87690021 C35.0609066,5.16035456 35.0609066,5.52966667 35.2499512,5.81312102 L36.175707,7.20169851 L29.5944798,7.20169851 L29.5944798,3.48832272 L36.175707,3.48832272 Z M7.60870701,17.8917197 L22.2119512,17.8917197 L13.9975138,26.1061571 L2.38139915,26.1061571 L7.60870701,17.8917197 Z M4.38853503,27.7940552 L14.3469087,27.7940552 C14.3748153,27.7940552 14.4027219,27.7925924 14.4306285,27.7897792 C14.4425563,27.7886539 14.454259,27.7864034 14.4660743,27.7847155 C14.4814904,27.782465 14.4969066,27.7806645 14.5123227,27.7776263 C14.526051,27.7749257 14.5393291,27.7710998 14.5528323,27.767724 C14.5659979,27.7644607 14.579276,27.7614225 14.5923291,27.7575966 C14.6056072,27.7535456 14.6185478,27.748482 14.6316008,27.7438684 C14.6445414,27.7392548 14.657482,27.7349788 14.67031,27.72969 C14.6825754,27.7246263 14.6942781,27.7186624 14.7062059,27.7130361 C14.7191465,27.7068471 14.7323121,27.7011083 14.7450276,27.6942442 C14.7566178,27.6880552 14.7675329,27.680966 14.7787856,27.674327 C14.7911635,27.6670127 14.8037665,27.6599236 14.8158068,27.6518217 C14.8284098,27.6433822 14.8402251,27.6340425 14.8522654,27.6249278 C14.8621677,27.6175011 14.8724076,27.6106369 14.8819724,27.6026476 C14.9035775,27.5849809 14.9242824,27.5663015 14.9439745,27.5464968 L28.7505308,13.7401656 L42.557087,27.5466093 C42.5767792,27.5663015 42.5975966,27.5849809 42.6190892,27.6027601 C42.6286539,27.6106369 42.6387813,27.6175011 42.6486837,27.6249278 C42.6608365,27.6340425 42.6727643,27.6434947 42.6853673,27.6519342 C42.6972951,27.6599236 42.7097856,27.6669002 42.722051,27.6742144 C42.7334161,27.6810786 42.7444437,27.6881677 42.7561465,27.6943567 C42.7687495,27.7011083 42.78169,27.7068471 42.7946306,27.7129236 C42.8066709,27.7186624 42.8185987,27.7246263 42.8309766,27.7298025 C42.8435796,27.7349788 42.8564076,27.7391423 42.8691231,27.7437558 C42.8822887,27.748482 42.8953418,27.7535456 42.908845,27.7577091 C42.921673,27.7616476 42.9347261,27.7644607 42.9476667,27.767724 C42.9613949,27.7712123 42.9748981,27.7750382 42.9888514,27.7777389 C43.0037049,27.7806645 43.0186709,27.782465 43.0336369,27.784603 C43.0459023,27.7864034 43.0580552,27.7886539 43.0705456,27.7898917 C43.0982272,27.7925924 43.1260212,27.7940552 43.1538153,27.7940552 L53.1125265,27.7940552 L53.1125265,51.3121019 L34.9957537,51.3121019 L34.9957537,39.5530786 C34.9957537,38.0949597 33.8094989,36.9087049 32.35138,36.9087049 L25.1496815,36.9087049 C23.6915626,36.9087049 22.5053079,38.0949597 22.5053079,39.5530786 L22.5053079,51.3121019 L4.38853503,51.3121019 L4.38853503,27.7940552 Z M33.3078556,40.5095541 L24.1932059,40.5095541 L24.1932059,39.5530786 C24.1932059,39.0256667 24.6222696,38.596603 25.1496815,38.596603 L32.35138,38.596603 C32.8787919,38.596603 33.3078556,39.0256667 33.3078556,39.5530786 L33.3078556,40.5095541 Z M24.1932059,42.1974522 L27.9065817,42.1974522 L27.9065817,51.3121019 L24.1932059,51.3121019 L24.1932059,42.1974522 Z M29.5944798,42.1974522 L33.3078556,42.1974522 L33.3078556,51.3121019 L29.5944798,51.3121019 L29.5944798,42.1974522 Z" id="Shape" fill="#F6F6F6"></path>
                        <path d="M28.7505308,34.0955414 C32.1941805,34.0955414 34.9957537,31.2939682 34.9957537,27.8503185 C34.9957537,24.4066688 32.1941805,21.6050955 28.7505308,21.6050955 C25.3068811,21.6050955 22.5053079,24.4066688 22.5053079,27.8503185 C22.5053079,31.2939682 25.3068811,34.0955414 28.7505308,34.0955414 Z M28.7505308,23.2929936 C31.2634735,23.2929936 33.3078556,25.3373758 33.3078556,27.8503185 C33.3078556,30.3632611 31.2634735,32.4076433 28.7505308,32.4076433 C26.2375881,32.4076433 24.1932059,30.3632611 24.1932059,27.8503185 C24.1932059,25.3373758 26.2375881,23.2929936 28.7505308,23.2929936 Z" id="Shape" fill="#ebc03f"></path>
                        <path d="M28.7505308,28.6942675 C29.2166157,28.6942675 29.5944798,28.3164034 29.5944798,27.8503185 L29.5944798,25.1496815 C29.5944798,24.6835966 29.2166157,24.3057325 28.7505308,24.3057325 C28.2844459,24.3057325 27.9065817,24.6835966 27.9065817,25.1496815 L27.9065817,27.0063694 L26.0498938,27.0063694 C25.5838089,27.0063694 25.2059448,27.3842335 25.2059448,27.8503185 C25.2059448,28.3164034 25.5838089,28.6942675 26.0498938,28.6942675 L28.7505308,28.6942675 Z" id="Path" fill="#ebc03f"></path>
                        <path d="M19.7484076,41.4097665 L15.2473461,41.4097665 C14.7812611,41.4097665 14.403397,41.7876306 14.403397,42.2537155 L14.403397,47.6549894 C14.403397,48.1210743 14.7812611,48.4989384 15.2473461,48.4989384 L19.7484076,48.4989384 C20.2144926,48.4989384 20.5923567,48.1210743 20.5923567,47.6549894 L20.5923567,42.2537155 C20.5923567,41.7876306 20.2144926,41.4097665 19.7484076,41.4097665 Z M18.9044586,43.0976645 L18.9044586,44.1104034 L16.0912951,44.1104034 L16.0912951,43.0976645 L18.9044586,43.0976645 Z M16.0912951,46.8110403 L16.0912951,45.7983015 L18.9044586,45.7983015 L18.9044586,46.8110403 L16.0912951,46.8110403 Z" id="Shape" fill="#F6F6F6"></path>
                        <path d="M11.6464968,41.4097665 L7.14543524,41.4097665 C6.67935032,41.4097665 6.3014862,41.7876306 6.3014862,42.2537155 L6.3014862,47.6549894 C6.3014862,48.1210743 6.67935032,48.4989384 7.14543524,48.4989384 L11.6464968,48.4989384 C12.1125817,48.4989384 12.4904459,48.1210743 12.4904459,47.6549894 L12.4904459,42.2537155 C12.4904459,41.7876306 12.1125817,41.4097665 11.6464968,41.4097665 Z M10.8025478,43.0976645 L10.8025478,44.1104034 L7.98938429,44.1104034 L7.98938429,43.0976645 L10.8025478,43.0976645 Z M7.98938429,46.8110403 L7.98938429,45.7983015 L10.8025478,45.7983015 L10.8025478,46.8110403 L7.98938429,46.8110403 Z" id="Shape" fill="#F6F6F6"></path>
                        <path d="M19.4670913,30.6072187 L15.5286624,30.6072187 C14.9081911,30.6072187 14.403397,31.1120127 14.403397,31.7324841 L14.403397,37.7526539 C14.403397,38.2187389 14.7812611,38.596603 15.2473461,38.596603 L19.7484076,38.596603 C20.2144926,38.596603 20.5923567,38.2187389 20.5923567,37.7526539 L20.5923567,31.7324841 C20.5923567,31.1120127 20.0875626,30.6072187 19.4670913,30.6072187 Z M18.9044586,32.2951168 L18.9044586,34.2080679 L16.0912951,34.2080679 L16.0912951,32.2951168 L18.9044586,32.2951168 Z M16.0912951,36.9087049 L16.0912951,35.895966 L18.9044586,35.895966 L18.9044586,36.9087049 L16.0912951,36.9087049 Z" id="Shape" fill="#F6F6F6"></path>
                        <path d="M11.3651805,30.6072187 L7.42675159,30.6072187 C6.80628025,30.6072187 6.3014862,31.1120127 6.3014862,31.7324841 L6.3014862,37.7526539 C6.3014862,38.2187389 6.67935032,38.596603 7.14543524,38.596603 L11.6464968,38.596603 C12.1125817,38.596603 12.4904459,38.2187389 12.4904459,37.7526539 L12.4904459,31.7324841 C12.4904459,31.1120127 11.9856518,30.6072187 11.3651805,30.6072187 Z M10.8025478,32.2951168 L10.8025478,34.2080679 L7.98938429,34.2080679 L7.98938429,32.2951168 L10.8025478,32.2951168 Z M7.98938429,36.9087049 L7.98938429,35.895966 L10.8025478,35.895966 L10.8025478,36.9087049 L7.98938429,36.9087049 Z" id="Shape" fill="#F6F6F6"></path>
                        <path d="M45.8545648,48.4989384 L50.3556263,48.4989384 C50.8217113,48.4989384 51.1995754,48.1210743 51.1995754,47.6549894 L51.1995754,42.2537155 C51.1995754,41.7876306 50.8217113,41.4097665 50.3556263,41.4097665 L45.8545648,41.4097665 C45.3884798,41.4097665 45.0106157,41.7876306 45.0106157,42.2537155 L45.0106157,47.6549894 C45.0106157,48.1210743 45.3884798,48.4989384 45.8545648,48.4989384 Z M46.6985138,46.8110403 L46.6985138,45.7983015 L49.5116773,45.7983015 L49.5116773,46.8110403 L46.6985138,46.8110403 Z M49.5116773,43.0976645 L49.5116773,44.1104034 L46.6985138,44.1104034 L46.6985138,43.0976645 L49.5116773,43.0976645 Z" id="Shape" fill="#F6F6F6"></path>
                        <path d="M37.7526539,48.4989384 L42.2537155,48.4989384 C42.7198004,48.4989384 43.0976645,48.1210743 43.0976645,47.6549894 L43.0976645,42.2537155 C43.0976645,41.7876306 42.7198004,41.4097665 42.2537155,41.4097665 L37.7526539,41.4097665 C37.286569,41.4097665 36.9087049,41.7876306 36.9087049,42.2537155 L36.9087049,47.6549894 C36.9087049,48.1210743 37.286569,48.4989384 37.7526539,48.4989384 Z M38.596603,46.8110403 L38.596603,45.7983015 L41.4097665,45.7983015 L41.4097665,46.8110403 L38.596603,46.8110403 Z M41.4097665,43.0976645 L41.4097665,44.1104034 L38.596603,44.1104034 L38.596603,43.0976645 L41.4097665,43.0976645 Z" id="Shape" fill="#F6F6F6"></path>
                        <path d="M45.8545648,38.596603 L50.3556263,38.596603 C50.8217113,38.596603 51.1995754,38.2187389 51.1995754,37.7526539 L51.1995754,31.7324841 C51.1995754,31.1120127 50.6947813,30.6072187 50.07431,30.6072187 L46.1358811,30.6072187 C45.5154098,30.6072187 45.0106157,31.1120127 45.0106157,31.7324841 L45.0106157,37.7526539 C45.0106157,38.2187389 45.3884798,38.596603 45.8545648,38.596603 Z M46.6985138,36.9087049 L46.6985138,35.895966 L49.5116773,35.895966 L49.5116773,36.9087049 L46.6985138,36.9087049 Z M49.5116773,32.2951168 L49.5116773,34.2080679 L46.6985138,34.2080679 L46.6985138,32.2951168 L49.5116773,32.2951168 Z" id="Shape" fill="#F6F6F6"></path>
                        <path d="M37.7526539,38.596603 L42.2537155,38.596603 C42.7198004,38.596603 43.0976645,38.2187389 43.0976645,37.7526539 L43.0976645,31.7324841 C43.0976645,31.1120127 42.5928705,30.6072187 41.9723992,30.6072187 L38.0339703,30.6072187 C37.4134989,30.6072187 36.9087049,31.1120127 36.9087049,31.7324841 L36.9087049,37.7526539 C36.9087049,38.2187389 37.286569,38.596603 37.7526539,38.596603 Z M38.596603,36.9087049 L38.596603,35.895966 L41.4097665,35.895966 L41.4097665,36.9087049 L38.596603,36.9087049 Z M41.4097665,32.2951168 L41.4097665,34.2080679 L38.596603,34.2080679 L38.596603,32.2951168 L41.4097665,32.2951168 Z" id="Shape" fill="#F6F6F6"></path>
                    </g>
                </g>
            </g>
        </g>
    </g>
</svg>