<?xml version="1.0" encoding="UTF-8"?>
<svg width="38px" height="42px" viewBox="0 0 38 42" version="1.1" xmlns="http://www.w3.org/2000/svg" xmlns:xlink="http://www.w3.org/1999/xlink">
    <!-- Generator: sketchtool 55.1 (78136) - https://sketchapp.com -->
    <title>0B8D3F14-8DF1-45BB-99BF-2E69B7EAB37A</title>
    <desc>Created with sketchtool.</desc>
    <g id="Page-1" stroke="none" stroke-width="1" fill="none" fill-rule="evenodd">
        <g id="Homepage" transform="translate(-715.000000, -1997.000000)">
            <g id="Group-16" transform="translate(0.000000, 1536.000000)">
                <g id="Group-8-Copy-3" transform="translate(714.000000, 462.000000)">
                    <g id="technology" transform="translate(1.000000, 0.000000)">
                        <ellipse id="Oval" stroke="#292929" cx="18.7971014" cy="20" rx="8.69565217" ry="20"></ellipse>
                        <path d="M23.2318841,27.5652174 C13.4927536,33.0434783 3.57971014,34.173913 1.05797101,30 C-1.46376812,25.826087 4.53623188,18 14.2753623,12.4347826 C24.0144928,6.86956522 34.0144928,5.82608696 36.4492754,10 C38.884058,14.173913 33.057971,22 23.2318841,27.5652174 Z" id="Path" stroke="#292929"></path>
                        <path d="M23.2318841,12.4347826 C32.9710145,18 38.9710145,25.826087 36.4492754,30 C33.9275362,34.173913 24.1014493,33.0434783 14.3623188,27.5652174 C4.62318841,22.0869565 -1.37681159,14.173913 1.05797101,10 C3.49275362,5.82608696 13.4927536,6.95652174 23.2318841,12.4347826 Z" id="Path" stroke="#292929"></path>
                        <circle id="Oval" fill="#ebc03f" fill-rule="nonzero" cx="18.7971014" cy="20" r="1.73913043"></circle>
                    </g>
                </g>
            </g>
        </g>
    </g>
</svg>